<svg width="66" height="68" viewBox="0 0 66 68" fill="none" xmlns="http://www.w3.org/2000/svg">
<g id="Web icon">
<g clip-path="url(#clip0_516_10)">
<g id="Group">
<path id="Vector" d="M13.5947 53.0411C13.5947 49.1399 16.7216 45.9766 20.5463 45.9766C24.3711 45.9766 27.4979 49.1399 27.4979 53.0411C27.4979 56.9422 24.3711 60.1056 20.5463 60.1056C16.7216 60.1056 13.5947 56.9422 13.5947 53.0411ZM14.7238 53.0411C14.7238 56.2896 17.3281 58.9443 20.5463 58.9443C23.7646 58.9443 26.3689 56.2896 26.3689 53.0411C26.3689 49.7926 23.7646 47.1379 20.5463 47.1379C17.3281 47.1379 14.7238 49.7926 14.7238 53.0411Z" fill="#00FFC1" stroke="#707070"/>
<path id="Vector_2" d="M17.853 53.0413C17.853 51.5228 19.069 50.2993 20.5466 50.2993C22.0241 50.2993 23.2401 51.5228 23.2401 53.0413C23.2401 54.5597 22.0241 55.7832 20.5466 55.7832C19.069 55.7832 17.853 54.5597 17.853 53.0413ZM18.9821 53.0413C18.9821 53.9066 19.676 54.6219 20.5466 54.6219C21.4172 54.6219 22.1111 53.9066 22.1111 53.0413C22.1111 52.1759 21.4172 51.4606 20.5466 51.4606C19.676 51.4606 18.9821 52.1759 18.9821 53.0413Z" fill="#00FFC1" stroke="#707070"/>
<g id="Vector_3">
<mask id="path-4-inside-1_516_10" fill="white">
<path d="M64.6332 50.5687L56.9336 47.638H55.6751V38.6146C58.152 37.7221 59.9332 35.3264 59.9332 32.5089V30.8556C59.9332 29.5512 60.5325 28.3117 61.577 27.4535C64.5914 24.9767 66.3203 21.3059 66.3203 17.3799C66.3203 13.6951 64.7672 10.171 62.0589 7.71253C60.2545 6.07328 58.0332 5.02302 55.6751 4.61534V3.33153C55.6751 1.54409 54.2424 0.0895996 52.4816 0.0895996H3.51386C1.75309 0.0895996 0.320312 1.54409 0.320312 3.33153V50.8799C0.320312 52.6674 1.75309 54.1218 3.51386 54.1218H6.75206C6.94785 55.3298 7.78568 56.3449 8.95992 56.7361C9.2826 56.8442 9.53257 57.0777 9.64854 57.3811C9.70366 57.5239 9.75926 57.6643 9.8201 57.8038C9.94555 58.0976 9.93083 58.4425 9.77971 58.7474C9.14005 60.0312 9.38384 61.5763 10.3856 62.5957L11.136 63.3585C12.1378 64.3745 13.66 64.6219 14.9255 63.9721C15.2258 63.8187 15.5661 63.8037 15.8569 63.9321C15.9933 63.9924 16.1316 64.0488 16.2732 64.1048C16.5702 64.2225 16.8012 64.4777 16.9076 64.8038C17.3482 66.171 18.5981 67.0896 20.0157 67.0896H21.0759C22.4939 67.0896 23.7434 66.1701 24.1854 64.8038C24.2918 64.4763 24.5218 64.2225 24.8208 64.1048C24.9614 64.0488 25.0997 63.9924 25.2371 63.9306C25.5279 63.8042 25.8653 63.8182 26.1666 63.9716C27.4312 64.62 28.9548 64.3725 29.9575 63.3565L30.7088 62.5947C31.7097 61.5768 31.9534 60.0301 31.3133 58.7479C31.2653 58.6505 31.2549 58.5467 31.2344 58.4454H56.9337L64.6334 55.5137C65.6418 55.1278 66.3199 54.1349 66.3199 53.0412C66.3199 51.9475 65.6418 50.9546 64.6329 50.5687L64.6332 50.5687ZM34.3402 51.9605C34.1976 51.082 33.7143 50.3082 33.0095 49.7993H55.6745V51.9605H34.3402ZM34.3402 54.1218H55.6755V56.2831H33.0104C33.7162 55.7742 34.1995 55.0003 34.3411 54.1218H34.3402ZM53.5465 36.8315C51.1983 36.8315 49.2884 34.8927 49.2884 32.5089H57.8045C57.8045 34.8927 55.8946 36.8315 53.5465 36.8315ZM52.8384 20.6219H54.2541L53.6145 30.3477H53.4771L52.8384 20.6219ZM64.1916 17.3799C64.1916 20.6499 62.7502 23.7094 60.2382 25.7733C58.8263 26.933 57.9727 28.5786 57.833 30.3477H55.7486L56.3873 20.6219H57.8044C59.5651 20.6219 60.9979 19.1674 60.9979 17.3799C60.9979 15.5925 59.5651 14.138 57.8044 14.138H57.667C55.9914 14.138 54.5904 15.4671 54.481 17.1648L54.396 18.4606H52.697L52.6119 17.1658C52.5021 15.4671 51.1012 14.138 49.4256 14.138H49.2882C47.5274 14.138 46.0947 15.5925 46.0947 17.3799C46.0947 19.1674 47.5274 20.6219 49.2882 20.6219H50.7049L51.3436 30.3477H49.2583C49.1148 28.5863 48.2451 26.9273 46.8089 25.7342C43.8582 23.2834 42.4454 19.5143 43.0332 15.6529C43.7466 10.9608 47.6501 7.17171 52.3169 6.64349C52.7332 6.59622 53.149 6.57354 53.5611 6.57354C56.1863 6.57354 58.6633 7.52779 60.6402 9.32295C62.8971 11.3719 64.1916 14.3088 64.1916 17.3799ZM56.5304 18.4606L56.6059 17.3076C56.642 16.7421 57.1092 16.2993 57.6671 16.2993H57.8045C58.3918 16.2993 58.869 16.7836 58.869 17.3799C58.869 17.9762 58.3918 18.4606 57.8045 18.4606H56.5304ZM50.5624 18.4606H49.2882C48.7009 18.4606 48.2237 17.9762 48.2237 17.3799C48.2237 16.7836 48.7009 16.2993 49.2882 16.2993H49.4256C49.9835 16.2993 50.4507 16.7421 50.4868 17.3085L50.5624 18.4606ZM27.9983 17.3799H24.8047C23.7146 17.3799 22.7513 17.9395 22.1753 18.7881C21.2771 17.9212 20.0695 17.3799 18.736 17.3799H18.4452C17.5385 17.3799 16.6483 17.6293 15.8699 18.104L10.966 21.0908V23.3028L15.6085 27.072C16.4919 27.7909 17.6031 28.1865 18.736 28.1865C20.07 28.1865 21.277 27.6452 22.1753 26.7783C22.7512 27.6269 23.7145 28.1865 24.8047 28.1865H27.9982V30.3477H6.70791V15.2187H27.9982L27.9983 17.3799ZM18.736 26.0251C18.0854 26.0251 17.4467 25.7983 16.9391 25.3844L13.1301 22.2925L16.9643 19.9571C17.4125 19.685 17.9238 19.5412 18.4442 19.5412H18.735C20.3208 19.5412 21.6112 20.851 21.6112 22.46V23.1064C21.6112 24.7153 20.321 26.0251 18.736 26.0251ZM24.8047 26.0251C24.2174 26.0251 23.7402 25.5407 23.7402 24.9444V20.6219C23.7402 20.0256 24.2174 19.5412 24.8047 19.5412H40.9757C41.3729 21.95 42.4189 24.189 44.0508 26.0251H24.8047ZM3.51443 2.25089H52.4822C53.0695 2.25089 53.5467 2.73525 53.5467 3.33153V4.4199C53.0591 4.41893 52.5696 4.44064 52.0796 4.49564C48.9501 4.84974 46.1069 6.4287 44.0563 8.73473H27.9985V4.41215H21.6114V8.73473H19.4824V4.41215H13.0953V8.73473H10.9663V4.41215H4.57919V8.73473H2.45016V3.33151C2.45016 2.73523 2.92729 2.25086 3.51467 2.25086L3.51443 2.25089ZM25.8693 8.73476H23.7402V6.57347H25.8693V8.73476ZM17.3531 8.73476H15.2241V6.57347H17.3531V8.73476ZM8.83701 8.73476H6.70798V6.57347H8.83701V8.73476ZM2.44992 50.8799V10.896H42.5037C41.7224 12.2469 41.1712 13.7391 40.9302 15.3247C40.8246 16.0151 40.7909 16.7007 40.7909 17.3799H30.1277V13.0573H4.57937V32.5089H30.1277V28.1864H46.2111C46.8198 28.9708 47.1606 29.9033 47.1606 30.8619V32.5089C47.1606 36.0847 50.0253 38.9928 53.5477 38.9928V47.638H31.2354C31.2559 47.5362 31.2663 47.4324 31.3143 47.3365C31.954 46.0526 31.7102 44.5075 30.7084 43.4881L29.958 42.7264C28.9572 41.7084 27.4331 41.4585 26.1686 42.1113C25.8696 42.2656 25.5289 42.2811 25.2371 42.1513C25.1007 42.091 24.9624 42.0346 24.8208 41.9786C24.5238 41.8609 24.2928 41.6057 24.1864 41.2795C23.7454 39.9114 22.4956 38.9928 21.0779 38.9928H20.0176C18.5996 38.9928 17.3501 39.9123 16.9082 41.2786C16.8017 41.6061 16.5717 41.8599 16.2728 41.9776C16.1321 42.0336 15.9938 42.09 15.8565 42.1518C15.5656 42.2782 15.2282 42.2642 14.9269 42.1108C13.6623 41.4624 12.1387 41.7099 11.136 42.7259L10.3847 43.4876C9.38385 44.5056 9.14012 46.0523 9.78019 47.3345C9.93226 47.6403 9.94605 47.9848 9.81963 48.28C9.76023 48.4185 9.70463 48.5589 9.6495 48.7026C9.53355 49.0042 9.28216 49.2386 8.96089 49.3467C7.78613 49.7375 6.94829 50.7525 6.75339 51.9605H3.51519C2.92781 51.9605 2.45068 51.4761 2.45068 50.8798L2.44992 50.8799ZM29.4606 56.5952C29.416 56.712 29.368 56.8277 29.32 56.9411C28.9412 57.8264 28.975 58.84 29.4126 59.7204C29.636 60.1691 29.5509 60.7094 29.2016 61.065L28.4512 61.8258C28.101 62.1813 27.5697 62.2677 27.1258 62.041C26.2604 61.5966 25.261 61.5624 24.3899 61.9459C24.2773 61.9956 24.1632 62.0443 24.0492 62.0897C23.1562 62.4419 22.4695 63.1867 22.1639 64.1299C22.009 64.6075 21.5723 64.9284 21.0766 64.9284H20.0164C19.5202 64.9284 19.084 64.6075 18.9295 64.1285C18.624 63.1863 17.9363 62.4429 17.0443 62.0902C16.9293 62.0448 16.8152 61.9961 16.7036 61.9474C16.301 61.7704 15.8724 61.6816 15.4409 61.6816C14.9371 61.6816 14.4329 61.8017 13.9643 62.0415C13.5223 62.2682 12.9901 62.1819 12.6398 61.8273L11.8903 61.0655C11.5401 60.71 11.455 60.1697 11.6784 59.72C12.1161 58.8405 12.1498 57.8269 11.772 56.9427C11.7231 56.8283 11.6751 56.7125 11.6304 56.5967C11.2835 55.6903 10.5497 54.9932 9.62057 54.683C9.15247 54.5262 8.83644 54.0828 8.83644 53.5796V52.5033C8.83644 51.9997 9.15248 51.5568 9.62438 51.4C10.5525 51.0898 11.2848 50.3917 11.6322 49.4862C11.6769 49.3695 11.7249 49.2537 11.7729 49.1403C12.1517 48.2551 12.1179 47.2415 11.6802 46.361C11.4569 45.9124 11.5419 45.372 11.8912 45.0165L12.6416 44.2547C12.9919 43.9001 13.5241 43.8147 13.9671 44.0405C14.8334 44.4848 15.8343 44.5205 16.703 44.1355C16.8156 44.0858 16.9297 44.0371 17.0437 43.9918C17.9367 43.6396 18.6233 42.8947 18.9289 41.9515C19.0834 41.4749 19.5201 41.1541 20.0158 41.1541H21.076C21.5722 41.1541 22.0084 41.4749 22.1629 41.9539C22.4684 42.8961 23.1561 43.6395 24.0481 43.9922C24.1631 44.0376 24.2772 44.0863 24.3888 44.135C25.2618 44.5195 26.2594 44.4852 27.1267 44.0409C27.5705 43.8127 28.1018 43.9015 28.4512 44.2551L29.2006 45.0169C29.5508 45.3724 29.6359 45.9128 29.4126 46.3624C28.9749 47.2419 28.9411 48.2555 29.3189 49.1398C29.3679 49.2541 29.4159 49.3699 29.4606 49.4857C29.8075 50.3922 30.5412 51.0892 31.4704 51.3995C31.9399 51.5563 32.2559 51.9996 32.2559 52.5028V53.5791C32.2559 54.0827 31.9399 54.5256 31.468 54.6824C30.5399 54.9926 29.8076 55.6897 29.4606 56.5952ZM63.8852 53.4898L57.8047 55.8044V50.2782L63.8852 52.5919C64.0682 52.6618 64.1918 52.8423 64.1918 53.041C64.1918 53.2398 64.0682 53.4203 63.8852 53.4898Z"/>
</mask>
<path d="M64.6332 50.5687L56.9336 47.638H55.6751V38.6146C58.152 37.7221 59.9332 35.3264 59.9332 32.5089V30.8556C59.9332 29.5512 60.5325 28.3117 61.577 27.4535C64.5914 24.9767 66.3203 21.3059 66.3203 17.3799C66.3203 13.6951 64.7672 10.171 62.0589 7.71253C60.2545 6.07328 58.0332 5.02302 55.6751 4.61534V3.33153C55.6751 1.54409 54.2424 0.0895996 52.4816 0.0895996H3.51386C1.75309 0.0895996 0.320312 1.54409 0.320312 3.33153V50.8799C0.320312 52.6674 1.75309 54.1218 3.51386 54.1218H6.75206C6.94785 55.3298 7.78568 56.3449 8.95992 56.7361C9.2826 56.8442 9.53257 57.0777 9.64854 57.3811C9.70366 57.5239 9.75926 57.6643 9.8201 57.8038C9.94555 58.0976 9.93083 58.4425 9.77971 58.7474C9.14005 60.0312 9.38384 61.5763 10.3856 62.5957L11.136 63.3585C12.1378 64.3745 13.66 64.6219 14.9255 63.9721C15.2258 63.8187 15.5661 63.8037 15.8569 63.9321C15.9933 63.9924 16.1316 64.0488 16.2732 64.1048C16.5702 64.2225 16.8012 64.4777 16.9076 64.8038C17.3482 66.171 18.5981 67.0896 20.0157 67.0896H21.0759C22.4939 67.0896 23.7434 66.1701 24.1854 64.8038C24.2918 64.4763 24.5218 64.2225 24.8208 64.1048C24.9614 64.0488 25.0997 63.9924 25.2371 63.9306C25.5279 63.8042 25.8653 63.8182 26.1666 63.9716C27.4312 64.62 28.9548 64.3725 29.9575 63.3565L30.7088 62.5947C31.7097 61.5768 31.9534 60.0301 31.3133 58.7479C31.2653 58.6505 31.2549 58.5467 31.2344 58.4454H56.9337L64.6334 55.5137C65.6418 55.1278 66.3199 54.1349 66.3199 53.0412C66.3199 51.9475 65.6418 50.9546 64.6329 50.5687L64.6332 50.5687ZM34.3402 51.9605C34.1976 51.082 33.7143 50.3082 33.0095 49.7993H55.6745V51.9605H34.3402ZM34.3402 54.1218H55.6755V56.2831H33.0104C33.7162 55.7742 34.1995 55.0003 34.3411 54.1218H34.3402ZM53.5465 36.8315C51.1983 36.8315 49.2884 34.8927 49.2884 32.5089H57.8045C57.8045 34.8927 55.8946 36.8315 53.5465 36.8315ZM52.8384 20.6219H54.2541L53.6145 30.3477H53.4771L52.8384 20.6219ZM64.1916 17.3799C64.1916 20.6499 62.7502 23.7094 60.2382 25.7733C58.8263 26.933 57.9727 28.5786 57.833 30.3477H55.7486L56.3873 20.6219H57.8044C59.5651 20.6219 60.9979 19.1674 60.9979 17.3799C60.9979 15.5925 59.5651 14.138 57.8044 14.138H57.667C55.9914 14.138 54.5904 15.4671 54.481 17.1648L54.396 18.4606H52.697L52.6119 17.1658C52.5021 15.4671 51.1012 14.138 49.4256 14.138H49.2882C47.5274 14.138 46.0947 15.5925 46.0947 17.3799C46.0947 19.1674 47.5274 20.6219 49.2882 20.6219H50.7049L51.3436 30.3477H49.2583C49.1148 28.5863 48.2451 26.9273 46.8089 25.7342C43.8582 23.2834 42.4454 19.5143 43.0332 15.6529C43.7466 10.9608 47.6501 7.17171 52.3169 6.64349C52.7332 6.59622 53.149 6.57354 53.5611 6.57354C56.1863 6.57354 58.6633 7.52779 60.6402 9.32295C62.8971 11.3719 64.1916 14.3088 64.1916 17.3799ZM56.5304 18.4606L56.6059 17.3076C56.642 16.7421 57.1092 16.2993 57.6671 16.2993H57.8045C58.3918 16.2993 58.869 16.7836 58.869 17.3799C58.869 17.9762 58.3918 18.4606 57.8045 18.4606H56.5304ZM50.5624 18.4606H49.2882C48.7009 18.4606 48.2237 17.9762 48.2237 17.3799C48.2237 16.7836 48.7009 16.2993 49.2882 16.2993H49.4256C49.9835 16.2993 50.4507 16.7421 50.4868 17.3085L50.5624 18.4606ZM27.9983 17.3799H24.8047C23.7146 17.3799 22.7513 17.9395 22.1753 18.7881C21.2771 17.9212 20.0695 17.3799 18.736 17.3799H18.4452C17.5385 17.3799 16.6483 17.6293 15.8699 18.104L10.966 21.0908V23.3028L15.6085 27.072C16.4919 27.7909 17.6031 28.1865 18.736 28.1865C20.07 28.1865 21.277 27.6452 22.1753 26.7783C22.7512 27.6269 23.7145 28.1865 24.8047 28.1865H27.9982V30.3477H6.70791V15.2187H27.9982L27.9983 17.3799ZM18.736 26.0251C18.0854 26.0251 17.4467 25.7983 16.9391 25.3844L13.1301 22.2925L16.9643 19.9571C17.4125 19.685 17.9238 19.5412 18.4442 19.5412H18.735C20.3208 19.5412 21.6112 20.851 21.6112 22.46V23.1064C21.6112 24.7153 20.321 26.0251 18.736 26.0251ZM24.8047 26.0251C24.2174 26.0251 23.7402 25.5407 23.7402 24.9444V20.6219C23.7402 20.0256 24.2174 19.5412 24.8047 19.5412H40.9757C41.3729 21.95 42.4189 24.189 44.0508 26.0251H24.8047ZM3.51443 2.25089H52.4822C53.0695 2.25089 53.5467 2.73525 53.5467 3.33153V4.4199C53.0591 4.41893 52.5696 4.44064 52.0796 4.49564C48.9501 4.84974 46.1069 6.4287 44.0563 8.73473H27.9985V4.41215H21.6114V8.73473H19.4824V4.41215H13.0953V8.73473H10.9663V4.41215H4.57919V8.73473H2.45016V3.33151C2.45016 2.73523 2.92729 2.25086 3.51467 2.25086L3.51443 2.25089ZM25.8693 8.73476H23.7402V6.57347H25.8693V8.73476ZM17.3531 8.73476H15.2241V6.57347H17.3531V8.73476ZM8.83701 8.73476H6.70798V6.57347H8.83701V8.73476ZM2.44992 50.8799V10.896H42.5037C41.7224 12.2469 41.1712 13.7391 40.9302 15.3247C40.8246 16.0151 40.7909 16.7007 40.7909 17.3799H30.1277V13.0573H4.57937V32.5089H30.1277V28.1864H46.2111C46.8198 28.9708 47.1606 29.9033 47.1606 30.8619V32.5089C47.1606 36.0847 50.0253 38.9928 53.5477 38.9928V47.638H31.2354C31.2559 47.5362 31.2663 47.4324 31.3143 47.3365C31.954 46.0526 31.7102 44.5075 30.7084 43.4881L29.958 42.7264C28.9572 41.7084 27.4331 41.4585 26.1686 42.1113C25.8696 42.2656 25.5289 42.2811 25.2371 42.1513C25.1007 42.091 24.9624 42.0346 24.8208 41.9786C24.5238 41.8609 24.2928 41.6057 24.1864 41.2795C23.7454 39.9114 22.4956 38.9928 21.0779 38.9928H20.0176C18.5996 38.9928 17.3501 39.9123 16.9082 41.2786C16.8017 41.6061 16.5717 41.8599 16.2728 41.9776C16.1321 42.0336 15.9938 42.09 15.8565 42.1518C15.5656 42.2782 15.2282 42.2642 14.9269 42.1108C13.6623 41.4624 12.1387 41.7099 11.136 42.7259L10.3847 43.4876C9.38385 44.5056 9.14012 46.0523 9.78019 47.3345C9.93226 47.6403 9.94605 47.9848 9.81963 48.28C9.76023 48.4185 9.70463 48.5589 9.6495 48.7026C9.53355 49.0042 9.28216 49.2386 8.96089 49.3467C7.78613 49.7375 6.94829 50.7525 6.75339 51.9605H3.51519C2.92781 51.9605 2.45068 51.4761 2.45068 50.8798L2.44992 50.8799ZM29.4606 56.5952C29.416 56.712 29.368 56.8277 29.32 56.9411C28.9412 57.8264 28.975 58.84 29.4126 59.7204C29.636 60.1691 29.5509 60.7094 29.2016 61.065L28.4512 61.8258C28.101 62.1813 27.5697 62.2677 27.1258 62.041C26.2604 61.5966 25.261 61.5624 24.3899 61.9459C24.2773 61.9956 24.1632 62.0443 24.0492 62.0897C23.1562 62.4419 22.4695 63.1867 22.1639 64.1299C22.009 64.6075 21.5723 64.9284 21.0766 64.9284H20.0164C19.5202 64.9284 19.084 64.6075 18.9295 64.1285C18.624 63.1863 17.9363 62.4429 17.0443 62.0902C16.9293 62.0448 16.8152 61.9961 16.7036 61.9474C16.301 61.7704 15.8724 61.6816 15.4409 61.6816C14.9371 61.6816 14.4329 61.8017 13.9643 62.0415C13.5223 62.2682 12.9901 62.1819 12.6398 61.8273L11.8903 61.0655C11.5401 60.71 11.455 60.1697 11.6784 59.72C12.1161 58.8405 12.1498 57.8269 11.772 56.9427C11.7231 56.8283 11.6751 56.7125 11.6304 56.5967C11.2835 55.6903 10.5497 54.9932 9.62057 54.683C9.15247 54.5262 8.83644 54.0828 8.83644 53.5796V52.5033C8.83644 51.9997 9.15248 51.5568 9.62438 51.4C10.5525 51.0898 11.2848 50.3917 11.6322 49.4862C11.6769 49.3695 11.7249 49.2537 11.7729 49.1403C12.1517 48.2551 12.1179 47.2415 11.6802 46.361C11.4569 45.9124 11.5419 45.372 11.8912 45.0165L12.6416 44.2547C12.9919 43.9001 13.5241 43.8147 13.9671 44.0405C14.8334 44.4848 15.8343 44.5205 16.703 44.1355C16.8156 44.0858 16.9297 44.0371 17.0437 43.9918C17.9367 43.6396 18.6233 42.8947 18.9289 41.9515C19.0834 41.4749 19.5201 41.1541 20.0158 41.1541H21.076C21.5722 41.1541 22.0084 41.4749 22.1629 41.9539C22.4684 42.8961 23.1561 43.6395 24.0481 43.9922C24.1631 44.0376 24.2772 44.0863 24.3888 44.135C25.2618 44.5195 26.2594 44.4852 27.1267 44.0409C27.5705 43.8127 28.1018 43.9015 28.4512 44.2551L29.2006 45.0169C29.5508 45.3724 29.6359 45.9128 29.4126 46.3624C28.9749 47.2419 28.9411 48.2555 29.3189 49.1398C29.3679 49.2541 29.4159 49.3699 29.4606 49.4857C29.8075 50.3922 30.5412 51.0892 31.4704 51.3995C31.9399 51.5563 32.2559 51.9996 32.2559 52.5028V53.5791C32.2559 54.0827 31.9399 54.5256 31.468 54.6824C30.5399 54.9926 29.8076 55.6897 29.4606 56.5952ZM63.8852 53.4898L57.8047 55.8044V50.2782L63.8852 52.5919C64.0682 52.6618 64.1918 52.8423 64.1918 53.041C64.1918 53.2398 64.0682 53.4203 63.8852 53.4898Z" fill="white" stroke="#707070" stroke-width="2" mask="url(#path-4-inside-1_516_10)"/>
</g>
<path id="Vector_4" d="M32.7563 30.8477H44.5305V32.0089H32.7563V30.8477Z" fill="#00FFC1" stroke="#707070"/>
<path id="Vector_5" d="M32.7563 35.1702H44.5305V36.3315H32.7563V35.1702Z" fill="#00FFC1" stroke="#707070"/>
<path id="Vector_6" d="M32.7563 39.4929H44.5305V40.6542H32.7563V39.4929Z" fill="#00FFC1" stroke="#707070"/>
<path id="Vector_7" d="M39.1431 43.8154H40.2721V44.9767H39.1431V43.8154Z" fill="#00FFC1" stroke="#707070"/>
<path id="Vector_8" d="M43.4014 43.8154H44.5304V44.9767H43.4014V43.8154Z" fill="#00FFC1" stroke="#707070"/>
<path id="Vector_9" d="M34.8853 43.8154H36.0143V44.9767H34.8853V43.8154Z" fill="#00FFC1" stroke="#707070"/>
</g>
</g>
<rect y="0.0895996" width="66" height="67" stroke="white"/>
</g>
<defs>
<clipPath id="clip0_516_10">
<rect y="0.0895996" width="66" height="67" fill="white"/>
</clipPath>
</defs>
</svg>
