<svg width="438" height="80" viewBox="0 0 438 80" fill="none" xmlns="http://www.w3.org/2000/svg">
<path fill-rule="evenodd" clip-rule="evenodd" d="M196.042 61.6559H211.147C238.453 61.6559 245.988 55.7662 245.988 31.1099C245.988 6.4537 238.453 0.564487 211.147 0.564487H196.042V61.6559ZM209.43 48.3852V13.8336H211.146C228.493 13.8336 232.464 15.4814 232.464 31.0322C232.464 46.7374 228.491 48.3852 211.146 48.3852H209.43ZM249.276 61.6559H261.808V17.6812H249.276V61.6559ZM249.276 12.0288H261.808V0.564487H249.276V12.0288ZM290.17 78.1454C309.099 78.1454 314.244 73.7479 314.244 57.5725V17.6827H301.711V23.9648H301.58C298.809 18.9391 296.039 16.9762 286.014 16.9762C271.042 16.9762 266.292 22.3943 266.292 38.5702C266.292 54.7461 271.041 60.0859 286.014 60.0859C295.775 60.0859 299.205 58.2012 301.58 53.1756H301.711V57.573C301.711 66.5245 300.59 67.938 290.169 67.938C280.869 67.938 280.21 66.3675 280.21 63.2264V63.0694H267.612V63.8546C267.612 73.4338 270.515 78.1454 290.169 78.1454H290.17ZM278.893 38.5697C278.893 30.0111 280.343 28.7547 289.973 28.7547C299.998 28.7547 301.713 30.3252 301.713 38.0202V39.0408C301.713 46.8162 299.998 48.3852 289.973 48.3852C280.341 48.3852 278.891 47.1288 278.891 38.5697H278.893ZM318.126 61.6559H330.658V17.6812H318.124V61.6559H318.126ZM318.126 12.0288H330.658V0.564487H318.124V12.0288H318.126ZM354.876 61.6559H371.957V50.2698H359.096C356.128 50.2698 355.402 49.6416 355.402 46.2652V28.8329H371.759V17.6827H355.402V6.84659H342.87V17.6827H335.286V28.8329H342.87V48.2281C342.87 58.5931 346.3 61.6559 354.874 61.6559H354.876ZM394.002 62.3624C402.576 62.3624 407.193 60.8691 409.172 56.8655H409.367V61.6543H421.634V34.3298C421.634 21.2161 418.139 16.9767 399.209 16.9767C381.401 16.9767 376.85 20.9031 376.85 30.8751V32.0528H389.448V31.5028C389.448 28.3618 390.635 27.1841 399.407 27.1841C408.113 27.1841 409.367 28.5188 409.367 33.5445V34.7221H395.121C380.676 34.7221 375.598 37.5491 375.598 48.4635C375.598 58.3578 380.413 62.3624 394 62.3624H394.002ZM387.866 47.5211C387.866 44.3018 389.251 43.5166 396.242 43.5166H409.499V45.3229C409.499 50.5839 407.917 51.7595 396.242 51.7595C389.515 51.7616 387.866 50.8991 387.866 47.5211ZM425.187 61.6559H437.718V0.564487H425.187V61.6559ZM0.00205857 61.1409H13.1934V14.5767H13.3253L29.0305 61.1409H48.1575V0.0495605H35.033V46.2997H34.9012L19.4591 0.0495605H0V61.1409H0.00205857ZM75.6782 61.8474C92.4314 61.8474 98.6954 58.3923 98.6954 47.9485V46.7709H86.0993V46.928C86.0993 50.069 85.3743 51.6395 75.7446 51.6395C64.9935 51.6395 64.2021 49.9918 64.2021 43.944V42.9234H98.697V37.8982C98.697 21.8006 93.816 16.4613 75.3487 16.4613C56.0904 16.4613 51.6703 21.8011 51.6703 39.1541C51.6703 56.5071 56.0894 61.8474 75.6782 61.8474ZM64.2021 33.9719C64.2021 28.318 65.6531 26.6692 75.2169 26.6692C84.7141 26.6692 86.1652 28.317 86.1652 33.9719H64.2021ZM175.558 61.1409H192.64V49.7549H179.779C176.811 49.7549 176.086 49.1267 176.086 45.7503V28.318H192.442V17.1678H176.086V6.33166H163.554V17.1678H155.971V28.318H163.556V47.7132C163.554 58.0782 166.983 61.1409 175.558 61.1409Z" fill="white"/>
<g style="mix-blend-mode:multiply">
<path fill-rule="evenodd" clip-rule="evenodd" d="M163.489 17.25V28.3209C161.172 28.3209 156.022 28.3209 156.022 28.3209C156.022 28.3209 156.022 18.7948 156.023 17.25C158.855 17.25 163.489 17.25 163.489 17.25Z" fill="#B5B5B5"/>
</g>
<g style="mix-blend-mode:multiply">
<path fill-rule="evenodd" clip-rule="evenodd" d="M64.9842 32.1556C64.9842 32.1556 63.4672 36.3945 63.9543 42.9691C64.4415 49.5436 67.5588 48.1183 67.5588 48.1183L68.5887 47.6034V31.6407L64.9842 32.1556Z" fill="#BFBFBF"/>
</g>
<path fill-rule="evenodd" clip-rule="evenodd" d="M151.964 15.5179V29.6165L136.523 45.0571L142.565 41.4768L152.075 50.6518L151.964 64.974L127.235 40.2462L151.964 15.5179Z" fill="white"/>
<path fill-rule="evenodd" clip-rule="evenodd" d="M101.598 0V22.8056L126.576 47.7831L116.802 41.9907L101.417 56.8324L101.598 80L141.599 39.9995L101.598 0Z" fill="#23FFC6"/>
</svg>
