<svg width="74" height="71" viewBox="0 0 74 71" fill="none" xmlns="http://www.w3.org/2000/svg">
<g id="Frame 1000001835">
<path id="Vector" d="M26.5687 46.8074H18.4047C18.1545 46.8074 17.9512 46.6054 17.9512 46.3567V40.9487C17.9512 40.7 18.1545 40.498 18.4047 40.498C18.655 40.498 18.8583 40.7 18.8583 40.9487V45.9061H26.5687C26.8189 45.9061 27.0222 46.108 27.0222 46.3567C27.0222 46.6054 26.8189 46.8074 26.5687 46.8074Z" fill="url(#paint0_linear_516_39)"/>
<path id="Vector_2" d="M61.9445 46.8072H38.3598C38.1095 46.8072 37.9062 46.6052 37.9062 46.3566C37.9062 46.1079 38.1095 45.9059 38.3598 45.9059H61.4904V23.3725H39.2659C39.0156 23.3725 38.8123 23.1705 38.8123 22.9219C38.8123 22.6732 39.0156 22.4712 39.2659 22.4712H61.9435C62.1937 22.4712 62.397 22.6732 62.397 22.9219V46.3566C62.397 46.6052 62.1937 46.8072 61.9435 46.8072H61.9445Z" fill="white"/>
<path id="Vector_3" d="M32.9171 61.2284C32.8855 61.2284 32.8519 61.2248 32.8191 61.2176C32.5741 61.1636 32.4211 60.923 32.4745 60.6796L34.2887 52.5676C34.343 52.3249 34.5827 52.1736 34.8301 52.2251C35.0751 52.2791 35.2282 52.5197 35.1748 52.7631L33.3606 60.8751C33.3136 61.0852 33.1249 61.2284 32.9171 61.2284Z" fill="white"/>
<path id="Vector_4" d="M47.4308 61.2284C47.223 61.2284 47.0343 61.0852 46.9882 60.8751L45.174 52.7631C45.1197 52.5197 45.2736 52.279 45.5186 52.2251C45.7664 52.1736 46.0057 52.3253 46.06 52.5675L47.8742 60.6796C47.9285 60.923 47.7746 61.1636 47.5296 61.2175C47.496 61.2248 47.4624 61.2284 47.4308 61.2284Z" fill="white"/>
<path id="Vector_5" d="M52.8734 53.1167H18.1536C16.5406 53.1167 15.229 51.7953 15.229 50.1701V40.9487C15.229 40.7 15.4323 40.498 15.6826 40.498C15.9328 40.498 16.1361 40.7 16.1361 40.9487V50.1701C16.1361 51.298 17.0404 52.2154 18.1536 52.2154H52.8734C53.1236 52.2154 53.3269 52.4174 53.3269 52.6661C53.3269 52.9147 53.1236 53.1167 52.8734 53.1167Z" fill="white"/>
<path id="Vector_6" d="M62.1954 53.1167H60.131C59.8807 53.1167 59.6774 52.9147 59.6774 52.6661C59.6774 52.4174 59.8807 52.2154 60.131 52.2154H62.1954C63.3086 52.2154 64.2129 51.298 64.2129 50.1701V22.7139C64.2129 21.5861 63.3087 20.6687 62.1954 20.6687H39.268C39.0177 20.6687 38.8145 20.4667 38.8145 20.218C38.8145 19.9693 39.0177 19.7673 39.268 19.7673H62.1954C63.8084 19.7673 65.12 21.0887 65.12 22.7139V50.1701C65.12 51.7949 63.8084 53.1164 62.1954 53.1164V53.1167Z" fill="white"/>
<path id="Vector_7" d="M57.863 63.0313H55.1417C53.6413 63.0313 52.4204 61.8181 52.4204 60.3272V52.2152C52.4204 50.7244 53.6413 49.5112 55.1417 49.5112H57.863C59.3634 49.5112 60.5843 50.7244 60.5843 52.2152V60.3272C60.5843 61.8181 59.3634 63.0313 57.863 63.0313ZM55.1417 50.4126C54.1411 50.4126 53.3275 51.221 53.3275 52.2152V60.3272C53.3275 61.3215 54.1411 62.1299 55.1417 62.1299H57.863C58.8637 62.1299 59.6772 61.3215 59.6772 60.3272V52.2152C59.6772 51.221 58.8637 50.4126 57.863 50.4126H55.1417Z" fill="white"/>
<path id="Vector_8" d="M56.5019 54.9191C56.2516 54.9191 56.0483 54.7171 56.0483 54.4684V52.6658C56.0483 52.4171 56.2516 52.2151 56.5019 52.2151C56.7522 52.2151 56.9554 52.4171 56.9554 52.6658V54.4684C56.9554 54.7171 56.7522 54.9191 56.5019 54.9191Z" fill="white"/>
<path id="Vector_9" d="M49.2449 63.0314H31.1028C30.3529 63.0314 29.7422 62.4246 29.7422 61.6794C29.7422 60.9342 30.3529 60.3274 31.1028 60.3274H49.2449C49.9949 60.3274 50.6056 60.9342 50.6056 61.6794C50.6056 62.4246 49.9949 63.0314 49.2449 63.0314ZM31.1028 61.2287C30.8534 61.2287 30.6493 61.4307 30.6493 61.6794C30.6493 61.9281 30.8534 62.1301 31.1028 62.1301H49.2449C49.4944 62.1301 49.6985 61.9281 49.6985 61.6794C49.6985 61.4307 49.4944 61.2287 49.2449 61.2287H31.1028Z" fill="white"/>
<path id="Vector_10" d="M39.2679 41.3992H9.33343C9.08317 41.3992 8.87988 41.1972 8.87988 40.9485V7.5991C8.87988 7.35043 9.08317 7.14844 9.33343 7.14844H39.2679C39.5181 7.14844 39.7214 7.35043 39.7214 7.5991V40.9485C39.7214 41.1972 39.5181 41.3992 39.2679 41.3992ZM9.78647 40.4978H38.8138V8.04977H9.78647V40.4978Z" fill="white"/>
<path id="Vector_11" d="M60.1303 17.9645H45.6166C45.3664 17.9645 45.1631 17.7625 45.1631 17.5139V9.40184C45.1631 9.15316 45.3664 8.95117 45.6166 8.95117H60.1303C60.3806 8.95117 60.5838 9.15316 60.5838 9.40184V17.5139C60.5838 17.7625 60.3806 17.9645 60.1303 17.9645ZM46.0707 17.0632H59.6773V9.85251H46.0707V17.0632Z" fill="white"/>
<path id="Vector_12" d="M59.2242 29.6817H41.9892C41.7389 29.6817 41.5356 29.4797 41.5356 29.2311V25.6257C41.5356 25.377 41.7389 25.175 41.9892 25.175H59.2242C59.4744 25.175 59.6777 25.377 59.6777 25.6257V29.2311C59.6777 29.4797 59.4744 29.6817 59.2242 29.6817ZM42.4422 28.7804H58.7701V26.0764H42.4422V28.7804Z" fill="url(#paint1_linear_516_39)"/>
<path id="Vector_13" d="M47.4308 38.6949H41.9882C41.738 38.6949 41.5347 38.4929 41.5347 38.2442V34.6389C41.5347 34.3902 41.738 34.1882 41.9882 34.1882H47.4308C47.6811 34.1882 47.8844 34.3902 47.8844 34.6389V38.2442C47.8844 38.4929 47.6811 38.6949 47.4308 38.6949ZM42.4418 37.7936H46.9773V35.0896H42.4418V37.7936Z" fill="url(#paint2_linear_516_39)"/>
<path id="Vector_14" d="M59.2243 38.6949H50.1533C49.903 38.6949 49.6997 38.4929 49.6997 38.2442V34.6389C49.6997 34.3902 49.903 34.1882 50.1533 34.1882H59.2243C59.4746 34.1882 59.6778 34.3902 59.6778 34.6389V38.2442C59.6778 38.4929 59.4746 38.6949 59.2243 38.6949ZM50.6068 37.7936H58.7707V35.0896H50.6068V37.7936Z" fill="url(#paint3_linear_516_39)"/>
<path id="Vector_15" d="M59.2243 44.1032H21.1259C20.8756 44.1032 20.6724 43.9012 20.6724 43.6526C20.6724 43.4039 20.8756 43.2019 21.1259 43.2019H59.2243C59.4745 43.2019 59.6778 43.4039 59.6778 43.6526C59.6778 43.9012 59.4745 44.1032 59.2243 44.1032Z" fill="url(#paint4_linear_516_39)"/>
<path id="Vector_16" d="M59.2242 41.3994H41.9892C41.7389 41.3994 41.5356 41.1974 41.5356 40.9487C41.5356 40.7 41.7389 40.498 41.9892 40.498H59.2242C59.4744 40.498 59.6777 40.7 59.6777 40.9487C59.6777 41.1974 59.4744 41.3994 59.2242 41.3994Z" fill="url(#paint5_linear_516_39)"/>
<path id="Vector_17" d="M59.2242 32.3857H41.9892C41.7389 32.3857 41.5356 32.1837 41.5356 31.935C41.5356 31.6864 41.7389 31.4844 41.9892 31.4844H59.2242C59.4744 31.4844 59.6777 31.6864 59.6777 31.935C59.6777 32.1837 59.4744 32.3857 59.2242 32.3857Z" fill="url(#paint6_linear_516_39)"/>
<path id="Vector_18" d="M14.7751 15.2603C13.5242 15.2603 12.5073 14.2492 12.5073 13.007C12.5073 11.7648 13.5242 10.7537 14.7751 10.7537C16.026 10.7537 17.0428 11.7648 17.0428 13.007C17.0428 14.2492 16.026 15.2603 14.7751 15.2603ZM14.7751 11.655C14.0251 11.655 13.4144 12.2618 13.4144 13.007C13.4144 13.7522 14.0251 14.359 14.7751 14.359C15.5251 14.359 16.1357 13.7522 16.1357 13.007C16.1357 12.2618 15.5251 11.655 14.7751 11.655Z" fill="url(#paint7_linear_516_39)"/>
<path id="Vector_19" d="M16.5893 17.9641H12.9609C12.7106 17.9641 12.5073 17.7621 12.5073 17.5134C12.5073 17.2647 12.7106 17.0627 12.9609 17.0627H16.5893C16.8396 17.0627 17.0428 17.2647 17.0428 17.5134C17.0428 17.7621 16.8396 17.9641 16.5893 17.9641Z" fill="url(#paint8_linear_516_39)"/>
<path id="Vector_20" d="M26.5687 17.9641H22.0331C21.7829 17.9641 21.5796 17.7621 21.5796 17.5134C21.5796 17.2647 21.7829 17.0627 22.0331 17.0627H26.5687C26.8189 17.0627 27.0222 17.2647 27.0222 17.5134C27.0222 17.7621 26.8189 17.9641 26.5687 17.9641Z" fill="url(#paint9_linear_516_39)"/>
<path id="Vector_21" d="M33.8254 15.2603C32.5745 15.2603 31.5576 14.2492 31.5576 13.007C31.5576 11.7648 32.5745 10.7537 33.8254 10.7537C35.0763 10.7537 36.0931 11.7648 36.0931 13.007C36.0931 14.2492 35.0763 15.2603 33.8254 15.2603ZM33.8254 11.655C33.0754 11.655 32.4647 12.2618 32.4647 13.007C32.4647 13.7522 33.0754 14.359 33.8254 14.359C34.5754 14.359 35.186 13.7522 35.186 13.007C35.186 12.2618 34.5754 11.655 33.8254 11.655Z" fill="url(#paint10_linear_516_39)"/>
<path id="Vector_22" d="M35.6396 17.9641H32.0112C31.7609 17.9641 31.5576 17.7621 31.5576 17.5134C31.5576 17.2647 31.7609 17.0627 32.0112 17.0627H35.6396C35.8899 17.0627 36.0931 17.2647 36.0931 17.5134C36.0931 17.7621 35.8899 17.9641 35.6396 17.9641Z" fill="url(#paint11_linear_516_39)"/>
<path id="Vector_23" d="M26.5687 15.2603H22.0331C21.7829 15.2603 21.5796 15.0583 21.5796 14.8097V11.2043C21.5796 10.9557 21.7829 10.7537 22.0331 10.7537H26.5687C26.8189 10.7537 27.0222 10.9557 27.0222 11.2043V14.8097C27.0222 15.0583 26.8189 15.2603 26.5687 15.2603ZM22.4867 14.359H26.1151V11.655H22.4867V14.359Z" fill="url(#paint12_linear_516_39)"/>
<path id="Vector_24" d="M35.6394 26.9778H12.9619C12.7116 26.9778 12.5083 26.7758 12.5083 26.5271C12.5083 26.2784 12.7116 26.0764 12.9619 26.0764H35.6394C35.8897 26.0764 36.093 26.2784 36.093 26.5271C36.093 26.7758 35.8897 26.9778 35.6394 26.9778Z" fill="url(#paint13_linear_516_39)"/>
<path id="Vector_25" d="M35.6394 37.7937H12.9619C12.7116 37.7937 12.5083 37.5917 12.5083 37.343C12.5083 37.0943 12.7116 36.8923 12.9619 36.8923H35.6394C35.8897 36.8923 36.093 37.0943 36.093 37.343C36.093 37.5917 35.8897 37.7937 35.6394 37.7937Z" fill="url(#paint14_linear_516_39)"/>
<path id="Vector_26" d="M55.5959 12.5564H53.7817C53.5314 12.5564 53.3281 12.3544 53.3281 12.1057C53.3281 11.857 53.5314 11.655 53.7817 11.655H55.5959C55.8462 11.655 56.0494 11.857 56.0494 12.1057C56.0494 12.3544 55.8462 12.5564 55.5959 12.5564Z" fill="white"/>
<path id="Vector_27" d="M57.4101 15.2602H53.7817C53.5314 15.2602 53.3281 15.0582 53.3281 14.8096C53.3281 14.5609 53.5314 14.3589 53.7817 14.3589H57.4101C57.6604 14.3589 57.8636 14.5609 57.8636 14.8096C57.8636 15.0582 57.6604 15.2602 57.4101 15.2602Z" fill="white"/>
<path id="Vector_28" d="M51.9672 15.2604H48.3388C48.0885 15.2604 47.8853 15.0584 47.8853 14.8097V12.1057C47.8853 11.857 48.0885 11.655 48.3388 11.655H51.9672C52.2175 11.655 52.4208 11.857 52.4208 12.1057V14.8097C52.4208 15.0584 52.2175 15.2604 51.9672 15.2604ZM48.7924 14.359H51.5137V12.5564H48.7924V14.359Z" fill="white"/>
<path id="Vector_29" d="M33.8255 46.8071H29.29C29.0397 46.8071 28.8364 46.6051 28.8364 46.3564C28.8364 46.1078 29.0397 45.9058 29.29 45.9058H33.8255C34.0758 45.9058 34.279 46.1078 34.279 46.3564C34.279 46.6051 34.0758 46.8071 33.8255 46.8071Z" fill="url(#paint15_linear_516_39)"/>
</g>
<defs>
<linearGradient id="paint0_linear_516_39" x1="22.4867" y1="40.498" x2="22.4867" y2="46.8074" gradientUnits="userSpaceOnUse">
<stop stop-color="#00FFC1"/>
<stop offset="1" stop-color="#9D9D9D" stop-opacity="0.78"/>
</linearGradient>
<linearGradient id="paint1_linear_516_39" x1="50.6067" y1="25.175" x2="50.6067" y2="29.6817" gradientUnits="userSpaceOnUse">
<stop stop-color="#00FFC1"/>
<stop offset="1" stop-color="#9D9D9D" stop-opacity="0.78"/>
</linearGradient>
<linearGradient id="paint2_linear_516_39" x1="44.7095" y1="34.1882" x2="44.7095" y2="38.6949" gradientUnits="userSpaceOnUse">
<stop stop-color="#00FFC1"/>
<stop offset="1" stop-color="#9D9D9D" stop-opacity="0.78"/>
</linearGradient>
<linearGradient id="paint3_linear_516_39" x1="54.6888" y1="34.1882" x2="54.6888" y2="38.6949" gradientUnits="userSpaceOnUse">
<stop stop-color="#00FFC1"/>
<stop offset="1" stop-color="#9D9D9D" stop-opacity="0.78"/>
</linearGradient>
<linearGradient id="paint4_linear_516_39" x1="40.1751" y1="43.2019" x2="40.1751" y2="44.1032" gradientUnits="userSpaceOnUse">
<stop stop-color="#00FFC1"/>
<stop offset="1" stop-color="#9D9D9D" stop-opacity="0.78"/>
</linearGradient>
<linearGradient id="paint5_linear_516_39" x1="50.6067" y1="40.498" x2="50.6067" y2="41.3994" gradientUnits="userSpaceOnUse">
<stop stop-color="#00FFC1"/>
<stop offset="1" stop-color="#9D9D9D" stop-opacity="0.78"/>
</linearGradient>
<linearGradient id="paint6_linear_516_39" x1="50.6067" y1="31.4844" x2="50.6067" y2="32.3857" gradientUnits="userSpaceOnUse">
<stop stop-color="#00FFC1"/>
<stop offset="1" stop-color="#9D9D9D" stop-opacity="0.78"/>
</linearGradient>
<linearGradient id="paint7_linear_516_39" x1="14.7751" y1="10.7537" x2="14.7751" y2="15.2603" gradientUnits="userSpaceOnUse">
<stop stop-color="#00FFC1"/>
<stop offset="1" stop-color="#9D9D9D" stop-opacity="0.78"/>
</linearGradient>
<linearGradient id="paint8_linear_516_39" x1="14.7751" y1="17.0627" x2="14.7751" y2="17.9641" gradientUnits="userSpaceOnUse">
<stop stop-color="#00FFC1"/>
<stop offset="1" stop-color="#9D9D9D" stop-opacity="0.78"/>
</linearGradient>
<linearGradient id="paint9_linear_516_39" x1="24.3009" y1="17.0627" x2="24.3009" y2="17.9641" gradientUnits="userSpaceOnUse">
<stop stop-color="#00FFC1"/>
<stop offset="1" stop-color="#9D9D9D" stop-opacity="0.78"/>
</linearGradient>
<linearGradient id="paint10_linear_516_39" x1="33.8254" y1="10.7537" x2="33.8254" y2="15.2603" gradientUnits="userSpaceOnUse">
<stop stop-color="#00FFC1"/>
<stop offset="1" stop-color="#9D9D9D" stop-opacity="0.78"/>
</linearGradient>
<linearGradient id="paint11_linear_516_39" x1="33.8254" y1="17.0627" x2="33.8254" y2="17.9641" gradientUnits="userSpaceOnUse">
<stop stop-color="#00FFC1"/>
<stop offset="1" stop-color="#9D9D9D" stop-opacity="0.78"/>
</linearGradient>
<linearGradient id="paint12_linear_516_39" x1="24.3009" y1="10.7537" x2="24.3009" y2="15.2603" gradientUnits="userSpaceOnUse">
<stop stop-color="#00FFC1"/>
<stop offset="1" stop-color="#9D9D9D" stop-opacity="0.78"/>
</linearGradient>
<linearGradient id="paint13_linear_516_39" x1="24.3006" y1="26.0764" x2="24.3006" y2="26.9778" gradientUnits="userSpaceOnUse">
<stop stop-color="#00FFC1"/>
<stop offset="1" stop-color="#9D9D9D" stop-opacity="0.78"/>
</linearGradient>
<linearGradient id="paint14_linear_516_39" x1="24.3006" y1="36.8923" x2="24.3006" y2="37.7937" gradientUnits="userSpaceOnUse">
<stop stop-color="#00FFC1"/>
<stop offset="1" stop-color="#9D9D9D" stop-opacity="0.78"/>
</linearGradient>
<linearGradient id="paint15_linear_516_39" x1="31.5577" y1="45.9058" x2="31.5577" y2="46.8071" gradientUnits="userSpaceOnUse">
<stop stop-color="#00FFC1"/>
<stop offset="1" stop-color="#9D9D9D" stop-opacity="0.78"/>
</linearGradient>
</defs>
</svg>
