<svg width="247" height="45" viewBox="0 0 247 45" fill="none" xmlns="http://www.w3.org/2000/svg">
<g id="Next Digital">
<path id="DigitalNe   t copy 2" fill-rule="evenodd" clip-rule="evenodd" d="M111.013 34.6814H119.51C134.869 34.6814 139.107 31.3684 139.107 17.4993C139.107 3.63016 134.869 0.317478 119.51 0.317478H111.013V34.6814ZM118.544 27.2166V7.78137H119.509C129.267 7.78137 131.5 8.70823 131.5 17.4555C131.5 26.2898 129.266 27.2166 119.509 27.2166H118.544ZM140.957 34.6814H148.006V9.9456H140.957V34.6814ZM140.957 6.76616H148.006V0.317478H140.957V6.76616ZM163.96 43.9567C174.607 43.9567 177.501 41.4831 177.501 32.3845V9.94647H170.452V13.4802H170.378C168.819 10.6532 167.261 9.54908 161.622 9.54908C153.2 9.54908 150.529 12.5967 150.529 21.6957C150.529 30.7946 153.2 33.7982 161.622 33.7982C167.113 33.7982 169.042 32.7381 170.378 29.9112H170.452V32.3848C170.452 37.42 169.821 38.2151 163.959 38.2151C158.728 38.2151 158.357 37.3316 158.357 35.5648V35.4765H151.271V35.9182C151.271 41.3065 152.904 43.9567 163.959 43.9567H163.96ZM157.617 21.6954C157.617 16.8812 158.432 16.1744 163.849 16.1744C169.488 16.1744 170.453 17.0579 170.453 21.3863V21.9604C170.453 26.3341 169.488 27.2166 163.849 27.2166C158.431 27.2166 157.615 26.5099 157.615 21.6954H157.617ZM179.685 34.6814H186.734V9.9456H179.684V34.6814H179.685ZM179.685 6.76616H186.734V0.317478H179.684V6.76616H179.685ZM200.357 34.6814H209.965V28.2767H202.731C201.061 28.2767 200.653 27.9234 200.653 26.0241V16.2185H209.854V9.94647H200.653V3.85116H193.604V9.94647H189.337V16.2185H193.604V27.1283C193.604 32.9586 195.533 34.6814 200.356 34.6814H200.357ZM222.365 35.0788C227.188 35.0788 229.785 34.2388 230.898 31.9868H231.008V34.6805H237.908V19.3104C237.908 11.934 235.942 9.54937 225.294 9.54937C215.277 9.54937 212.718 11.7579 212.718 17.3672V18.0296H219.804V17.7203C219.804 15.9534 220.471 15.291 225.406 15.291C230.303 15.291 231.008 16.0418 231.008 18.8687V19.5312H222.995C214.87 19.5312 212.013 21.1213 212.013 27.2606C212.013 32.8262 214.721 35.0788 222.364 35.0788H222.365ZM218.914 26.7306C218.914 24.9197 219.693 24.478 223.625 24.478H231.083V25.4941C231.083 28.4534 230.192 29.1147 223.625 29.1147C219.841 29.1158 218.914 28.6307 218.914 26.7306ZM239.907 34.6814H246.956V0.317478H239.907V34.6814ZM0.740416 34.3917H8.16057V8.19933H8.23472L17.0689 34.3917H27.8278V0.027832H20.4453V26.0436H20.3712L11.685 0.027832H0.739258V34.3917H0.740416ZM43.3083 34.7891C52.7319 34.7891 56.2554 32.8456 56.2554 26.971V26.3086H49.1701V26.3969C49.1701 28.1638 48.7623 29.0472 43.3456 29.0472C37.2981 29.0472 36.8529 28.1203 36.8529 24.7184V24.1443H56.2563V21.3177C56.2563 12.2628 53.5107 9.25943 43.1229 9.25943C32.2901 9.25943 29.8038 12.2631 29.8038 22.0241C29.8038 31.7852 32.2895 34.7891 43.3083 34.7891ZM36.8529 19.1091C36.8529 15.9288 37.6691 15.0014 43.0487 15.0014C48.391 15.0014 49.2072 15.9282 49.2072 19.1091H36.8529ZM99.4906 34.3917H109.099V27.9871H101.865C100.195 27.9871 99.7875 27.6337 99.7875 25.7345V15.9288H108.988V9.65683H99.7875V3.56151H92.7384V9.65683H88.4731V15.9288H92.7396V26.8386C92.7384 32.6689 94.6674 34.3917 99.4906 34.3917Z" fill="white"/>
<g id="Shape 3 copy 5" style="mix-blend-mode:multiply">
<path fill-rule="evenodd" clip-rule="evenodd" d="M92.7013 9.70288V15.9303C91.3979 15.9303 88.5015 15.9303 88.5015 15.9303C88.5015 15.9303 88.5015 10.5718 88.5015 9.70288C90.0945 9.70288 92.7013 9.70288 92.7013 9.70288Z" fill="#B5B5B5"/>
</g>
<g id="Shape 2 copy 3" style="mix-blend-mode:multiply">
<path fill-rule="evenodd" clip-rule="evenodd" d="M37.2937 18.0875C37.2937 18.0875 36.4404 20.4719 36.7144 24.1701C36.9884 27.8683 38.7419 27.0665 38.7419 27.0665L39.3212 26.7769V17.7979L37.2937 18.0875Z" fill="#BFBFBF"/>
</g>
<path id="Vector" fill-rule="evenodd" clip-rule="evenodd" d="M86.2183 8.72876V16.6593L77.5326 25.3446L80.9314 23.3307L86.2811 28.4916L86.2183 36.5478L72.3086 22.6384L86.2183 8.72876Z" fill="white"/>
<path id="Shape 1 copy" fill-rule="evenodd" clip-rule="evenodd" d="M57.8873 0V12.8281L71.9372 26.878L66.4397 23.6198L57.7856 31.9682L57.8873 45L80.3876 22.4997L57.8873 0Z" fill="#23FFC6"/>
</g>
</svg>
