<svg width="269" height="45" viewBox="0 0 269 45" fill="none" xmlns="http://www.w3.org/2000/svg">
<path fill-rule="evenodd" clip-rule="evenodd" d="M0.681641 34.3917H8.10179V8.19933H8.17594L17.0101 34.3917H27.7691V0.027832H20.3877V26.0436H20.3136L11.6274 0.027832H0.681641V34.3917ZM43.2495 34.7891C52.6731 34.7891 56.1967 32.8456 56.1967 26.971V26.3086H49.1125V26.3969C49.1125 28.1638 48.7047 29.0472 43.288 29.0472C37.2405 29.0472 36.7953 28.1203 36.7953 24.7184V24.1444H56.1987V21.3174C56.1987 12.2628 53.4534 9.25943 43.0653 9.25943C32.2325 9.25943 29.7462 12.2631 29.7462 22.0241C29.7462 31.7852 32.2319 34.7891 43.2506 34.7891H43.2495ZM36.7941 19.1091C36.7941 15.9288 37.6104 15.0014 42.99 15.0014C48.3322 15.0014 49.1484 15.9282 49.1484 19.1091H36.7953H36.7941ZM99.433 34.3917H109.042V27.9871H101.808C100.138 27.9871 99.7299 27.6337 99.7299 25.7345V15.9288H108.931V9.65683H99.7299V3.56151H92.6808V9.65683H88.4155V15.9288H92.6819V26.8386C92.6808 32.6689 94.6098 34.3917 99.433 34.3917Z" fill="white"/>
<path fill-rule="evenodd" clip-rule="evenodd" d="M86.1609 8.72876V16.6593L77.4752 25.3446L80.874 23.3307L86.2237 28.4916L86.1609 36.5478L72.2529 22.6384L86.1609 8.72876Z" fill="white"/>
<path fill-rule="evenodd" clip-rule="evenodd" d="M57.831 0V12.8281L71.8805 26.878L66.383 23.6198L57.729 31.9682L57.831 45L80.331 22.4997L57.831 0Z" fill="#23FFC6"/>
<path fill-rule="evenodd" clip-rule="evenodd" d="M154.377 34.5327C159.128 34.5327 161.486 33.349 162.701 30.6741H162.775V34.182H169.773V9.62665H162.775V21.8604C162.775 27.2539 161.044 27.7362 156.661 27.7362C151.357 27.7362 150.658 26.9032 150.658 22.036V9.62665H143.66V22.869C143.66 31.7704 146.79 34.5327 154.377 34.5327ZM181.86 34.5768C186.648 34.5768 189.227 33.7435 190.331 31.5065H190.442V34.1811H197.293V18.9228C197.293 11.6 195.341 9.23215 184.771 9.23215C174.826 9.23215 172.285 11.4245 172.285 16.9947V17.6525H179.32V17.3454C179.32 15.5916 179.983 14.9338 184.881 14.9338C189.743 14.9338 190.442 15.6794 190.442 18.4855V19.143H182.487C174.421 19.143 171.585 20.7215 171.585 26.8166C171.585 32.3404 174.273 34.5768 181.86 34.5768ZM178.435 26.2891C178.435 24.4916 179.209 24.0531 183.113 24.0531H190.515V25.0616C190.515 27.9995 189.631 28.657 183.112 28.657C179.356 28.657 178.435 28.1747 178.435 26.2891ZM198.898 34.182H205.896V0.067749H198.898V34.182H198.898ZM207.685 34.182H214.683V9.62665H207.685V34.182ZM207.685 6.4698H214.683V0.0686186H207.685V6.4698ZM227.565 34.182H237.104V27.824H229.923C228.265 27.824 227.86 27.4732 227.86 25.5876V15.8535H236.994V9.62607H227.86V3.57623H220.862V9.62665H216.626V15.854H220.862V26.6848C220.862 32.4719 222.777 34.182 227.565 34.182ZM242.407 43.0394H247.931C252.498 43.0394 254.156 41.4173 256.476 36.2428L268.372 9.62665H260.712L253.714 26.7717H253.566L246.533 9.62665H238.65L249.957 34.6205C249.184 36.1113 248.594 36.3294 246.753 36.3294H242.408V43.0382L242.407 43.0394Z" fill="white"/>
<path fill-rule="evenodd" clip-rule="evenodd" d="M125.763 35.2635C137.291 35.2635 140.201 31.9384 140.201 20.0102C140.201 8.08197 137.29 4.75684 125.763 4.75684C114.197 4.75684 111.325 8.08197 111.325 20.0102C111.325 31.9384 114.197 35.2635 125.763 35.2635ZM118.64 20.0102C118.64 13.8349 119.138 12.6737 125.763 12.6737C132.388 12.6737 132.886 13.8349 132.886 20.0102C132.886 26.1854 132.388 27.3466 125.763 27.3466C119.138 27.3466 118.64 26.1846 118.64 20.0093V20.0102Z" fill="white"/>
<g style="mix-blend-mode:multiply" opacity="0.8">
<path fill-rule="evenodd" clip-rule="evenodd" d="M39.2626 24.1444H36.8099C36.7414 23.8239 36.6882 23.4493 36.6558 23.0115C36.531 21.3272 36.6401 19.9154 36.7958 18.8773C36.7948 18.9532 36.7943 19.0305 36.7943 19.1092H39.2626V24.1444ZM88.5782 9.65685H92.3889C92.477 11.5645 92.5323 13.8346 92.4555 15.9288H88.4156V11.2523C88.4817 10.6829 88.5372 10.1455 88.5782 9.65685ZM139.517 27.6336C138.959 29.9471 138.018 31.6286 136.547 32.8143L129.872 27.0236C132.209 26.4646 132.751 25.054 132.861 21.859L139.517 27.6336ZM159.755 27.5223V33.6572C161.152 33.0284 162.078 32.0479 162.702 30.6741H162.776V34.182H162.909C162.929 34.1354 162.942 34.079 162.942 34.0181V24.1701C162.942 24.0102 162.858 23.8805 162.754 23.8805H162.667C162.372 26.2311 161.46 27.1634 159.755 27.5223ZM186.982 19.143V24.0253C186.982 24.0348 186.983 24.0441 186.986 24.0531H190.454C190.457 24.0441 190.458 24.0348 190.458 24.0253V19.1013C190.458 19.0818 190.452 19.0631 190.443 19.0461V19.143H186.982ZM189.01 28.0754C189.902 27.7091 190.288 27.1355 190.436 26.2629C190.449 26.2987 190.458 26.3464 190.458 26.3988V33.2377C190.458 33.2806 190.452 33.3204 190.443 33.353V31.5066H190.332C190.017 32.1447 189.582 32.6685 189.01 33.0915V28.0754ZM220.581 15.8541V9.62671H216.627V15.8541H220.581ZM237.105 27.824V29.5371L227.967 28.0804V26.8083C228.173 27.6379 228.716 27.824 229.923 27.824H237.105ZM251.09 20.7335L247.271 28.6822L249.958 34.6206C249.944 34.6462 249.931 34.6715 249.918 34.6963C249.95 34.6494 249.973 34.6132 249.98 34.5974L253.641 26.7717H253.567L251.09 20.7335Z" fill="#CACACA"/>
</g>
<path fill-rule="evenodd" clip-rule="evenodd" d="M126.396 22.9997L129.856 19.0113C129.881 18.9825 129.911 18.959 129.945 18.9419C129.979 18.9249 130.016 18.9148 130.054 18.9121C130.092 18.9094 130.13 18.9142 130.167 18.9263C130.203 18.9383 130.236 18.9573 130.265 18.9823L143.626 30.5745C143.655 30.5994 143.679 30.6298 143.696 30.6638C143.713 30.6978 143.723 30.7349 143.726 30.7728C143.728 30.8108 143.723 30.8489 143.711 30.885C143.699 30.9211 143.68 30.9545 143.655 30.9832L140.195 34.9719C140.145 35.0299 140.073 35.0655 139.997 35.0709C139.92 35.0764 139.845 35.0512 139.787 35.0009L126.425 23.4084C126.396 23.3834 126.372 23.3531 126.355 23.3191C126.338 23.285 126.328 23.248 126.325 23.21C126.323 23.1721 126.328 23.134 126.34 23.0979C126.352 23.0618 126.371 23.0284 126.396 22.9997Z" fill="white"/>
</svg>
