<svg width="317" height="45" viewBox="0 0 317 45" fill="none" xmlns="http://www.w3.org/2000/svg">
<path fill-rule="evenodd" clip-rule="evenodd" d="M124.939 36.2464C132.029 36.2464 135.69 35.3219 137.308 33.7832C138.926 32.2445 139.691 29.7362 139.691 25.2492C139.691 21.0702 139.162 18.299 137.514 16.8033C135.778 15.2196 132.029 14.7356 125.615 14.5597C119.967 14.3838 118.996 14.2078 118.408 13.7678C117.878 13.372 117.496 12.7122 117.496 11.1284C117.496 9.89676 117.672 9.01675 118.467 8.44501C119.202 7.91718 120.614 7.69732 124.762 7.69732C128.528 7.69732 131.013 7.91718 131.866 8.53313C132.66 9.10516 132.778 10.0727 132.778 11.6565V11.7004H138.779V11.0847C138.779 7.38964 138.455 4.75019 136.808 3.1667C134.837 1.27523 130.205 0.703197 124.851 0.703197C118.908 0.703197 115.849 1.40697 114.083 2.99075C112.465 4.44222 111.583 6.77369 111.583 11.2607C111.583 15.7035 112.201 18.167 113.819 19.6627C115.29 21.0263 117.731 21.6419 122.379 21.8179C129.793 22.0819 132.13 22.1701 132.838 22.6979C133.545 23.2257 133.809 24.0615 133.809 25.5581C133.809 27.1858 133.603 27.8453 132.808 28.4182C132.073 28.9461 129.824 29.254 125.116 29.254C121.027 29.254 119.174 28.99 118.38 28.3743C117.585 27.7587 117.379 26.9665 117.379 24.8991V24.767H111.377V25.6915C111.377 29.8703 111.818 32.246 113.407 33.7855C115.26 35.5866 117.819 36.2464 124.939 36.2464ZM151.445 35.7481H161.029V29.3601H153.813C152.148 29.3601 151.741 29.0076 151.741 27.1132V17.3326H160.918V11.0767H151.741V4.99692H144.71V11.0767H140.454V17.3326H144.71V28.2146C144.71 34.0299 146.634 35.7481 151.445 35.7481ZM162.917 35.7481H169.948V24.646C169.948 18.8745 171.54 17.4649 177.756 17.4649H182.382V10.9004H177.941C173.612 10.9004 171.502 12.0459 169.985 15.3059H169.948V11.0767H162.916V35.7492L162.917 35.7481ZM192.633 36.1447C197.444 36.1447 200.034 35.3069 201.145 33.0607H201.256V35.7475H208.138V20.4167C208.138 13.0591 206.177 10.6806 195.557 10.6806C185.565 10.6806 183.012 12.8835 183.012 18.4787V19.1392H190.08V18.8309C190.08 17.0686 190.746 16.4078 195.668 16.4078C200.552 16.4078 201.256 17.1567 201.256 19.9764V20.6371H193.262C185.158 20.6371 182.309 22.2232 182.309 28.3472C182.309 33.8979 185.01 36.1447 192.633 36.1447ZM189.192 27.8182C189.192 26.0117 189.969 25.5711 193.891 25.5711H201.33V26.5845C201.33 29.5363 200.441 30.1959 193.891 30.1959C190.117 30.197 189.192 29.7131 189.192 27.8182ZM220.536 35.7481H230.121V29.3601H222.905C221.239 29.3601 220.832 29.0076 220.832 27.1132V17.3326H230.01V11.0767H220.832V4.99692H213.801V11.0767H209.546V17.3326H213.801V28.2146C213.801 34.0299 215.726 35.7481 220.536 35.7481ZM244.258 36.1447C253.657 36.1447 257.172 34.2062 257.172 28.3469V27.6859H250.105V27.7725C250.105 29.5349 249.698 30.416 244.295 30.416C238.263 30.416 237.819 29.4915 237.819 26.0983V25.5257H257.172V22.706C257.172 13.6745 254.434 10.6788 244.073 10.6788C233.268 10.6788 230.788 13.6748 230.788 23.4109C230.788 33.147 233.267 36.1447 244.258 36.1447ZM237.819 20.5048C237.819 17.3326 238.633 16.4075 243.999 16.4075C249.327 16.4075 250.142 17.332 250.142 20.5048H237.819ZM272.568 45C283.188 45 286.074 42.533 286.074 33.4573V11.0767H279.045V14.6013H278.97C277.415 11.7816 275.861 10.6803 270.236 10.6803C261.836 10.6803 259.171 13.7201 259.171 22.7958C259.171 31.8715 261.836 34.8675 270.236 34.8675C275.714 34.8675 277.638 33.8101 278.97 30.9904H279.045V33.4576C279.045 38.48 278.415 39.273 272.568 39.273C267.35 39.273 266.98 38.3918 266.98 36.6295V36.5414H259.912V36.982C259.912 42.3568 261.54 45 272.568 45ZM266.241 22.7955C266.241 17.9934 267.055 17.2887 272.458 17.2887C278.084 17.2887 279.045 18.1696 279.045 22.4873V23.0599C279.045 27.4224 278.083 28.3027 272.458 28.3027C267.054 28.3027 266.24 27.5977 266.24 22.7955H266.241ZM290.59 44.6475H296.143C300.731 44.6475 302.395 43.0175 304.727 37.8189L316.682 11.0767H308.982L301.953 28.3027H301.803L294.736 11.0767H286.817L298.177 36.1886C297.4 37.6866 296.808 37.9071 294.959 37.9071H290.59V44.6475Z" fill="white"/>
<path fill-rule="evenodd" clip-rule="evenodd" d="M0.955566 34.3038H8.35792V8.17835H8.43188L17.2435 34.3038H27.9749V0.0277341H20.6113V25.977H20.5373L11.8733 0.0277341H0.955566V34.3038ZM43.4146 34.7002C52.8142 34.7002 56.3287 32.7616 56.3287 26.9021V26.2413H49.2627V26.328C49.2627 28.0903 48.8559 28.9715 43.4531 28.9715C37.421 28.9715 36.9769 28.047 36.9769 24.6538V24.0812H56.3308V21.2617C56.3308 12.23 53.5922 9.2343 43.2309 9.2343C32.4258 9.2343 29.9458 12.2303 29.9458 21.9664C29.9458 31.7025 32.4252 34.7002 43.4158 34.7002H43.4146ZM36.9758 19.0603C36.9758 15.8881 37.7899 14.963 43.1558 14.963C48.4844 14.963 49.2985 15.8875 49.2985 19.0603H36.9758ZM99.4546 34.3038H109.039V27.9155H101.823C100.158 27.9155 99.7507 27.5631 99.7507 25.6687V15.8881H108.928V9.63212H99.7507V3.55239H92.7196V9.63212H88.4652V15.8881H92.7208V26.77C92.7196 32.5854 94.6437 34.3038 99.4546 34.3038Z" fill="white"/>
<path fill-rule="evenodd" clip-rule="evenodd" d="M86.2166 8.70647V16.6167L77.5532 25.2798L80.9432 23.2711L86.2793 28.4188L86.2166 36.4544L72.3442 22.5806L86.2166 8.70647Z" fill="white"/>
<path fill-rule="evenodd" clip-rule="evenodd" d="M57.9585 0V12.7954L71.9724 26.8093L66.489 23.5594L57.857 31.8866L57.9585 44.885L80.4013 22.4422L57.9585 0Z" fill="#23FFC6"/>
</svg>
