<svg width="150" height="45" viewBox="0 0 150 45" fill="none" xmlns="http://www.w3.org/2000/svg">
<path fill-rule="evenodd" clip-rule="evenodd" d="M111.245 34.6454H116.979L118.822 28.5305H131.469L133.313 34.6454H139.38L128.653 0.419922H121.971L111.245 34.6454ZM121.05 21.1398L125.146 7.58989L129.242 21.1398H121.05Z" fill="#28FFC7"/>
<path fill-rule="evenodd" clip-rule="evenodd" d="M0.372559 34.3913H7.79252V8.19921H7.86647L16.7011 34.3913H27.4606V0.027832H20.0771V26.0419H20.0029L11.3167 0.027832H0.372559V34.3913ZM42.9399 34.7904C52.3633 34.7904 55.8878 32.8473 55.8878 26.9723V26.3099H48.8017V26.3983C48.8017 28.1651 48.3936 29.0485 42.9771 29.0485C36.9297 29.0485 36.4846 28.1204 36.4846 24.7197V24.1455H55.8878V21.3188C55.8878 12.2643 53.1423 9.26065 42.7546 9.26065C31.9212 9.26065 29.4355 12.264 29.4355 22.0255C29.4355 31.787 31.9212 34.7904 42.9399 34.7904ZM36.4843 19.1089C36.4843 15.9289 37.3007 15.0012 42.6801 15.0012C48.0224 15.0012 48.8385 15.9292 48.8385 19.1089H36.4843ZM99.1214 34.3925H108.73V27.9867H101.496C99.8264 27.9867 99.4186 27.6335 99.4186 25.7342V15.9289H108.619V9.65681H99.4186V3.56163H92.3696V9.65681H88.1032V15.9289H92.3696V26.8386C92.3696 32.6687 94.2987 34.3913 99.1216 34.3913L99.1214 34.3925Z" fill="#28FFC7"/>
<path fill-rule="evenodd" clip-rule="evenodd" d="M85.8497 8.72876V16.6591L77.1644 25.3447L80.5631 23.3306L85.9126 28.4928L85.8497 36.549L71.9404 22.6389L85.8497 8.72876Z" fill="#28FFC7"/>
<path fill-rule="evenodd" clip-rule="evenodd" d="M57.52 0V12.8281L71.5696 26.8777L66.0721 23.62L57.4185 31.9683L57.52 45L80.02 22.5L57.52 0Z" fill="#23FFC6"/>
<path fill-rule="evenodd" clip-rule="evenodd" d="M142.203 34.4392H149.261V9.67222H142.203V34.4392ZM142.203 6.48905H149.261V0.0322266H142.203V6.48905Z" fill="#28FFC7"/>
<g style="mix-blend-mode:multiply" opacity="0.8">
<path fill-rule="evenodd" clip-rule="evenodd" d="M38.9364 24.1456H36.4844V24.561C35.9971 23.2224 36.0592 21.8173 36.2103 19.559C36.2555 18.8839 36.38 18.3136 36.5509 17.8331C36.5022 18.2113 36.4841 18.6351 36.4841 19.1089H38.1541C37.9881 21.4664 38.3333 23.0674 38.9364 24.1456ZM92.2162 15.9289H88.103V9.65686H92.256C92.3239 11.6801 92.3401 13.9302 92.2162 15.9289ZM121.269 28.5305H118.822L118.133 30.8154L118.118 30.8115L121.246 20.1332L121.373 20.0695L121.05 21.1399H123.19L121.269 28.5305Z" fill="#CACACA"/>
</g>
</svg>
