<svg width="317" height="45" viewBox="0 0 317 45" fill="none" xmlns="http://www.w3.org/2000/svg">
<path fill-rule="evenodd" clip-rule="evenodd" d="M124.939 36.2464C132.029 36.2464 135.691 35.3219 137.309 33.7832C138.927 32.2445 139.692 29.7362 139.692 25.2492C139.692 21.0702 139.162 18.299 137.515 16.8033C135.779 15.2196 132.029 14.7356 125.616 14.5597C119.967 14.3838 118.997 14.2078 118.408 13.7678C117.879 13.372 117.496 12.7122 117.496 11.1284C117.496 9.89676 117.673 9.01675 118.467 8.44501C119.203 7.91718 120.615 7.69732 124.763 7.69732C128.528 7.69732 131.013 7.91718 131.866 8.53313C132.661 9.10516 132.778 10.0727 132.778 11.6565V11.7004H138.78V11.0847C138.78 7.38964 138.456 4.75019 136.809 3.1667C134.838 1.27523 130.205 0.703197 124.851 0.703197C118.909 0.703197 115.849 1.40697 114.084 2.99075C112.466 4.44222 111.583 6.77369 111.583 11.2607C111.583 15.7035 112.201 18.167 113.819 19.6627C115.29 21.0263 117.732 21.6419 122.38 21.8179C129.793 22.0819 132.131 22.1701 132.838 22.6979C133.545 23.2257 133.809 24.0615 133.809 25.5581C133.809 27.1858 133.603 27.8453 132.809 28.4182C132.073 28.9461 129.824 29.254 125.117 29.254C121.028 29.254 119.174 28.99 118.38 28.3743C117.586 27.7587 117.38 26.9665 117.38 24.8991V24.767H111.377V25.6915C111.377 29.8703 111.819 32.246 113.407 33.7855C115.261 35.5866 117.82 36.2464 124.939 36.2464ZM151.445 35.7481H161.03V29.3601H153.814C152.148 29.3601 151.741 29.0076 151.741 27.1132V17.3326H160.919V11.0767H151.741V4.99692H144.71V11.0767H140.455V17.3326H144.71V28.2146C144.71 34.0299 146.635 35.7481 151.445 35.7481ZM162.918 35.7481H169.949V24.646C169.949 18.8745 171.54 17.4649 177.757 17.4649H182.382V10.9004H177.942C173.612 10.9004 171.503 12.0459 169.986 15.3059H169.949V11.0767H162.917V35.7492L162.918 35.7481ZM192.634 36.1447C197.445 36.1447 200.035 35.3069 201.145 33.0607H201.256V35.7475H208.139V20.4167C208.139 13.0591 206.178 10.6806 195.557 10.6806C185.566 10.6806 183.012 12.8835 183.012 18.4787V19.1392H190.08V18.8309C190.08 17.0686 190.746 16.4078 195.668 16.4078C200.553 16.4078 201.256 17.1567 201.256 19.9764V20.6371H193.263C185.159 20.6371 182.309 22.2232 182.309 28.3472C182.309 33.8979 185.011 36.1447 192.634 36.1447ZM189.192 27.8182C189.192 26.0117 189.969 25.5711 193.892 25.5711H201.33V26.5845C201.33 29.5363 200.442 30.1959 193.892 30.1959C190.117 30.197 189.192 29.7131 189.192 27.8182ZM220.537 35.7481H230.121V29.3601H222.905C221.24 29.3601 220.833 29.0076 220.833 27.1132V17.3326H230.01V11.0767H220.833V4.99692H213.802V11.0767H209.546V17.3326H213.802V28.2146C213.802 34.0299 215.726 35.7481 220.537 35.7481ZM244.258 36.1447C253.658 36.1447 257.172 34.2062 257.172 28.3469V27.6859H250.105V27.7725C250.105 29.5349 249.698 30.416 244.295 30.416C238.263 30.416 237.819 29.4915 237.819 26.0983V25.5257H257.173V22.706C257.173 13.6745 254.435 10.6788 244.073 10.6788C233.268 10.6788 230.788 13.6748 230.788 23.4109C230.788 33.147 233.267 36.1447 244.258 36.1447ZM237.819 20.5048C237.819 17.3326 238.633 16.4075 243.999 16.4075C249.328 16.4075 250.142 17.332 250.142 20.5048H237.819ZM272.568 45C283.188 45 286.074 42.533 286.074 33.4573V11.0767H279.045V14.6013H278.97C277.416 11.7816 275.862 10.6803 270.237 10.6803C261.837 10.6803 259.172 13.7201 259.172 22.7958C259.172 31.8715 261.836 34.8675 270.237 34.8675C275.714 34.8675 277.638 33.8101 278.97 30.9904H279.045V33.4576C279.045 38.48 278.416 39.273 272.568 39.273C267.35 39.273 266.98 38.3918 266.98 36.6295V36.5414H259.912V36.982C259.912 42.3568 261.541 45 272.568 45ZM266.241 22.7955C266.241 17.9934 267.056 17.2887 272.458 17.2887C278.084 17.2887 279.045 18.1696 279.045 22.4873V23.0599C279.045 27.4224 278.083 28.3027 272.458 28.3027C267.055 28.3027 266.241 27.5977 266.241 22.7955H266.241ZM290.591 44.6475H296.144C300.732 44.6475 302.396 43.0175 304.727 37.8189L316.682 11.0767H308.983L301.954 28.3027H301.803L294.737 11.0767H286.818L298.178 36.1886C297.4 37.6866 296.808 37.9071 294.959 37.9071H290.591V44.6475Z" fill="#28FFC7"/>
<path fill-rule="evenodd" clip-rule="evenodd" d="M0.956055 34.3038H8.3584V8.17835H8.43236L17.244 34.3038H27.9754V0.0277341H20.6118V25.977H20.5378L11.8738 0.0277341H0.956055V34.3038ZM43.4151 34.7002C52.8147 34.7002 56.3292 32.7616 56.3292 26.9021V26.2413H49.2632V26.328C49.2632 28.0903 48.8564 28.9715 43.4535 28.9715C37.4215 28.9715 36.9774 28.047 36.9774 24.6538V24.0812H56.3312V21.2617C56.3312 12.23 53.5927 9.2343 43.2314 9.2343C32.4263 9.2343 29.9463 12.2303 29.9463 21.9664C29.9463 31.7025 32.4257 34.7002 43.4163 34.7002H43.4151ZM36.9763 19.0603C36.9763 15.8881 37.7904 14.963 43.1563 14.963C48.4848 14.963 49.299 15.8875 49.299 19.0603H36.9763ZM99.4551 34.3038H109.039V27.9155H101.824C100.158 27.9155 99.7512 27.5631 99.7512 25.6687V15.8881H108.928V9.63212H99.7512V3.55239H92.7201V9.63212H88.4657V15.8881H92.7213V26.77C92.7201 32.5854 94.6442 34.3038 99.4551 34.3038Z" fill="#28FFC7"/>
<path fill-rule="evenodd" clip-rule="evenodd" d="M86.2171 8.70647V16.6167L77.5537 25.2798L80.9437 23.2711L86.2798 28.4188L86.2171 36.4544L72.3447 22.5806L86.2171 8.70647Z" fill="#28FFC7"/>
<path fill-rule="evenodd" clip-rule="evenodd" d="M57.9589 0V12.7954L71.9729 26.8093L66.4895 23.5594L57.8575 31.8866L57.9589 44.885L80.4017 22.4422L57.9589 0Z" fill="#23FFC6"/>
</svg>
