<svg width="70" height="71" viewBox="0 0 70 71" fill="none" xmlns="http://www.w3.org/2000/svg">
<g id="Setting Robust Business Models">
<g id="Group">
<g id="Group_2">
<path id="Vector" d="M34.9996 38.9842C34.7808 38.9842 34.5623 38.9198 34.3734 38.7909L23.9377 31.6751C23.6337 31.4679 23.4521 31.1239 23.4521 30.7565C23.4521 30.389 23.6337 30.0451 23.9377 29.838L34.3734 22.7222C34.7513 22.4643 35.2481 22.4643 35.626 22.7222L46.0613 29.838C46.3654 30.0452 46.547 30.3892 46.547 30.7565C46.547 31.124 46.3654 31.468 46.0613 31.6751L42.3387 34.2138C41.8309 34.5595 41.1403 34.4287 40.7937 33.9215C40.4476 33.4142 40.5788 32.7227 41.086 32.3765L43.4612 30.7565L34.9996 24.9864L26.5376 30.7565L34.9996 36.5262L37.951 34.514C38.4565 34.1674 39.1489 34.2981 39.4959 34.8062C39.8421 35.3135 39.7109 36.005 39.2036 36.3512L35.626 38.7909C35.437 38.9198 35.2186 38.9842 34.9996 38.9842Z" fill="white"/>
<path id="Vector_2" d="M34.9996 49.3559C34.7755 49.3559 34.5518 49.2886 34.36 49.1535L23.9242 41.8133C23.6285 41.6047 23.4521 41.2656 23.4521 40.9037V30.7569C23.4521 30.1427 23.9498 29.645 24.564 29.645C25.1781 29.645 25.6759 30.1427 25.6759 30.7569V40.3266L34.9996 46.8845L44.3229 40.3266V30.7569C44.3229 30.1427 44.8208 29.645 45.4349 29.645C46.049 29.645 46.5468 30.1427 46.5468 30.7569V40.9037C46.5468 41.2654 46.3704 41.6047 46.0746 41.8133L35.6394 49.1535C35.4475 49.2886 35.2238 49.3559 34.9996 49.3559Z" fill="white"/>
<path id="Vector_3" d="M34.9996 49.3555C34.3855 49.3555 33.8877 48.8577 33.8877 48.2436V37.8721C33.8877 37.2581 34.3855 36.7603 34.9996 36.7603C35.6138 36.7603 36.1115 37.2581 36.1115 37.8721V48.2436C36.1115 48.8577 35.6139 49.3555 34.9996 49.3555Z" fill="white"/>
<path id="Vector_4" d="M62.7198 27.9812H54.0314C51.9471 27.9812 50.251 26.2852 50.251 24.2007V10.5866C50.251 8.50225 51.9471 6.80615 54.0314 6.80615H62.7198C64.8041 6.80615 66.5004 8.50211 66.5004 10.5866V24.2007C66.5004 26.2852 64.8043 27.9812 62.7198 27.9812ZM54.0314 9.03005C53.1732 9.03005 52.4747 9.72851 52.4747 10.5867V24.2009C52.4747 25.0591 53.1732 25.7575 54.0314 25.7575H62.7198C63.5781 25.7575 64.2765 25.0591 64.2765 24.2009V10.5866C64.2765 9.72837 63.5781 9.02991 62.7198 9.02991L54.0314 9.03005Z" fill="white"/>
<path id="Vector_5" d="M61.4222 12.7863H55.3277C54.7137 12.7863 54.2158 12.2886 54.2158 11.6744C54.2158 11.0603 54.7137 10.5625 55.3277 10.5625H61.4222C62.0364 10.5625 62.5341 11.0603 62.5341 11.6744C62.5341 12.2887 62.0365 12.7863 61.4222 12.7863Z" fill="white"/>
<path id="Vector_6" d="M61.4222 16.5992H55.3277C54.7137 16.5992 54.2158 16.1014 54.2158 15.4874C54.2158 14.8733 54.7137 14.3755 55.3277 14.3755H61.4222C62.0364 14.3755 62.5341 14.8733 62.5341 15.4874C62.5341 16.1015 62.0365 16.5992 61.4222 16.5992Z" fill="white"/>
<path id="Vector_7" d="M61.4222 20.4117H55.3277C54.7137 20.4117 54.2158 19.9139 54.2158 19.2999C54.2158 18.6857 54.7137 18.188 55.3277 18.188H61.4222C62.0364 18.188 62.5341 18.6857 62.5341 19.2999C62.5341 19.914 62.0365 20.4117 61.4222 20.4117Z" fill="white"/>
<path id="Vector_8" d="M61.4222 24.2242H55.3277C54.7137 24.2242 54.2158 23.7265 54.2158 23.1124C54.2158 22.4983 54.7137 22.0005 55.3277 22.0005H61.4222C62.0364 22.0005 62.5341 22.4983 62.5341 23.1124C62.5341 23.7267 62.0365 24.2242 61.4222 24.2242Z" fill="white"/>
<path id="Vector_9" d="M15.9684 27.7992H7.28042C5.19596 27.7992 3.5 26.1031 3.5 24.0189V10.4046C3.5 8.32012 5.19596 6.62402 7.28042 6.62402H15.9684C18.0527 6.62402 19.7487 8.32012 19.7487 10.4046V24.0187C19.7487 26.1031 18.0527 27.7992 15.9684 27.7992ZM7.28042 8.84806C6.42222 8.84806 5.72376 9.54638 5.72376 10.4047V24.0189C5.72376 24.8771 6.42222 25.5755 7.28042 25.5755H15.9684C16.8266 25.5755 17.5249 24.8771 17.5249 24.0189V10.4046C17.5249 9.54624 16.8265 8.84792 15.9684 8.84792L7.28042 8.84806Z" fill="white"/>
<path id="Vector_10" d="M14.6719 12.6046H8.5777C7.96366 12.6046 7.46582 12.1069 7.46582 11.4927C7.46582 10.8787 7.96366 10.3809 8.5777 10.3809H14.6718C15.2858 10.3809 15.7836 10.8787 15.7836 11.4927C15.7838 12.1069 15.2859 12.6046 14.6719 12.6046Z" fill="#28FFC7"/>
<path id="Vector_11" d="M14.6719 16.4171H8.5777C7.96366 16.4171 7.46582 15.9193 7.46582 15.3052C7.46582 14.6912 7.96366 14.1934 8.5777 14.1934H14.6718C15.2858 14.1934 15.7836 14.6912 15.7836 15.3052C15.7838 15.9193 15.2859 16.4171 14.6719 16.4171Z" fill="#28FFC7"/>
<path id="Vector_12" d="M14.6719 20.2298H8.5777C7.96366 20.2298 7.46582 19.7319 7.46582 19.1179C7.46582 18.5037 7.96366 18.0059 8.5777 18.0059H14.6718C15.2858 18.0059 15.7836 18.5037 15.7836 19.1179C15.7838 19.7319 15.2859 20.2298 14.6719 20.2298Z" fill="#28FFC7"/>
<path id="Vector_13" d="M14.6719 24.0421H8.5777C7.96366 24.0421 7.46582 23.5444 7.46582 22.9302C7.46582 22.3162 7.96366 21.8184 8.5777 21.8184H14.6718C15.2858 21.8184 15.7836 22.3162 15.7836 22.9302C15.7838 23.5444 15.2859 24.0421 14.6719 24.0421Z" fill="#28FFC7"/>
<path id="Vector_14" d="M62.7198 64.1659H54.0314C51.9471 64.1659 50.251 62.4698 50.251 60.3853V46.7713C50.251 44.687 51.9471 42.9907 54.0314 42.9907H62.7198C64.8041 42.9907 66.5004 44.6868 66.5004 46.7713V60.3853C66.5004 62.4696 64.8043 64.1659 62.7198 64.1659ZM54.0314 45.2146C53.1732 45.2146 52.4747 45.9129 52.4747 46.7713V60.3853C52.4747 61.2436 53.1732 61.9421 54.0314 61.9421H62.7198C63.5781 61.9421 64.2765 61.2436 64.2765 60.3853V46.7713C64.2765 45.9129 63.5781 45.2146 62.7198 45.2146H54.0314Z" fill="white"/>
<path id="Vector_15" d="M61.4222 60.4093H55.3277C54.7137 60.4093 54.2158 59.9116 54.2158 59.2974C54.2158 58.6834 54.7137 58.1855 55.3277 58.1855H61.4222C62.0364 58.1855 62.5341 58.6834 62.5341 59.2974C62.5341 59.9116 62.0365 60.4093 61.4222 60.4093Z" fill="#28FFC7"/>
<path id="Vector_16" d="M61.4222 56.5969H55.3277C54.7137 56.5969 54.2158 56.0991 54.2158 55.4851C54.2158 54.8709 54.7137 54.373 55.3277 54.373H61.4222C62.0364 54.373 62.5341 54.8709 62.5341 55.4851C62.5341 56.0991 62.0365 56.5969 61.4222 56.5969Z" fill="#28FFC7"/>
<path id="Vector_17" d="M61.4222 52.7843H55.3277C54.7137 52.7843 54.2158 52.2865 54.2158 51.6724C54.2158 51.0584 54.7137 50.5605 55.3277 50.5605H61.4222C62.0364 50.5605 62.5341 51.0584 62.5341 51.6724C62.5341 52.2865 62.0365 52.7843 61.4222 52.7843Z" fill="#28FFC7"/>
<path id="Vector_18" d="M61.4222 48.9718H55.3277C54.7137 48.9718 54.2158 48.4741 54.2158 47.8599C54.2158 47.2459 54.7137 46.748 55.3277 46.748H61.4222C62.0364 46.748 62.5341 47.2459 62.5341 47.8599C62.5341 48.4741 62.0365 48.9718 61.4222 48.9718Z" fill="#28FFC7"/>
<path id="Vector_19" d="M15.9684 64.3478H7.28042C5.19596 64.3478 3.5 62.6517 3.5 60.5675V46.9538C3.5 44.8694 5.19596 43.1733 7.28042 43.1733H15.9684C18.0527 43.1733 19.7487 44.8693 19.7487 46.9538V60.5675C19.7487 62.6517 18.0527 64.3478 15.9684 64.3478ZM7.28042 45.3971C6.42222 45.3971 5.72376 46.0956 5.72376 46.9538V60.5675C5.72376 61.4257 6.42222 62.1242 7.28042 62.1242H15.9684C16.8266 62.1242 17.5249 61.4257 17.5249 60.5675V46.9538C17.5249 46.0956 16.8265 45.3971 15.9684 45.3971H7.28042Z" fill="white"/>
<path id="Vector_20" d="M14.6719 60.5914H8.5777C7.96366 60.5914 7.46582 60.0937 7.46582 59.4796C7.46582 58.8655 7.96366 58.3677 8.5777 58.3677H14.6718C15.2858 58.3677 15.7836 58.8655 15.7836 59.4796C15.7838 60.0939 15.2859 60.5914 14.6719 60.5914Z" fill="white"/>
<path id="Vector_21" d="M14.6719 56.7789H8.5777C7.96366 56.7789 7.46582 56.2811 7.46582 55.6671C7.46582 55.0529 7.96366 54.5552 8.5777 54.5552H14.6718C15.2858 54.5552 15.7836 55.0529 15.7836 55.6671C15.7838 56.2812 15.2859 56.7789 14.6719 56.7789Z" fill="white"/>
<path id="Vector_22" d="M14.6719 52.9659H8.5777C7.96366 52.9659 7.46582 52.4681 7.46582 51.8541C7.46582 51.24 7.96366 50.7422 8.5777 50.7422H14.6718C15.2858 50.7422 15.7836 51.24 15.7836 51.8541C15.7838 52.4682 15.2859 52.9659 14.6719 52.9659Z" fill="white"/>
<path id="Vector_23" d="M14.6719 49.1534H8.5777C7.96366 49.1534 7.46582 48.6558 7.46582 48.0416C7.46582 47.4275 7.96366 46.9297 8.5777 46.9297H14.6718C15.2858 46.9297 15.7836 47.4275 15.7836 48.0416C15.7838 48.6559 15.2859 49.1534 14.6719 49.1534Z" fill="white"/>
<path id="Vector_24" d="M26.6995 30.4129C26.0853 30.4129 25.5874 29.915 25.5874 29.301V22.8198C25.5874 22.0472 24.9591 21.4186 24.1863 21.4186H18.6373C18.0232 21.4186 17.5254 20.9207 17.5254 20.3067C17.5254 19.6927 18.0232 19.1948 18.6373 19.1948H24.1863C26.1851 19.1948 27.8113 20.8209 27.8113 22.8198V29.301C27.8113 29.915 27.3136 30.4129 26.6995 30.4129Z" fill="white"/>
<path id="Vector_25" d="M43.3013 30.4129C42.6872 30.4129 42.1895 29.915 42.1895 29.301V22.8198C42.1895 20.8209 43.8156 19.1948 45.8143 19.1948H51.363C51.977 19.1948 52.4748 19.6927 52.4748 20.3067C52.4748 20.9207 51.977 21.4186 51.363 21.4186H45.8143C45.0417 21.4186 44.4132 22.047 44.4132 22.8198V29.301C44.4132 29.915 43.9155 30.4129 43.3013 30.4129Z" fill="white"/>
<path id="Vector_26" d="M24.1865 52.6663H18.6373C18.0232 52.6663 17.5254 52.1685 17.5254 51.5544C17.5254 50.9404 18.0232 50.4425 18.6373 50.4425H24.1863C24.959 50.4425 25.5874 49.8139 25.5874 49.0414V42.5601C25.5874 41.9461 26.0853 41.4482 26.6995 41.4482C27.3135 41.4482 27.8113 41.9461 27.8113 42.5601V49.0414C27.8113 51.0402 26.1852 52.6663 24.1865 52.6663Z" fill="white"/>
<path id="Vector_27" d="M51.363 52.6663H45.8143C43.8156 52.6663 42.1895 51.0402 42.1895 49.0414V42.5601C42.1895 41.9461 42.6872 41.4482 43.3013 41.4482C43.9154 41.4482 44.4132 41.9461 44.4132 42.5601V49.0414C44.4132 49.8139 45.0415 50.4425 45.8143 50.4425H51.363C51.977 50.4425 52.4748 50.9404 52.4748 51.5544C52.475 52.1685 51.9771 52.6663 51.363 52.6663Z" fill="white"/>
<path id="Vector_28" d="M11.6246 45.3971C11.0105 45.3971 10.5127 44.8992 10.5127 44.2852V26.8692C10.5127 26.2552 11.0105 25.7573 11.6246 25.7573C12.2386 25.7573 12.7365 26.2552 12.7365 26.8692V44.2852C12.7365 44.8992 12.2386 45.3971 11.6246 45.3971Z" fill="white"/>
<path id="Vector_29" d="M58.3756 45.2147C57.7615 45.2147 57.2637 44.7168 57.2637 44.1026V26.8692C57.2637 26.2552 57.7615 25.7573 58.3756 25.7573C58.9897 25.7573 59.4874 26.2552 59.4874 26.8692V44.1026C59.4874 44.7168 58.9899 45.2147 58.3756 45.2147Z" fill="white"/>
</g>
</g>
</g>
</svg>
