<svg id="Layer_1" viewBox="0 0 512 512" xmlns="http://www.w3.org/2000/svg" data-name="Layer 1" width="300" height="300" version="1.1" xmlns:xlink="http://www.w3.org/1999/xlink" xmlns:svgjs="http://svgjs.dev/svgjs"><g width="100%" height="100%" transform="matrix(1,0,0,1,0,0)"><path d="m194.32 285.62h-28.47c-3.87 0-7 3.13-7 7v47.94c0 3.87 3.13 7 7 7h28.47c3.87 0 7-3.13 7-7v-47.94c0-3.87-3.13-7-7-7zm-7 47.94h-14.47v-33.94h14.47zm57.61-71.96h-28.47c-3.87 0-7 3.13-7 7v71.96c0 3.87 3.13 7 7 7h28.47c3.87 0 7-3.13 7-7v-71.96c0-3.87-3.13-7-7-7zm-7 71.96h-14.47v-57.96h14.47zm57.12-55.06h-28.47c-3.87 0-7 3.13-7 7v55.06c0 3.87 3.13 7 7 7h28.47c3.87 0 7-3.13 7-7v-55.06c0-3.87-3.13-7-7-7zm-7 55.06h-14.47v-41.06h14.47zm58.11 14c3.87 0 7-3.13 7-7v-90.45c0-3.87-3.13-7-7-7h-28.47c-3.87 0-7 3.13-7 7v90.45c0 3.87 3.13 7 7 7zm-21.47-90.45h14.47v76.45h-14.47zm-144.6 1.8c11.27 0 20.44-9.17 20.44-20.44 0-1.21-.13-2.38-.33-3.53l17.62-10.17c3.52 2.86 8 4.59 12.88 4.59s9.57-1.8 13.12-4.79l17.27 9.97c-.13.93-.22 1.87-.22 2.83 0 11.27 9.17 20.44 20.44 20.44s20.44-9.17 20.44-20.44c0-3.43-.86-6.66-2.36-9.5l21.78-21.78c2.49 1.08 5.24 1.69 8.12 1.69 11.27 0 20.44-9.17 20.44-20.44s-9.17-20.44-20.44-20.44-20.44 9.17-20.44 20.44c0 3.27.79 6.36 2.17 9.11l-22 22c-2.38-.97-4.98-1.52-7.71-1.52-5.24 0-10.01 2-13.63 5.25l-16.86-9.74c.2-1.15.33-2.33.33-3.53 0-11.27-9.17-20.44-20.44-20.44s-20.44 9.17-20.44 20.44c0 1.31.14 2.6.37 3.84l-17.42 10.06c-3.55-2.98-8.13-4.79-13.12-4.79-11.27 0-20.44 9.17-20.44 20.44s9.17 20.44 20.44 20.44zm149.21-78.02c3.55 0 6.44 2.89 6.44 6.44s-2.89 6.44-6.44 6.44-6.44-2.89-6.44-6.44 2.89-6.44 6.44-6.44zm-47.99 50.04c3.55 0 6.44 2.89 6.44 6.44s-2.89 6.44-6.44 6.44-6.44-2.89-6.44-6.44 2.89-6.44 6.44-6.44zm-50.61-28.46c3.55 0 6.44 2.89 6.44 6.44s-2.89 6.44-6.44 6.44-6.44-2.89-6.44-6.44 2.89-6.44 6.44-6.44zm-50.61 29.56c3.55 0 6.44 2.89 6.44 6.44s-2.89 6.44-6.44 6.44-6.44-2.89-6.44-6.44 2.89-6.44 6.44-6.44zm315.92 204.75h-59.58v-40.3h59.58c2.37 0 4.58-1.2 5.87-3.18s1.49-4.49.53-6.65c-11.36-25.62-36.21-42.55-63.99-43.95 2.5-6.05 4.7-12.22 6.57-18.47l52.65-20.38c2.7-1.04 4.47-3.64 4.47-6.53v-59.74c0-2.89-1.78-5.48-4.47-6.53l-52.65-20.38c-3.81-12.68-8.91-25-15.22-36.69l22.83-51.66c1.17-2.64.59-5.73-1.45-7.78l-42.24-42.24c-2.04-2.04-5.13-2.62-7.78-1.45l-51.66 22.83c-11.69-6.3-24.01-11.41-36.69-15.21l-20.38-52.65c-1.04-2.7-3.64-4.47-6.53-4.47h-59.74c-2.89 0-5.48 1.78-6.53 4.47l-20.38 52.65c-12.68 3.81-24.99 8.91-36.69 15.22l-51.66-22.83c-2.65-1.17-5.73-.59-7.78 1.45l-42.24 42.24c-2.04 2.04-2.62 5.13-1.45 7.78l22.83 51.66c-6.3 11.69-11.4 24-15.22 36.69l-52.65 20.38c-2.7 1.04-4.47 3.64-4.47 6.53v59.74c0 2.89 1.78 5.48 4.47 6.53l52.65 20.38c1.88 6.25 4.08 12.42 6.58 18.47-27.78 1.4-52.63 18.33-63.99 43.95-.96 2.17-.76 4.67.53 6.65s3.5 3.18 5.87 3.18h59.58v40.3h-59.58c-2.37 0-4.58 1.2-5.87 3.18s-1.49 4.49-.53 6.65c11.87 26.76 38.45 44.06 67.72 44.06 27.72 0 53.03-15.52 65.72-39.9h225.93c12.68 24.38 37.99 39.9 65.72 39.9 29.27 0 55.85-17.29 67.72-44.06.96-2.17.76-4.67-.53-6.65s-3.5-3.18-5.87-3.18zm-472.12-144.28v-50.15l51.4-19.89c2.06-.8 3.62-2.51 4.21-4.64 3.91-13.95 9.51-27.44 16.62-40.09 1.08-1.92 1.19-4.24.3-6.26l-22.29-50.44 35.46-35.46 50.44 22.29c2.02.89 4.34.78 6.26-.3 12.67-7.13 26.16-12.72 40.08-16.62 2.12-.6 3.84-2.16 4.64-4.21l19.9-51.41h50.15l19.9 51.41c.8 2.06 2.51 3.62 4.64 4.21 13.94 3.91 27.42 9.5 40.09 16.62 1.92 1.08 4.24 1.19 6.26.3l50.44-22.29 35.46 35.46-22.29 50.44c-.89 2.02-.78 4.34.3 6.26 7.12 12.67 12.72 26.16 16.62 40.09.6 2.12 2.16 3.84 4.21 4.64l51.4 19.89v50.15l-51.4 19.89c-2.06.8-3.62 2.51-4.21 4.64-2.54 9.05-5.8 17.95-9.72 26.51-22.9 3.74-42.97 18.09-53.81 38.92h-17.01c13.62-11.38 25.21-25.12 34.07-40.55 12.95-22.57 19.8-48.32 19.8-74.49 0-82.61-67.21-149.82-149.82-149.82s-149.82 67.21-149.82 149.82c0 26.17 6.85 51.92 19.8 74.49 8.86 15.43 20.45 29.18 34.07 40.55h-17.01c-10.84-20.83-30.9-35.18-53.8-38.92-3.92-8.57-7.19-17.47-9.72-26.51-.6-2.12-2.16-3.84-4.21-4.64l-51.41-19.9zm159.9 89.97c-39.86-25.05-63.61-67.9-63.61-115.04 0-74.89 60.93-135.82 135.82-135.82s135.82 60.93 135.82 135.82c0 47.14-23.75 89.99-63.61 115.04zm250.89 94.2c-23.74 0-45.29-14.03-54.92-35.74-1.12-2.53-3.63-4.16-6.4-4.16h-234.72c-2.77 0-5.28 1.63-6.4 4.16-9.63 21.71-31.18 35.74-54.92 35.74-19.92 0-38.31-9.88-49.4-25.9h54.67c3.87 0 7-3.13 7-7v-54.3c0-3.87-3.13-7-7-7h-54.67c11.09-16.01 29.48-25.9 49.4-25.9 23.74 0 45.29 14.03 54.92 35.74 1.12 2.53 3.63 4.16 6.4 4.16h234.72c2.77 0 5.28-1.63 6.4-4.16 9.63-21.71 31.19-35.74 54.92-35.74 19.92 0 38.31 9.88 49.4 25.9h-54.67c-3.87 0-7 3.13-7 7v54.3c0 3.87 3.13 7 7 7h54.67c-11.09 16.01-29.48 25.9-49.4 25.9z" fill="#ffffff" fill-opacity="1" data-original-color="#000000ff" stroke="none" stroke-opacity="1"/></g></svg>