<svg xmlns="http://www.w3.org/2000/svg" id="Layer_1" data-name="Layer 1" viewBox="0 0 512 512" width="300" height="300" version="1.1" xmlns:xlink="http://www.w3.org/1999/xlink" xmlns:svgjs="http://svgjs.dev/svgjs"><g width="100%" height="100%" transform="matrix(1,0,0,1,0,0)"><g id="Layer_1-2" data-name="Layer_1"><g id="_478567680" data-name=" 478567680"><g id="_478568688" data-name=" 478568688"><path d="M286.58,489H225.42a35.73,35.73,0,0,1-35.69-35.69V420.62a176.58,176.58,0,0,1-43.13-24.94L118.26,412A35.73,35.73,0,0,1,69.5,399L38.93,346A35.76,35.76,0,0,1,52,297.27l28.33-16.36a179.18,179.18,0,0,1,0-49.82L52,214.73A35.76,35.76,0,0,1,38.93,166L69.5,113A35.74,35.74,0,0,1,118.26,100l28.34,16.36a176.48,176.48,0,0,1,43.13-24.95V58.69A35.73,35.73,0,0,1,225.42,23h61.16a35.73,35.73,0,0,1,35.69,35.69V91.37a176.29,176.29,0,0,1,43.13,24.95L393.74,100A35.76,35.76,0,0,1,442.5,113l30.57,53A35.76,35.76,0,0,1,460,214.73l-28.33,16.36a179.18,179.18,0,0,1,0,49.82L460,297.27A35.76,35.76,0,0,1,473.07,346L442.5,399A35.76,35.76,0,0,1,393.74,412L365.4,395.68a176.48,176.48,0,0,1-43.13,24.95v32.68A35.73,35.73,0,0,1,286.58,489ZM147.36,378a8,8,0,0,1,5.14,1.87,161,161,0,0,0,48,27.75,8,8,0,0,1,5.24,7.51v38.18A19.72,19.72,0,0,0,225.42,473h61.16a19.72,19.72,0,0,0,19.69-19.69V415.14a8,8,0,0,1,5.25-7.52,160.75,160.75,0,0,0,48-27.75,8,8,0,0,1,9.14-.79l33.1,19.11a19.79,19.79,0,0,0,26.9-7.21l30.58-53a19.79,19.79,0,0,0-7.21-26.9L418.93,292a8,8,0,0,1-3.89-8.29,162.73,162.73,0,0,0,0-55.46,8,8,0,0,1,3.89-8.29L452,200.88a19.79,19.79,0,0,0,7.21-26.9l-30.58-53a19.79,19.79,0,0,0-26.9-7.21l-33.1,19.11a8,8,0,0,1-9.14-.79,160.63,160.63,0,0,0-48-27.75,8,8,0,0,1-5.25-7.52V58.69A19.72,19.72,0,0,0,286.58,39H225.42a19.72,19.72,0,0,0-19.69,19.69V96.86a8,8,0,0,1-5.25,7.52,160.75,160.75,0,0,0-48,27.75,8,8,0,0,1-9.14.79l-33.1-19.11A19.72,19.72,0,0,0,83.36,121L52.78,174A19.79,19.79,0,0,0,60,200.88L93.07,220A8,8,0,0,1,97,228.27a162.73,162.73,0,0,0,0,55.46A8,8,0,0,1,93.08,292L60,311.12A19.79,19.79,0,0,0,52.78,338l30.58,53a19.72,19.72,0,0,0,26.9,7.21l33.11-19.12A7.94,7.94,0,0,1,147.36,378Z" fill="#ffffff" fill-opacity="1" data-original-color="#000000ff" stroke="none" stroke-opacity="1"/></g><g id="_478568616" data-name=" 478568616"><path d="M256,400.61c-79.74,0-144.61-64.87-144.61-144.61S176.26,111.39,256,111.39,400.61,176.26,400.61,256,335.74,400.61,256,400.61Zm0-273.22A128.61,128.61,0,1,0,384.61,256,128.76,128.76,0,0,0,256,127.39Z" fill="#ffffff" fill-opacity="1" data-original-color="#000000ff" stroke="none" stroke-opacity="1"/></g><g id="_478568592" data-name=" 478568592"><path d="M205.77,335.53H174.38a8,8,0,0,1-8-8v-59a8,8,0,0,1,8-8h31.39a8,8,0,0,1,8,8v59A8,8,0,0,1,205.77,335.53Zm-23.39-16h15.39v-43H182.38Z" fill="#ffffff" fill-opacity="1" data-original-color="#000000ff" stroke="none" stroke-opacity="1"/></g><g id="_478568664" data-name=" 478568664"><path d="M271.69,335.53H240.3a8,8,0,0,1-8-8V210.86a8,8,0,0,1,8-8h31.39a8,8,0,0,1,8,8V327.53A8,8,0,0,1,271.69,335.53Zm-23.39-16h15.39V218.86H248.3Z" fill="#ffffff" fill-opacity="1" data-original-color="#000000ff" stroke="none" stroke-opacity="1"/></g><g id="_478568424" data-name=" 478568424"><path d="M337.62,335.53H306.23a8,8,0,0,1-8-8v-79a8,8,0,0,1,8-8h31.39a8,8,0,0,1,8,8v79A8,8,0,0,1,337.62,335.53Zm-23.39-16h15.39v-63H314.23Z" fill="#ffffff" fill-opacity="1" data-original-color="#000000ff" stroke="none" stroke-opacity="1"/></g><g id="_478568136" data-name=" 478568136"><path d="M182.56,233.62a7.83,7.83,0,0,1-1.52-.15,8,8,0,0,1-6.35-9.37L181,191.46a8,8,0,0,1,10.11-6.17l14.16,4.17,11.23-30.63a8,8,0,0,1,10.32-4.74l25.47,9.55L270,147a8,8,0,0,1,12.8,2.59l20.8,47.08L326.64,188a8,8,0,0,1,5.62,15l-30.13,11.3A8,8,0,0,1,292,210l-19.29-43.65L259.6,178.71a8,8,0,0,1-8.29,1.66l-22.59-8.47-11,30.1a8,8,0,0,1-9.77,4.92L195,203.13l-4.62,24A8,8,0,0,1,182.56,233.62Z" fill="#ffffff" fill-opacity="1" data-original-color="#000000ff" stroke="none" stroke-opacity="1"/></g><g id="_478567584" data-name=" 478567584"><path d="M269.76,79.18H242.24a8,8,0,1,1,0-16h27.52a8,8,0,0,1,0,16Z" fill="#ffffff" fill-opacity="1" data-original-color="#000000ff" stroke="none" stroke-opacity="1"/></g><g id="_478567704" data-name=" 478567704"><path d="M89.05,183.51a8,8,0,0,1-6.92-12l13.76-23.83a8,8,0,0,1,13.86,8L96,179.5A8,8,0,0,1,89.05,183.51Z" fill="#ffffff" fill-opacity="1" data-original-color="#000000ff" stroke="none" stroke-opacity="1"/></g><g id="_478567920" data-name=" 478567920"><path d="M102.83,368.33a8,8,0,0,1-6.94-4L82.13,340.5a8,8,0,0,1,13.86-8l13.76,23.83a8,8,0,0,1-6.92,12Z" fill="#ffffff" fill-opacity="1" data-original-color="#000000ff" stroke="none" stroke-opacity="1"/></g><g id="_478567512" data-name=" 478567512"><path d="M269.76,448.82H242.24a8,8,0,1,1,0-16h27.52a8,8,0,0,1,0,16Z" fill="#ffffff" fill-opacity="1" data-original-color="#000000ff" stroke="none" stroke-opacity="1"/></g><g id="_478567776" data-name=" 478567776"><path d="M409.17,368.33a8,8,0,0,1-6.92-12L416,332.5a8,8,0,1,1,13.86,8l-13.76,23.83A8,8,0,0,1,409.17,368.33Z" fill="#ffffff" fill-opacity="1" data-original-color="#000000ff" stroke="none" stroke-opacity="1"/></g><g id="_478567896" data-name=" 478567896"><path d="M423,183.51a8,8,0,0,1-6.94-4l-13.76-23.83a8,8,0,0,1,13.86-8l13.76,23.83a8,8,0,0,1-6.92,12Z" fill="#ffffff" fill-opacity="1" data-original-color="#000000ff" stroke="none" stroke-opacity="1"/></g></g></g></g></svg>