<svg clip-rule="evenodd" fill-rule="evenodd" height="300" stroke-linejoin="round" stroke-miterlimit="2" viewBox="0 0 267 267" width="300" xmlns="http://www.w3.org/2000/svg" version="1.1" xmlns:xlink="http://www.w3.org/1999/xlink" xmlns:svgjs="http://svgjs.dev/svgjs"><g width="100%" height="100%" transform="matrix(1,0,0,1,0,0)"><path d="m222.414 131.031c-2.074-2.075-6.149-3.505-11.438-3.735-11.229-.488-28.226 4.137-40.686 16.597s-17.085 29.457-16.597 40.686c.23 5.289 1.661 9.363 3.735 11.438 2.075 2.075 6.15 3.505 11.439 3.735 11.228.489 28.225-4.137 40.685-16.597s17.086-29.457 16.597-40.685c-.23-5.289-1.66-9.364-3.734-11.439zm-2.946 2.946c1.557 1.558 2.346 4.704 2.519 8.674.451 10.371-3.872 26.049-15.381 37.558-11.508 11.508-27.187 15.832-37.558 15.38-3.97-.172-7.116-.961-8.673-2.518-1.558-1.557-2.346-4.704-2.519-8.673-.451-10.372 3.872-26.05 15.381-37.559 11.508-11.508 27.187-15.831 37.558-15.38 3.97.173 7.116.961 8.673 2.518z" fill="#ffffff" fill-opacity="1" data-original-color="#000000ff" stroke="none" stroke-opacity="1"/><path d="m202.475 149.235s-4.779 4.233-11.139 10.194c-2.275 2.132-4.737 4.497-7.255 6.965-12.497 12.25-26.653 26.677-26.653 26.677-.813.813-.813 2.133 0 2.946s2.134.813 2.947 0c0 0 14.427-14.155 26.676-26.652 2.468-2.518 4.833-4.981 6.966-7.256 5.961-6.359 10.193-11.138 10.193-11.138.479-.479.479-1.257 0-1.736s-1.256-.479-1.735 0z" fill="#ffffff" fill-opacity="1" data-original-color="#000000ff" stroke="none" stroke-opacity="1"/><path d="m133.914 118.066s3.051 3.597 7.409 8.354c1.557 1.7 3.291 3.532 5.109 5.4 9.02 9.266 19.716 19.692 19.716 19.692.814.813 2.134.813 2.947 0s.813-2.134 0-2.947c0 0-10.426-10.697-19.692-19.716-1.868-1.818-3.7-3.552-5.4-5.109-4.757-4.358-8.354-7.409-8.354-7.409-.479-.479-1.256-.479-1.735 0-.479.478-.479 1.256 0 1.735z" fill="#ffffff" fill-opacity="1" data-original-color="#000000ff" stroke="none" stroke-opacity="1"/><path d="m185.937 170.253s5.051-2.349 11.518-2.903c3.64-.312 7.733-.078 11.615 1.509.779.338 1.686-.02 2.024-.799s-.02-1.686-.799-2.024c-4.318-1.986-8.935-2.475-13.071-2.301-7.227.306-12.96 2.702-12.96 2.702-1.053.461-1.533 1.691-1.071 2.744s1.691 1.533 2.744 1.072z" fill="#ffffff" fill-opacity="1" data-original-color="#000000ff" stroke="none" stroke-opacity="1"/><path d="m152.878 132.551s-3.097-1.251-7.611-1.987c-2.298-.374-4.958-.631-7.763-.514-.849.004-1.535.697-1.531 1.546s.697 1.535 1.546 1.531c2.562.081 4.968.494 7.035.988 3.971.949 6.651 2.252 6.651 2.252 1.053.462 2.283-.019 2.745-1.072s-.019-2.283-1.072-2.744z" fill="#ffffff" fill-opacity="1" data-original-color="#000000ff" stroke="none" stroke-opacity="1"/><path d="m176.794 179.437s2.243-4.832 2.647-11.767c.205-3.522-.044-7.588-1.317-11.832-.214-.79-1.029-1.257-1.819-1.043s-1.257 1.03-1.043 1.82c.948 3.895.979 7.581.625 10.754-.677 6.084-2.839 10.243-2.839 10.243-.503 1.033-.073 2.281.961 2.785s2.282.073 2.785-.96z" fill="#ffffff" fill-opacity="1" data-original-color="#000000ff" stroke="none" stroke-opacity="1"/><path d="m164.094 143.726s-2.161-4.159-2.839-10.243c-.353-3.173-.322-6.859.626-10.754.214-.79-.253-1.605-1.043-1.82-.79-.214-1.605.253-1.819 1.043-1.273 4.244-1.522 8.31-1.317 11.832.404 6.935 2.647 11.767 2.647 11.767.503 1.033 1.751 1.464 2.785.96 1.034-.503 1.464-1.751.96-2.785z" fill="#ffffff" fill-opacity="1" data-original-color="#000000ff" stroke="none" stroke-opacity="1"/><path d="m154.962 27.132h-16.421c-5.573 0-10.091 4.518-10.091 10.091v14.031c0 5.573 4.518 10.091 10.091 10.091h60.061c5.573 0 10.091-4.518 10.091-10.091 0-4.341 0-9.69 0-14.031 0-5.573-4.518-10.091-10.091-10.091h-16.421c-.848-6.759-6.622-11.994-13.61-11.994-6.987 0-12.761 5.235-13.609 11.994zm1.981 4.167c.564 0 1.103-.228 1.496-.633.392-.405.604-.951.586-1.515-.003-.098-.004-.197-.004-.296 0-5.271 4.279-9.55 9.55-9.55 5.272 0 9.551 4.279 9.551 9.55 0 .099-.001.198-.004.296-.018.564.194 1.11.586 1.515.393.405.932.633 1.496.633h18.402c3.272 0 5.924 2.653 5.924 5.924v14.031c0 3.272-2.652 5.924-5.924 5.924h-60.061c-3.272 0-5.925-2.652-5.925-5.924v-14.031c0-3.271 2.653-5.924 5.925-5.924z" fill="#ffffff" fill-opacity="1" data-original-color="#000000ff" stroke="none" stroke-opacity="1"/><path d="m168.571 21.144c-4.256 0-7.711 3.455-7.711 7.711s3.455 7.712 7.711 7.712c4.257 0 7.712-3.456 7.712-7.712s-3.455-7.711-7.712-7.711zm0 4.166c1.957 0 3.545 1.589 3.545 3.545 0 1.957-1.588 3.545-3.545 3.545-1.956 0-3.545-1.588-3.545-3.545 0-1.956 1.589-3.545 3.545-3.545z" fill="#ffffff" fill-opacity="1" data-original-color="#000000ff" stroke="none" stroke-opacity="1"/><path d="m144.678 47.332h47.787c1.15 0 2.083-.934 2.083-2.084s-.933-2.083-2.083-2.083h-47.787c-1.15 0-2.084.933-2.084 2.083s.934 2.084 2.084 2.084z" fill="#ffffff" fill-opacity="1" data-original-color="#000000ff" stroke="none" stroke-opacity="1"/><path d="m44.825 104.084c-10.511 4.47-17.547 14.583-18.179 25.987-.121 2.007-.183 4.047-.183 6.108 0 23.566 8.1 44.452 20.477 57.406 8.457 8.852 18.911 14.033 30.192 14.033s21.736-5.181 30.193-14.033c12.377-12.954 20.476-33.84 20.476-57.406 0-2.038-.06-4.056-.115-6.053-.001-.02-.002-.039-.003-.059-.634-11.429-7.709-21.505-18.244-25.983-20.644-8.777-43.97-8.777-64.614 0zm1.631 3.835c19.602-8.335 41.751-8.335 61.353 0 9.066 3.853 15.158 12.52 15.713 22.354.053 1.949.113 3.918.113 5.906 0 22.368-7.575 42.232-19.323 54.527-7.625 7.982-17.008 12.745-27.18 12.745-10.171 0-19.554-4.763-27.18-12.745-11.747-12.295-19.322-32.159-19.322-54.527 0-1.977.059-3.934.175-5.868.001-.003.001-.006.001-.009.544-9.821 6.598-18.534 15.65-22.383z" fill="#ffffff" fill-opacity="1" data-original-color="#000000ff" stroke="none" stroke-opacity="1"/><path d="m40.177 93.152c-14.657 6.232-24.491 20.314-25.39 36.213-.135 2.246-.204 4.519-.204 6.814 0 26.983 9.596 50.78 23.767 65.612 10.829 11.335 24.337 17.707 38.782 17.707s27.953-6.372 38.783-17.707c14.171-14.832 23.766-38.629 23.766-65.612 0-2.148-.062-4.274-.12-6.38-.003-.13-.009-.26-.016-.39-.885-15.948-10.758-30.009-25.458-36.258-23.614-10.04-50.296-10.04-73.91.001zm1.631 3.834c22.571-9.597 48.077-9.597 70.648 0h.001c13.239 5.627 22.131 18.291 22.928 32.654.005.091.009.183.011.274.057 2.067.119 4.156.119 6.265 0 25.784-9.071 48.561-22.613 62.734-9.997 10.464-22.435 16.418-35.77 16.418s-25.772-5.954-35.769-16.418c-13.542-14.173-22.613-36.95-22.613-62.734 0-2.213.066-4.404.196-6.57 0-.002 0-.005.001-.007.809-14.318 9.661-27.003 22.86-32.616z" fill="#ffffff" fill-opacity="1" data-original-color="#000000ff" stroke="none" stroke-opacity="1"/><path d="m94.272 128.006-27.334 25.397s-7.313-5.665-7.313-5.665c-4.163-3.369-9.491-3.328-13.101.282-3.569 3.569-3.409 8.635-.389 12.966.665.954 3.995 5.687 7.354 9.616 2.745 3.211 5.492 5.779 5.764 6.033 4.356 4.282 11.419 4.264 15.785-.101.039-.04.077-.079.115-.12 0 0 32.538-35.018 32.538-35.018 3.623-3.705 3.598-9.655-.076-13.329-3.679-3.678-9.639-3.699-13.343-.061zm2.836 3.052.05-.047v-.001l.034-.033c2.08-2.037 5.417-2.023 7.477.037 2.064 2.064 2.073 5.41.027 7.485-.014.015-.028.03-.042.045l-32.563 35.043c-2.749 2.75-7.202 2.764-9.945.049-.016-.016-.032-.031-.049-.046-.192-.178-2.816-2.626-5.441-5.696-3.245-3.795-6.461-8.369-7.103-9.291-1.778-2.55-2.184-5.536-.083-7.637 2.08-2.08 5.154-1.925 7.55.024l8.765 6.79c.806.624 1.947.573 2.694-.121z" fill="#ffffff" fill-opacity="1" data-original-color="#000000ff" stroke="none" stroke-opacity="1"/><path d="m96.224 90.164c0 .967.665 1.807 1.606 2.028 4.97 1.171 9.864 2.769 14.626 4.794h.001c13.239 5.627 22.131 18.291 22.928 32.654.005.091.009.183.011.274.057 2.067.119 4.156.119 6.265 0 25.784-9.071 48.561-22.613 62.734-4.689 4.908-9.914 8.825-15.519 11.6-.71.352-1.159 1.075-1.159 1.867v13.889c0 3.739 1.485 7.324 4.128 9.967s6.229 4.128 9.967 4.128h116.505c3.738 0 7.323-1.485 9.967-4.128 2.643-2.643 4.128-6.228 4.128-9.967 0-33.234 0-126.142 0-159.376 0-3.738-1.485-7.323-4.128-9.967-2.644-2.643-6.229-4.128-9.967-4.128h-21.081c-.784 0-1.501.44-1.857 1.139-.979 1.923-2.977 3.241-5.284 3.241h-60.061c-2.307 0-4.305-1.318-5.284-3.241-.356-.699-1.073-1.139-1.857-1.139h-21.081c-3.738 0-7.324 1.485-9.967 4.128-2.643 2.644-4.128 6.229-4.128 9.967zm4.167-1.634v-21.637c-.001-2.633 1.045-5.158 2.907-7.02s4.387-2.908 7.021-2.908h19.901c1.818 2.645 4.867 4.38 8.321 4.38h60.061c3.454 0 6.503-1.735 8.322-4.382-.002.002 19.9.002 19.9.002 2.633 0 5.159 1.046 7.02 2.908 1.862 1.862 2.908 4.387 2.908 7.02v159.376c0 2.634-1.046 5.159-2.908 7.021-1.861 1.862-4.387 2.908-7.02 2.908h-116.505c-2.634 0-5.159-1.046-7.021-2.908s-2.908-4.387-2.907-7.021v-12.613c5.585-2.936 10.809-6.93 15.524-11.865 14.171-14.832 23.766-38.629 23.766-65.612 0-2.148-.062-4.274-.12-6.38-.003-.13-.009-.26-.016-.39-.885-15.948-10.758-30.009-25.458-36.258-4.469-1.9-9.048-3.44-13.696-4.621z" fill="#ffffff" fill-opacity="1" data-original-color="#000000ff" stroke="none" stroke-opacity="1"/><path d="m85.059 88.249c0 1.063.801 1.956 1.858 2.071 8.714.95 17.321 3.172 25.539 6.666h.001c13.239 5.627 22.131 18.291 22.928 32.654.005.091.009.183.011.274.057 2.067.119 4.156.119 6.265 0 25.784-9.071 48.561-22.613 62.734-7.562 7.915-16.516 13.251-26.206 15.38-.956.21-1.637 1.056-1.637 2.035v9.941c0 6.7 2.662 13.124 7.399 17.861s11.161 7.399 17.861 7.399h116.505c6.699 0 13.124-2.662 17.861-7.399s7.398-11.161 7.398-17.861v-159.376c0-6.699-2.661-13.124-7.398-17.861s-11.162-7.398-17.861-7.398h-20.214c-1.151 0-2.084.932-2.084 2.083v7.537c0 3.272-2.652 5.924-5.924 5.924h-60.061c-3.272 0-5.925-2.652-5.925-5.924v-7.537c0-1.151-.932-2.083-2.083-2.083h-20.214c-6.7 0-13.124 2.661-17.861 7.398s-7.399 11.162-7.399 17.861zm4.167-1.85v-19.506c0-5.594 2.222-10.959 6.178-14.915 3.956-3.955 9.32-6.178 14.915-6.178h18.131v5.454c0 5.573 4.518 10.091 10.091 10.091h60.061c5.573 0 10.091-4.518 10.091-10.091v-5.454h18.131c5.594 0 10.959 2.223 14.915 6.178 3.955 3.956 6.178 9.321 6.178 14.915v159.376c0 5.594-2.223 10.96-6.178 14.915-3.956 3.956-9.321 6.178-14.915 6.178h-116.505c-5.595 0-10.959-2.222-14.915-6.178-3.956-3.955-6.178-9.321-6.178-14.915v-8.296c9.839-2.516 18.949-8.081 26.689-16.182 14.171-14.832 23.766-38.629 23.766-65.612 0-2.148-.062-4.274-.12-6.38-.003-.13-.009-.26-.016-.39-.885-15.948-10.758-30.009-25.458-36.258-8.014-3.407-16.38-5.658-24.861-6.752z" fill="#ffffff" fill-opacity="1" data-original-color="#000000ff" stroke="none" stroke-opacity="1"/><path d="m116.89 95.564c-.66.359-1.075 1.045-1.087 1.795-.013.751.38 1.45 1.027 1.83 10.798 6.349 17.849 17.734 18.555 30.451.005.091.009.183.011.274.057 2.067.119 4.156.119 6.265 0 5.929-.481 11.699-1.385 17.239-.129.791.207 1.585.864 2.044 7.997 5.583 16.871 8.702 24.607 9.882.948.144 1.873-.377 2.239-1.264 2.488-6.017 6.21-12.054 11.397-17.241 2.518-2.518 5.237-4.691 8.055-6.544.727-.478 1.08-1.356.887-2.203-2.123-9.325-6.966-19.724-15.327-28.085-9.861-9.861-22.561-14.825-32.986-16.214-7.244-.965-13.423-.165-16.976 1.771zm5.663 2.419c2.916-.576 6.641-.609 10.763-.059 9.666 1.287 21.446 5.885 30.59 15.03 7.347 7.347 11.757 16.396 13.877 24.684-2.612 1.817-5.134 3.896-7.493 6.255-5.155 5.156-8.974 11.086-11.642 17.064-6.445-1.196-13.602-3.815-20.198-8.183.805-5.352 1.231-10.902 1.231-16.595 0-2.148-.062-4.274-.12-6.38-.003-.13-.009-.26-.016-.39-.702-12.647-7.056-24.107-16.988-31.426z" fill="#ffffff" fill-opacity="1" data-original-color="#000000ff" stroke="none" stroke-opacity="1"/></g></svg>