<svg id="Layer_1" viewBox="0 0 512 512" xmlns="http://www.w3.org/2000/svg" data-name="Layer 1" width="300" height="300" version="1.1" xmlns:xlink="http://www.w3.org/1999/xlink" xmlns:svgjs="http://svgjs.dev/svgjs"><g width="100%" height="100%" transform="matrix(1,0,0,1,0,0)"><path d="m162.09 131.63a158 158 0 0 1 93.91-31.37 155.88 155.88 0 0 1 94.78 32c10.14-2.89 20.67-8.33 28.1-15.44a5.47 5.47 0 0 1 9.27 3.29 455.16 455.16 0 0 1 2.75 49.89q0 4-.06 7.84a155.34 155.34 0 0 1 21 81.49 66.1 66.1 0 0 1 -36.55 97 155.67 155.67 0 0 1 -28.51 26.28 157.54 157.54 0 0 1 -34.78 18.74q-3.21 3.19-6.53 6.13c-7.7 6.85-41.22 30.68-51.11 27.58-19.69-5.69-38.12-17.3-54.63-33.69a155.86 155.86 0 0 1 -78.57-223.56q-.08-3.9-.07-7.83a454.7 454.7 0 0 1 2.81-50.37 5.47 5.47 0 0 1 9.08-3.48c7.51 6.55 19.13 12.33 29.1 15.5zm18.7.57h150.52a145.54 145.54 0 0 0 -150.52 0zm166.3 11c-25.17 0-173.63 3.13-185.39-.21a105.29 105.29 0 0 1 -27.89-12.64c-6.63 73.26 5.33 149 34.27 207.07 11 22 24 40.77 38.61 55.51 15 15.09 31.64 25.85 49.31 31.25 14.78-4.53 29-13.09 42.21-24.82s25.12-26.4 35.59-43.43a66.06 66.06 0 0 1 -26.72-107.74v-40.34a5.48 5.48 0 1 1 10.95 0v30.93a66.08 66.08 0 0 1 57.69-8.2 439.79 439.79 0 0 0 2.56-99.27c-5 3.49-23.32 13-31.19 11.84zm95.65 258.39-12.69-21.49a214.74 214.74 0 0 0 36.84-89.1l24.11-6.26a5.46 5.46 0 0 0 4.09-5.49v-47.09a5.46 5.46 0 0 0 -4.27-5.33l-24-6.17a214.19 214.19 0 0 0 -36.93-89l12.51-21.26a5.46 5.46 0 0 0 -.72-6.86l-33.31-33.25a5.46 5.46 0 0 0 -6.83-1l-21.54 12.71a215 215 0 0 0 -89-36.89l-6.26-24.11a5.46 5.46 0 0 0 -5.49-4.09h-47.09a5.46 5.46 0 0 0 -5.33 4.27l-6.17 24a214.19 214.19 0 0 0 -89 36.93l-21.29-12.47a5.46 5.46 0 0 0 -6.86.72l-33.22 33.27a5.46 5.46 0 0 0 -1 6.83l12.71 21.54a215.08 215.08 0 0 0 -36.89 89l-24.11 6.26a5.46 5.46 0 0 0 -4.09 5.49v47.09a5.46 5.46 0 0 0 4.27 5.33l24 6.17a214.19 214.19 0 0 0 36.93 89l-12.47 21.29a5.46 5.46 0 0 0 .72 6.86l33.27 33.22a5.46 5.46 0 0 0 6.83 1l21.54-12.66a215 215 0 0 0 89 36.84l6.26 24.11a5.46 5.46 0 0 0 5.49 4.09h47.09a5.46 5.46 0 0 0 5.33-4.27l6.17-24a214.19 214.19 0 0 0 89-36.93l21.26 12.51a5.46 5.46 0 0 0 6.86-.72l33.22-33.27a5.46 5.46 0 0 0 1-6.83zm-11.56 1.92-12.37-20.94a5.47 5.47 0 0 1 .43-6.18 209.12 209.12 0 0 0 12.38-18.95 201.74 201.74 0 0 0 25-71.58 5.47 5.47 0 0 1 4.4-4.58l23.15-6v-38.85l-23.09-5.94a5.47 5.47 0 0 1 -4.52-4.58 203.43 203.43 0 0 0 -37.56-90.71 5.47 5.47 0 0 1 -.2-6.22l12.19-20.72-27.53-27.44-20.94 12.37a5.47 5.47 0 0 1 -6.18-.43 211.38 211.38 0 0 0 -18.93-12.38 202.1 202.1 0 0 0 -71.6-25 5.47 5.47 0 0 1 -4.58-4.4l-6-23.15h-38.85l-5.94 23.17a5.48 5.48 0 0 1 -4.58 4.52 203.54 203.54 0 0 0 -90.66 37.53 5.47 5.47 0 0 1 -6.22.2l-20.72-12.19-27.44 27.48 12.37 20.94a5.47 5.47 0 0 1 -.43 6.18 211.38 211.38 0 0 0 -12.38 18.93 202.1 202.1 0 0 0 -25 71.6 5.47 5.47 0 0 1 -4.4 4.58l-23.15 6v38.85l23.17 5.94a5.48 5.48 0 0 1 4.52 4.59 203.55 203.55 0 0 0 37.53 90.65 5.47 5.47 0 0 1 .2 6.22l-12.19 20.72 27.48 27.44 20.94-12.37a5.47 5.47 0 0 1 6.18.43 208.86 208.86 0 0 0 19 12.38 202 202 0 0 0 71.58 25 5.47 5.47 0 0 1 4.58 4.4l6 23.15h38.85l5.94-23.09a5.48 5.48 0 0 1 4.58-4.52 203.54 203.54 0 0 0 90.61-37.56 5.47 5.47 0 0 1 6.22-.2l20.72 12.19zm-55.72-125.51a20.26 20.26 0 0 0 -14.78-19.5v-4.37a5.48 5.48 0 0 0 -11 0v4.37a20.23 20.23 0 0 0 -8.84 5.18c-12.74 12.73-3.66 34.58 14.32 34.58a9.31 9.31 0 1 1 -9.31 9.31 5.48 5.48 0 1 0 -10.95 0 20.28 20.28 0 0 0 14.78 19.51v5.56a5.48 5.48 0 0 0 11 0v-5.56a20.24 20.24 0 0 0 8.84-5.19c12.74-12.73 3.67-34.58-14.32-34.58a9.31 9.31 0 1 1 9.31-9.31 5.48 5.48 0 1 0 10.95 0zm25.05-32.66a143.17 143.17 0 0 0 -10.66-45c-.81 11.67-2.09 23.16-3.7 34.64a65.89 65.89 0 0 1 14.36 10.32zm-55.58 113.3a236.08 236.08 0 0 1 -14.52 21.62 145.74 145.74 0 0 0 27.11-20.87 66.83 66.83 0 0 1 -12.59-.75zm49.23-104.21a55.09 55.09 0 1 0 0 77.91 55.09 55.09 0 0 0 0-77.91zm-200.16-46.58v96.3a5.48 5.48 0 1 0 10.95 0v-96.3a5.48 5.48 0 1 0 -10.95 0zm-12.44 172.51c-35.64-47.57-55-114.19-59.45-179.91a145 145 0 0 0 59.45 179.91zm69-213.06v177.4a5.48 5.48 0 0 0 11 0v-177.4a5.48 5.48 0 0 0 -11 0z" fill-rule="evenodd" fill="#ffffff" fill-opacity="1" data-original-color="#000000ff" stroke="none" stroke-opacity="1"/></g></svg>