<svg id="Layer_1" viewBox="0 0 64 64" xmlns="http://www.w3.org/2000/svg" data-name="Layer 1" width="300" height="300" version="1.1" xmlns:xlink="http://www.w3.org/1999/xlink" xmlns:svgjs="http://svgjs.dev/svgjs"><g width="100%" height="100%" transform="matrix(1,0,0,1,0,0)"><path d="m41.37 39.09c.29-.15.49-.43.53-.76.07-.5.1-.93.1-1.34s-.03-.83-.1-1.34c-.04-.32-.24-.61-.53-.76l-.87-.45c-.17-.58-.4-1.13-.69-1.66l.3-.94c.1-.31.04-.65-.16-.91-.54-.71-1.18-1.35-1.9-1.9-.26-.2-.6-.26-.91-.16l-.94.3c-.53-.29-1.08-.52-1.66-.69l-.45-.87c-.15-.29-.43-.49-.76-.53-1.01-.13-1.67-.13-2.68 0-.32.04-.61.24-.76.53l-.45.87c-.58.17-1.13.4-1.66.69l-.94-.3c-.31-.1-.65-.04-.91.16-.71.54-1.35 1.18-1.9 1.9-.2.26-.26.6-.16.91l.3.94c-.29.53-.52 1.08-.69 1.66l-.87.45c-.29.15-.49.43-.53.76-.07.5-.1.93-.1 1.34s.03.83.1 1.34c.04.32.24.61.53.76l.87.45c.17.58.4 1.13.69 1.66l-.3.94c-.1.31-.04.65.16.91.54.71 1.18 1.35 1.9 1.9.26.2.6.26.91.16l.94-.3c.53.29 1.08.52 1.66.69l.45.87c.15.29.43.49.76.53.5.07.93.1 1.34.1s.83-.03 1.34-.1c.32-.04.61-.24.76-.53l.45-.87c.58-.17 1.13-.4 1.66-.69l.94.3c.31.1.65.04.91-.16.71-.54 1.35-1.18 1.9-1.9.2-.26.26-.6.16-.91l-.3-.94c.29-.53.52-1.08.69-1.66zm-1.39-1.53-.79.41c-.26.13-.45.37-.51.65-.17.69-.44 1.34-.81 1.95-.15.25-.19.55-.1.83l.27.84c-.25.29-.52.55-.8.8l-.84-.27c-.28-.09-.58-.05-.83.1-.6.37-1.26.64-1.95.81-.28.07-.52.26-.65.51l-.41.79c-.4.03-.72.03-1.13 0l-.41-.79c-.13-.26-.37-.45-.65-.51-.69-.17-1.34-.44-1.95-.81-.25-.15-.55-.19-.83-.1l-.84.27c-.29-.25-.55-.52-.8-.8l.27-.84c.09-.28.05-.58-.1-.83-.37-.6-.64-1.26-.81-1.95-.07-.28-.26-.52-.51-.65l-.79-.41c-.02-.2-.02-.39-.02-.56s0-.36.02-.56l.79-.41c.26-.13.45-.37.51-.65.17-.69.44-1.34.81-1.95.15-.25.19-.55.1-.83l-.27-.84c.25-.29.52-.55.8-.8l.84.27c.28.09.58.05.83-.1.6-.37 1.26-.64 1.95-.81.28-.07.52-.26.65-.51l.41-.79c.4-.03.72-.03 1.13 0l.41.79c.13.26.37.45.65.51.69.17 1.34.44 1.95.81.25.15.55.19.83.1l.84-.27c.29.25.55.52.8.8l-.27.84c-.09.28-.05.58.1.83.37.6.64 1.26.81 1.95.07.28.26.52.51.65l.79.41c.02.2.02.39.02.56s0 .36-.02.56z" fill="#ffffff" fill-opacity="1" data-original-color="#000000ff" stroke="none" stroke-opacity="1"/><path d="m32 32c-2.76 0-5 2.24-5 5s2.24 5 5 5 5-2.24 5-5-2.24-5-5-5zm0 8c-1.65 0-3-1.35-3-3s1.35-3 3-3 3 1.35 3 3-1.35 3-3 3z" fill="#ffffff" fill-opacity="1" data-original-color="#000000ff" stroke="none" stroke-opacity="1"/><path d="m32 1c-5.51 0-10 4.49-10 10s4.49 10 10 10 10-4.49 10-10-4.49-10-10-10zm-3 17.41v-5.41c0-.55.45-1 1-1h4c.55 0 1 .45 1 1v5.41c-.93.38-1.94.59-3 .59s-2.07-.21-3-.59zm1.5-10.91c0-.83.67-1.5 1.5-1.5s1.5.67 1.5 1.5-.67 1.5-1.5 1.5-1.5-.67-1.5-1.5zm6.5 9.74v-4.24c0-1.52-1.14-2.77-2.61-2.96.68-.64 1.11-1.54 1.11-2.54 0-1.93-1.57-3.5-3.5-3.5s-3.5 1.57-3.5 3.5c0 1 .43 1.9 1.11 2.54-1.47.2-2.61 1.44-2.61 2.96v4.24c-1.83-1.47-3-3.72-3-6.24 0-4.41 3.59-8 8-8s8 3.59 8 8c0 2.52-1.17 4.77-3 6.24z" fill="#ffffff" fill-opacity="1" data-original-color="#000000ff" stroke="none" stroke-opacity="1"/><path d="m14.31 21.64c.19.23.47.35.76.35.07 0 .14 0 .21-.02.36-.08.65-.35.75-.7l2-6.93c.09-.32.02-.67-.2-.92-.21-.25-.54-.39-.88-.35l-7.16.81c-.37.04-.68.28-.82.62s-.07.73.17 1.01l2.22 2.63c-3.45 4.4-5.37 9.84-5.37 15.43 0 1.14.08 2.29.23 3.41l1.98-.27c-.14-1.04-.21-2.09-.21-3.14 0-5.01 1.67-9.88 4.69-13.87l1.62 1.92zm1.39-6.41-1.07 3.69-2.75-3.26z" fill="#ffffff" fill-opacity="1" data-original-color="#000000ff" stroke="none" stroke-opacity="1"/><path d="m44 15.75c4.97 3.4 8.38 8.56 9.56 14.47l-2.87.13c-.37.02-.7.24-.86.57s-.12.73.1 1.02l4.27 5.81c.19.26.49.41.81.41h.05c.33-.02.64-.2.81-.48l3.72-6.18c.19-.32.19-.71 0-1.03s-.5-.51-.91-.49l-3.1.14c-1.23-6.61-5.02-12.38-10.59-16.13l-.98 1.75zm12.9 16.32-1.98 3.29-2.28-3.1 4.26-.2z" fill="#ffffff" fill-opacity="1" data-original-color="#000000ff" stroke="none" stroke-opacity="1"/><path d="m25.84 62.58c.19.27.49.42.82.42h.12c.37-.04.68-.29.81-.63l1.02-2.64c.54.09 1.09.17 1.64.23.78.08 1.56.11 2.33.11 3.42 0 6.81-.73 9.93-2.15l-.83-1.82c-3.51 1.6-7.4 2.24-11.24 1.87-.37-.04-.74-.08-1.1-.14l1.13-2.92c.13-.34.06-.73-.18-1.01s-.62-.4-.98-.32l-7.04 1.58c-.33.07-.59.3-.71.62-.12.31-.08.66.12.94l4.16 5.89zm2.09-6.66-1.53 3.98-2.22-3.14z" fill="#ffffff" fill-opacity="1" data-original-color="#000000ff" stroke="none" stroke-opacity="1"/><path d="m53 40c-5.51 0-10 4.49-10 10s4.49 10 10 10 10-4.49 10-10-4.49-10-10-10zm0 18c-4.41 0-8-3.59-8-8s3.59-8 8-8 8 3.59 8 8-3.59 8-8 8z" fill="#ffffff" fill-opacity="1" data-original-color="#000000ff" stroke="none" stroke-opacity="1"/><path d="m9.23 52.08h-2c0 1.59 1.22 2.89 2.77 3.05v.88h2v-.88c1.55-.16 2.77-1.46 2.77-3.05s-1.22-2.89-2.77-3.05v-2.12c.44.13.77.53.77 1.01h2c0-1.59-1.22-2.89-2.77-3.05v-.88h-2v.88c-1.55.16-2.77 1.46-2.77 3.05s1.22 2.89 2.77 3.05v2.12c-.44-.13-.77-.53-.77-1.01zm3.54 0c0 .48-.33.88-.77 1.01v-2.03c.44.13.77.53.77 1.01zm-3.54-4.15c0-.48.33-.88.77-1.01v2.03c-.44-.13-.77-.53-.77-1.01z" fill="#ffffff" fill-opacity="1" data-original-color="#000000ff" stroke="none" stroke-opacity="1"/><path d="m11 60c5.51 0 10-4.49 10-10s-4.49-10-10-10-10 4.49-10 10 4.49 10 10 10zm0-18c4.41 0 8 3.59 8 8s-3.59 8-8 8-8-3.59-8-8 3.59-8 8-8z" fill="#ffffff" fill-opacity="1" data-original-color="#000000ff" stroke="none" stroke-opacity="1"/><path d="m57 45h-8c-.55 0-1 .45-1 1v8c0 .55.45 1 1 1h8c.55 0 1-.45 1-1v-8c0-.55-.45-1-1-1zm-1 8h-6v-6h2v3h2v-3h2z" fill="#ffffff" fill-opacity="1" data-original-color="#000000ff" stroke="none" stroke-opacity="1"/></g></svg>