<svg id="Layer_1" enable-background="new 0 0 68 68" height="300" viewBox="0 0 68 68" width="300" xmlns="http://www.w3.org/2000/svg" version="1.1" xmlns:xlink="http://www.w3.org/1999/xlink" xmlns:svgjs="http://svgjs.dev/svgjs"><g width="100%" height="100%" transform="matrix(1,0,0,1,0,0)"><g id="_x31_34"><path d="m10.1 20.3 1.8 1c.1.1.1.2 0 .1-.1 1.2-.1 1.8 0 2.8l-1.8 1c-1 .6-1.3 1.9-.8 2.9l1.7 2.9c.6 1 1.9 1.4 2.9.8l1.8-1h.1c.7.5 1.4.9 2.2 1.3.1 0 .1.1.1.1v2.1c0 1.2.9 2.1 2.1 2.1h3.3c1.2 0 2.1-.9 2.1-2.1v-2.1c0-.1.1-.1.1-.1.8-.3 1.6-.8 2.2-1.3h.1l1.8 1c1 .6 2.3.3 2.9-.8l1.7-2.9c.6-1 .3-2.3-.8-2.9l-1.8-1s-.1-.1-.1-.1c.2-1.1.1-2 .1-2.8l1.8-1c1-.6 1.4-1.9.8-2.9l-1.7-2.9c-.6-1-1.9-1.3-2.9-.8l-1.8 1h-.1c-.7-.5-1.4-.9-2.2-1.3-.1 0-.1-.1-.1-.1v-2.1c0-1.2-.9-2.1-2.1-2.1h-3.3c-1.2 0-2.1.9-2.1 2.1v2.1s0 .1-.1.1c-.8.3-1.5.8-2.2 1.3-.1 0-.1 0-.1 0l-1.8-1c-1-.6-2.3-.2-2.9.8l-1.7 2.9c-.6 1.1-.2 2.4.8 2.9zm.9-1.9 1.7-2.9s.1-.1.1 0l1.8 1c.7.4 1.6.4 2.4-.2.6-.4 1.2-.8 1.8-1 .8-.3 1.3-1.1 1.3-2v-2.1c0-.1 0-.1.1-.1h3.3c.1 0 .1.1.1.1v2.1c0 .8.5 1.6 1.3 2 .6.3 1.2.6 1.8 1 .7.5 1.6.6 2.3.2l1.8-1h.2l1.7 2.9v.1l-1.8 1c-.7.4-1.2 1.3-1 2.1.1.6.1 1.5 0 2.2-.1.8.3 1.6 1 2.1l1.8 1c0 .1.1.3 0 .2l-1.6 2.9s-.1.1-.2 0l-1.8-1c-.7-.4-1.7-.4-2.4.2-.5.4-1.1.7-1.7 1-.8.3-1.4 1.1-1.4 2 0 1.9.1 2.2-.1 2.2-3.3 0-3.4.1-3.4-.1v-2.1c0-.9-.5-1.6-1.3-2-.6-.3-1.2-.6-1.8-1-.7-.5-1.6-.6-2.4-.2l-1.8 1h-.1l-1.7-2.9c0-.1 0-.1 0-.2l1.8-1c.7-.4 1.1-1.2 1-2.1-.1-.7-.1-1.4 0-2.1.1-.8-.3-1.7-1-2.1l-1.8-1s0-.1 0-.2z" fill="#ffffff" fill-opacity="1" data-original-color="#000000ff" stroke="none" stroke-opacity="1"/><path d="m21.9 28.8c3.3 0 6.1-2.7 6.1-6.1 0-3.3-2.7-6.1-6.1-6.1s-6.1 2.7-6.1 6.1 2.7 6.1 6.1 6.1zm0-10.1c2.2 0 4.1 1.8 4.1 4.1s-1.8 4.1-4.1 4.1-4.1-1.8-4.1-4.1 1.8-4.1 4.1-4.1z" fill="#ffffff" fill-opacity="1" data-original-color="#000000ff" stroke="none" stroke-opacity="1"/><path d="m6.3 65.7h22.3c.6 0 1-.4 1-1s-.4-1-1-1h-22.3c-1.1 0-2-.9-2-2v-12.5c0-5 4-9 9-9h2.4l2.6 5.5-2.1 7.7c-.1.3 0 .7.2.9l4.7 5.1c.4.4 1.1.4 1.5 0l4.7-5.1c.2-.3.3-.6.2-.9l-2.1-7.7 2.6-5.5h2.4c4.2 0 7.8 2.9 8.8 7-.9.1-1.6.8-1.6 1.7v1.2c-.4.2-.9.5-1.3.8l-1.1-.6c-.8-.5-1.9-.2-2.4.6l-1.1 1.9c-.5.8-.2 1.9.6 2.4l1 .6c-.1.5-.1 1 0 1.5l-1 .6c-.8.5-1.1 1.5-.6 2.4l1.1 1.9c.2.4.6.7 1.1.8 1 .3 1.6-.4 2.4-.8.4.3.8.5 1.3.8v1.2c0 1 .8 1.7 1.7 1.7h2.2c1 0 1.7-.8 1.7-1.7v-1.2c.5-.2.9-.5 1.3-.8l1 .6c.8.5 1.9.2 2.4-.6l1.1-1.9c.5-.8.2-1.9-.6-2.4-.1-.1-1.1-.7-1-.6 0-.5 0-1 0-1.5l1-.6c.8-.5 1.1-1.6.6-2.4l-1-1.9c-.5-.8-1.5-1.1-2.4-.6l-1.1.6c-.4-.3-.8-.5-1.3-.8v-1.2c0-1-.8-1.7-1.7-1.7h-.3c-1-5.2-5.5-9-10.8-9h-17.1c-6.1 0-11 4.9-11 11v12.5c0 2.2 1.8 4 4 4zm33.3-16.5h1.7v1.1c0 .7.4 1.3 1.1 1.6.4.2.8.4 1.1.7.6.4 1.3.5 1.9.1l1-.6.9 1.5-1 .6c-.6.4-1 1-.9 1.7.1.4.1.9 0 1.4-.1.7.3 1.4.9 1.7l1 .6-.9 1.4-1-.5c-.6-.4-1.4-.3-1.9.1-.3.3-.7.5-1.1.6-.7.3-1.1.9-1.1 1.6v1.2h-1.7v-1.1c0-.7-.4-1.4-1.1-1.6-.4-.2-.8-.4-1.1-.6-.6-.4-1.3-.5-1.9-.1l-1 .6-.9-1.5 1-.6c.6-.4.9-1 .9-1.7-.1-.5-.1-.9 0-1.3.1-.7-.2-1.4-.8-1.7l-1-.6.9-1.5 1 .6c.6.4 1.4.3 1.9-.1.4-.3.7-.5 1.1-.6.7-.3 1.1-.9 1.1-1.6v-1.4zm-14.1 4.2-3.6 3.9-3.6-3.9 1.9-6.8h3.5zm.3-13.2-2 4.4h-3.8l-2-4.4z" fill="#ffffff" fill-opacity="1" data-original-color="#000000ff" stroke="none" stroke-opacity="1"/><path d="m41.1 20h1.8v3.9c0 .9 1 1.3 1.7.8l5.4-4.7h12.5c1.7 0 3.1-1.4 3.1-3.1v-11.8c0-1.7-1.4-3.1-3.1-3.1h-21.4c-1.7 0-3.1 1.4-3.1 3.1v11.7c0 1.8 1.4 3.2 3.1 3.2zm-1.1-14.9c0-.6.5-1.1 1.1-1.1h21.4c.6 0 1.1.5 1.1 1.1v11.7c0 .6-.5 1.1-1.1 1.1h-12.9c-.2 0-.5.1-.7.2l-4 3.5v-2.6c0-.6-.4-1-1-1h-2.8c-.6 0-1.1-.5-1.1-1.1z" fill="#ffffff" fill-opacity="1" data-original-color="#000000ff" stroke="none" stroke-opacity="1"/><path d="m43.7 9h3.2c.6 0 1-.4 1-1s-.4-1-1-1h-3.2c-.6 0-1 .4-1 1s.4 1 1 1z" fill="#ffffff" fill-opacity="1" data-original-color="#000000ff" stroke="none" stroke-opacity="1"/><path d="m52.1 9h7.9c.6 0 1-.4 1-1s-.4-1-1-1h-7.9c-.6 0-1 .4-1 1s.4 1 1 1z" fill="#ffffff" fill-opacity="1" data-original-color="#000000ff" stroke="none" stroke-opacity="1"/><path d="m60 13h-2.2c-.6 0-1 .4-1 1s.4 1 1 1h2.2c.6 0 1-.4 1-1s-.5-1-1-1z" fill="#ffffff" fill-opacity="1" data-original-color="#000000ff" stroke="none" stroke-opacity="1"/><path d="m43.7 15h8.9c.6 0 1-.4 1-1s-.4-1-1-1h-8.9c-.6 0-1 .4-1 1s.4 1 1 1z" fill="#ffffff" fill-opacity="1" data-original-color="#000000ff" stroke="none" stroke-opacity="1"/><path d="m36.9 56.6c0 1.9 1.6 3.5 3.5 3.5s3.5-1.6 3.5-3.5-1.6-3.5-3.5-3.5-3.5 1.6-3.5 3.5zm3.5-1.5c.8 0 1.5.7 1.5 1.5s-.7 1.5-1.5 1.5-1.5-.7-1.5-1.5.7-1.5 1.5-1.5z" fill="#ffffff" fill-opacity="1" data-original-color="#000000ff" stroke="none" stroke-opacity="1"/></g></g></svg>