<svg id="Layer_1" enable-background="new 0 0 512 512" height="300" viewBox="0 0 512 512" width="300" xmlns="http://www.w3.org/2000/svg" version="1.1" xmlns:xlink="http://www.w3.org/1999/xlink" xmlns:svgjs="http://svgjs.dev/svgjs"><g width="100%" height="100%" transform="matrix(1,0,0,1,0,0)"><path d="m498.874 97.085-9.926-3.82c-1.561-5.265-3.666-10.344-6.292-15.176l4.32-9.726c1.343-3.024.686-6.563-1.654-8.904l-15.854-15.854c-2.341-2.34-5.879-2.999-8.904-1.654l-9.729 4.321c-4.832-2.625-9.911-4.731-15.174-6.292l-3.821-9.927c-1.188-3.088-4.156-5.126-7.466-5.126h-22.42c-3.31 0-6.277 2.038-7.466 5.126l-3.821 9.927c-5.264 1.56-10.342 3.666-15.175 6.291l-9.728-4.32c-3.023-1.343-6.562-.686-8.903 1.654l-15.854 15.854c-2.341 2.34-2.998 5.88-1.655 8.904l4.319 9.725c-2.626 4.834-4.732 9.914-6.293 15.179l-9.923 3.819c-3.088 1.188-5.126 4.156-5.126 7.466v3.211h-229.675c-21.344 0-38.708 17.364-38.708 38.708v134.201l-2.51-1.115c-3.026-1.344-6.564-.686-8.903 1.654l-15.854 15.854c-2.341 2.34-2.998 5.88-1.655 8.905l4.319 9.723c-2.626 4.833-4.732 9.913-6.294 15.18l-9.923 3.819c-3.088 1.188-5.126 4.156-5.126 7.465v22.421c0 3.31 2.038 6.277 5.126 7.466l9.927 3.821c1.561 5.264 3.666 10.342 6.292 15.174l-4.321 9.728c-1.343 3.024-.686 6.563 1.654 8.904l15.854 15.854c2.341 2.34 5.879 2.999 8.904 1.654l9.724-4.318c4.833 2.625 9.913 4.731 15.18 6.292l3.82 9.924c1.188 3.088 4.156 5.126 7.466 5.126h22.42c3.31 0 6.277-2.038 7.466-5.126l3.821-9.927c5.263-1.56 10.342-3.667 15.174-6.292l9.729 4.321c3.024 1.342 6.563.685 8.903-1.654l15.854-15.854c2.341-2.34 2.998-5.88 1.655-8.904l-1.923-4.331h20.177v32.789h-38.743c-18.851 0-34.188 12.975-34.188 28.923v20.924c0 4.418 3.582 8 8 8h271.403c4.418 0 8-3.582 8-8v-20.924c0-15.948-15.337-28.923-34.188-28.923h-38.743v-32.789h98.247c21.344 0 38.708-17.365 38.708-38.708v-169.75c.021-.021.047-.037.068-.059l15.854-15.854c2.341-2.34 2.998-5.88 1.655-8.904l-4.319-9.724c2.626-4.833 4.732-9.913 6.293-15.18l9.923-3.819c3.089-1.189 5.127-4.157 5.127-7.466v-22.421c.001-3.309-2.037-6.277-5.125-7.466zm-324.958 231.624c-1.474-4.492-3.326-8.849-5.589-13.014l4.32-9.726c1.343-3.024.686-6.564-1.654-8.904l-15.854-15.854c-2.341-2.34-5.879-2.998-8.904-1.655l-9.729 4.321c-4.833-2.625-9.911-4.731-15.174-6.292l-3.82-9.926c-1.188-3.088-4.156-5.126-7.466-5.126h-14.421v-113.093h246.034c.636 1.347 1.302 2.68 2.015 3.992l-4.321 9.728c-1.343 3.025-.686 6.564 1.655 8.904l15.854 15.854c2.339 2.34 5.878 2.998 8.903 1.655l9.724-4.319c4.833 2.626 9.914 4.732 15.18 6.293l3.819 9.923c1.188 3.089 4.156 5.126 7.466 5.126h22.421c1.182 0 2.315-.27 3.345-.745v122.857h-253.804zm-81.262-204.947h229.676v3.209c0 2.608 1.278 4.989 3.326 6.469h-233.772c-6.76 0-12.259 5.5-12.259 12.259v123.347l-3.287 8.539c-2.166.642-4.292 1.4-6.392 2.225v-133.34c0-12.521 10.187-22.708 22.708-22.708zm59.398 270.052 3.743 8.428-8.086 8.085-8.433-3.745c-2.409-1.07-5.195-.884-7.441.5-5.696 3.507-11.873 6.068-18.358 7.612-2.565.611-4.666 2.447-5.613 4.909l-3.311 8.601h-11.436l-3.31-8.598c-.947-2.461-3.048-4.298-5.613-4.909-6.491-1.544-12.669-4.106-18.363-7.613-2.248-1.384-5.033-1.57-7.442-.499l-8.428 3.743-8.085-8.085 3.745-8.432c1.07-2.412.884-5.196-.5-7.443-3.507-5.694-6.067-11.871-7.611-18.357-.61-2.566-2.446-4.667-4.908-5.614l-8.602-3.312v-11.435l8.598-3.309c2.461-.947 4.298-3.047 4.908-5.613 1.546-6.492 4.106-12.67 7.613-18.364 1.384-2.247 1.57-5.031.5-7.443l-3.743-8.427 8.086-8.086 8.432 3.745c2.409 1.07 5.195.884 7.441-.5 5.696-3.507 11.873-6.068 18.358-7.611 2.565-.611 4.666-2.447 5.613-4.909l3.311-8.601h11.436l3.311 8.601c.947 2.462 3.048 4.298 5.613 4.909 6.485 1.543 12.662 4.104 18.359 7.612 2.248 1.384 5.032 1.569 7.441.499l8.432-3.745 8.086 8.086-3.744 8.43c-1.07 2.411-.884 5.195.5 7.442 3.507 5.695 6.067 11.872 7.61 18.359.611 2.566 2.447 4.667 4.909 5.614l8.6 3.31v11.436l-8.598 3.309c-2.461.947-4.298 3.047-4.908 5.613-1.545 6.491-4.106 12.669-7.613 18.364-1.383 2.248-1.57 5.032-.499 7.443zm237.322 64.335v12.924h-255.403v-12.924c0-7.005 8.329-12.923 18.188-12.923h219.028c9.858 0 18.187 5.918 18.187 12.923zm-72.931-28.923h-109.542v-32.789h109.542zm114.247-48.789h-257.595c.55-1.509 1.069-3.03 1.526-4.573l9.923-3.819c3.088-1.188 5.126-4.156 5.126-7.466v-19.869h246.05c4.418 0 8-3.582 8-8v-148.05c2.423-1.017 4.799-2.149 7.116-3.407l2.562 1.138v171.338c0 12.521-10.186 22.708-22.708 22.708zm57.31-258.958-8.598 3.309c-2.463.948-4.299 3.048-4.91 5.615-1.544 6.491-4.104 12.668-7.611 18.362-1.384 2.247-1.57 5.031-.5 7.442l3.743 8.428-8.086 8.086-8.432-3.745c-2.409-1.07-5.195-.884-7.441.5-5.696 3.507-11.873 6.068-18.358 7.611-2.566.61-4.667 2.447-5.614 4.909l-3.311 8.601h-11.435l-3.31-8.598c-.947-2.462-3.048-4.299-5.614-4.909-6.489-1.544-12.668-4.105-18.362-7.612-2.248-1.384-5.032-1.569-7.442-.5l-8.428 3.743-8.086-8.086 3.745-8.431c1.07-2.411.884-5.195-.499-7.442-3.508-5.698-6.069-11.874-7.612-18.358-.61-2.566-2.446-4.666-4.908-5.614l-8.601-3.311v-11.436l8.598-3.309c2.462-.947 4.298-3.048 4.909-5.614 1.543-6.488 4.104-12.666 7.612-18.363 1.383-2.247 1.569-5.03.499-7.441l-3.743-8.428 8.086-8.085 8.432 3.745c2.409 1.071 5.195.885 7.441-.499 5.695-3.507 11.872-6.068 18.358-7.611 2.566-.611 4.667-2.447 5.614-4.909l3.311-8.601h11.436l3.311 8.601c.947 2.461 3.048 4.298 5.614 4.909 6.485 1.543 12.661 4.104 18.357 7.611 2.246 1.384 5.032 1.57 7.441.499l8.432-3.745 8.086 8.086-3.744 8.43c-1.07 2.411-.884 5.195.5 7.442 3.507 5.695 6.067 11.872 7.611 18.359.61 2.566 2.446 4.667 4.908 5.614l8.601 3.311zm-74.836-56.237c-27.856 0-50.519 22.663-50.519 50.52s22.662 50.519 50.519 50.519 50.52-22.663 50.52-50.519-22.663-50.52-50.52-50.52zm0 85.039c-19.033 0-34.519-15.485-34.519-34.519s15.485-34.52 34.519-34.52 34.52 15.485 34.52 34.52c0 19.033-15.486 34.519-34.52 34.519zm-314.329 152.568c-27.856 0-50.52 22.663-50.52 50.52s22.663 50.519 50.52 50.519 50.52-22.663 50.52-50.519-22.664-50.52-50.52-50.52zm0 85.038c-19.034 0-34.52-15.485-34.52-34.519s15.485-34.52 34.52-34.52 34.52 15.485 34.52 34.52c-.001 19.034-15.486 34.519-34.52 34.519zm162.837-229.312c-44.388 0-80.5 36.112-80.5 80.5s36.112 80.5 80.5 80.5 80.5-36.112 80.5-80.5-36.112-80.5-80.5-80.5zm0 145c-35.565 0-64.5-28.935-64.5-64.5s28.935-64.5 64.5-64.5 64.5 28.934 64.5 64.5-28.935 64.5-64.5 64.5zm33.267-104.881c-5.006.02-9.701 1.988-13.221 5.542l-29.597 29.892-10.515-10.515c-3.542-3.542-8.251-5.492-13.261-5.492s-9.719 1.951-13.261 5.493c-7.312 7.312-7.312 19.209 0 26.521l23.827 23.827c3.542 3.542 8.251 5.492 13.261 5.492s9.719-1.951 13.261-5.492c9.049-9.049 18.173-18.304 26.997-27.254 5.291-5.366 10.581-10.731 15.885-16.084 7.261-7.33 7.222-19.207-.089-26.477-3.537-3.517-8.227-5.451-13.213-5.451-.023-.002-.048-.002-.074-.002zm2.011 20.668c-5.312 5.362-10.612 10.737-15.912 16.112-8.805 8.931-17.909 18.166-26.918 27.175-.701.701-1.521.805-1.946.805-.427 0-1.246-.104-1.947-.806l-23.827-23.827c-1.074-1.074-1.074-2.82 0-3.894.701-.701 1.521-.806 1.946-.806.427 0 1.246.104 1.947.806l16.199 16.2c1.501 1.5 3.535 2.343 5.657 2.343h.02c2.129-.005 4.168-.859 5.665-2.371l35.254-35.605c.685-.692 1.493-.798 1.913-.8.469-.01 1.243.101 1.943.797 1.068 1.06 1.07 2.797.006 3.871z" fill="#ffffff" fill-opacity="1" data-original-color="#000000ff" stroke="none" stroke-opacity="1"/></g></svg>