<svg xmlns="http://www.w3.org/2000/svg" viewBox="0 0 512 512" width="300" height="300" version="1.1" xmlns:xlink="http://www.w3.org/1999/xlink" xmlns:svgjs="http://svgjs.dev/svgjs"><g width="100%" height="100%" transform="matrix(1,0,0,1,0,0)"><g id="_OUTLINE" data-name=" OUTLINE"><path d="M175.228,126.87305A38.70955,38.70955,0,0,0,185.939,156.87891a23.51,23.51,0,0,1,6.59083,18.18359,24.47468,24.47468,0,0,1-9.97413,17.47852l-3.71289,2.82031C166.86816,204.46,160,217.9082,160,232.25977v3.26953C160,260.05078,181.53271,280,208,280h40V392h16V280h40c26.46729,0,48-19.94922,48-44.4707v-3.26953c0-14.35157-6.86816-27.79981-18.84277-36.89844l-3.71241-2.82031a24.47365,24.47365,0,0,1-9.97461-17.47852,23.51,23.51,0,0,1,6.59083-18.18359A38.70955,38.70955,0,0,0,336.772,126.87305a39.65073,39.65073,0,0,0-15.98828-28.44239l-6.30322-4.78906a31.22329,31.22329,0,0,1-12.5-21.05273L299.16064,49.4502C296.83691,30.38086,279.50635,16,258.84766,16h-5.69532c-20.65869,0-37.98925,14.38086-40.313,33.4502l-2.81983,23.13867a31.22329,31.22329,0,0,1-12.5,21.05273l-6.30322,4.78906A39.65073,39.65073,0,0,0,175.228,126.87305Zm25.668-15.70215,6.30322-4.78906a47.09005,47.09005,0,0,0,18.70312-31.85743l2.81983-23.13867C230.06836,40.334,240.57129,32,253.15234,32h5.69532c12.58105,0,23.084,8.334,24.43017,19.38574l2.81983,23.13867a47.09005,47.09005,0,0,0,18.70312,31.85743l6.30322,4.78906a23.84957,23.84957,0,0,1,9.72364,17.0332,22.90787,22.90787,0,0,1-6.42383,17.71582,39.31562,39.31562,0,0,0-10.87842,30.47266,40.27629,40.27629,0,0,0,16.24023,28.88867l3.71192,2.82031C331.436,214.14746,336,222.95312,336,232.25977v3.26953C336,251.22852,321.645,264,304,264H264v-4.686l33.65674-33.65673-11.31348-11.31446L264,236.686V195.314l29.65674-29.65673-11.31348-11.31446L264,172.686V139.314l21.65674-21.65673-11.31348-11.31446L264,116.686V64H248v84.686l-26.34326-26.34327-11.31348,11.31446L248,171.314V220.686l-18.34326-18.34327-11.31348,11.31446L248,243.314V264H208c-17.645,0-32-12.77148-32-28.4707v-3.26953c0-9.30665,4.564-18.11231,12.522-24.15821l3.71289-2.82031a40.27569,40.27569,0,0,0,16.23975-28.88867,39.31478,39.31478,0,0,0-10.87891-30.47266,22.90566,22.90566,0,0,1-6.42334-17.71582A23.85123,23.85123,0,0,1,200.896,111.1709Z" fill="#ffffff" fill-opacity="1" data-original-color="#000000ff" stroke="none" stroke-opacity="1"/><path d="M400,279.708l-96,26.18164V362.3623a142.12043,142.12043,0,0,0,93.26611,133.15625L400,496.5127l2.73389-.99415A142.12043,142.12043,0,0,0,496,362.3623V305.88965Zm80,82.65429a126.09311,126.09311,0,0,1-80,117.08887A126.09311,126.09311,0,0,1,320,362.3623v-44.252L400,296.292l80,21.81836Z" fill="#ffffff" fill-opacity="1" data-original-color="#000000ff" stroke="none" stroke-opacity="1"/><polygon points="365.657 386.343 354.343 397.657 384 427.313 461.657 349.657 450.343 338.343 384 404.687 365.657 386.343" fill="#ffffff" fill-opacity="1" data-original-color="#000000ff" stroke="none" stroke-opacity="1"/><path d="M200,393.044V376a24,24,0,0,0,0-48h-.51782A64.10622,64.10622,0,0,0,144,272.51782V272a24,24,0,0,0-48,0v.51782A64.10622,64.10622,0,0,0,40.51782,328H40a24,24,0,0,0,0,48V393.044a22.83446,22.83446,0,0,0-3.37842,42.21093l4.66553,2.333a82.2406,82.2406,0,0,0,157.42578,0l4.666-2.333A22.83464,22.83464,0,0,0,200,393.044ZM96,288.67944V304h16V272a8,8,0,0,1,16,0v32h16V288.67944A48.10631,48.10631,0,0,1,183.32062,328H56.67938A48.10631,48.10631,0,0,1,96,288.67944ZM32,352a8.00917,8.00917,0,0,1,8-8H200a8,8,0,0,1,0,16H40A8.00917,8.00917,0,0,1,32,352Zm164.22314,68.94434L185.2749,426.418l-1.583,5.53906a66.24067,66.24067,0,0,1-127.38427-.001L54.7251,426.418l-10.94776-5.47363A6.83278,6.83278,0,0,1,46.833,408H56V376H184v32h9.167a6.83293,6.83293,0,0,1,3.05615,12.94434Z" fill="#ffffff" fill-opacity="1" data-original-color="#000000ff" stroke="none" stroke-opacity="1"/><path d="M64.606,271.36816C64.2041,266.291,64,261.12012,64,256A191.88251,191.88251,0,0,1,194.55859,74.03906l-5.11718-15.16015A207.87267,207.87267,0,0,0,48,256c0,5.54.2207,11.13574.65576,16.63184Z" fill="#ffffff" fill-opacity="1" data-original-color="#000000ff" stroke="none" stroke-opacity="1"/><path d="M256,448a193.43422,193.43422,0,0,1-38.4082-3.84082l-3.1836,15.67969a209.57029,209.57029,0,0,0,99.82764-4.10352l-4.47168-15.3623A192.29618,192.29618,0,0,1,256,448Z" fill="#ffffff" fill-opacity="1" data-original-color="#000000ff" stroke="none" stroke-opacity="1"/><path d="M448,256a194.87121,194.87121,0,0,1-1.36865,23.0498l15.88672,1.9004A210.93172,210.93172,0,0,0,464,256,207.87267,207.87267,0,0,0,322.55859,58.87891l-5.11718,15.16015A191.88251,191.88251,0,0,1,448,256Z" fill="#ffffff" fill-opacity="1" data-original-color="#000000ff" stroke="none" stroke-opacity="1"/></g></g></svg>