<svg id="Layer_1" enable-background="new 0 0 66 66" viewBox="0 0 66 66" xmlns="http://www.w3.org/2000/svg" width="300" height="300" version="1.1" xmlns:xlink="http://www.w3.org/1999/xlink" xmlns:svgjs="http://svgjs.dev/svgjs"><g width="100%" height="100%" transform="matrix(1,0,0,1,0,0)"><g><g><path d="m50.6 33.7h2.2c.5 0 .9-.3 1-.8l.2-.9c.3-.1.5-.2.8-.3l.7.5c.4.3.9.2 1.3-.1l1.6-1.6c.3-.3.4-.9.1-1.3l-.5-.7c.1-.3.2-.5.3-.8l.8-.1c.5-.1.8-.5.8-1v-2.2c0-.5-.3-.9-.8-1l-.8-.2c-.1-.3-.2-.5-.3-.8l.5-.7c.3-.4.2-.9-.1-1.3l-1.6-1.6c-.3-.3-.9-.4-1.3-.1l-.7.5c-.2-.1-.5-.2-.8-.3l-.1-.8c-.1-.5-.5-.8-1-.8h-2.2c-.5 0-.9.3-1 .8l-.1.8c-.3.1-.5.2-.8.3l-.8-.4c-.4-.3-.9-.2-1.3.1l-1.6 1.6c-.3.3-.4.9-.1 1.3l.5.7c-.1.3-.2.5-.3.8l-.8.2c-.5.1-.8.5-.8 1v2.2c0 .5.3.9.8 1l.8.1c.1.3.2.5.3.8l-.5.6c-.3.4-.2.9.1 1.3l1.6 1.6c.3.3.9.4 1.3.1l.7-.5c.3.1.5.2.8.3l.1.8c.1.5.5.9 1 .9zm-1.5-4c-.3-.2-.8-.2-1.1 0l-.5.4-.4-.4.4-.5c.2-.3.2-.8 0-1.1-.3-.4-.5-.9-.6-1.4-.1-.4-.4-.7-.8-.8l-.6-.1v-.6l.6-.1c.4-.1.7-.4.8-.8.1-.5.3-1 .6-1.4.2-.3.2-.8 0-1.1l-.4-.5.4-.4.5.4c.3.2.8.2 1.1 0 .4-.3.9-.5 1.4-.6.4-.1.7-.4.8-.8l.1-.6h.6l.1.6c.1.4.4.7.8.8.5.1 1 .3 1.4.6.3.2.8.2 1.1 0l.5-.4.4.4-.4.5c-.2.3-.2.8 0 1.1.3.4.5.9.6 1.4.1.4.4.7.8.8l.6.1v.6l-.6.1c-.4.1-.7.4-.8.8-.1.5-.3 1-.6 1.4-.2.3-.2.8 0 1.1l.4.5-.4.4-.5-.4c-.3-.2-.8-.2-1.1 0-.4.3-.9.5-1.4.6-.4.1-.7.4-.8.8l-.1.6h-.6l-.1-.7c-.1-.4-.4-.7-.8-.8s-.9-.3-1.4-.5z" fill="#ffffff" fill-opacity="1" data-original-color="#000000ff" stroke="none" stroke-opacity="1"/></g><g><path d="m55.5 25.5c0-2.1-1.7-3.7-3.7-3.7-2.1 0-3.7 1.7-3.7 3.7 0 2.1 1.7 3.7 3.7 3.7s3.7-1.7 3.7-3.7zm-5.5 0c0-1 .8-1.7 1.7-1.7 1 0 1.7.8 1.7 1.7 0 1-.8 1.7-1.7 1.7s-1.7-.8-1.7-1.7z" fill="#ffffff" fill-opacity="1" data-original-color="#000000ff" stroke="none" stroke-opacity="1"/></g><g><path d="m62.8 51.8h-.2c0-14.1 0-28.3 0-42.5 0-2.2-1.8-3.9-3.9-3.9h-51.4c-2.2 0-3.9 1.8-3.9 3.9v42.5h-.2c-1.2 0-2.2 1-2.2 2.2 0 3.6 2.9 6.5 6.5 6.5h50.9c3.6 0 6.5-2.9 6.5-6.5.1-1.2-.9-2.2-2.1-2.2zm-14-9.6h-3.9c-.8 0-1.4-.6-1.4-1.4v-4.8c0-.4-.3-.8-.6-.9l-3.2-1.3 2.4-4.3c.2-.2.3-.6.2-.9-1.6-7.8 4.3-15.4 12-16 .9-.1 4.3-.1 6.3.1v33.8h-10.8v-3.4c0-.4-.5-.9-1-.9zm-43.4-32.9c0-1.1.9-1.9 1.9-1.9h51.4c1.1 0 1.9.9 1.9 1.9v1.5c-2.3-.2-5.6-.2-6.5-.1-8.8.7-15.4 9.2-13.9 18l-2.8 5.3c-.1.3-.2.6-.1.8.1.3.3.5.6.6l3.7 1.4v4.1c0 1.9 1.5 3.4 3.4 3.4h2.9v3.4c0 .6.4 1 1 1h11.8v3.2h-55.3zm53.1 49.3h-51c-2.5 0-4.5-2.1-4.5-4.6 0-.1.1-.2.2-.2h59.6c.1 0 .2.1.2.2 0 2.5-2 4.6-4.5 4.6z" fill="#ffffff" fill-opacity="1" data-original-color="#000000ff" stroke="none" stroke-opacity="1"/></g><g><path d="m35.4 55.2h-4.8c-.6 0-1 .4-1 1s.4 1 1 1h4.8c.6 0 1-.4 1-1 0-.5-.5-1-1-1z" fill="#ffffff" fill-opacity="1" data-original-color="#000000ff" stroke="none" stroke-opacity="1"/></g><g><path d="m32.1 44.7h-20.2c-.6 0-1 .4-1 1s.4 1 1 1h20.2c.6 0 1-.4 1-1s-.4-1-1-1z" fill="#ffffff" fill-opacity="1" data-original-color="#000000ff" stroke="none" stroke-opacity="1"/></g><g><path d="m32.1 36.7h-20.2c-.6 0-1 .4-1 1s.4 1 1 1h20.2c.6 0 1-.4 1-1 0-.5-.4-1-1-1z" fill="#ffffff" fill-opacity="1" data-original-color="#000000ff" stroke="none" stroke-opacity="1"/></g><g><path d="m32.1 28.8h-20.2c-.6 0-1 .4-1 1s.4 1 1 1h20.2c.6 0 1-.4 1-1s-.4-1-1-1z" fill="#ffffff" fill-opacity="1" data-original-color="#000000ff" stroke="none" stroke-opacity="1"/></g><g><path d="m16.1 23.7c.4.4 1.1.3 1.4-.1.4-.4.3-1.1-.1-1.4l-3.9-3.3 3.9-3.3c.4-.4.5-1 .1-1.4s-1-.5-1.4-.1l-4.8 4c-.2.2-.4.5-.4.8s.1.6.4.8z" fill="#ffffff" fill-opacity="1" data-original-color="#000000ff" stroke="none" stroke-opacity="1"/></g><g><path d="m26.5 23.5c.4.4 1 .5 1.4.1l4.8-4c.2-.2.4-.5.4-.8s-.1-.6-.4-.8l-4.8-4c-.4-.4-1.1-.3-1.4.1-.4.4-.3 1.1.1 1.4l3.9 3.3-3.9 3.3c-.4.4-.5 1-.1 1.4z" fill="#ffffff" fill-opacity="1" data-original-color="#000000ff" stroke="none" stroke-opacity="1"/></g><g><path d="m19.1 25.3c.5.2 1.1 0 1.3-.5l5-11.1c.2-.5 0-1.1-.5-1.3s-1.1 0-1.3.5l-5 11.1c-.2.5 0 1.1.5 1.3z" fill="#ffffff" fill-opacity="1" data-original-color="#000000ff" stroke="none" stroke-opacity="1"/></g></g></g></svg>