<svg width="74" height="71" viewBox="0 0 74 71" fill="none" xmlns="http://www.w3.org/2000/svg">
<g id="Frame 1000001838">
<g id="graphic icon">
<g id="XMLID_858_">
<g id="XMLID_871_">
<g id="XMLID_22_">
<g id="XMLID_368_">
<mask id="path-1-inside-1_516_1658" fill="currentColor">
<path d="M60.9716 55.095H13.0281C10.7407 55.095 8.87988 53.2724 8.87988 51.0321V47.4771C8.87988 47.1534 9.1478 46.8911 9.47818 46.8911H64.5216C64.8521 46.8911 65.1199 47.1534 65.1199 47.4771V51.0321C65.1199 53.2724 63.2589 55.095 60.9716 55.095ZM10.0765 48.0631V51.0321C10.0765 52.6262 11.4005 53.923 13.0281 53.923H60.9718C62.5994 53.923 63.9234 52.6262 63.9234 51.0321V48.0631H10.0765Z"/>
</mask>
<path d="M60.9716 55.095H13.0281C10.7407 55.095 8.87988 53.2724 8.87988 51.0321V47.4771C8.87988 47.1534 9.1478 46.8911 9.47818 46.8911H64.5216C64.8521 46.8911 65.1199 47.1534 65.1199 47.4771V51.0321C65.1199 53.2724 63.2589 55.095 60.9716 55.095ZM10.0765 48.0631V51.0321C10.0765 52.6262 11.4005 53.923 13.0281 53.923H60.9718C62.5994 53.923 63.9234 52.6262 63.9234 51.0321V48.0631H10.0765Z" fill="url(#paint0_linear_516_1658)"/>
<path d="M10.0765 48.0631V44.0631H6.07648V48.0631H10.0765ZM63.9234 48.0631H67.9234V44.0631H63.9234V48.0631ZM60.9716 51.095H13.0281V59.095H60.9716V51.095ZM13.0281 51.095C12.9912 51.095 12.9664 51.0883 12.948 51.0806C12.9272 51.072 12.909 51.0595 12.8951 51.046C12.8813 51.0324 12.8773 51.0233 12.8776 51.024C12.8792 51.0276 12.8799 51.0332 12.8799 51.0321H4.87988C4.87988 55.5595 8.61036 59.095 13.0281 59.095V51.095ZM12.8799 51.0321V47.4771H4.87988V51.0321H12.8799ZM12.8799 47.4771C12.8799 49.441 11.2776 50.8911 9.47818 50.8911V42.8911C7.01798 42.8911 4.87988 44.8658 4.87988 47.4771H12.8799ZM9.47818 50.8911H64.5216V42.8911H9.47818V50.8911ZM64.5216 50.8911C62.7217 50.8911 61.1199 49.4405 61.1199 47.4771H69.1199C69.1199 44.8663 66.9824 42.8911 64.5216 42.8911V50.8911ZM61.1199 47.4771V51.0321H69.1199V47.4771H61.1199ZM61.1199 51.0321C61.1199 51.0332 61.1206 51.0276 61.1222 51.0239C61.1225 51.0232 61.1185 51.0324 61.1046 51.046C61.0908 51.0595 61.0725 51.072 61.0517 51.0806C61.0333 51.0883 61.0085 51.095 60.9716 51.095V59.095C65.3892 59.095 69.1199 55.5596 69.1199 51.0321H61.1199ZM6.07648 48.0631V51.0321H14.0765V48.0631H6.07648ZM6.07648 51.0321C6.07648 54.9133 9.27016 57.923 13.0281 57.923V49.923C13.5309 49.923 14.0765 50.3391 14.0765 51.0321H6.07648ZM13.0281 57.923H60.9718V49.923H13.0281V57.923ZM60.9718 57.923C64.7297 57.923 67.9234 54.9133 67.9234 51.0321H59.9234C59.9234 50.3391 60.469 49.923 60.9718 49.923V57.923ZM67.9234 51.0321V48.0631H59.9234V51.0321H67.9234ZM63.9234 44.0631H10.0765V52.0631H63.9234V44.0631Z" fill="#FBFBFB" mask="url(#path-1-inside-1_516_1658)"/>
</g>
</g>
<g id="XMLID_21_">
<g id="XMLID_367_">
<mask id="path-3-inside-2_516_1658" fill="currentColor">
<path d="M64.5216 48.0629H9.47818C9.1478 48.0629 8.87988 47.8006 8.87988 47.4769V21.2831C8.87988 18.6013 11.1076 16.4194 13.8458 16.4194H34.6668C34.9971 16.4194 35.2651 16.6818 35.2651 17.0054C35.2651 17.329 34.9971 17.5914 34.6668 17.5914H13.8458C11.7674 17.5914 10.0765 19.2475 10.0765 21.2831V46.8909H63.9233V21.2831C63.9233 19.2475 62.2324 17.5914 60.154 17.5914H46.5125C46.182 17.5914 45.9142 17.329 45.9142 17.0054C45.9142 16.6818 46.182 16.4194 46.5125 16.4194H60.154C62.8922 16.4194 65.1199 18.6013 65.1199 21.2831V47.4769C65.1199 47.8006 64.8521 48.0629 64.5216 48.0629Z"/>
</mask>
<path d="M64.5216 48.0629H9.47818C9.1478 48.0629 8.87988 47.8006 8.87988 47.4769V21.2831C8.87988 18.6013 11.1076 16.4194 13.8458 16.4194H34.6668C34.9971 16.4194 35.2651 16.6818 35.2651 17.0054C35.2651 17.329 34.9971 17.5914 34.6668 17.5914H13.8458C11.7674 17.5914 10.0765 19.2475 10.0765 21.2831V46.8909H63.9233V21.2831C63.9233 19.2475 62.2324 17.5914 60.154 17.5914H46.5125C46.182 17.5914 45.9142 17.329 45.9142 17.0054C45.9142 16.6818 46.182 16.4194 46.5125 16.4194H60.154C62.8922 16.4194 65.1199 18.6013 65.1199 21.2831V47.4769C65.1199 47.8006 64.8521 48.0629 64.5216 48.0629Z" fill="url(#paint1_linear_516_1658)"/>
<path d="M10.0765 46.8909H6.07648V50.8909H10.0765V46.8909ZM63.9233 46.8909V50.8909H67.9233V46.8909H63.9233ZM64.5216 44.0629H9.47818V52.0629H64.5216V44.0629ZM9.47818 44.0629C11.2776 44.0629 12.8799 45.5129 12.8799 47.4769H4.87988C4.87988 50.0882 7.01798 52.0629 9.47818 52.0629V44.0629ZM12.8799 47.4769V21.2831H4.87988V47.4769H12.8799ZM12.8799 21.2831C12.8799 20.8884 13.2379 20.4194 13.8458 20.4194V12.4194C8.97724 12.4194 4.87988 16.3142 4.87988 21.2831H12.8799ZM13.8458 20.4194H34.6668V12.4194H13.8458V20.4194ZM34.6668 20.4194C32.8668 20.4194 31.2651 18.969 31.2651 17.0054H39.2651C39.2651 14.3947 37.1275 12.4194 34.6668 12.4194V20.4194ZM31.2651 17.0054C31.2651 15.0419 32.8668 13.5914 34.6668 13.5914V21.5914C37.1275 21.5914 39.2651 19.6161 39.2651 17.0054H31.2651ZM34.6668 13.5914H13.8458V21.5914H34.6668V13.5914ZM13.8458 13.5914C9.63704 13.5914 6.07648 16.9604 6.07648 21.2831H14.0765C14.0765 21.4 14.0228 21.4902 13.9806 21.5316C13.9397 21.5716 13.8865 21.5914 13.8458 21.5914V13.5914ZM6.07648 21.2831V46.8909H14.0765V21.2831H6.07648ZM10.0765 50.8909H63.9233V42.8909H10.0765V50.8909ZM67.9233 46.8909V21.2831H59.9233V46.8909H67.9233ZM67.9233 21.2831C67.9233 16.9604 64.3627 13.5914 60.154 13.5914V21.5914C60.1133 21.5914 60.06 21.5716 60.0192 21.5316C59.9769 21.4902 59.9233 21.4 59.9233 21.2831H67.9233ZM60.154 13.5914H46.5125V21.5914H60.154V13.5914ZM46.5125 13.5914C48.3128 13.5914 49.9142 15.0424 49.9142 17.0054H41.9142C41.9142 19.6156 44.0511 21.5914 46.5125 21.5914V13.5914ZM49.9142 17.0054C49.9142 18.9684 48.3128 20.4194 46.5125 20.4194V12.4194C44.0511 12.4194 41.9142 14.3952 41.9142 17.0054H49.9142ZM46.5125 20.4194H60.154V12.4194H46.5125V20.4194ZM60.154 20.4194C60.7618 20.4194 61.1199 20.8884 61.1199 21.2831H69.1199C69.1199 16.3142 65.0225 12.4194 60.154 12.4194V20.4194ZM61.1199 21.2831V47.4769H69.1199V21.2831H61.1199ZM61.1199 47.4769C61.1199 45.5135 62.7217 44.0629 64.5216 44.0629V52.0629C66.9824 52.0629 69.1199 50.0877 69.1199 47.4769H61.1199Z" fill="#FBFBFB" mask="url(#path-3-inside-2_516_1658)"/>
</g>
</g>
<g id="XMLID_20_">
<g id="XMLID_364_">
<mask id="path-5-inside-3_516_1658" fill="currentColor">
<path d="M27.6076 30.3064C27.4512 30.3064 27.2984 30.2463 27.1845 30.1349C27.0288 29.9824 26.9713 29.7586 27.0346 29.5521L29.5729 21.2651C29.6014 21.1721 29.6528 21.0876 29.7228 21.0191L43.6839 7.34526C44.5879 6.45983 45.7899 5.97217 47.0682 5.97217C48.3468 5.97217 49.5486 6.45983 50.4527 7.34526C51.3568 8.23069 51.8547 9.40794 51.8547 10.6601C51.8547 11.9123 51.3568 13.0895 50.4527 13.975L36.4919 27.6487C36.4219 27.7173 36.3356 27.7678 36.2407 27.7956L27.7796 30.2817C27.723 30.2985 27.6651 30.3064 27.6076 30.3064ZM30.6756 21.7433L28.4999 28.8465L35.7524 26.7155L49.6067 13.1462C50.2847 12.482 50.6581 11.5992 50.6581 10.6601C50.6581 9.72098 50.2847 8.83801 49.6067 8.17396C48.9287 7.5098 48.0272 7.14415 47.0682 7.14415C46.1094 7.14415 45.2079 7.50992 44.5299 8.17396L30.6756 21.7433Z"/>
</mask>
<path d="M27.6076 30.3064C27.4512 30.3064 27.2984 30.2463 27.1845 30.1349C27.0288 29.9824 26.9713 29.7586 27.0346 29.5521L29.5729 21.2651C29.6014 21.1721 29.6528 21.0876 29.7228 21.0191L43.6839 7.34526C44.5879 6.45983 45.7899 5.97217 47.0682 5.97217C48.3468 5.97217 49.5486 6.45983 50.4527 7.34526C51.3568 8.23069 51.8547 9.40794 51.8547 10.6601C51.8547 11.9123 51.3568 13.0895 50.4527 13.975L36.4919 27.6487C36.4219 27.7173 36.3356 27.7678 36.2407 27.7956L27.7796 30.2817C27.723 30.2985 27.6651 30.3064 27.6076 30.3064ZM30.6756 21.7433L28.4999 28.8465L35.7524 26.7155L49.6067 13.1462C50.2847 12.482 50.6581 11.5992 50.6581 10.6601C50.6581 9.72098 50.2847 8.83801 49.6067 8.17396C48.9287 7.5098 48.0272 7.14415 47.0682 7.14415C46.1094 7.14415 45.2079 7.50992 44.5299 8.17396L30.6756 21.7433Z" fill="url(#paint2_linear_516_1658)"/>
<path d="M27.1845 30.1349L24.3856 32.9925L24.3871 32.994L27.1845 30.1349ZM27.0346 29.5521L30.8589 30.7244L30.8592 30.7236L27.0346 29.5521ZM29.5729 21.2651L25.7484 20.0932L25.7483 20.0936L29.5729 21.2651ZM29.7228 21.0191L26.924 18.1614H26.924L29.7228 21.0191ZM43.6839 7.34526L46.4828 10.2029L43.6839 7.34526ZM50.4527 7.34526L47.6538 10.2029L47.654 10.2031L50.4527 7.34526ZM50.4527 13.975L47.6538 11.1174L47.6538 11.1174L50.4527 13.975ZM36.4919 27.6487L39.2907 30.5064L39.2908 30.5064L36.4919 27.6487ZM36.2407 27.7956L35.117 23.9567L35.1131 23.9578L36.2407 27.7956ZM27.7796 30.2817L26.6519 26.4439L26.6439 26.4463L27.7796 30.2817ZM30.6756 21.7433L27.8767 18.8856L27.1492 19.5981L26.8509 20.5718L30.6756 21.7433ZM28.4999 28.8465L24.6753 27.6751L22.4995 34.7787L29.6276 32.6843L28.4999 28.8465ZM35.7524 26.7155L36.88 30.5532L37.838 30.2718L38.5512 29.5732L35.7524 26.7155ZM49.6067 13.1462L52.4056 16.0039L52.4058 16.0036L49.6067 13.1462ZM49.6067 8.17396L46.8075 11.0314L46.8078 11.0316L49.6067 8.17396ZM44.5299 8.17396L47.3288 11.0316L44.5299 8.17396ZM27.6076 26.3064C28.4695 26.3064 29.3289 26.6369 29.9819 27.2757L24.3871 32.994C25.2679 33.8558 26.4329 34.3064 27.6076 34.3064V26.3064ZM29.9834 27.2772C30.8839 28.1592 31.2386 29.4857 30.8589 30.7244L23.2102 28.3799C22.7039 30.0316 23.1737 31.8056 24.3856 32.9925L29.9834 27.2772ZM30.8592 30.7236L33.3975 22.4366L25.7483 20.0936L23.21 28.3807L30.8592 30.7236ZM33.3974 22.437C33.229 22.9864 32.9263 23.4805 32.5217 23.8768L26.924 18.1614C26.3794 18.6948 25.9737 19.3579 25.7484 20.0932L33.3974 22.437ZM32.5217 23.8768L46.4828 10.2029L40.885 4.48759L26.924 18.1614L32.5217 23.8768ZM46.4828 10.2029C46.6307 10.0581 46.8244 9.97217 47.0682 9.97217V1.97217C44.7554 1.97217 42.5452 2.86158 40.885 4.48759L46.4828 10.2029ZM47.0682 9.97217C47.3123 9.97217 47.5059 10.0581 47.6538 10.2029L53.2515 4.48759C51.5914 2.86158 49.3813 1.97217 47.0682 1.97217V9.97217ZM47.654 10.2031C47.799 10.3451 47.8547 10.4961 47.8547 10.6601H55.8547C55.8547 8.31981 54.9147 6.11627 53.2514 4.4874L47.654 10.2031ZM47.8547 10.6601C47.8547 10.8241 47.799 10.9751 47.6538 11.1174L53.2515 16.8327C54.9146 15.2039 55.8547 13.0006 55.8547 10.6601H47.8547ZM47.6538 11.1174L33.693 24.7911L39.2908 30.5064L53.2516 16.8327L47.6538 11.1174ZM33.693 24.7911C34.0949 24.3974 34.5848 24.1124 35.117 23.9567L37.3644 31.6345C38.0863 31.4232 38.7488 31.0372 39.2907 30.5064L33.693 24.7911ZM35.1131 23.9578L26.6519 26.4439L28.9072 34.1195L37.3683 31.6333L35.1131 23.9578ZM26.6439 26.4463C26.9695 26.3499 27.2949 26.3064 27.6076 26.3064V34.3064C28.0352 34.3064 28.4764 34.247 28.9153 34.1171L26.6439 26.4463ZM26.8509 20.5718L24.6753 27.6751L32.3245 30.0179L34.5002 22.9147L26.8509 20.5718ZM29.6276 32.6843L36.88 30.5532L34.6247 22.8777L27.3723 25.0087L29.6276 32.6843ZM38.5512 29.5732L52.4056 16.0039L46.8078 10.2885L32.9535 23.8578L38.5512 29.5732ZM52.4058 16.0036C53.8424 14.5963 54.6581 12.6875 54.6581 10.6601H46.6581C46.6581 10.5958 46.6716 10.5213 46.7026 10.4481C46.7335 10.3751 46.7738 10.3218 46.8075 10.2888L52.4058 16.0036ZM54.6581 10.6601C54.6581 8.63286 53.8425 6.7237 52.4056 5.3163L46.8078 11.0316C46.7738 10.9984 46.7334 10.9449 46.7026 10.872C46.6716 10.7988 46.6581 10.7244 46.6581 10.6601H54.6581ZM52.4058 5.31654C50.9713 3.91128 49.0612 3.14415 47.0682 3.14415V11.1441C47.0371 11.1441 46.9912 11.1377 46.9392 11.1166C46.8869 11.0954 46.8415 11.0647 46.8075 11.0314L52.4058 5.31654ZM47.0682 3.14415C45.0749 3.14415 43.1651 3.91165 41.731 5.3163L47.3288 11.0316C47.2949 11.0648 47.2497 11.0954 47.1975 11.1166C47.1456 11.1377 47.0997 11.1441 47.0682 11.1441V3.14415ZM41.731 5.3163L27.8767 18.8856L33.4744 24.6009L47.3288 11.0316L41.731 5.3163Z" fill="url(#paint3_linear_516_1658)" mask="url(#path-5-inside-3_516_1658)"/>
</g>
</g>
<g id="XMLID_19_">
<g id="XMLID_363_">
<mask id="path-7-inside-4_516_1658" fill="currentColor">
<path d="M32.2613 24.8979C31.5719 24.8979 30.8825 24.6409 30.3576 24.1269C29.3079 23.0987 29.3079 21.4258 30.3576 20.3977C30.5911 20.1689 30.97 20.1689 31.2037 20.3977C31.4374 20.6265 31.4374 20.9975 31.2037 21.2264C30.6204 21.7976 30.6204 22.727 31.2037 23.2982C31.7869 23.8694 32.7358 23.8694 33.319 23.2982C33.5528 23.0694 33.9315 23.0695 34.1651 23.2982C34.3988 23.5271 34.3988 23.8981 34.1651 24.1269C33.6403 24.6409 32.9508 24.8979 32.2613 24.8979Z"/>
</mask>
<path d="M32.2613 24.8979C31.5719 24.8979 30.8825 24.6409 30.3576 24.1269C29.3079 23.0987 29.3079 21.4258 30.3576 20.3977C30.5911 20.1689 30.97 20.1689 31.2037 20.3977C31.4374 20.6265 31.4374 20.9975 31.2037 21.2264C30.6204 21.7976 30.6204 22.727 31.2037 23.2982C31.7869 23.8694 32.7358 23.8694 33.319 23.2982C33.5528 23.0694 33.9315 23.0695 34.1651 23.2982C34.3988 23.5271 34.3988 23.8981 34.1651 24.1269C33.6403 24.6409 32.9508 24.8979 32.2613 24.8979Z" fill="url(#paint4_linear_516_1658)"/>
<path d="M30.3576 24.1269L27.5585 26.9844L27.559 26.9849L30.3576 24.1269ZM30.3576 20.3977L27.5587 17.54L27.5585 17.5401L30.3576 20.3977ZM31.2037 20.3977L34.0025 17.54L34.0018 17.5393L31.2037 20.3977ZM33.319 23.2982L30.5216 20.4391L30.5201 20.4405L33.319 23.2982ZM34.1651 23.2982L36.964 20.4405L36.9633 20.4398L34.1651 23.2982ZM34.1651 24.1269L31.367 21.2685L31.3662 21.2692L34.1651 24.1269ZM32.2613 20.8979C32.5599 20.8979 32.8928 21.0111 33.1561 21.2689L27.559 26.9849C28.8722 28.2708 30.5839 28.8979 32.2613 28.8979V20.8979ZM33.1566 21.2694C33.7082 21.8097 33.7082 22.7148 33.1566 23.2552L27.5585 17.5401C24.9076 20.1368 24.9076 24.3877 27.5585 26.9844L33.1566 21.2694ZM33.1564 23.2553C31.8345 24.55 29.7263 24.549 28.4055 23.256L34.0018 17.5393C32.2136 15.7887 29.3477 15.7877 27.5587 17.54L33.1564 23.2553ZM28.4048 23.2553C27.037 21.9157 27.037 19.7083 28.4048 18.3687L34.0025 24.084C35.8377 22.2866 35.8377 19.3374 34.0025 17.54L28.4048 23.2553ZM28.4048 18.3687C26.2201 20.5085 26.2201 24.0161 28.4048 26.1559L34.0025 20.4405C35.0208 21.4378 35.0208 23.0867 34.0025 24.084L28.4048 18.3687ZM28.4048 26.1559C30.5431 28.2502 33.9796 28.2502 36.1179 26.1559L30.5201 20.4405C31.492 19.4886 33.0307 19.4886 34.0025 20.4405L28.4048 26.1559ZM36.1164 26.1573C34.7954 27.4498 32.6882 27.45 31.367 26.1566L36.9633 20.4398C35.1749 18.6891 32.3103 18.689 30.5216 20.4391L36.1164 26.1573ZM31.3662 26.1559C29.9989 24.8166 29.9978 22.6088 31.367 21.2685L36.9633 26.9853C38.7998 25.1874 38.7988 22.2375 36.964 20.4405L31.3662 26.1559ZM31.3662 21.2692C31.63 21.0109 31.9631 20.8979 32.2613 20.8979V28.8979C33.9385 28.8979 35.6506 28.2709 36.964 26.9846L31.3662 21.2692Z" fill="url(#paint5_linear_516_1658)" mask="url(#path-7-inside-4_516_1658)"/>
</g>
</g>
<g id="XMLID_18_">
<g id="XMLID_362_">
<mask id="path-9-inside-5_516_1658" fill="currentColor">
<path d="M35.2226 27.7995C34.5035 27.7995 33.8274 27.5252 33.3188 27.0272C32.8103 26.5292 32.5303 25.8669 32.5303 25.1626C32.5303 24.4582 32.8104 23.7959 33.3188 23.2979L40.765 16.0051C40.9985 15.7763 41.3775 15.7763 41.611 16.0051C41.8447 16.234 41.8447 16.605 41.611 16.8338L34.1649 24.1267C33.8824 24.4034 33.7267 24.7712 33.7267 25.1626C33.7267 25.5538 33.8823 25.9218 34.1649 26.1984C34.4475 26.4751 34.8231 26.6275 35.2225 26.6275C35.622 26.6275 35.9976 26.4752 36.2802 26.1984C36.5137 25.9696 36.8927 25.9696 37.1263 26.1984C37.36 26.4272 37.36 26.7982 37.1264 27.0271C36.618 27.5252 35.9418 27.7995 35.2226 27.7995Z"/>
</mask>
<path d="M35.2226 27.7995C34.5035 27.7995 33.8274 27.5252 33.3188 27.0272C32.8103 26.5292 32.5303 25.8669 32.5303 25.1626C32.5303 24.4582 32.8104 23.7959 33.3188 23.2979L40.765 16.0051C40.9985 15.7763 41.3775 15.7763 41.611 16.0051C41.8447 16.234 41.8447 16.605 41.611 16.8338L34.1649 24.1267C33.8824 24.4034 33.7267 24.7712 33.7267 25.1626C33.7267 25.5538 33.8823 25.9218 34.1649 26.1984C34.4475 26.4751 34.8231 26.6275 35.2225 26.6275C35.622 26.6275 35.9976 26.4752 36.2802 26.1984C36.5137 25.9696 36.8927 25.9696 37.1263 26.1984C37.36 26.4272 37.36 26.7982 37.1264 27.0271C36.618 27.5252 35.9418 27.7995 35.2226 27.7995Z" fill="url(#paint6_linear_516_1658)"/>
<path d="M33.3188 23.2979L30.52 20.4403L30.52 20.4403L33.3188 23.2979ZM40.765 16.0051L43.5639 18.8628L43.5646 18.862L40.765 16.0051ZM41.611 16.0051L38.8114 18.862L38.8121 18.8627L41.611 16.0051ZM41.611 16.8338L38.8129 13.9754L38.8121 13.9761L41.611 16.8338ZM34.1649 24.1267L31.3661 21.269L31.3661 21.269L34.1649 24.1267ZM34.1649 26.1984L36.9638 23.3407L36.9626 23.3395L34.1649 26.1984ZM36.2802 26.1984L33.4813 23.3407L33.4807 23.3413L36.2802 26.1984ZM37.1264 27.0271L39.9256 29.8844L39.926 29.884L37.1264 27.0271ZM35.2226 23.7995C35.5381 23.7995 35.8701 23.927 36.1174 24.1692L30.5203 29.8852C31.7847 31.1233 33.4688 31.7995 35.2226 31.7995V23.7995ZM36.1174 24.1692C36.3685 24.415 36.5303 24.7793 36.5303 25.1626H28.5303C28.5303 26.9546 29.2521 28.6434 30.5203 29.8852L36.1174 24.1692ZM36.5303 25.1626C36.5303 25.5462 36.3683 25.9102 36.1177 26.1556L30.52 20.4403C29.2525 21.6817 28.5303 23.3702 28.5303 25.1626H36.5303ZM36.1177 26.1556L43.5639 18.8628L37.9661 13.1474L30.52 20.4403L36.1177 26.1556ZM43.5646 18.862C42.2428 20.1573 40.1332 20.1573 38.8114 18.862L44.4106 13.1481C42.6219 11.3953 39.7541 11.3953 37.9654 13.1481L43.5646 18.862ZM38.8121 18.8627C37.4447 17.5235 37.4437 15.3157 38.8129 13.9754L44.4091 19.6922C46.2457 17.8943 46.2447 14.9444 44.4099 13.1474L38.8121 18.8627ZM38.8121 13.9761L31.3661 21.269L36.9638 26.9843L44.4099 19.6914L38.8121 13.9761ZM31.3661 21.269C30.325 22.2887 29.7267 23.6826 29.7267 25.1626H37.7267C37.7267 25.8599 37.4399 26.518 36.9638 26.9843L31.3661 21.269ZM29.7267 25.1626C29.7267 26.6414 30.3241 28.0364 31.3673 29.0572L36.9626 23.3395C37.4405 23.8071 37.7267 24.4662 37.7267 25.1626H29.7267ZM31.3661 29.056C32.4042 30.0728 33.7879 30.6275 35.2225 30.6275V22.6275C35.8582 22.6275 36.4907 22.8773 36.9638 23.3407L31.3661 29.056ZM35.2225 30.6275C36.6563 30.6275 38.0406 30.0736 39.0796 29.0554L33.4807 23.3413C33.9547 22.8768 34.5878 22.6275 35.2225 22.6275V30.6275ZM39.079 29.056C37.7575 30.3504 35.6489 30.3504 34.3274 29.056L39.9252 23.3407C38.1365 21.5888 35.27 21.5888 33.4813 23.3407L39.079 29.056ZM34.3274 29.056C32.9597 27.7165 32.9597 25.5098 34.3268 24.1701L39.926 29.884C41.7602 28.0866 41.7602 25.138 39.9252 23.3407L34.3274 29.056ZM34.3272 24.1697C34.5751 23.9269 34.9073 23.7995 35.2226 23.7995V31.7995C36.9762 31.7995 38.6609 31.1234 39.9256 29.8844L34.3272 24.1697Z" fill="url(#paint7_linear_516_1658)" mask="url(#path-9-inside-5_516_1658)"/>
</g>
</g>
<g id="XMLID_17_">
<g id="XMLID_361_">
<mask id="path-11-inside-6_516_1658" fill="currentColor">
<path d="M48.3376 15.804C48.1845 15.804 48.0313 15.7468 47.9146 15.6324L41.9917 9.83134C41.758 9.60245 41.758 9.2314 41.9917 9.00263C42.2251 8.77386 42.6042 8.77386 42.8377 9.00263L48.7606 14.8037C48.9943 15.0326 48.9943 15.4036 48.7606 15.6324C48.6439 15.7468 48.4906 15.804 48.3376 15.804Z"/>
</mask>
<path d="M48.3376 15.804C48.1845 15.804 48.0313 15.7468 47.9146 15.6324L41.9917 9.83134C41.758 9.60245 41.758 9.2314 41.9917 9.00263C42.2251 8.77386 42.6042 8.77386 42.8377 9.00263L48.7606 14.8037C48.9943 15.0326 48.9943 15.4036 48.7606 15.6324C48.6439 15.7468 48.4906 15.804 48.3376 15.804Z" fill="url(#paint8_linear_516_1658)"/>
<path d="M47.9146 15.6324L50.7149 12.7762L50.7135 12.7747L47.9146 15.6324ZM41.9917 9.83134L44.7906 6.97367L44.7906 6.97367L41.9917 9.83134ZM41.9917 9.00263L44.7898 11.861L44.7913 11.8596L41.9917 9.00263ZM42.8377 9.00263L40.0381 11.8596L40.0388 11.8603L42.8377 9.00263ZM48.7606 14.8037L45.9617 17.6614H45.9617L48.7606 14.8037ZM48.7606 15.6324L45.9624 12.774L45.9602 12.7762L48.7606 15.6324ZM48.3376 11.804C49.1742 11.804 50.0438 12.1181 50.7149 12.7762L45.1142 18.4886C46.0187 19.3754 47.1949 19.804 48.3376 19.804V11.804ZM50.7135 12.7747L44.7906 6.97367L39.1928 12.689L45.1157 18.4901L50.7135 12.7747ZM44.7906 6.97367C46.1579 8.31293 46.159 10.5207 44.7898 11.861L39.1935 6.14425C37.357 7.94212 37.358 10.892 39.1928 12.689L44.7906 6.97367ZM44.7913 11.8596C43.4695 13.1549 41.3599 13.1549 40.0381 11.8596L45.6373 6.14568C43.8485 4.39285 40.9808 4.39285 39.1921 6.14568L44.7913 11.8596ZM40.0388 11.8603L45.9617 17.6614L51.5595 11.946L45.6366 6.14496L40.0388 11.8603ZM45.9617 17.6614C44.5943 16.3221 44.5932 14.1143 45.9624 12.774L51.5587 18.4908C53.3953 16.6929 53.3942 13.7431 51.5595 11.946L45.9617 17.6614ZM45.9602 12.7762C46.6314 12.1181 47.501 11.804 48.3376 11.804V19.804C49.4803 19.804 50.6564 19.3754 51.5609 18.4886L45.9602 12.7762Z" fill="url(#paint9_linear_516_1658)" mask="url(#path-11-inside-6_516_1658)"/>
</g>
</g>
<g id="XMLID_16_">
<g id="XMLID_360_">
<mask id="path-13-inside-7_516_1658" fill="currentColor">
<path d="M50.1624 42.2033H40.5897C38.6103 42.2033 36.9999 40.626 36.9999 38.6873C36.9999 36.7486 38.6103 35.1714 40.5897 35.1714H53.7522C55.0718 35.1714 56.1454 34.1199 56.1454 32.8274V32.6507C56.1454 31.3582 55.0718 30.3067 53.7522 30.3067H27.6076C27.2772 30.3067 27.0093 30.0443 27.0093 29.7208C27.0093 29.3972 27.2772 29.1348 27.6076 29.1348H53.7522C55.7316 29.1348 57.342 30.712 57.342 32.6507V32.8274C57.342 34.7661 55.7316 36.3434 53.7522 36.3434H40.5897C39.2701 36.3434 38.1965 37.3949 38.1965 38.6873C38.1965 39.9798 39.2701 41.0313 40.5897 41.0313H50.1624C50.4929 41.0313 50.7607 41.2936 50.7607 41.6173C50.7607 41.941 50.4929 42.2033 50.1624 42.2033Z"/>
</mask>
<path d="M50.1624 42.2033H40.5897C38.6103 42.2033 36.9999 40.626 36.9999 38.6873C36.9999 36.7486 38.6103 35.1714 40.5897 35.1714H53.7522C55.0718 35.1714 56.1454 34.1199 56.1454 32.8274V32.6507C56.1454 31.3582 55.0718 30.3067 53.7522 30.3067H27.6076C27.2772 30.3067 27.0093 30.0443 27.0093 29.7208C27.0093 29.3972 27.2772 29.1348 27.6076 29.1348H53.7522C55.7316 29.1348 57.342 30.712 57.342 32.6507V32.8274C57.342 34.7661 55.7316 36.3434 53.7522 36.3434H40.5897C39.2701 36.3434 38.1965 37.3949 38.1965 38.6873C38.1965 39.9798 39.2701 41.0313 40.5897 41.0313H50.1624C50.4929 41.0313 50.7607 41.2936 50.7607 41.6173C50.7607 41.941 50.4929 42.2033 50.1624 42.2033Z" fill="url(#paint10_linear_516_1658)"/>
<path d="M50.1624 38.2033H40.5897V46.2033H50.1624V38.2033ZM40.5897 38.2033C40.6799 38.2033 40.778 38.2428 40.8514 38.3146C40.9261 38.3878 40.9999 38.5221 40.9999 38.6873H32.9999C32.9999 42.9131 36.4799 46.2033 40.5897 46.2033V38.2033ZM40.9999 38.6873C40.9999 38.8526 40.9261 38.9868 40.8514 39.06C40.778 39.1319 40.6799 39.1714 40.5897 39.1714V31.1714C36.4799 31.1714 32.9999 34.4615 32.9999 38.6873H40.9999ZM40.5897 39.1714H53.7522V31.1714H40.5897V39.1714ZM53.7522 39.1714C57.2022 39.1714 60.1454 36.407 60.1454 32.8274H52.1454C52.1454 31.8328 52.9415 31.1714 53.7522 31.1714V39.1714ZM60.1454 32.8274V32.6507H52.1454V32.8274H60.1454ZM60.1454 32.6507C60.1454 29.0711 57.2022 26.3067 53.7522 26.3067V34.3067C52.9415 34.3067 52.1454 33.6454 52.1454 32.6507H60.1454ZM53.7522 26.3067H27.6076V34.3067H53.7522V26.3067ZM27.6076 26.3067C29.4075 26.3067 31.0093 27.7572 31.0093 29.7208H23.0093C23.0093 32.3315 25.1468 34.3067 27.6076 34.3067V26.3067ZM31.0093 29.7208C31.0093 31.6843 29.4075 33.1348 27.6076 33.1348V25.1348C25.1468 25.1348 23.0093 27.1101 23.0093 29.7208H31.0093ZM27.6076 33.1348H53.7522V25.1348H27.6076V33.1348ZM53.7522 33.1348C53.662 33.1348 53.5639 33.0953 53.4905 33.0234C53.4158 32.9502 53.342 32.816 53.342 32.6507H61.342C61.342 28.4249 57.862 25.1348 53.7522 25.1348V33.1348ZM53.342 32.6507V32.8274H61.342V32.6507H53.342ZM53.342 32.8274C53.342 32.6622 53.4158 32.5279 53.4905 32.4547C53.5639 32.3829 53.662 32.3434 53.7522 32.3434V40.3434C57.862 40.3434 61.342 37.0532 61.342 32.8274H53.342ZM53.7522 32.3434H40.5897V40.3434H53.7522V32.3434ZM40.5897 32.3434C37.1397 32.3434 34.1965 35.1078 34.1965 38.6873H42.1965C42.1965 39.682 41.4004 40.3434 40.5897 40.3434V32.3434ZM34.1965 38.6873C34.1965 42.2669 37.1397 45.0313 40.5897 45.0313V37.0313C41.4004 37.0313 42.1965 37.6927 42.1965 38.6873H34.1965ZM40.5897 45.0313H50.1624V37.0313H40.5897V45.0313ZM50.1624 45.0313C48.3626 45.0313 46.7607 43.5807 46.7607 41.6173H54.7607C54.7607 39.0065 52.6233 37.0313 50.1624 37.0313V45.0313ZM46.7607 41.6173C46.7607 39.6539 48.3626 38.2033 50.1624 38.2033V46.2033C52.6233 46.2033 54.7607 44.2281 54.7607 41.6173H46.7607Z" fill="url(#paint11_linear_516_1658)" mask="url(#path-13-inside-7_516_1658)"/>
</g>
</g>
<g id="XMLID_15_">
<g id="XMLID_359_">
<mask id="path-15-inside-8_516_1658" fill="currentColor">
<path d="M27.4271 42.7892H9.47818C9.1478 42.7892 8.87988 42.5269 8.87988 42.2032C8.87988 41.8795 9.1478 41.6172 9.47818 41.6172H27.4271C27.7575 41.6172 28.0254 41.8795 28.0254 42.2032C28.0254 42.5269 27.7575 42.7892 27.4271 42.7892Z"/>
</mask>
<path d="M27.4271 42.7892H9.47818C9.1478 42.7892 8.87988 42.5269 8.87988 42.2032C8.87988 41.8795 9.1478 41.6172 9.47818 41.6172H27.4271C27.7575 41.6172 28.0254 41.8795 28.0254 42.2032C28.0254 42.5269 27.7575 42.7892 27.4271 42.7892Z" fill="url(#paint12_linear_516_1658)"/>
<path d="M27.4271 38.7892H9.47818V46.7892H27.4271V38.7892ZM9.47818 38.7892C11.2776 38.7892 12.8799 40.2392 12.8799 42.2032H4.87988C4.87988 44.8145 7.01798 46.7892 9.47818 46.7892V38.7892ZM12.8799 42.2032C12.8799 44.1671 11.2776 45.6172 9.47818 45.6172V37.6172C7.01798 37.6172 4.87988 39.5918 4.87988 42.2032H12.8799ZM9.47818 45.6172H27.4271V37.6172H9.47818V45.6172ZM27.4271 45.6172C25.6277 45.6172 24.0254 44.1671 24.0254 42.2032H32.0254C32.0254 39.5918 29.8873 37.6172 27.4271 37.6172V45.6172ZM24.0254 42.2032C24.0254 40.2392 25.6277 38.7892 27.4271 38.7892V46.7892C29.8873 46.7892 32.0254 44.8145 32.0254 42.2032H24.0254Z" fill="#FBFBFB" mask="url(#path-15-inside-8_516_1658)"/>
</g>
</g>
<g id="XMLID_14_">
<g id="XMLID_358_">
<mask id="path-17-inside-9_516_1658" fill="currentColor">
<path d="M27.4271 39.2731H9.47818C9.1478 39.2731 8.87988 39.0108 8.87988 38.6871C8.87988 38.3634 9.1478 38.1011 9.47818 38.1011H27.4271C27.7575 38.1011 28.0254 38.3634 28.0254 38.6871C28.0254 39.0108 27.7575 39.2731 27.4271 39.2731Z"/>
</mask>
<path d="M27.4271 39.2731H9.47818C9.1478 39.2731 8.87988 39.0108 8.87988 38.6871C8.87988 38.3634 9.1478 38.1011 9.47818 38.1011H27.4271C27.7575 38.1011 28.0254 38.3634 28.0254 38.6871C28.0254 39.0108 27.7575 39.2731 27.4271 39.2731Z" fill="url(#paint13_linear_516_1658)"/>
<path d="M27.4271 35.2731H9.47818V43.2731H27.4271V35.2731ZM9.47818 35.2731C11.2776 35.2731 12.8799 36.7231 12.8799 38.6871H4.87988C4.87988 41.2984 7.01798 43.2731 9.47818 43.2731V35.2731ZM12.8799 38.6871C12.8799 40.651 11.2776 42.1011 9.47818 42.1011V34.1011C7.01798 34.1011 4.87988 36.0757 4.87988 38.6871H12.8799ZM9.47818 42.1011H27.4271V34.1011H9.47818V42.1011ZM27.4271 42.1011C25.6277 42.1011 24.0254 40.651 24.0254 38.6871H32.0254C32.0254 36.0757 29.8873 34.1011 27.4271 34.1011V42.1011ZM24.0254 38.6871C24.0254 36.7231 25.6277 35.2731 27.4271 35.2731V43.2731C29.8873 43.2731 32.0254 41.2984 32.0254 38.6871H24.0254Z" fill="#FBFBFB" mask="url(#path-17-inside-9_516_1658)"/>
</g>
</g>
<g id="XMLID_13_">
<g id="XMLID_357_">
<mask id="path-19-inside-10_516_1658" fill="currentColor">
<path d="M27.4271 35.7569H9.47818C9.1478 35.7569 8.87988 35.4947 8.87988 35.171C8.87988 34.8474 9.1478 34.585 9.47818 34.585H27.4271C27.7575 34.585 28.0254 34.8474 28.0254 35.171C28.0254 35.4947 27.7575 35.7569 27.4271 35.7569Z"/>
</mask>
<path d="M27.4271 35.7569H9.47818C9.1478 35.7569 8.87988 35.4947 8.87988 35.171C8.87988 34.8474 9.1478 34.585 9.47818 34.585H27.4271C27.7575 34.585 28.0254 34.8474 28.0254 35.171C28.0254 35.4947 27.7575 35.7569 27.4271 35.7569Z" fill="url(#paint14_linear_516_1658)"/>
<path d="M27.4271 31.7569H9.47818V39.7569H27.4271V31.7569ZM9.47818 31.7569C11.2776 31.7569 12.8799 33.207 12.8799 35.171H4.87988C4.87988 37.7823 7.01796 39.7569 9.47818 39.7569V31.7569ZM12.8799 35.171C12.8799 37.1345 11.2781 38.585 9.47818 38.585V30.585C7.01745 30.585 4.87988 32.5603 4.87988 35.171H12.8799ZM9.47818 38.585H27.4271V30.585H9.47818V38.585ZM27.4271 38.585C25.6271 38.585 24.0254 37.1345 24.0254 35.171H32.0254C32.0254 32.5603 29.8878 30.585 27.4271 30.585V38.585ZM24.0254 35.171C24.0254 33.207 25.6277 31.7569 27.4271 31.7569V39.7569C29.8873 39.7569 32.0254 37.7823 32.0254 35.171H24.0254Z" fill="#FBFBFB" mask="url(#path-19-inside-10_516_1658)"/>
</g>
</g>
</g>
<g id="XMLID_12_">
<g id="XMLID_315_">
<mask id="path-21-inside-11_516_1658" fill="currentColor">
<path d="M43.5812 62.1267H30.4186C30.0882 62.1267 29.8203 61.8644 29.8203 61.5407V54.5088C29.8203 54.1851 30.0882 53.9229 30.4186 53.9229H43.5812C43.9117 53.9229 44.1795 54.1851 44.1795 54.5088V61.5407C44.1795 61.8644 43.9117 62.1267 43.5812 62.1267ZM31.0169 60.9547H42.9829V55.0948H31.0169V60.9547Z"/>
</mask>
<path d="M43.5812 62.1267H30.4186C30.0882 62.1267 29.8203 61.8644 29.8203 61.5407V54.5088C29.8203 54.1851 30.0882 53.9229 30.4186 53.9229H43.5812C43.9117 53.9229 44.1795 54.1851 44.1795 54.5088V61.5407C44.1795 61.8644 43.9117 62.1267 43.5812 62.1267ZM31.0169 60.9547H42.9829V55.0948H31.0169V60.9547Z" fill="url(#paint15_linear_516_1658)"/>
<path d="M31.0169 60.9547H27.0169V64.9547H31.0169V60.9547ZM42.9829 60.9547V64.9547H46.9829V60.9547H42.9829ZM42.9829 55.0948H46.9829V51.0948H42.9829V55.0948ZM31.0169 55.0948V51.0948H27.0169V55.0948H31.0169ZM43.5812 58.1267H30.4186V66.1267H43.5812V58.1267ZM30.4186 58.1267C32.218 58.1267 33.8203 59.5768 33.8203 61.5407H25.8203C25.8203 64.152 27.9584 66.1267 30.4186 66.1267V58.1267ZM33.8203 61.5407V54.5088H25.8203V61.5407H33.8203ZM33.8203 54.5088C33.8203 56.4728 32.218 57.9229 30.4186 57.9229V49.9229C27.9584 49.9229 25.8203 51.8975 25.8203 54.5088H33.8203ZM30.4186 57.9229H43.5812V49.9229H30.4186V57.9229ZM43.5812 57.9229C41.7813 57.9229 40.1795 56.4723 40.1795 54.5088H48.1795C48.1795 51.898 46.042 49.9229 43.5812 49.9229V57.9229ZM40.1795 54.5088V61.5407H48.1795V54.5088H40.1795ZM40.1795 61.5407C40.1795 59.5773 41.7813 58.1267 43.5812 58.1267V66.1267C46.042 66.1267 48.1795 64.1515 48.1795 61.5407H40.1795ZM31.0169 64.9547H42.9829V56.9547H31.0169V64.9547ZM46.9829 60.9547V55.0948H38.9829V60.9547H46.9829ZM42.9829 51.0948H31.0169V59.0948H42.9829V51.0948ZM27.0169 55.0948V60.9547H35.0169V55.0948H27.0169Z" fill="#FBFBFB" mask="url(#path-21-inside-11_516_1658)"/>
</g>
</g>
<g id="XMLID_11_">
<g id="XMLID_312_">
<mask id="path-23-inside-12_516_1658" fill="currentColor">
<path d="M40.5894 62.1267H33.4098C33.0794 62.1267 32.8115 61.8644 32.8115 61.5407V54.5088C32.8115 54.1851 33.0794 53.9229 33.4098 53.9229H40.5894C40.9199 53.9229 41.1877 54.1851 41.1877 54.5088V61.5407C41.1877 61.8644 40.9199 62.1267 40.5894 62.1267ZM34.0081 60.9547H39.9911V55.0948H34.0081V60.9547Z"/>
</mask>
<path d="M40.5894 62.1267H33.4098C33.0794 62.1267 32.8115 61.8644 32.8115 61.5407V54.5088C32.8115 54.1851 33.0794 53.9229 33.4098 53.9229H40.5894C40.9199 53.9229 41.1877 54.1851 41.1877 54.5088V61.5407C41.1877 61.8644 40.9199 62.1267 40.5894 62.1267ZM34.0081 60.9547H39.9911V55.0948H34.0081V60.9547Z" fill="url(#paint16_linear_516_1658)"/>
<path d="M34.0081 60.9547H30.0081V64.9547H34.0081V60.9547ZM39.9911 60.9547V64.9547H43.9911V60.9547H39.9911ZM39.9911 55.0948H43.9911V51.0948H39.9911V55.0948ZM34.0081 55.0948V51.0948H30.0081V55.0948H34.0081ZM40.5894 58.1267H33.4098V66.1267H40.5894V58.1267ZM33.4098 58.1267C35.2093 58.1267 36.8115 59.5768 36.8115 61.5407H28.8115C28.8115 64.152 30.9496 66.1267 33.4098 66.1267V58.1267ZM36.8115 61.5407V54.5088H28.8115V61.5407H36.8115ZM36.8115 54.5088C36.8115 56.4728 35.2093 57.9229 33.4098 57.9229V49.9229C30.9496 49.9229 28.8115 51.8975 28.8115 54.5088H36.8115ZM33.4098 57.9229H40.5894V49.9229H33.4098V57.9229ZM40.5894 57.9229C38.7895 57.9229 37.1877 56.4723 37.1877 54.5088H45.1877C45.1877 51.898 43.0502 49.9229 40.5894 49.9229V57.9229ZM37.1877 54.5088V61.5407H45.1877V54.5088H37.1877ZM37.1877 61.5407C37.1877 59.5773 38.7895 58.1267 40.5894 58.1267V66.1267C43.0502 66.1267 45.1877 64.1515 45.1877 61.5407H37.1877ZM34.0081 64.9547H39.9911V56.9547H34.0081V64.9547ZM43.9911 60.9547V55.0948H35.9911V60.9547H43.9911ZM39.9911 51.0948H34.0081V59.0948H39.9911V51.0948ZM30.0081 55.0948V60.9547H38.0081V55.0948H30.0081Z" fill="#FBFBFB" mask="url(#path-23-inside-12_516_1658)"/>
</g>
</g>
<g id="XMLID_10_">
<g id="XMLID_309_">
<mask id="path-25-inside-13_516_1658" fill="currentColor">
<path d="M45.3763 64.4705H28.624C27.6343 64.4705 26.8291 63.6819 26.8291 62.7126C26.8291 61.7432 27.6343 60.9546 28.624 60.9546H45.3763C46.366 60.9546 47.1712 61.7432 47.1712 62.7126C47.1712 63.6819 46.366 64.4705 45.3763 64.4705ZM28.624 62.1266C28.2941 62.1266 28.0257 62.3894 28.0257 62.7126C28.0257 63.0357 28.2941 63.2985 28.624 63.2985H45.3763C45.7062 63.2985 45.9746 63.0357 45.9746 62.7126C45.9746 62.3894 45.7062 62.1266 45.3763 62.1266H28.624Z"/>
</mask>
<path d="M45.3763 64.4705H28.624C27.6343 64.4705 26.8291 63.6819 26.8291 62.7126C26.8291 61.7432 27.6343 60.9546 28.624 60.9546H45.3763C46.366 60.9546 47.1712 61.7432 47.1712 62.7126C47.1712 63.6819 46.366 64.4705 45.3763 64.4705ZM28.624 62.1266C28.2941 62.1266 28.0257 62.3894 28.0257 62.7126C28.0257 63.0357 28.2941 63.2985 28.624 63.2985H45.3763C45.7062 63.2985 45.9746 63.0357 45.9746 62.7126C45.9746 62.3894 45.7062 62.1266 45.3763 62.1266H28.624Z" fill="url(#paint17_linear_516_1658)"/>
<path d="M45.3763 60.4705H28.624V68.4705H45.3763V60.4705ZM28.624 60.4705C29.7646 60.4705 30.8291 61.3948 30.8291 62.7126H22.8291C22.8291 65.969 25.5039 68.4705 28.624 68.4705V60.4705ZM30.8291 62.7126C30.8291 64.0303 29.7646 64.9546 28.624 64.9546V56.9546C25.5039 56.9546 22.8291 59.4561 22.8291 62.7126H30.8291ZM28.624 64.9546H45.3763V56.9546H28.624V64.9546ZM45.3763 64.9546C44.2357 64.9546 43.1712 64.0303 43.1712 62.7126H51.1712C51.1712 59.4561 48.4964 56.9546 45.3763 56.9546V64.9546ZM43.1712 62.7126C43.1712 61.3948 44.2357 60.4705 45.3763 60.4705V68.4705C48.4964 68.4705 51.1712 65.969 51.1712 62.7126H43.1712ZM28.624 58.1266C26.1637 58.1266 24.0257 60.1023 24.0257 62.7126H32.0257C32.0257 64.6766 30.4244 66.1266 28.624 66.1266V58.1266ZM24.0257 62.7126C24.0257 65.3228 26.1637 67.2985 28.624 67.2985V59.2985C30.4244 59.2985 32.0257 60.7486 32.0257 62.7126H24.0257ZM28.624 67.2985H45.3763V59.2985H28.624V67.2985ZM45.3763 67.2985C47.8366 67.2985 49.9746 65.3228 49.9746 62.7126H41.9746C41.9746 60.7486 43.5759 59.2985 45.3763 59.2985V67.2985ZM49.9746 62.7126C49.9746 60.1023 47.8366 58.1266 45.3763 58.1266V66.1266C43.5759 66.1266 41.9746 64.6766 41.9746 62.7126H49.9746ZM45.3763 58.1266H28.624V66.1266H45.3763V58.1266Z" fill="#FBFBFB" mask="url(#path-25-inside-13_516_1658)"/>
</g>
</g>
</g>
</g>
</g>
<defs>
<linearGradient id="paint0_linear_516_1658" x1="36.9999" y1="46.8911" x2="36.9999" y2="55.095" gradientUnits="userSpaceOnUse">
<stop stop-color="#00FFC1"/>
<stop offset="1" stop-color="#9D9D9D" stop-opacity="0.78"/>
</linearGradient>
<linearGradient id="paint1_linear_516_1658" x1="36.9999" y1="16.4194" x2="36.9999" y2="48.0629" gradientUnits="userSpaceOnUse">
<stop stop-color="#00FFC1"/>
<stop offset="1" stop-color="#9D9D9D" stop-opacity="0.78"/>
</linearGradient>
<linearGradient id="paint2_linear_516_1658" x1="39.432" y1="5.97217" x2="39.432" y2="30.3064" gradientUnits="userSpaceOnUse">
<stop stop-color="#00FFC1"/>
<stop offset="1" stop-color="#9D9D9D" stop-opacity="0.78"/>
</linearGradient>
<linearGradient id="paint3_linear_516_1658" x1="39.432" y1="5.97217" x2="39.432" y2="30.3064" gradientUnits="userSpaceOnUse">
<stop stop-color="#00FFC1"/>
<stop offset="1" stop-color="#9D9D9D" stop-opacity="0.78"/>
</linearGradient>
<linearGradient id="paint4_linear_516_1658" x1="31.9554" y1="20.2261" x2="31.9554" y2="24.8979" gradientUnits="userSpaceOnUse">
<stop stop-color="#00FFC1"/>
<stop offset="1" stop-color="#9D9D9D" stop-opacity="0.78"/>
</linearGradient>
<linearGradient id="paint5_linear_516_1658" x1="31.9554" y1="20.2261" x2="31.9554" y2="24.8979" gradientUnits="userSpaceOnUse">
<stop stop-color="#00FFC1"/>
<stop offset="1" stop-color="#9D9D9D" stop-opacity="0.78"/>
</linearGradient>
<linearGradient id="paint6_linear_516_1658" x1="37.1583" y1="15.8335" x2="37.1583" y2="27.7995" gradientUnits="userSpaceOnUse">
<stop stop-color="#00FFC1"/>
<stop offset="1" stop-color="#9D9D9D" stop-opacity="0.78"/>
</linearGradient>
<linearGradient id="paint7_linear_516_1658" x1="37.1583" y1="15.8335" x2="37.1583" y2="27.7995" gradientUnits="userSpaceOnUse">
<stop stop-color="#00FFC1"/>
<stop offset="1" stop-color="#9D9D9D" stop-opacity="0.78"/>
</linearGradient>
<linearGradient id="paint8_linear_516_1658" x1="45.3761" y1="8.83105" x2="45.3761" y2="15.804" gradientUnits="userSpaceOnUse">
<stop stop-color="#00FFC1"/>
<stop offset="1" stop-color="#9D9D9D" stop-opacity="0.78"/>
</linearGradient>
<linearGradient id="paint9_linear_516_1658" x1="45.3761" y1="8.83105" x2="45.3761" y2="15.804" gradientUnits="userSpaceOnUse">
<stop stop-color="#00FFC1"/>
<stop offset="1" stop-color="#9D9D9D" stop-opacity="0.78"/>
</linearGradient>
<linearGradient id="paint10_linear_516_1658" x1="42.1756" y1="29.1348" x2="42.1756" y2="42.2033" gradientUnits="userSpaceOnUse">
<stop stop-color="#00FFC1"/>
<stop offset="1" stop-color="#9D9D9D" stop-opacity="0.78"/>
</linearGradient>
<linearGradient id="paint11_linear_516_1658" x1="42.1756" y1="29.1348" x2="42.1756" y2="42.2033" gradientUnits="userSpaceOnUse">
<stop stop-color="#00FFC1"/>
<stop offset="1" stop-color="#9D9D9D" stop-opacity="0.78"/>
</linearGradient>
<linearGradient id="paint12_linear_516_1658" x1="18.4526" y1="41.6172" x2="18.4526" y2="42.7892" gradientUnits="userSpaceOnUse">
<stop stop-color="#00FFC1"/>
<stop offset="1" stop-color="#9D9D9D" stop-opacity="0.78"/>
</linearGradient>
<linearGradient id="paint13_linear_516_1658" x1="18.4526" y1="38.1011" x2="18.4526" y2="39.2731" gradientUnits="userSpaceOnUse">
<stop stop-color="#00FFC1"/>
<stop offset="1" stop-color="#9D9D9D" stop-opacity="0.78"/>
</linearGradient>
<linearGradient id="paint14_linear_516_1658" x1="18.4526" y1="34.585" x2="18.4526" y2="35.7569" gradientUnits="userSpaceOnUse">
<stop stop-color="#00FFC1"/>
<stop offset="1" stop-color="#9D9D9D" stop-opacity="0.78"/>
</linearGradient>
<linearGradient id="paint15_linear_516_1658" x1="36.9999" y1="53.9229" x2="36.9999" y2="62.1267" gradientUnits="userSpaceOnUse">
<stop stop-color="#00FFC1"/>
<stop offset="1" stop-color="#9D9D9D" stop-opacity="0.78"/>
</linearGradient>
<linearGradient id="paint16_linear_516_1658" x1="36.9996" y1="53.9229" x2="36.9996" y2="62.1267" gradientUnits="userSpaceOnUse">
<stop stop-color="#00FFC1"/>
<stop offset="1" stop-color="#9D9D9D" stop-opacity="0.78"/>
</linearGradient>
<linearGradient id="paint17_linear_516_1658" x1="37.0002" y1="60.9546" x2="37.0002" y2="64.4705" gradientUnits="userSpaceOnUse">
<stop stop-color="#00FFC1"/>
<stop offset="1" stop-color="#9D9D9D" stop-opacity="0.78"/>
</linearGradient>
</defs>
</svg>
