<svg width="74" height="71" viewBox="0 0 74 71" fill="none" xmlns="http://www.w3.org/2000/svg">
<g id="Frame 1000001840">
<path id="Vector" fill-rule="evenodd" clip-rule="evenodd" d="M19.84 43.9673C19.84 45.2561 18.7852 46.3045 17.4886 46.3045C16.1915 46.3045 15.1364 45.2565 15.1364 43.9673C15.1364 42.6785 16.1919 41.63 17.4886 41.63C18.7852 41.6308 19.84 42.6785 19.84 43.9673ZM14.0967 43.9673C14.0967 45.8249 15.6179 47.3365 17.4878 47.3365C19.3574 47.3365 20.8786 45.8249 20.8786 43.9673C20.8786 42.1096 19.3574 40.5977 17.4878 40.5977C15.6179 40.5984 14.0967 42.11 14.0967 43.9673ZM58.2804 43.9673C58.2804 45.2561 57.2256 46.3045 55.9282 46.3045C54.6323 46.3045 53.5768 45.2565 53.5768 43.9673C53.5768 42.6785 54.6323 41.63 55.9282 41.63C57.2256 41.6308 58.2804 42.6785 58.2804 43.9673ZM52.537 43.9673C52.537 45.8249 54.0587 47.3365 55.9278 47.3365C57.7985 47.3365 59.319 45.8249 59.319 43.9673C59.319 42.1096 57.7985 40.5977 55.9278 40.5977C54.059 40.5984 52.537 42.11 52.537 43.9673ZM36.7084 46.3045C35.4114 46.3045 34.357 45.2565 34.357 43.9673C34.357 42.6785 35.4118 41.63 36.7084 41.63C38.0055 41.63 39.0606 42.6781 39.0606 43.9673C39.0606 45.2565 38.0055 46.3045 36.7084 46.3045ZM36.7084 40.5984C34.8389 40.5984 33.3177 42.11 33.3177 43.968C33.3177 45.8257 34.8389 47.3372 36.7084 47.3372C38.5784 47.3372 40.0996 45.8257 40.0996 43.968C40.0996 42.11 38.5784 40.5984 36.7084 40.5984ZM61.1317 58.8803H50.7266V52.1609C50.7266 51.0919 51.3496 50.1048 52.3016 49.6233C53.3628 50.3779 54.6106 50.7764 55.9274 50.7764C57.2462 50.7764 58.4929 50.378 59.5533 49.6233C60.5065 50.1043 61.1302 51.0919 61.1302 52.1609L61.1305 58.8803H61.1317ZM59.6748 48.5461C59.5025 48.4804 59.3069 48.5088 59.1625 48.6239C58.2345 49.3561 57.1161 49.7441 55.9278 49.7441C54.741 49.7441 53.6219 49.3557 52.695 48.6239C52.5502 48.5095 52.3554 48.4804 52.1827 48.5461C50.6901 49.1232 49.6876 50.575 49.6876 52.1602V59.3957C49.6876 59.6809 49.9201 59.9119 50.2071 59.9119H61.6503C61.9369 59.9119 62.1694 59.6802 62.1694 59.3957V52.161C62.1701 50.5758 61.1673 49.1233 59.6747 48.5462L59.6748 48.5461ZM41.9116 58.8803H31.5074V52.1609C31.5074 51.0919 32.1304 50.1048 33.0836 49.6233C34.1448 50.3779 35.3914 50.7764 36.709 50.7764C38.0274 50.7764 39.2745 50.378 40.3349 49.6233C41.2881 50.1043 41.9117 51.0919 41.9117 52.1609L41.9116 58.8803ZM40.4547 48.5461C40.2827 48.4804 40.0879 48.5088 39.9431 48.6239C39.0151 49.3561 37.8971 49.7441 36.7092 49.7441C35.5216 49.7441 34.4033 49.3557 33.4753 48.6239C33.3308 48.5095 33.136 48.4804 32.9641 48.5461C31.4714 49.1232 30.4682 50.575 30.4682 52.1602V59.3957C30.4682 59.6809 30.7007 59.9119 30.9877 59.9119H42.4318C42.7184 59.9119 42.9513 59.6802 42.9513 59.3957V52.161C42.9513 50.5758 41.948 49.1233 40.455 48.5462L40.4547 48.5461ZM22.6914 58.8803H12.2873V52.1609C12.2873 51.0919 12.9102 50.1048 13.863 49.6233C14.9242 50.3779 16.1712 50.7764 17.4889 50.7764C18.8065 50.7764 20.054 50.378 21.1147 49.6233C22.0675 50.1043 22.6904 51.0919 22.6904 52.1609L22.6908 58.8803H22.6914ZM21.2349 48.5461C21.0626 48.4804 20.8681 48.5088 20.7233 48.6239C19.7953 49.3561 18.677 49.7441 17.4894 49.7441C16.3015 49.7441 15.1835 49.3557 14.2555 48.6239C14.1107 48.5095 13.9162 48.4804 13.7439 48.5461C12.2513 49.1232 11.248 50.575 11.248 52.1602V59.3957C11.248 59.6809 11.4813 59.9119 11.7683 59.9119H23.2105C23.4975 59.9119 23.73 59.6802 23.73 59.3957V52.161C23.7303 50.5758 22.7275 49.1233 21.2345 48.5462L21.2349 48.5461ZM49.4456 19.4039C49.6709 19.4039 49.8703 19.2593 49.9406 19.0466L50.6384 16.9131L51.3354 19.0466C51.405 19.2593 51.6044 19.4039 51.8305 19.4039H54.0886L52.2611 20.7222C52.0791 20.8534 52.0027 21.0866 52.0723 21.2993L52.7704 23.4328L50.9438 22.1146C50.8516 22.0499 50.7448 22.0163 50.6383 22.0163C50.5311 22.0163 50.4239 22.0492 50.3321 22.1146L48.5054 23.4328L49.2036 21.2993C49.2732 21.0866 49.1964 20.8534 49.0144 20.7222L47.1877 19.4039H49.4456ZM45.2826 19.3045L48.0974 21.3367L47.0227 24.6255C46.9531 24.8382 47.0287 25.0703 47.2108 25.2026C47.3932 25.3338 47.64 25.3338 47.8221 25.2026L50.6376 23.1705L53.4524 25.2026C53.5427 25.2692 53.6503 25.3009 53.7579 25.3009C53.8651 25.3009 53.9719 25.2684 54.0633 25.2026C54.2454 25.0703 54.321 24.8382 54.2514 24.6255L53.1767 21.3367L55.9912 19.3045C56.1737 19.1733 56.2497 18.9401 56.1805 18.7274C56.1109 18.5147 55.9115 18.3712 55.6854 18.3712H52.2059L51.13 15.0824C51.0604 14.8697 50.8622 14.7262 50.6369 14.7262C50.4112 14.7262 50.2118 14.8697 50.1418 15.0824L49.0671 18.3712H45.5864C45.3619 18.3712 45.1625 18.5147 45.0925 18.7274C45.0241 18.9401 45.1001 19.1733 45.2826 19.3045ZM35.5179 19.4039C35.7432 19.4039 35.9426 19.2593 36.0122 19.0466L36.7092 16.9135L37.4074 19.047C37.477 19.2597 37.6763 19.4043 37.9017 19.4043H40.1598L38.3323 20.7226C38.1503 20.8538 38.0746 21.087 38.1435 21.2997L38.8416 23.4332L37.0142 22.1149C36.9235 22.0495 36.8163 22.0163 36.7091 22.0163C36.6019 22.0163 36.4951 22.0492 36.404 22.1146L34.5766 23.4328L35.2747 21.2993C35.3443 21.0866 35.268 20.8534 35.0859 20.7222L33.2592 19.404L35.5179 19.4039ZM31.3549 19.3045L34.1697 21.3367L33.0946 24.6255C33.0251 24.8382 33.1014 25.0703 33.2839 25.2026C33.4659 25.3338 33.7123 25.3338 33.8944 25.2026L36.7092 23.1708L39.5248 25.203C39.6158 25.2696 39.7226 25.3013 39.8298 25.3013C39.937 25.3013 40.0442 25.2688 40.1353 25.203C40.3177 25.0707 40.3937 24.8386 40.3245 24.6259L39.2494 21.3371L42.0639 19.3049C42.2464 19.1737 42.3227 18.9405 42.2531 18.7278C42.1835 18.5151 41.9842 18.3716 41.7592 18.3716H38.2785L37.2034 15.0828C37.1338 14.8701 36.9345 14.7265 36.7092 14.7265C36.4846 14.7265 36.2852 14.8701 36.2149 15.0828L35.1402 18.3716H31.6602C31.4357 18.3716 31.2355 18.5151 31.166 18.7278C31.0967 18.9401 31.1727 19.1733 31.3548 19.3045L31.3549 19.3045ZM21.5893 19.4039C21.8146 19.4039 22.014 19.2593 22.0835 19.0466L22.7817 16.9131L23.4795 19.0466C23.5491 19.2593 23.7485 19.4039 23.9738 19.4039H26.2319L24.4052 20.7222C24.2228 20.8534 24.1468 21.0866 24.216 21.2993L24.9142 23.4328L23.0875 22.1146C22.9961 22.0499 22.8892 22.0163 22.782 22.0163C22.6748 22.0163 22.5676 22.0492 22.4766 22.1146L20.6499 23.4328L21.3477 21.2993C21.4173 21.0866 21.3417 20.8534 21.1588 20.7222L19.3322 19.4039H21.5893ZM17.427 19.3045L20.2425 21.3367L19.1675 24.6255C19.0979 24.8382 19.1735 25.0703 19.3563 25.2026C19.5387 25.3338 19.7847 25.3338 19.9676 25.2026L22.7824 23.1705L25.5972 25.2026C25.6882 25.2692 25.7954 25.3009 25.9026 25.3009C26.0098 25.3009 26.117 25.2684 26.2081 25.2026C26.3901 25.0703 26.4658 24.8382 26.3969 24.6255L25.3218 21.3367L28.1366 19.3045C28.3191 19.1733 28.3951 18.9401 28.3258 18.7274C28.2563 18.5147 28.0569 18.3712 27.8308 18.3712H24.3513L23.2762 15.0824C23.2066 14.8697 23.0072 14.7262 22.7819 14.7262C22.5566 14.7262 22.3572 14.8697 22.2876 15.0824L21.2125 18.3712H17.7326C17.5073 18.3712 17.3087 18.5147 17.2383 18.7274C17.1687 18.9401 17.2447 19.1733 17.4268 19.3045H17.427ZM14.7855 15.2394V24.7878C14.7855 26.7341 16.3797 28.3182 18.338 28.3182H34.3486C34.5698 28.3182 34.7673 28.4576 34.8403 28.6654L36.7091 34.0279L38.5786 28.6658C38.6516 28.458 38.8483 28.3185 39.0703 28.3185H55.0818C57.0406 28.3185 58.6336 26.7345 58.6336 24.7882V15.2394C58.6336 13.2931 57.0406 11.7102 55.0818 11.7102H18.3381C16.3794 11.7094 14.7855 13.2924 14.7855 15.2394ZM18.338 29.3512H33.9789L36.2186 35.7741C36.2915 35.9831 36.4875 36.1217 36.7095 36.1217C36.9314 36.1217 37.1285 35.9823 37.2004 35.7741L39.4401 29.3512H55.0809C57.6121 29.3512 59.672 27.3044 59.672 24.7881V15.2397C59.672 12.7242 57.6114 10.6777 55.0809 10.6777H18.3372C15.8056 10.6777 13.7461 12.7246 13.7461 15.2397V24.7881C13.7468 27.3044 15.8064 29.3512 18.338 29.3512Z" fill="url(#paint0_linear_516_29)"/>
</g>
<defs>
<linearGradient id="paint0_linear_516_29" x1="36.7087" y1="10.6777" x2="36.7087" y2="59.9119" gradientUnits="userSpaceOnUse">
<stop offset="0.452091" stop-color="#23FFC6"/>
<stop offset="0.64115" stop-color="white"/>
</linearGradient>
</defs>
</svg>
