<svg width="562" height="80" viewBox="0 0 562 80" fill="none" xmlns="http://www.w3.org/2000/svg">
<path fill-rule="evenodd" clip-rule="evenodd" d="M220.414 64.4381C233.019 64.4381 239.528 62.7946 242.405 60.0591C245.281 57.3236 246.641 52.8644 246.641 44.8875C246.641 37.4581 245.699 32.5316 242.771 29.8726C239.685 27.057 233.019 26.1967 221.617 25.8839C211.576 25.5711 209.85 25.2583 208.804 24.4761C207.863 23.7725 207.183 22.5994 207.183 19.7838C207.183 17.5942 207.497 16.0298 208.909 15.0134C210.216 14.075 212.727 13.6841 220.101 13.6841C226.795 13.6841 231.213 14.075 232.729 15.17C234.141 16.187 234.351 17.907 234.351 20.7226V20.8007H245.02V19.7062C245.02 13.1371 244.444 8.44479 241.516 5.62969C238.012 2.26708 229.777 1.25013 220.258 1.25013C209.693 1.25013 204.254 2.50128 201.116 5.3169C198.24 7.89728 196.671 12.0421 196.671 20.019C196.671 27.9173 197.769 32.2969 200.646 34.9558C203.26 37.3801 207.601 38.4746 215.864 38.7874C229.044 39.2568 233.2 39.4135 234.457 40.3518C235.714 41.2902 236.183 42.7761 236.183 45.4366C236.183 48.3302 235.817 49.5028 234.405 50.5213C233.098 51.4597 229.099 52.0072 220.73 52.0072C213.461 52.0072 210.166 51.5378 208.754 50.4432C207.342 49.3487 206.976 47.9404 206.976 44.265V44.0303H196.305V45.6739C196.305 53.1027 197.089 57.3261 199.913 60.0632C203.208 63.265 207.758 64.4381 220.414 64.4381ZM267.536 63.5521H284.575V52.1957H271.747C268.786 52.1957 268.063 51.5691 268.063 48.2013V30.8136H284.378V19.6918H268.063V8.88341H255.563V19.6918H247.997V30.8136H255.563V50.1592C255.563 60.4977 258.984 63.5521 267.536 63.5521ZM287.932 63.5521H300.431V43.8151C300.431 33.5547 303.26 31.0488 314.312 31.0488H322.536V19.3785H314.641C306.944 19.3785 303.194 21.415 300.497 27.2106H300.431V19.6918H287.93V63.5542L287.932 63.5521ZM340.76 64.2573C349.313 64.2573 353.918 62.7678 355.892 58.7745H356.089V63.5511H368.325V36.2964C368.325 23.2162 364.839 18.9877 345.957 18.9877C328.195 18.9877 323.655 22.904 323.655 32.8511V34.0252H336.221V33.4771C336.221 30.3441 337.405 29.1695 346.155 29.1695C354.839 29.1695 356.089 30.5008 356.089 35.5136V36.6882H341.879C327.471 36.6882 322.406 39.508 322.406 50.395C322.406 60.263 327.208 64.2573 340.76 64.2573ZM334.642 49.4545C334.642 46.2429 336.024 45.4597 342.997 45.4597H356.22V47.2614C356.22 52.509 354.641 53.6816 342.997 53.6816C336.287 53.6836 334.642 52.8233 334.642 49.4545ZM390.366 63.5521H407.405V52.1957H394.576C391.616 52.1957 390.892 51.5691 390.892 48.2013V30.8136H407.207V19.6918H390.892V8.88341H378.392V19.6918H370.827V30.8136H378.392V50.1592C378.392 60.4977 381.814 63.5521 390.366 63.5521ZM432.537 64.2573C449.247 64.2573 455.496 60.811 455.496 50.3945V49.2193H442.932V49.3734C442.932 52.5064 442.208 54.0729 432.603 54.0729C421.879 54.0729 421.09 52.4294 421.09 46.397V45.379H455.497V40.3662C455.497 24.3102 450.629 18.9846 432.208 18.9846C412.999 18.9846 408.59 24.3107 408.59 41.6194C408.59 58.9281 412.998 64.2573 432.537 64.2573ZM421.09 36.453C421.09 30.8136 422.537 29.169 432.076 29.169C441.55 29.169 442.997 30.8125 442.997 36.453H421.09ZM482.866 80C501.746 80 506.877 75.6143 506.877 59.4797V19.6918H494.381V25.9579H494.247C491.484 20.945 488.721 18.9872 478.722 18.9872C463.788 18.9872 459.05 24.3914 459.05 40.5259C459.05 56.6605 463.787 61.9866 478.722 61.9866C488.459 61.9866 491.88 60.1068 494.247 55.094H494.381V59.4802C494.381 68.4088 493.261 69.8187 482.866 69.8187C473.59 69.8187 472.932 68.2522 472.932 65.1192V64.9625H460.367V65.7458C460.367 75.301 463.261 80 482.866 80ZM471.618 40.5254C471.618 31.9882 473.066 30.7355 482.67 30.7355C492.672 30.7355 494.381 32.3015 494.381 39.9774V40.9954C494.381 48.7509 492.67 50.3159 482.67 50.3159C473.064 50.3159 471.617 49.0627 471.617 40.5254H471.618ZM514.906 79.3734H524.778C532.934 79.3734 535.893 76.4756 540.037 67.2337L561.291 19.6918H547.603L535.107 50.3159H534.84L522.277 19.6918H508.199L528.394 64.3354C527.012 66.9985 525.959 67.3903 522.672 67.3903H514.906V79.3734Z" fill="white"/>
<path fill-rule="evenodd" clip-rule="evenodd" d="M0 60.9846H13.1597V14.5393H13.2912L28.9563 60.9846H48.0344V0.049305H34.9435V46.1813H34.812L19.4093 0.049305H0V60.9846ZM75.4828 61.6893C92.1931 61.6893 98.4412 58.2429 98.4412 47.8259V46.6512H85.8793V46.8053C85.8793 49.9384 85.1561 51.5049 75.5511 51.5049C64.8274 51.5049 64.038 49.8613 64.038 43.829V42.811H98.4448V37.7987C98.4448 21.7422 93.5763 16.4165 75.1561 16.4165C55.9471 16.4165 51.5383 21.7427 51.5383 39.0514C51.5383 56.36 55.9461 61.6893 75.4848 61.6893H75.4828ZM64.0359 33.8849C64.0359 28.2455 65.4833 26.6009 75.0226 26.6009C84.4956 26.6009 85.943 28.2445 85.943 33.8849H64.0359ZM175.109 60.9846H192.148V49.6276H179.32C176.359 49.6276 175.636 49.001 175.636 45.6333V28.2455H191.951V17.1238H175.636V6.31536H163.136V17.1238H155.573V28.2455H163.138V47.5912C163.136 57.9296 166.557 60.9846 175.109 60.9846Z" fill="white"/>
<path fill-rule="evenodd" clip-rule="evenodd" d="M151.575 15.4782V29.5408L136.174 44.942L142.2 41.3708L151.687 50.5223L151.575 64.8079L126.913 40.1433L151.575 15.4782Z" fill="white"/>
<path fill-rule="evenodd" clip-rule="evenodd" d="M101.338 0V22.7473L126.252 47.661L116.504 41.8834L101.158 56.6872L101.338 79.7956L141.237 39.8973L101.338 0Z" fill="#23FFC6"/>
<path fill-rule="evenodd" clip-rule="evenodd" d="M68.4129 42.811V33.885H64.3269C64.0406 36.0364 63.7826 39.2274 64.0437 42.811H68.4129ZM162.917 28.2455V17.1238H155.573V28.2455H162.917ZM255.367 30.8136V19.6919H247.998V30.8136H255.367ZM356.035 58.7746V49.6338C355.485 52.3324 353.494 53.3417 347.303 53.6053V63.8469C351.789 63.1675 354.497 61.5959 355.892 58.7746H356.035ZM378.12 30.8136V19.6919H370.827V30.8136H378.12ZM425.372 45.3791V36.453H421.09C421.09 36.4499 421.09 36.4467 421.09 36.4435C420.766 37.31 420.533 38.9033 420.75 41.8321C420.87 43.4563 421.151 44.591 421.507 45.3791H425.372ZM494.196 55.2023V44.4664C493.628 48.6573 491.56 49.9974 485.465 50.2628V61.3493C485.465 61.4104 485.475 61.4689 485.495 61.5233C490.233 60.7066 492.493 58.7521 494.196 55.2023Z" fill="#CACACA"/>
</svg>
