<?xml version="1.0" encoding="UTF-8"?>
<svg id="Layer_1" xmlns="http://www.w3.org/2000/svg" xmlns:xlink="http://www.w3.org/1999/xlink" version="1.1" viewBox="0 0 1080 1080">
  <!-- Generator: Adobe Illustrator 29.2.1, SVG Export Plug-In . SVG Version: 2.1.0 Build 116)  -->
  <defs>
    <style>
      .st0 {
        fill: none;
      }

      .st1 {
        font-family: Alexandria-Bold, Alexandria;
        font-size: 14.28px;
      }

      .st1, .st2, .st3 {
        font-weight: 700;
      }

      .st1, .st2, .st4, .st5 {
        fill: #06f;
      }

      .st2 {
        font-family: Montserrat-Bold, Montserrat;
        font-size: 9px;
        letter-spacing: 0em;
      }

      .st6 {
        fill: #23ffc6;
      }

      .st7 {
        fill: #007aff;
      }

      .st7, .st8, .st5 {
        stroke: #fff;
        stroke-miterlimit: 10;
        stroke-width: .18px;
      }

      .st3 {
        fill: #fff;
        font-family: BahijTheSansArabic-Bold, 'Bahij TheSansArabic';
        font-size: 6.11px;
      }

      .st9 {
        clip-path: url(#clippath-11);
      }

      .st10 {
        clip-path: url(#clippath-10);
      }

      .st11 {
        clip-path: url(#clippath-13);
      }

      .st12 {
        clip-path: url(#clippath-12);
      }

      .st13 {
        clip-path: url(#clippath-1);
      }

      .st14 {
        clip-path: url(#clippath-3);
      }

      .st15 {
        clip-path: url(#clippath-4);
      }

      .st16 {
        clip-path: url(#clippath-2);
      }

      .st17 {
        clip-path: url(#clippath-7);
      }

      .st18 {
        clip-path: url(#clippath-6);
      }

      .st19 {
        clip-path: url(#clippath-9);
      }

      .st20 {
        clip-path: url(#clippath-8);
      }

      .st21 {
        clip-path: url(#clippath-5);
      }

      .st4 {
        font-family: Alexandria-Black, Alexandria;
        font-size: 11.51px;
        font-weight: 800;
      }

      .st8 {
        fill: #0762e5;
      }

      .st22 {
        fill: #1befb2;
      }

      .st23 {
        fill: #1a1a1a;
      }

      .st24 {
        clip-path: url(#clippath);
      }
    </style>
    <clipPath id="clippath">
      <polyline class="st0" points="-62.36 116.49 -62.36 899.91 532.6 899.91"/>
    </clipPath>
    <clipPath id="clippath-1">
      <polygon class="st6" points="723.66 608.2 723.64 608.2 723.64 643.4 821.91 643.4 821.93 643.4 821.93 608.22 821.93 608.2 723.66 608.2"/>
    </clipPath>
    <clipPath id="clippath-2">
      <polygon class="st6" points="590.79 579.51 590.77 579.51 590.77 614.72 689.05 614.72 689.07 614.72 689.07 579.53 689.06 579.51 590.79 579.51"/>
    </clipPath>
    <clipPath id="clippath-3">
      <polygon class="st6" points="536.2 496.8 536.19 496.8 536.19 532 634.46 532 634.48 532 634.48 496.82 634.48 496.8 536.2 496.8"/>
    </clipPath>
    <clipPath id="clippath-4">
      <polygon class="st6" points="443.19 450.65 443.17 450.65 443.17 485.85 541.45 485.85 541.47 485.85 541.47 450.67 541.47 450.65 443.19 450.65"/>
    </clipPath>
    <clipPath id="clippath-5">
      <polygon class="st6" points="300.2 428.73 300.18 428.73 300.18 463.94 398.45 463.94 398.47 463.94 398.47 428.75 398.47 428.73 300.2 428.73"/>
    </clipPath>
    <clipPath id="clippath-6">
      <polygon class="st6" points="574.15 382.78 574.17 382.78 574.17 417.98 475.89 417.98 475.87 417.98 475.87 382.8 475.87 382.78 574.15 382.78"/>
    </clipPath>
    <clipPath id="clippath-7">
      <polygon class="st6" points="436.13 550.83 436.15 550.83 436.15 586.04 337.88 586.04 337.86 586.04 337.86 550.85 337.86 550.83 436.13 550.83"/>
    </clipPath>
    <clipPath id="clippath-8">
      <polygon class="st6" points="455.34 636.28 455.36 636.28 455.36 671.49 357.09 671.49 357.07 671.49 357.07 636.3 357.07 636.28 455.34 636.28"/>
    </clipPath>
    <clipPath id="clippath-9">
      <polygon class="st6" points="531.6 742.09 531.62 742.09 531.65 777.29 433.38 777.38 433.36 777.38 433.33 742.19 433.33 742.17 531.6 742.09"/>
    </clipPath>
    <clipPath id="clippath-10">
      <polygon class="st6" points="507.52 788.23 507.54 788.23 507.54 823.44 409.27 823.44 409.25 823.44 409.25 788.25 409.25 788.23 507.52 788.23"/>
    </clipPath>
    <clipPath id="clippath-11">
      <polygon class="st6" points="470.69 677.18 470.68 677.18 470.68 712.39 568.95 712.39 568.97 712.39 568.97 677.2 568.97 677.18 470.69 677.18"/>
    </clipPath>
    <clipPath id="clippath-12">
      <polygon class="st6" points="570.46 747.06 570.44 747.06 570.44 782.26 668.71 782.26 668.74 782.26 668.74 747.08 668.73 747.06 570.46 747.06"/>
    </clipPath>
    <clipPath id="clippath-13">
      <polygon class="st6" points="458.94 350.65 458.96 350.65 458.96 385.86 360.69 385.86 360.67 385.86 360.67 350.68 360.67 350.65 458.94 350.65"/>
    </clipPath>
  </defs>
  <path id="SA04" class="st5" d="M649.05,830.72l9.58-78.02,8.17-63.94,8.66-70.91.21-7.39-.49-4.01-.7-2.39-1.27-2.96-1.27-2.11-1.27-1.55-7.68-7.75-10.77-7.82-.49-.63-.42-.63-.21-.49-.28-1.55-.7-45.14-.14-1.06-.21-.63-.28-.63-.42-.63-.42-.42-.35-.28-9.72-3.87-.63-.42-.56-.63-.85-1.27-5-4.93-.7-.42-.63-.21-.77-.07-4.51.85h-.7l-.7-.14-.77-.21-.7-.35-7.46-5.42-1.9-1.06-1.34-.49-1.34-.28-5.07-.14-1.27-.28-.7-.28-1.27-.92-2.89-2.75-1.9-2.32-.63-.56-.63-.35-.7-.14-2.18-.21-1.41-.42-8.66-5-.63-.63-.77-.92-.35-.92-.85-2.96-.42-.85-.49-.7-1.27-1.2-2.61-1.9-.35-.21-.35-.42-.77-1.2-.28-.7-.14-.63v-.63l.07-.56.28-.99.77-1.97.63-1.13,5.07-6.2,1.48-2.18,10.7-20.21,1.83-2.75,2.39-2.68,2.96-2.75,4.3-2.39,14.37-5.42.42-.42.49-.14,1.34-.28,1.34-.28,3.38.42,3.38.42,3.45.42,3.38.42,3.03.35,3.03.42,3.03.42,3.03.42,1.69.21.35.63,1.48,2.46,1.69,4.65.14.92.14,1.83.28,1.06.42,1.06.42.77.7.56.63.49.63.63.21.92h1.62l5.42-.07,5.42-.07,5.35-.07,5.42-.07.7.77.42.28.77.35.07.28.28,1.48v1.2l-.21.77-.7-.28-.14.21-.07.14v.14h.56l.49-.14.42-.28.14-.56.35.28v.28l-.35.63-.14.92-.07.42.21.77.35.7,2.54,2.82.14.42-.42.63-.21.63v.7l.14.7.28.56.99,1.34.21.35-.07.42v.14l.49.28.99.42.35.07,1.06-.07.28.14.56.28.35.07.14.14v.21l-.07.21-.14.14-.21.14h-.21l-.21-.14-.49.28-.14.21v.49l.28.49.63.63.7.49.56.28v.14l.7,1.06,1.2,1.2.14.35-.28.7v.85l.14.14-.07.28-.28.49-.42.56-.42.35.28-.42v-.28l-.07-.85.07-.49.21-.28.07-.28-.14-.49-.42.49-.49,1.27-.49.35.56-1.48.07-.42-.21-.63-.21.07-.28.49-.56,2.39v.56l-.07.07-.14.21.07.21.35-.07.14-.14.21-.56.21-.21v1.55l.14.35.28-.07.28-.28.14-.35.28.35v.49l-.07.56.42.14.28-.21.21-.28.14-.35v.56l-.07.21-.14.14.14.35v.21l-.21.07-.35.07.35.7.07.21-.7-.35h-.35l-.21.35.63.28h.56l.42-.35.28-.63h.21l.21.49-.35.42-.14.63.14.56h.56l.21-.21-.14-.28-.21-.21-.07-.21.21-.35.35-.14.7-.21.56-.07.42.21,1.06,1.06,1.13.56.28.42-.56.42.42.14h.42l.14-.28-.14-.35.49.21.56.14,1.13.14.28-.14.49-.28.28-.07h.28l.63.21h.35l.56.21.49.42.7.99.21.21.21.14.21.14.21.28.07.21.07.63.07.28h-.42l-.21-.14-.07-.35.07-.42h-.21l-.63.77-1.69-.21-.56.63h-.28l-.21-.63h-.49l-1.13.63.21.14.7.14.35.21.21.14.21.21.21.14.35.21.21.21.14.14.21-.07.49-.49v-.07l.14-.14.07-.21.14-.14.14.14.28.21.28.14-.21.49-.28.21-.35.14-.21.35-.07.35-.07.85-.07.42.35-.07.35-.21.35-.28.28-.28.35-.07.42.07.63.35-.28.7.14.63.21.7.14.7-.07,1.41.14.63.49-.07v.63l.21.21.35-.07.28-.28-.14-.56.28-.28.49-.07.42.42.21-.28.14.42-.07.35-.21.35-.07.42-.14.28-.21.14h-.35l-.35-.07.28.42.7.14.28.35.28-.14.21-.28.35-.7v.14h.07l.14.07-.35.63.28.07.77-.21.49.07.77.35h.49l-.77-.85-.28-.56.42-.42.42-.07.28.21.28.21.28.14.21-.14.63-.56-.14.49-.28.85v.49l.21.77.14.42.14.21.56.28.56.63,1.76,2.75.92,1.13.28.21.85.35.28.28.42.42.35.28,1.83.85,1.2.85.7.07h.7l.7.07.99.56.85.85,1.55,2.11.49.92,2.25,1.62.49.56.07.85-1.34-1.2-.77-.49-1.62-.21-.42-.14-.28-.35-.28-1.27-.28.21-.28.56-.14.56v.85l.14.35.21.35.28.28.07.21-.14,2.04.07.56.85,2.61.35.56.49.49.49.35,2.61.92.92.77.56,1.13.21,1.55v3.73l-.14.77-.28.7-.63.35v-.49l-.21-.21-.35.14-.28.35.21.85-.07,1.34-.28,1.34-.28.92-.42-.35-.14-.49v-.56l-.07-.49-.21-.42-.28-.21-.28-.21-.21-.28-.14-.14h-.14l-.14-.07-.07-.99-.07-.21-.07-.21-.28-.35-.35-.35-.42-.28-.28.14-.85,1.55-.21.21-.35.21.14.42.35.49.14.14.07.28.28.42.07.35-.07.07-.21.07-.21.14-.14.28.07.49.14.49v.49l-.21.49.49.21.49-.28.21-.49-.14-.56.28.07.21.14.35.49.14.07.14-.07.07.07.07.21v.35h.28l.77.21.35.49.14.56.35.63v.21l-.63.63.35,1.55.7,1.76.56,1.13,1.83,2.25.77,1.27.35,1.55h-.21l-.56-1.55-.21-.28-.35-.07-.42-.21-.42-.28-.35-.56-.49-.35-.42-.07-.14.63.28.49.77.56.21.35.14-.35.07-.14h.21l1.13,2.39,3.52,4.51.77.7-.07-.42-.21-.56-.07-.42.21-.14.35-.21.14.07.14.77.14.21.14.07.07.07.21.49.56.28,1.06.28.28.35.56,1.48-.21.21.35.56.42.85.35.99.14.77v.42l-.21.7v.42l.07.49.14.28.14.21.14.56.42.85.14.49-.21,1.41.21,1.34.28.77.35.42.21-.63.77.63.85,1.06.35.56.49.49.63,2.18.7.49.63.56.28,1.34.07,2.04.07.35.28.63.35.56.28.28h.49l.56-.56.07-.07.07.07,2.18,3.59,1.41,1.62,1.55.7,1.83.21h1.69l.49-.14,1.13-.35,2.04-1.69.07.28h.21l1.34-.21.28.14.07.07.07.14.14.14.21.21.35-.28.07.21v.07l-.07.28-.07.28-.21.07-.21.21.07.35.14.28.07.07-.07,1.13.21.21.49-.21.42-.28.85-1.48.07-.14.35-.28.35-.28.28-.42v-.77l.42.28h.56l.49.14.14.42.21.42.35.07h.49l.42.28v.28l-.49.21-.63.21-.49.28-.28.49h-.07l-.7.77-.14.28-.14.42-.14.21-1.83,1.34-.28.42-.07.14-.42.56-.14.28-.07.35-.07.77-.07.28v.63l-.07.07-.35-.07-.14.07-.07.07v1.13l.14.14,1.9.21.7-.21.35-.21.28-.21.28-.21.42-.07,2.04.42.49.42.92,1.06,1.34.35.14,1.34v.85l-.07,2.11.21.85.42.77,1.76,2.25,1.55,2.11,1.62,2.04,1.55,2.04,1.62,2.11,1.55,2.04,1.62,2.04,1.55,2.04,1.62,2.04,1.55,2.11,1.62,2.04,1.55,2.04,1.62,2.04,1.55,2.04,1.62,2.04,1.55,2.04,1.62,2.04,1.62,2.11.63.56.7.21,4.93.7,4.23.56,4.23.56,4.23.56,4.23.56,4.23.56,4.23.56,4.23.56,4.23.56,4.23.56,4.23.56,4.23.56,4.23.56,4.23.56,4.23.56,4.23.56,4.23.56,4.15.56.42-.14,2.04-2.61,1.9,3.24,2.46,4.08,2.46,4.08,2.46,4.15,2.46,4.08,1.62,2.68.28.7v.77l-1.13,3.73-.14.42-.21.7-.56,1.83-.85,2.82-1.13,3.66-1.34,4.37-1.55,4.86-1.55,5.14-.42,1.27-1.27,4.08-1.69,5.35-1.55,5.14-1.55,4.86-1.34,4.3-1.13,3.66-.85,2.82-.56,1.76-.21.7-.99,3.1-4.58,1.62-5.21,1.83-5.21,1.83-5.14,1.83-5.21,1.9-5.21,1.83-5.21,1.83-5.21,1.83-5.21,1.83-5.21,1.83-5.21,1.83-5.14,1.83-5.21,1.9-5.21,1.83-5.21,1.83-5.21,1.83-5.21,1.83-3.24,1.13-.14.07-.56.07-4.23.56-4.86.7-4.86.7-4.86.7-4.86.7-4.86.7-4.93.63-4.86.7-4.86.7-4.86.7-4.86.7-4.86.63-4.86.7-4.86.7-4.93.7-4.86.7-2.25.28-2.61.42-3.94.49-2.39.92-.21.14-.56.28-.7.35-.7.35-.7.35-.7.35-.21.07-.56.28-.63.35-.85.42-.63.35-4.86,2.46-5.84,3.03-5.21,2.68-3.87,1.97-.21.21-.49.28-2.32,2.96-2.75,3.52-4.86,5.99-4.51,5.7-2.96,3.73-.49.99-1.48,3.94-2.04,5.63-.85,1.13v.07h0ZM713.98,493.34l.56.28,1.62.42,1.55.49-.56.21-.42-.14-.49-.21-.49-.14-.49.07-.49.21-.42.28-.35.35-.28-.21h-.14l-.21-.14-.21-.07v-.21l.42-.21.07-.14-.14-.21-.14-.14-.07-.14-.35-.14-.35.07-.28.07-.28.07-.42.21-.35.35-.35.56-.21.56-.07-.92.56-.85.85-.63.92-.21.35.07.28.14.42.28h0Z"/>
  <path id="SA08" class="st5" d="M618.63,433.91l-.42.42-14.37,5.42-4.3,2.39-2.96,2.75-2.39,2.68-1.83,2.75-10.7,20.21-1.48,2.18-5.07,6.2-.63,1.13-.77,1.97-.28.99-.07.56v.63l.14.63.28.7.77,1.2.35.42-1.27,1.83-.63.35-.77.35-.7-.07-.63-.28-.56-.42-.42-.56-.07-.07-.14-.21-.56-.49-.42-.99-.77-.92-5.07-4.58-.7-.49-1.34-.77-1.06-.35-9.37-1.48-.85-.28-1.06-.49-.77-.63-.77-.7-1.06-1.48-2.54-6.76-5.14-9.3-.49-.7-.7-.56-.85-.28-1.06.07-.85.35-3.52,2.32-1.2.56-.7.14-.77-.07-1.2-.42-3.24-1.69-.85-.28-1.06-.07-3.03.28-.77-.07-.85-.21-1.06-.7-.7-.77-.42-1.06-.21-.77-.07-.42-.14-2.61-.07-.28-.28-.28-.63-.35h-1.06l-.92.14-.85.42-2.46,1.34-.85.35-.92.21-.99.07-1.13-.14-1.48-.56-1.06-.7-.92-.7-3.66-4.44-.7-.63-.63-.42-1.41-.56-10.42-2.39-.77-.07-3.24.21-3.73.92-.77.14h-.77l-1.06-.21-7.39-2.39-.99-.14-1.27-.07-2.18.28-16.13,3.73h-.7l-1.76-.42-3.52-1.48,4.3-4.3.49-.7.28-.7.14-.49.07-.21.77-11.62.14-.7.21-.77.42-.7.56-.7.77-.77,3.31-2.54,25.35-15.84,2.54-2.04,1.34-1.41.56-.7.14-.7-.21-.7-.56-.63-4.58-3.52-1.48-1.41-.49-.77-.92-1.55-1.34-3.24-.42-.56-.77-.99-.56-.63-1.13-.7-.92-.35-3.59-.49h-2.46l-1.69-.21-.99-.35-.85-.42-6.06-4.86-.99-.49-1.13-.28h-3.03l-1.83.28-16.62-.42-2.82-.63-1.06-.42-.77-.42-2.25-1.97-.7-.56-.7-.42-.99-.21-20.56-3.24-4.01-.07-9.37,1.41-13.52,1.34-1.48-.07-1.34-.35-.7-.28-.7-.35-.63-.56-.49-.7-1.06-1.83-.56-1.2-.85-1.55-.99-1.41-.92-.92-2.68-1.9-.49-.63-.21-.56-.07-.49-.07-.21-.14-.92-.14-2.18.14-1.2,3.66-13.59,5.7-1.69,6.83-1.97,6.83-1.97,6.83-2.04,3.45-.99,1.06-.42,3.66-3.45.56-.49.28-.07h.14l.07-.07h.07l.07-.07,6.06,1.06,5.99,1.06,5.99.99,6.06,1.06,2.39.42,10.42,2.04,1.62.63,1.69.99,3.1,1.83,2.68,1.62,2.68,1.62,2.68,1.55,2.68,1.62,2.68,1.62,2.61,1.55,2.68,1.62,2.68,1.62,2.68,1.55,2.68,1.62,2.68,1.55,2.68,1.62,2.61,1.62,2.68,1.55,2.68,1.62,2.68,1.55,2.68,1.62,2.04,1.76,2.61,2.25,2.54,2.18,2.54,2.25,2.61,2.25,2.89,2.46,2.89,2.54,2.89,2.54.56.49,2.25,1.97h.07l3.17,2.68,2.68,2.18,2.68,2.18,2.68,2.18,2.68,2.18,3.52,2.82,3.45,2.82,3.52,2.89,3.45,2.82,1.48,1.2,2.04,1.62,3.45,2.82,3.45,2.82,3.52,2.82,2.89,2.39,2.89,2.32,2.89,2.32,2.89,2.39,2.39,1.83.14.07.21.14.21.07.21.07,2.75.21,2.46.21,2.39.28,2.39.21,2.46.21,3.1.28,3.1.28,3.1.28,3.17.28,3.1.28,3.1.28,3.1.28,3.1.28,2.32.21,2.32.21,2.32.21,2.32.21,3.17.28,1.34-.28.85-.14h0Z"/>
  <path id="SA12" class="st5" d="M362.1,339.54l-3.66,13.59-.14,1.2.14,2.18.14.92.07.21.07.49.21.56.49.63,2.68,1.9.92.92.99,1.41.85,1.55.56,1.2,1.06,1.83.49.7.63.56.7.35.7.28,1.34.35,1.48.07,13.52-1.34,9.37-1.41,4.01.07,20.56,3.24.99.21.7.42.7.56,2.25,1.97.77.42,1.06.42,2.82.63,16.62.42,1.83-.28h3.03l1.13.28.99.49,6.06,4.86.85.42.99.35,1.69.21h2.46l3.59.49.92.35,1.13.7.56.63.77.99.42.56,1.34,3.24.92,1.55.49.77,1.48,1.41,4.58,3.52.56.63.21.7-.14.7-.56.7-1.34,1.41-2.54,2.04-25.35,15.84-3.31,2.54-.77.77-.56.7-.42.7-.21.77-.14.7-.77,11.62-.07.21-.14.49-.28.7-.49.7-4.3,4.3-1.9-.49-.63.07-11.55,4.79-11.27,6.41-5.28,1.48-11.48,5.49-.77.49-.7.49-3.31,3.66-1.2-.99-.42-.21-.49-.14-.77-.07-1.06.21-.92.21-3.17,1.62-.77.35-.7.07-.77-.07-.63-.42-.49-.56-.85-2.04h-1.34l-.56-.07-.63-.21-1.06-.63-.7-.14-.99.28-.77.35-.99.35-1.13.07-6.06-.63-1.9-.42-3.31-1.13-1.41-.85-2.04-1.69-.49-.63-.49-.7-.35-.7-.49-1.2-.35-1.48-.21-1.97-.07-3.1.28-5.56-.14-.77-.28-.7-.56-.42-.7-.14-.63.21-1.9,1.83-2.04,1.27-.63.56-.42.7-.35.7-1.27,3.17-.35.7-.49.63-.7.35-.85.21-5.21-.35-2.54-.49-4.65-1.55-1.76-.28h-2.39l-7.25,1.62-3.38,1.27h-1.2l-1.27-.42-.21-.14-.21-.21-7.82-10.21-.99-.92-1.34-.92-.7-.35-5.99-1.48h-1.97l-2.39.42-4.01.28-6.27,1.2-1.27.42-1.06.49-1.06,1.06-.49.28-.77.14-4.37-.42-2.46-.63-1.06-.07-.99.21-2.61.07v-.14l-.49-.21v-.21l.42-.77.49-1.41.21-1.48-.35-.85v-.49l.35-.63.28-.77.63-3.1.14-.49.35-.77-.07-.21.07-.49.28-.28.7-.42-.21-.56-.07-.77.07-.49.42.21v-.21l.07-.07h.14l-.28-.49-.07-.56.14-.56,3.38.63,3.59.63,4.72.77,4.23.77,4.51.77,3.59.63,1.76.28,3.52.63,3.17.49h.77l.77-.35,3.31-2.68,3.24-2.68,3.52-2.96,2.32-1.97,1.97-3.31,1.9-3.17,1.41-2.39,1.69-2.89.7-.77.85-.42,2.61-.56,2.75-.56,4.37-.92,4.3-.85,4.08-.85,3.59-.77.63-.56,1.34-3.31,1.06-2.46,1.06-2.68.92-2.18.42-.63.7-.56,3.24-1.9,3.73-2.04,2.18-1.27.21-.14h.07-.07l-1.48-1.76-3.31-3.94-3.38-3.94-3.31-3.94-3.31-3.94-.14-.07-.07-.14-.07-.14-.14-.07-3.94-4.3-3.87-4.23-.07-.07-3.94-4.3-3.94-4.3,1.13-.35,6.41-1.97,7.46-2.25,7.53-2.25,1.83-.49,5.7-1.76,1.13-.28h0Z"/>
  <path id="SA10" class="st5" d="M658.63,752.69l-9.58,78.02h-.07l-.63.42-.63.35-.63.35-.21.21-1.34.77-3.73,2.18-.7.28h-5v.07l-.21-.07h-.42l-.35-.21-2.61-3.59-2.18-3.17-1.97-2.75-1.13-.63-6.76.92-5.07.7-7.32-.77-5.77-.56-7.53-.77-6.48-.7-1.34-.42-5-2.89-1.69-.35-5.14-.07h-4.51l-6.13-.07h-.07l-.56.14-1.83.7-.07.07h-.92l-2.04-.42-1.9-.07-2.89.28-2.32.56-.63.07-1.27-.42-.63-.07-.42.35-.28.49-.14.28-.49.56-.56.28-.77-.14-1.2-.56-.49-.07-.63.35h-.07l-.42.56-.14.28-.28.35-.42.42-.77.14-.35-.07-.14-.14-.14-.14-.07-.21.07-.63v-.35l-.21-.14-.7.28h-.56l-.85-.07-.35-.07-1.13.14h-.56l-.56-.21-.7-.49-.56-.49-1.55-1.76v-.99l.85-3.24-.07-1.69-.63-1.9-.07-.77v-.92l.28-1.27.77-7.04-.07-1.34-.28-1.34-.49-1.41-.28-1.41v-.77l.28-.92.63-1.2.77-.99,4.93-5.21,3.38-2.96.99-.99.35-.56.35-.63.7-1.76.42-.77.7-.7.7-.49.7-.28,2.11-.42,1.34-.49,1.41-.7,1.34-.92.56-.56.42-.56.42-.63.28-.85.21-.85.07-1.2v-1.13l-.14-1.41-1.06-4.08v-.77l.21-.85.77-1.2.7-.63,1.97-1.06.49-.35.28-.42.21-.7.14-1.06v-4.08l8.45,5.35,2.18,1.06,1.62.63,2.89.7,7.82.49,71.19-7.68,3.94-1.13h0Z"/>
  <path id="SA14" class="st5" d="M560.54,753.26v4.08l-.14,1.06-.21.7-.28.42-.49.35-1.97,1.06-.7.63-.77,1.2-.21.85v.77l1.06,4.08.14,1.41v1.13l-.07,1.2-.21.85-.28.85-.42.63-.42.56-.56.56-1.34.92-1.41.7-1.34.49-2.11.42-.7.28-.7.49-.7.7-.42.77-.7,1.76-.35.63-.35.56-.99.99-3.38,2.96-4.93,5.21-.77.99-.63,1.2-.28.92v.77l.28,1.41.49,1.41.28,1.34.07,1.34-.77,7.04-.28,1.27v.92l.07.77.63,1.9.07,1.69-.85,3.24v.99l-.56-.63-1.27-.77-.7-.28-1.55-.7-.49-.14h-1.06l-.56-.14-.63.07-.7.28-1.48.92-.92-1.41-1.62-2.39-.49-.63-.63-.56-2.32-.85-.56-.42-.49-.63-.92-2.04-.42-.63-.77-.77-2.39-1.9-.49-.85-.14-.77.07-1.34-.14-.56-.42-.49-1.2-.21h-.21l-1.41.85-1.27.92-.56.56-.42.63-.63,1.27-1.41,5.28-.28.63-.42.42-.56.28h-.63l-.63-.28-.77-.49-2.82-2.96-.49-.77-.42-.77-.21-.63-.35-.7-.63-.56-.85-.49-.7-.14-4.79-.07-.7-.21-.63-.35-.63-.77-.35-.63-.35-1.2-.21-.28-.49-.56-.77-.42-.7-.21-.63-.07-2.04.28-.63-.14-.49-.49-.28-.85v-1.48l.63-3.8v-.7l-.14-.56-.28-.49-1.2-.35-3.45.28,1.06-4.08.14-.85v-.85l-.21-.99-2.11-6.34-.35-.63-.49-.49-.56-.35-.63-.21-1.34-.28-1.27-.07h-3.31l-.63-.14-.56-.35-.56-.49-.35-.63-.21-.7-.21-.63-.14-1.34.21-7.46.07-.63.28-.28.49.21.49.42.63.28.56.07.56-.28,1.55-1.2,1.34-.77.7-.21.63-.14h.7l3.38.35h.42l.42-.14.56-.21.56-.42.42-.56.28-.63,1.06-3.31v-.77l-.21-.77-1.27-2.18-.14-.63-.07-.85v-.77l.92-4.23.07-.63v-.63l-.21-.7-.35-.63-.49-.56-.35-.28-.42-.21-.63-.07-1.27.07-1.34.56,3.03-6.69.49-1.62.14-2.25.28-.92.42-.85.7-.63,3.59-2.54.63-.63.7-.99.21-.77-.14-.77-.35-.56-.77-.77-.21-.99-.07-.85,1.48-5,.56.92,3.1,6.41.49.7.56.49.63.35.7.21.85-.07.99-.28,1.69-.92.99-.77,7.75-6.97,5.99-3.31.85-.7,1.2-1.2.77-.49.85-.35,1.06-.21,1.9-.07.49-.07.56-.21,1.9-.77.99-.28,1.27-.21.85.07.85.14,1.9.7.92-.07,1.06-.35,4.79-2.82,3.24-1.27,4.44,4.01,1.62,1.97.99,1.55,1.83,2.39,2.46,2.82.42.77.21.7.07.56-.07.63v.14l-.21.63-.28.56-1.76,2.89-.56,1.2-1.2,5.56v.77l.21,1.06.49.77,1.69,2.04,2.96,4.93,11.97,11.06.49.35h0Z"/>
  <path id="SA09" class="st8" d="M477.09,791.78l3.45-.28,1.2.35.28.49.14.56v.7l-.63,3.8v1.48l.28.85.49.49.63.14,2.04-.28.63.07.7.21.77.42.49.56.21.28.35,1.2.35.63.63.77.63.35.7.21,4.79.07.7.14.85.49.63.56.35.7.21.63.42.77.49.77,2.82,2.96.77.49.63.28h.63l.56-.28.42-.42.28-.63,1.41-5.28.63-1.27.42-.63.56-.56,1.27-.92,1.41-.85h.21l1.2.21.42.49.14.56-.07,1.34.14.77.49.85,2.39,1.9.77.77.42.63.92,2.04.49.63.56.42,2.32.85.63.56.49.63,1.62,2.39.92,1.41-1.2.77-1.83,1.55-.77.7-1.48,1.83-.07.14,1.69.56.63.49.21.49.07.14-.07.63-.7.35-.7.21-.77.28-.63.56-.21.56.07.77-.21.63-.63,1.27-.14.63.07.56.28.49.14.7v.7l-.14.63-.49,1.2-.21.77.14.56.63,1.2.35,1.2.35.28,1.13.28.35.28.21.35v.42l-.07.28-.28.21-.28.14-.28.14-.42.7.07.42.28.49.21.7v.07l-.21.56-.28.07-.21.07-.7-.21-.56-.14-.7-.14-.42.14-.14.42-.07.7-.07.56-.77,2.11-.42.49-.56.42-.07.07-1.34.77-.42.21-.35.07-.85.14-.35.14-.07.42.07.49v.49l-.21.49-.85.56-1.06.42-.21.14-1.2.42-.07-.14v-1.13l-.21-.35.42-.99-.21-.63-1.48-1.62-.35-.77-.07-.56v-1.41l.35-1.34v-.56l-.56-.14.21-.28-.35-.35-.28-.49-.07-.42.28-.21-.14-.35-.85-.77-.21-.21-.42-.56-.7-.77-.21-.21-.92-.49-.35-.07-.35.21-.99-1.48.42-1.41-.21-.49v-1.55l-.14-.56-.28-.14-.35-.21-.07-.35-.28-.28-.56-.07h-1.06l-.35-.35-.28-.49-.42-.92-.14-.42-.14-1.13-.14-.42-.28-.28-1.34-.56.07.56.21.49.56.92-.63.35.28,2.11-.28.56-.21-.63v-2.18l-.14-.7-.42-1.2-.49-4.3-.21-.77-.14-.56.21-1.62-.07-.63-.21-.77-.21-.28-.28-.07-.35-.07-.21-.07-.14-.14-.07-.28-.21-.35-3.24-2.82-.28-.07-.07.14-.21-.28-.35-.63-.56-.85-.21-.56-.14-.28-.21-.07-.7.14-.28-.07-.14-.42-.14-.28-1.34-1.34-.07.07-.14.07-.28.07h-.14l-.28-.28-.92-1.34-.35-.21-1.76-1.69-.7.28-1.13-.77-.7.07-.28-.85-.49-.49-.7-.49-.56-.56-1.27-1.62-.21-.56.07-.42.07-.35-.07-.21-.35-.14-.28-.07v-.56l-.07-.21-1.27-1.13-.49-.7.28-.56-.14-.21.56-1.34.28-.56.49-.56.56-.35,1.9-1.06.56-.56.35-.49.56-1.27h0ZM489.7,843.04v.42l-.07.56-.21.7.07.56.28.92-.28.63v.07l-.7-.07-.85-.99-.7-.28h-.63l-.35-.35.92-.35.49-.35-.21-.7-.77-.42-.77.14-.92.07-.63.14-.56.35-.49.28-.56-.21-.7-.63-.49-.49-.7-.14-.77-.56-.77-.63-.35-.63-.21-.99-.49-.35h-.56l-.35-.07.07-.21v-.7l-.49-.56-.28-.63.07-.56.42.14.21.21.35.28,1.2.56.63.77.35.42.07.77v.35l.56.63.49.42.21.14,1.13-.14.35.63h.56l.63-.21h.56l.35.35v.35h.35l.92-.35-.85-.21-.49-.7.42-.56.21-.92.21-.28.42-.07.14.07.28.14.85.49v.49l.42.7-.07.35.77.07.21.63,1.13.49h0ZM481.6,840.3l-.42-.35-.49-.56-.77-.99-.63-.92-.21-.35.35-.28.7-.07.56-.14.35-.35.28-.56h.35l.07.07.14-.63-.21-.77-.42-.21-.42-.21h-.35l-.7-.14-.35-.07-.14-.14.28-.21.28-.14.07.28.99.07.77.35.49.56.07.14.14.85v.63l-.14.7.14.56.99.21.28.7-1.27.07-.35.42.14.56.77.28.42.21.56.28.21.77v.35l-.92-.56-1.13-.28-.49-.14h0Z"/>
  <path id="SA07" class="st5" d="M266.54,440.52l2.61-.07.99-.21,1.06.07,2.46.63,4.37.42.77-.14.49-.28,1.06-1.06,1.06-.49,1.27-.42,6.27-1.2,4.01-.28,2.39-.42h1.97l5.99,1.48.7.35,1.34.92.99.92,7.82,10.21.21.21.21.14,1.27.42h1.2l3.38-1.27,7.25-1.62h2.39l1.76.28,4.65,1.55,2.54.49,5.21.35.85-.21.7-.35.49-.63.35-.7,1.27-3.17.35-.7.42-.7.63-.56,2.04-1.27,1.9-1.83.63-.21.7.14.56.42.28.7.14.77-.28,5.56.07,3.1.21,1.97.35,1.48.49,1.2.35.7.49.7.49.63,2.04,1.69,1.41.85,3.31,1.13,1.9.42,6.06.63,1.13-.07.99-.35.77-.35.99-.28.7.14,1.06.63.63.21.56.07h1.34l.85,2.04.49.56.63.42.77.07.7-.07.77-.35,3.17-1.62.92-.21,1.06-.21.77.07.49.14.42.21,1.2.99.56.7.49.35.7.28,9.79,2.32,1.69.63,1.13.63.63.77.14.14.7.7.92.63,1.83.92,3.59,2.96,1.76,1.76.42.7.28.77,3.31,13.45.35.63.49.63.42.49,1.2.77,3.66,1.97.7.63.63.77.14.7-.07.7-.28.7-.49.7-.56.63-3.73,3.24-1.41,1.9-.92,1.83-1.76,5.49-.56,1.13-.49.7-.49.35-.99-1.55-.56-.42-.7-.42-.63-.07-12.68,1.9-3.03.07-1.48-.21-1.2-.42-3.66-2.82-3.8-1.41-1.13-.56-.7-.63-.49-1.34-.35-.7-.7-.56-.56-.07-.35.35v.63l.14.63.07.7-.14.49-.77.35-.7-.07-.77-.21-2.25-1.06-.99-.35h-.7l-.7.07-.42.21-2.68,2.18-.85.56-.92.21-.63-.21-.28-.49v-.63l.07-.7v-.7l-.21-.63-.49-.56-1.9-1.2-.49-.56-.21-.56-.07-.56.07-.28v-.28l-.07-.42-.28-.49-.49-.35-.63-.28-.7-.07-3.03-.14-1.34-.21-.85-.49-.7-.56-1.69-2.61-.63-1.2-.56-1.41-.85-3.1-.28-.56-.42-.63-.77-.56-.56-.21-.56.07-5.7,3.1-.63.21-.7.14-.7-.07-1.27-.21-.92-.35-2.54-1.62-1.41-.63-.92-.14h-.85l-.63.21-7.82,3.73-3.52.85-.63.35-.56.49-.14.56.14.56.49.35.63.07,1.97-.35.56-.07.42.07.49.21.56.35.42.49.28.42.28.63.42,2.04.07.92-.07,1.9-.63,4.58.07,1.48.14.77.21.77.28.7.42.7.49.63.63.63.7.49.7.28,3.52,1.06.63.35.56.63.28.77.07.85-.21.7-.21.56-1.83,3.03-.56,1.41-.14.7-.07.7.07.7.21.7,1.76,3.52.42,1.41.35,1.41.14.56.28.42.42-.14,1.13-.92.63-.21.7.07,5.42,3.17.49.35.14.21.14.07.42,1.9.28.7.35.63.56.7,3.94,3.31.56.63.42.63.49.99.92,2.54,1.06,4.08.28.7.07.07.21.07.49.14,1.9.14.63.07.42.28.42.35.21.63.07.63-1.13,7.68.42,11.06-.14.49-.28.63-.63.85-.7.56-.7.35-.77.14-1.48-.07-1.34-.28h-.7l-.63.07-.7.42-.63.7-.85,1.06-.7.7-.77.49-.7.28-.63.21-1.2.14h-2.46l-.63.14-.63.28-.49.56-.35.56-.21.63-.35,1.97-.07.21-1.9-2.82-1.9-2.61-.85-1.2-.07-.92.14-.28v-.28l-.07-.35-.07-.21-.21-.14-.42.42h-.28l-.56-.28-.35-.56-.56-1.2h.77l.7.14h.7l.7-.28.42-.56v-1.69l.7-1.41-.07-.7-.63-1.41-.14-.85.14-1.97v-.77l-.21-.7-.21-.63-.35-.63-.63-.7-.35-.35-.28-.21-.28-.28-.28-.63-.28-.21-.63-.49-.56-.7-.49-.7-.42-.77-.07-.35-.07-.77-.07-.28-.14-.28-.49-.49-.14-.35.49-.35-.42-.77-1.34-1.41-.21-.42-.49-1.41-.21-.28-.35-.28-.21-.14v-.63l-.07-.21-.28-.35-.42-.99-.21-.35-.42-.28-.92-.42-.35-.21-1.2-1.9-.77-.99-.63-.07-.07.42.21.35.07.35-.35.21-.35-.14-.92-.63-.49-.14-.28-.21-.63-.85-.21-.35-.07-.21.07-.7-.07-.21-.35-.07-.21-.21-.35-.85-.07-.77.28-.77.63-.7.42-.7.14-.92-.14-.99-.28-.77-.7-.77-.99-.49-1.06-.28-.99-.07-1.13-.42-.7-.92-1.97-4.65-.7-1.13-1.27-1.83-2.25-5.56-2.39-4.3-1.48-1.9-1.76-1.55-.77-.92-.49-1.48-.92-1.62-.63-2.11-.49.14-.42-.35-.77-1.2-1.97-1.76-2.39-3.17-.85-1.69-.14-.28v-.35l.07-.28.28-.49.07-.28-.14-.42-.77-1.06-2.54-3.1-1.41-.99-.42-.35-.7-.85-.85-1.34-.92-.92-1.13-2.18-.35-.85-.07-.7-.07-1.27-.14-.63-.28-.42-.99-1.13-.56-.92-.77-2.04-.63-.92-.28-.21-.63-.21-.21-.14-.14-.28-.14-.42-.35-.7-.14-.92-.28-.49-1.55-1.83-.49-.85-.28-.28-.49-.28-1.48-1.13v.21h-.21l-.28-.42.35-.35.7-.35.49-.28.35.14-.07-.21-.28-.49-.14-.07-.85-.21-.28-.14h-.21v.28h-.14l-.14-.21-.21-.28-.21-.14-.21-.07h-.77l-.42-.42-1.41-.99-.28.21h-.7l.14.14.07.21.14.14-.28-.21-.35-.21-.35-.14-.35.21-.28.21-.99.28-.21.14-.21.14-.07.28h-.21v-.28h-.21l-.42.14-.63-.14h-.56l-.42.49-.14-.14-.14-.07v-.28h.28v-.21l-.14-.28.14-.14.28-.21.28-.07-.28-.14h-.63l-.28.14v.21h.21v.28l-.35.07-.21.28-.28.56-.14-.14h-.07l-.07-.07h-.14l.14-.21.14-.21.28-.14.28-.14v-.49h-.42l-.35.07-.21.21-.07.42-.14-.14h-.07l-.07.07-.14.07v-.49h-.14v.28h-.28l-.14-.28-.14-.21-.14.07-.21.14-.28-.21-.07-.07-.14-.28-.14-.14-.21-.42-.07.07-.07.07-.14.14-.14.14-.35-.28-.14.14v.35l-.14.28-.21.14-.42.21-.14.14v.21l.63.49v.21l-.21.07h-.07l-.07.07-.07.07-.21-.21-.14.63-.07.42-.21.28-.63.07.07-.14h.07l.07-.07-.21-.28-.14-.49-.07-.42v-.85l-.21-.21-.77.28.14-.42-.14-.21.42-.63.28-.28.28-.14v-.14l.21-.07.21-.28.21-.07-.21-.28.07-.14.14-.14.14-.14h.28v.14h-.14l-.07.07.28.14.28.07.14-.07.14-.35h-.21v-.28l-.21-.21.07-.21.21-.21.35-.07v-.21l-.14-.35.28-1.55.14.07.21.07.14.07-.07-.07.07-.35-.21.07-.07.07-.21-.14.63-.63.63-1.13.49-1.27.28-1.62.63-.92.21-.99.21-.63.85-1.48-.21-1.55-.07-1.62-.49-1.62.56-2.11.42-1.13.49-.92v-.21h-.21l.49-.85.07-.42-.14-.42v-.21l.35-1.06-.07-.28h0ZM332.94,558.9l.28.28.14.14h-.07l-.14-.07h-.21v.14l.14.21-.28-.07-.56-.35-.21-.35.07-.28h-.28l-.35.14-.21-.28-.14-.49h-.28l-.35.21-.07-.21.21-.63.28-.35h.42l.42.07.35.21.28.7.21-.07.07-.21.07.14.21,1.13h0ZM330.34,558.97l.49-.07.07.14-.49.35-.28.14-.28.42-.35.56-.42.35-.63-.42-.56-.63-.56-.42-1.27-1.34-.07-.07-.07-.21v-.14l.07-.07v-.14l-.35-.35-.35-.49.07-.28.28.07.28.28.56.7.28.21.56.28,1.06.49.49.14h.42l.28.21.14.21h-.63l-.14.49.28.35.35-.07.35-.42.42-.28h0ZM327.52,555.1l-.28-.14-.42-.35.07-.49.42-.28.42.07.28.35v.42l-.28.28-.21.14h0ZM325.76,556.29l-.35-.28h-.14l-.14-.07-.14-.21v-.35l-.28-.07-.42-.07-.07-.14.14.07-.07-.21-.28-.35-.42-.28h-.56l-.21.21-.14.07-.28.07.07-.28.28-.49.49-.07.56.14,1.48,1.06.14.21.21.42.42.28.49.14.7.42,1.06.92.28.28-.07.14-.14.14.07.14-.14-.14-.49-.35-.42-.21-.28-.14-.14-.21-.14-.35-.28-.14-.21.07-.28-.07-.28-.28h0ZM329.07,554.53v-.99l-.07-.21v-.35l.21-.28.28-.07.28.07.14.35v.28l-.07.28h-.14l-.21-.14v.07l.07.21v.14h-.07l.21.42.21.92-.14.28-.35-.49-.21-.14-.14-.35h0ZM322.45,553.76v.21l-.21.35-.21.21-.21-.14-.42-.28-2.39-1.27-.7-.14-.21.49-.28-.14-.56-.56-.42-.49-.14-.7.21-.56.77-.77.35-.42.21-.14.07.21-.21.35-.49.77.07.28.21.28.21.21h.14l.14.07.21.21.21.14.28.07.77.85.35.28h.42l.28-.07.07.14v.21l.14.28.28.14.28-.07-.07-.07v-.14l.14-.14.28.07.42.28h0ZM318.22,548.41v-.28l-.07-.7.07-1.41.49-1.13.7-.77.21-.07-.35.42-.35.49-.28.56-.07.7.28.56.56.56.21.07.28.07-.07.21-.21.42-.14.49.07.14v.21l.28.21.35-.14.07.07-.14.28-.28.21-.42-.07-.63-.49-.28-.28-.28-.35h0Z"/>
  <path id="SA03" class="st5" d="M343.72,588.41l.07-.21.35-1.97.21-.63.35-.56.49-.56.63-.28.63-.14h2.46l1.2-.14.63-.21.7-.28.77-.49.7-.7.85-1.06.63-.7.7-.42.63-.07h.7l1.34.28,1.48.07.77-.14.7-.35.7-.56.63-.85.28-.63.14-.49-.42-11.06,1.13-7.68-.07-.63-.21-.63-.42-.35-.42-.28-.63-.07-1.9-.14-.49-.14-.21-.07-.07-.07-.28-.7-1.06-4.08-.92-2.54-.49-.99-.42-.63-.56-.63-3.94-3.31-.56-.7-.35-.63-.28-.7-.42-1.9-.14-.07-.14-.21-.49-.35-5.42-3.17-.7-.07-.63.21-1.13.92-.42.14-.28-.42-.14-.56-.35-1.41-.42-1.41-1.76-3.52-.21-.7-.07-.7.07-.7.14-.7.56-1.41,1.83-3.03.21-.56.21-.7-.07-.85-.28-.77-.56-.63-.63-.35-3.52-1.06-.7-.28-.7-.49-.63-.63-.49-.63-.42-.7-.28-.7-.21-.77-.14-.77-.07-1.48.63-4.58.07-1.9-.07-.92-.42-2.04-.28-.63-.28-.42-.42-.49-.56-.35-.49-.21-.42-.07-.56.07-1.97.35-.63-.07-.49-.35-.14-.56.14-.56.56-.49.63-.35,3.52-.85,7.82-3.73.63-.21h.85l.92.14,1.41.63,2.54,1.62.92.35,1.27.21.7.07.7-.14.63-.21,5.7-3.1.56-.07.56.21.77.56.42.63.28.56.85,3.1.56,1.41.63,1.2,1.69,2.61.7.56.85.49,1.34.21,3.03.14.7.07.63.28.49.35.28.49.07.42v.28l-.07.28.07.56.21.56.49.56,1.9,1.2.49.56.21.63v.7l-.07.7v.63l.28.49.63.21.92-.21.85-.56,2.68-2.18.42-.21.7-.07h.7l.99.35,2.25,1.06.77.21.7.07.77-.35.14-.49-.07-.7-.14-.63v-.63l.35-.35.56.07.7.56.35.7.49,1.34.7.63,1.13.56,3.8,1.41,3.66,2.82,1.2.42,1.48.21,3.03-.07,12.68-1.9.63.07.7.42.56.42.99,1.55.56,1.41.14.7.07.85v.77l-.28,1.2-.14.42-1.06,2.04-.42.99.07.85.28.7.63.56.63.21.7.07,1.41-.28h.77l.63.56.28.7.07.7-1.69,11.41v.99l.14.85.92,3.73.56,3.38-.28,8.94.14.92.35.77.42.63.49.49.35.28.56.28.63.21.7.07h.7l.7-.14,7.53-2.68,1.55-.21,3.59.07,1.34-.14.63-.14.56-.14.42-.21.56-.28.56-.42.63-.56,2.18-2.82.7-.63.85-.49,1.06-.35.85-.21,5.21-.21,8.52,1.34,2.61.7.77.28,4.01.99,1.34.42.56.42.49.63.21.85.14.77-.63,8.73.14.77.28.77.56.92.7.56.7.35,3.94,1.06.49.21.28.28.07.07.56.92.49,1.27,1.62,6.34.56,1.34.42.63.49.49,2.61,1.97.07,1.13-.42,1.48-.35.99-.07.14-1.41,1.83-.49.77-.21.56v.49l.07.21.42,1.13v.77l-.07,1.27-.56,2.54-.35,5.7.07,3.03-3.94-.56-1.97.07-.7.35-.56.42-.42.63-.14.63.07.7.77,2.18.14.7.07.7-.07,1.48-.21.77-.42.92-.77,1.2-.77.77-.7.56-5.42,2.39-3.94,2.18-1.34,1.06-.92.99-.35.77.21.7.56.56.63.49,3.31,1.83.49.56.21.7-.35.92-.56.63-.7.42-3.52,1.27-.85.56-.92.77-4.23,4.3-8.66,6.83-1.2,1.41-2.18,3.38-.77.85-.7.28-.77.07-4.65-1.48-.77-.07-.92.21-1.27.77-3.1,2.61-.63.42h-.14l-.77.21-.63.07h-.7l-1.97-.28h-.14l-.63-.42-.35-.56-.14-.63.14-.63.28-1.34.21-1.41-.07-.7-.14-.7-.28-.7-.49-.63-.56-.49-.56-.42-.92-.49-2.04-.63-.56-.28-.42-.49-.07-.63.14-.7,1.69-3.94.14-.63.21-1.55v-.99l-.14-.63-.21-.63-.35-.56-.56-.49-.63-.14-.63-.07-2.89.35-6.48,2.04-2.32.42-.7-.28-.28-.56-.14-1.34-.14-.63-.28-.56-.63-.35h-.85l-3.24.56-1.2.07-1.06-.14-.7-.49-.7-.56-2.32-2.82-2.46-2.18-.42-.42-1.27-2.04-.63-.56-.77-.28-.92.07-2.11.49-3.8.28-.99.14-.07-.7-.07-.92-.21-.7-.07-.63-.49-.49-.21-.35-.14-.56v-.56l-.7.42-.28-.21h-.28l.07.56.28.28.77.28v.21l-1.06-.07-.63-.63-.07-1.62-1.34-1.76-.7-2.25-.21-.77-.14-.85-.21-.77-.49-.56-.28-.14-.35-.07-.49-.21-.28-.35-.14-.42-.21-.63-.42-.42-.49-.21-.49-.14-.42-.21-.28-.21-.28-.56-.49-.56-.28-.21-.49-.35-.56-.21-.56-.07-.7-.49-.35-.28-.63-.56-.56-.77-.63-.42-.49-.49-.92-.92-.28-.14h-.21l-.28.07-.28.21-.63-.49-.49-.42-1.27-.77-.92-.7.14-.42.56-.35.7-.14-.28-.28-.42.14-.56.28-.28-.42.35-.56.14-.49-.28-.14-.21.21-.42.07-.14.35.14.14.14.35v.42l.07.28-.21.21-.63-.28-.92.28-1.41-1.06-.42-.42-1.2-.92-.28-.7-.35-.28-.56-.21-.49-.35-.49-.42-.56-.35h-.7l-.35-.07-.49.35-.07.49.14.63-1.27.07-.35-.49-.85-.42-.7.21-.7-.7-.42-.77-.63-.92-1.13-.92-.35-1.13.35-.7.21.07.56.42.28-.56-.21-.56-2.25-3.31h0Z"/>
  <path id="SA02" class="st7" d="M474.91,744.1l1.34-.56,1.27-.07.63.07.42.21.35.28.49.56.35.63.21.7v.63l-.07.63-.92,4.23v.77l.07.85.14.63,1.27,2.18.21.77v.77l-1.06,3.31-.28.63-.42.56-.56.42-.56.21-.42.14h-.42l-3.38-.35h-.7l-.63.14-.7.21-1.34.77-1.55,1.2-.56.28-.56-.07-.63-.28-.49-.42-.49-.21-.28.28-.07.63-.21,7.46.14,1.34.21.63.21.7.35.63.56.49.56.35.63.14h3.31l1.27.07,1.34.28.63.21.56.35.49.49.35.63,2.11,6.34.21.99v.85l-.14.85-1.06,4.08-.56,1.27-.35.49-.56.56-1.9,1.06-.56.35-.49.56-.28.56-.56,1.34-.35-.49-.21-.35-.07-.42-.14-.14-.28-.14-.21-.14.14-.49-.56-.07-.63-.21.14-.14v-.07l.07-.07.21-.14-.21-.35-.28-.21h-.35l-.42.14.21-.28.14-.35.07-.28-.21-.21.21-.42-.21-.21-.35-.07-.49.07.07-.42-.07-.63-.21-.63-.28-.42-.14-.35-.21-1.2-.07-.28-.07-.28-.07-1.69-.07-.21-.07-.14-.14-.07h-.21l-.14-.14-.07-.28v-.28l-.07-.21-1.13-.77-.14-.21-.07-.35-.14-.35-.21-.35-.49-.21-.14-.14-.14-.14-.07-.07-.21.07-.28.28-.14.07-.35-.14-.28-.21-.35-.21-.21-.35-.85-1.76-.35-.49-.35-.42-.21-.42v-.42l.07-.63.7-2.11.14-.63.07-.21.14-.14.07-.21-.28-.42-.14-.07-.7-.35-1.27-.35-.28-.99v-.21l-.63-.77-.14-.07v-.35l.07-.35.14-.63.14-.35.14-.28.14-.21.07-.56.14-.7.42-.77-.28-.49-.56-.35-.63-.28-1.27-.35-.56-.42-.28-.85-.49-.7-.07-.28v-.35l.21-.77v-.28l-.21-.63v-.28l-.14-.28-.56-.35-.14-.28-.14-.63-.28-.35-.49-.28-.85-.63.07-.14.07-.35-.07-.35-.35-.49-.07-.28v-.35l-.21-.49.07-.35.21-.35.28-.21.14-.28-.21-.21.07-.35-.07-.35-.21-.28-.07-.42-2.54-.92-.77-.35-1.55-1.62-.7-.42v-.21l.35.07.7.42.14-1.34-.07-1.62-.21-.7-1.41-2.04-.56-.35-1.55-.21h-.63l-.28.35.35.77-.42-.35-.42-.7-.21-.63-.07-.28-.42-.28-1.27-1.83-.92-.56-.21-.21.07-.21.35-.85-.21-.63-.35-.35-.92-.35-1.13-.7-.28-.14-.28-.42-.28-.07-.28-.21-.7-1.06-.28-.07-.7-.21-.28-.07-.56-.14-.63-.35-1.41-1.13-1.06-1.2.21-.49-.49-.35-.85-.21-.92-.14-.21-.21-.28-.35-.42-.49-.28-.28v-.14l-.28-.21-.99-.92-.49-.21h-.7l-.7.14-.63.21-.28.28-.7-.28-1.27-.77-.7-.28v.42l.21.21.28.14.21.28.14.07.28.14.21.21-.21.14-.49-.14-3.03-1.83-.42-.42-.35-.14-.63-.21-.56-.28-.42-.92-.56-.56-1.62-1.27-.85-.85-1.76-2.89-.63-.49v-.28h.56l.14-.14.14-.28-.49-.07-.35-.28-.7-.63-.21-.35-.21-.99-.14-.35-.99-1.13-.07-.56.49-.77-1.06-.35-.42-.07.07.28.14.14.14.14.21.14-.56-.21-.7-.42-.35-.49.21-.49-.28-.14-.14-.21v-.21l.21-.28.14.21.21.21.28.14.42.07-.14-.35-.07-.21v-.21l-.07-.28h-.14l-.21.07-.21-.14-.42-.56h-.14l-.07.56-.63-.42-.92-.63-.56-.85v-.77l.14.21.21.21.21.07.07-.21-.07-.42-.21-.14-.21-.07-.21-.14-.28-.14h-.35l-.28.14-.35.07v-.14l-.85-1.27-.21-.49-.07-.56v-.77l-.07-.28-.42-.28-.14-.35v-.35l-.14-.14-.21-.07-1.27-.92-.35-.35-.14-.92-.28-.63-.07-.35.07-.21.28-.42.07-.21-.21-.42-1.2-1.76-.35-.28-.99-1.55,2.39-2.11.35-.77.07-1.06-.28-.92-.42-.49v-.21l.28-.28v-.42l-.49-1.06-.42.63-.28.14-.28-.42-.28-.63.21-.21-.49-.7-.14-.99.07-.99-.07-.92-.28-.85v-.49l.63-.21.14-.21.14-.42v-.56l-.21-.35-.21.63-.21.35-.21.14h-.42l-.07-.14v-.28l-.14-.28-.21-.14-.07-.14-.14-.14-.14-.21-.14-.35v-.49l-.14-.28-.35-.21-.07-.14-.14-.28v-.07l-1.06-1.34-.92-1.9-.49-2.82v-.63l.85-.28.77,1.06h.63l.14-.7v-.63l.07-.35.07-.14.42-.28.07-.14.07-.63.28-1.34.07-.63h-.14l-.49,1.13-.14-.49.07-.35.21-.35.07-.49v-1.34l.28-.92.99-1.13.28-1.41.21-.35.28-.21.28-.35.42-.92.49-.56.14-.14v-.42l-.21-.35-.28-.21-.35.07-.21.35-.21.92-.21.35-.7.14-.07-.99.42-1.34-.28-1.83.21-1.83-.21-.92-.21-.42-.85-1.13-.77-1.83-.63-.99-.21-.56.07-.35.85-.77-.07-.28-1.48-1.62-.56-.49-.28.14.07.21.56.56.21.28.07.35.07.35.07.35.21.28-.21.28-.42-.99-.85-1.27-.85-.92-1.55-2.89v-.42l.92.49.99,2.18.49.14.35.21.28-.07.21-.21.21-.35-.35-.42-.49-.99-.28-.21-.21-.07-.28-.21-.21-.35-.07-.35-.28-.56-.56-.21-.7-.21-.49-.28-.63.14-.42-.49-.63-1.41.35-.35.21-.42.21-.49.07-.49-.07-.92-.14-.49-.07-.42-.35-.14-.28.49-.35-.77-.56-.7-.56-1.06-.49-.7-.28-.7-.35-.49-.07-.42-.28-.63v-.42l-.21-.99-.42-.77-.35-.99-.14-.63.99-.14,3.8-.28,2.11-.49.92-.07.77.28.63.56,1.27,2.04.42.42,2.46,2.18,2.32,2.82.7.56.7.49,1.06.14,1.2-.07,3.24-.56h.85l.63.35.28.56.14.63.14,1.34.28.56.7.28,2.32-.42,6.48-2.04,2.89-.35.63.07.63.14.56.49.35.56.21.63.14.63v.99l-.21,1.55-.14.63-1.69,3.94-.14.7.07.63.42.49.56.28,2.04.63.92.49.56.42.56.49.49.63.28.7.14.7.07.7-.21,1.41-.28,1.34-.14.63.14.63.35.56.63.42h.14l1.97.28h.7l.63-.07.77-.21h.14l.63-.42,3.1-2.61,1.27-.77.92-.21.77.07,4.65,1.48.77-.07.7-.28.77-.85,2.18-3.38,1.2-1.41,8.66-6.83,4.23-4.3.92-.77.85-.56,3.52-1.27.7-.42.56-.63.35-.92-.21-.7-.49-.56-3.31-1.83-.63-.49-.56-.56-.21-.7.35-.77.92-.99,1.34-1.06,3.94-2.18,5.42-2.39.7-.56.77-.77.77-1.2.42-.92.21-.77.07-1.48-.07-.7-.14-.7-.77-2.18-.07-.7.14-.63.42-.63.56-.42.7-.35,1.97-.07,3.94.56-.28,3.17.07,2.11.21.63.35.49.35.28,1.13.7.63.49.63.63.56,1.06,1.62,5.21.77,1.76.28.85.92,4.72,3.87,9.37.35.42.42.49.56.49.63.42.7.28.63.21,1.13.21,4.72-.07,6.62.56,1.34.28.77.28.7.35.85.7.42.7.14.7-.14.56-.42,1.41-.21,3.38.07.77.21.85.63,1.27.63.56.7.42,1.34.49.7.07.7-.07,3.59-.99.63-.14.7.07,3.59.7.63.14.56.35.49.49v.14l-.85,4.86v1.34l1.55,10.99v.63l-.14.7-.21.63-.28.7-.35.63-.92,1.2-.35.63-.28.63-.07.63.42,5.49-.21,1.41-1.27,4.72v1.34l.21.7.35.63,7.96,11.9-3.24,1.27-4.79,2.82-1.06.35-.92.07-1.9-.7-.85-.14-.85-.07-1.27.21-.99.28-1.9.77-.56.21-.49.07-1.9.07-1.06.21-.85.35-.77.49-1.2,1.2-.85.7-5.99,3.31-7.75,6.97-.99.77-1.69.92-.99.28-.85.07-.7-.21-.63-.35-.56-.49-.49-.7-3.1-6.41-.56-.92-1.76-1.48-.56-.21-.77-.14-.63.21-2.82,1.62-.7.28-.63.21h-3.24l-.99.14-.85.21-1.48.63-.92.28-.63-.07-.35-.14-.49-.35-.42-.56-.35-.63-.92-2.68-.49-.7-.63-.56-.92-.42-.77-.07-.7.07-.7.28-.56.42-.49.56-.28.49-.21.35-.14.56-.07.63.07.7.28,1.34.49,1.9.07.99v.35l-.21.85-2.11,3.87-.85,2.11-.42.63-.7.63-.7.35-.7.21-2.96.42-.99.28-.77.42-.63.49-2.32,2.39-.42.63-.07.63.14.56.49.56.63.28,2.25.7.14.07.28.21.35.56.28.63.21.7v.7l-.35,3.31.07.63.56,2.11.07.63-.21,2.68.07.63.14.7.35.63.42.49.35.21,2.32,1.27.77.7,1.9,2.54.63.56.7.35.85.14h.7l.7-.07.63-.21.63-.35.56-.42.35-.63.21-.63.77-3.45,1.9-5.14.85-1.41.35-.42.28-.28.56-.28.63-.07h2.82l1.06-.14.85-.42h0Z"/>
  <path id="SA01" class="st8" d="M574.9,487.14l.35.21,2.61,1.9,1.27,1.2.49.7.42.85.85,2.96.35.92.77.92.63.63,8.66,5,1.41.42,2.18.21.7.14.63.35.63.56,1.9,2.32,2.89,2.75,1.27.92.7.28,1.27.28,5.07.14,1.34.28,1.34.49,1.9,1.06,7.46,5.42.7.35.77.21.7.14h.7l4.51-.85.77.07.63.21.7.42,5,4.93.85,1.27.56.63.63.42,9.72,3.87.35.28.42.42.42.63.28.63.21.63.14,1.06.7,45.14.28,1.55.21.49.42.63.49.63,10.77,7.82,7.68,7.75,1.27,1.55,1.27,2.11,1.27,2.96.7,2.39.49,4.01-.21,7.39-8.66,70.91-8.17,63.94-3.94,1.13-71.19,7.68-7.82-.49-2.89-.7-1.62-.63-2.18-1.06-8.45-5.35-.49-.35-11.97-11.06-2.96-4.93-1.69-2.04-.49-.77-.21-1.06v-.77l1.2-5.56.56-1.2,1.76-2.89.28-.56.21-.63v-.14l.07-.63-.07-.56-.21-.7-.42-.77-2.46-2.82-1.83-2.39-.99-1.55-1.62-1.97-4.44-4.01-7.96-11.9-.35-.63-.21-.7v-1.34l1.27-4.72.21-1.41-.42-5.49.07-.63.28-.63.35-.63.92-1.2.35-.63.28-.7.21-.63.14-.7v-.63l-1.55-10.99v-1.34l.85-4.86v-.14l-.49-.49-.56-.35-.63-.14-3.59-.7-.7-.07-.63.14-3.59.99-.7.07-.7-.07-1.34-.49-.7-.42-.63-.56-.63-1.27-.21-.85-.07-.77.21-3.38.42-1.41.14-.56-.14-.7-.42-.7-.85-.7-.7-.35-.77-.28-1.34-.28-6.62-.56-4.72.07-1.13-.21-.63-.21-.7-.28-.63-.42-.56-.49-.42-.49-.35-.42-3.87-9.37-.92-4.72-.28-.85-.77-1.76-1.62-5.21-.56-1.06-.63-.63-.63-.49-1.13-.7-.35-.28-.35-.49-.21-.63-.07-2.11.28-3.17-.07-3.03.35-5.7.56-2.54.07-1.27v-.77l-.42-1.13-.07-.21v-.49l.21-.56.49-.77,1.41-1.83.07-.14.35-.99.42-1.48-.07-1.13.63-1.27,1.97-3.1.42-.42.85-.63.7-.28.7-.14.63.14,3.24,1.62,1.34.49,2.18.56,5.49.56h1.48l4.37-.63,1.41.07,2.39.63h.56l.63-.14.7-.35.77-.63.56-.85.49-1.2.07-.92-.21-.77-.85-1.41-.28-.63-.14-.7.14-.85.42-.92,2.96-3.87,2.89-2.96.77-.49.7-.35,10.14-2.46,1.2-.56.77-.49,1.62-1.55,2.18-1.41.63-.7.56-.92,1.13-2.25.85-1.13.49-.49.35-.35.49-.35.63-.28.63-.21.7-.14h1.41l6.48.85,7.25-.49,2.75.21.63-.07.56-.21.35-.49.21-.63.14-.7.07-.99v-1.2l-.28-1.97-.35-1.2-.42-.99-.85-1.55-.21-.77.14-.99.35-1.55-.14-1.06-.07-.14-2.32-3.17-2.68-4.51-.77-.92-2.39-2.39-.49-.7-.35-.63-.14-.7v-.7l.63-4.44v-1.48l-.21-1.55.07-.77.56-.77.7-.42.7-.21,1.2-.28.35-.14.49-.49,2.25-3.24,1.13-1.27,1.34-1.27.77-.56.77-.42,1.48-.49.7-.35.56-.49.42-.56.21-.56.14-.42v-.56l-.07-.63-.21-.7-.28-.77-.35-.7-.49-.7-.63-.63-1.27-1.06-1.34-.99-1.97-.85-.21-.42-.28-1.2-.07-.77.07-.7.07-.63.35-1.06.42-1.13.85-1.34.77-1.06.99-.85.42-.35h.07l1.76-.7.56.49.14.21.07.07.42.56.56.42.63.28.7.07.77-.35.63-.35,1.27-1.83h0Z"/>
  <path id="SA05" class="st5" d="M486.95,586.01l-2.61-1.97-.49-.49-.42-.63-.56-1.34-1.62-6.34-.49-1.27-.56-.92-.07-.07-.28-.28-.49-.21-3.94-1.06-.7-.35-.7-.56-.56-.92-.28-.77-.14-.77.63-8.73-.14-.77-.21-.85-.49-.63-.56-.42-1.34-.42-4.01-.99-.77-.28,1.2-1.06,1.2-.42,1.83-.21,1.06-.28,4.86-2.68,1.13-.49.99-.28,2.96-.28.7-.21.49-.49.21-.49-.14-.56-.14-.42-1.41-2.61-.21-.77-.07-.7.14-.85.42-.7.77-.85.7-.35.63-.07.49.14,2.39.92.77.21h.7l.56-.14.35-.56.14-.56v-.56l-.07-.28-.56-2.75v-1.41l.14-.63.49-1.48.7-1.41.42-.49.63-.35h.63l.7.07.77-.07,1.41-.35.63-.28.42-.63.21-.7.49-1.2.85-1.48,3.59-4.15,7.96-6.48,3.66-2.39,6.97-2.96,1.06-.7.63-.77.42-.77,1.27-2.75,1.06-1.34,1.48-1.48,2.32-1.48,11.48-5.92,1.55-.56.7-.21h.7l.63.07.7.28.7.35,1.13.99,2.18,2.32,3.87,3.17,1.34.77.7.21,3.17.21,2.04.42h.7l.56-.14.56-.35.42-.28,2.32-3.24,1.27-1.2,1.97.85,1.34.99,1.27,1.06.63.63.49.7.35.7.28.77.21.7.07.63v.56l-.14.42-.21.56-.42.56-.56.49-.7.35-1.48.49-.77.42-.77.56-1.34,1.27-1.13,1.27-2.25,3.24-.49.49-.35.14-1.2.28-.7.21-.7.42-.56.77-.07.77.21,1.55v1.48l-.63,4.44v.7l.14.7.35.63.49.7,2.39,2.39.77.92,2.68,4.51,2.32,3.17.07.14.14,1.06-.35,1.55-.14.99.21.77.85,1.55.42.99.35,1.2.28,1.97v1.2l-.07.99-.14.7-.21.63-.35.49-.56.21-.63.07-2.75-.21-7.25.49-6.48-.85h-1.41l-.7.14-.63.21-.63.28-.49.35-.35.35-.49.49-.85,1.13-1.13,2.25-.56.92-.63.7-2.18,1.41-1.62,1.55-.77.49-1.2.56-10.14,2.46-.7.35-.77.49-2.89,2.96-2.96,3.87-.42.92-.14.85.14.7.28.63.85,1.41.21.77-.07.92-.49,1.2-.56.85-.77.63-.7.35-.63.14h-.56l-2.39-.63-1.41-.07-4.37.63h-1.48l-5.49-.56-2.18-.56-1.34-.49-3.24-1.62-.63-.14-.7.14-.7.28-.85.63-.42.42-1.97,3.1-.63,1.27h0Z"/>
  <path id="SA06" class="st7" d="M439.77,442.92l3.52,1.48,1.76.42h.7l16.13-3.73,2.18-.28,1.27.07.99.14,7.39,2.39,1.06.21h.77l.77-.14,3.73-.92,3.24-.21.77.07,10.42,2.39,1.41.56.63.42.7.63,3.66,4.44.92.7,1.06.7,1.48.56,1.13.14.99-.07.92-.21.85-.35,2.46-1.34.85-.42.92-.14h1.06l.63.35.28.28.07.28.14,2.61.07.42.21.77.42,1.06.7.77,1.06.7.85.21.77.07,3.03-.28,1.06.07.85.28,3.24,1.69,1.2.42.77.07.7-.14,1.2-.56,3.52-2.32.85-.35,1.06-.07.85.28.7.56.49.7,5.14,9.3,2.54,6.76,1.06,1.48.77.7.77.63,1.06.49.85.28,9.37,1.48,1.06.35,1.34.77.7.49,5.07,4.58.77.92.42.99-1.76.7h-.07l-.42.35-.99.85-.77,1.06-.85,1.34-.42,1.13-.35,1.06-.07.63-.07.7.07.77.28,1.2.21.42-1.27,1.2-2.32,3.24-.42.28-.56.35-.56.14h-.7l-2.04-.42-3.17-.21-.7-.21-1.34-.77-3.87-3.17-2.18-2.32-1.13-.99-.7-.35-.7-.28-.63-.07h-.7l-.7.21-1.55.56-11.48,5.92-2.32,1.48-1.48,1.48-1.06,1.34-1.27,2.75-.42.77-.63.77-1.06.7-6.97,2.96-3.66,2.39-7.96,6.48-3.59,4.15-.85,1.48-.49,1.2-.21.7-.42.63-.63.28-1.41.35-.77.07-.7-.07h-.63l-.63.35-.42.49-.7,1.41-.49,1.48-.14.63v1.41l.56,2.75.07.28v.56l-.14.56-.35.56-.56.14h-.7l-.77-.21-2.39-.92-.49-.14-.63.07-.7.35-.77.85-.42.7-.14.85.07.7.21.77,1.41,2.61.14.42.14.56-.21.49-.49.49-.7.21-2.96.28-.99.28-1.13.49-4.86,2.68-1.06.28-1.83.21-1.2.42-1.2,1.06-2.61-.7-8.52-1.34-5.21.21-.85.21-1.06.35-.85.49-.7.63-2.18,2.82-.63.56-.56.42-.56.28-.42.21-.56.14-.63.14-1.34.14-3.59-.07-1.55.21-7.53,2.68-.7.14h-.7l-.7-.07-.63-.21-.56-.28-.35-.28-.49-.49-.42-.63-.35-.77-.14-.92.28-8.94-.56-3.38-.92-3.73-.14-.85v-.99l1.69-11.41-.07-.7-.28-.7-.63-.56h-.77l-1.41.28-.7-.07-.63-.21-.63-.56-.28-.7-.07-.85.42-.99,1.06-2.04.14-.42.28-1.2v-.77l-.07-.85-.14-.7-.56-1.41.49-.35.49-.7.56-1.13,1.76-5.49.92-1.83,1.41-1.9,3.73-3.24.56-.63.49-.7.28-.7.07-.7-.14-.7-.63-.77-.7-.63-3.66-1.97-1.2-.77-.42-.49-.49-.63-.35-.63-3.31-13.45-.28-.77-.42-.7-1.76-1.76-3.59-2.96-1.83-.92-.92-.63-.7-.7-.14-.14-.63-.77-1.13-.63-1.69-.63-9.79-2.32-.7-.28-.49-.35-.56-.7,3.31-3.66.7-.49.77-.49,11.48-5.49,5.28-1.48,11.27-6.41,11.55-4.79.63-.07,1.9.49h0Z"/>
  <path id="SA11" class="st7" d="M485.05,717.27l-1.48,5,.07.85.21.99.77.77.35.56.14.77-.21.77-.7.99-.63.63-3.59,2.54-.7.63-.42.85-.28.92-.14,2.25-.49,1.62-3.03,6.69-.85.42-1.06.14h-2.82l-.63.07-.56.28-.28.28-.35.42-.85,1.41-1.9,5.14-.77,3.45-.21.63-.35.63-.56.42-.63.35-.63.21-.7.07h-.7l-.85-.14-.7-.35-.63-.56-1.9-2.54-.77-.7-2.32-1.27-.35-.21-.42-.49-.35-.63-.14-.7-.07-.63.21-2.68-.07-.63-.56-2.11-.07-.63.35-3.31v-.7l-.21-.7-.28-.63-.35-.56-.28-.21-.14-.07-2.25-.7-.63-.28-.49-.56-.14-.56.07-.63.42-.63,2.32-2.39.63-.49.77-.42.99-.28,2.96-.42.7-.21.7-.35.7-.63.42-.63.85-2.11,2.11-3.87.21-.85v-.35l-.07-.99-.49-1.9-.28-1.34-.07-.7.07-.63.14-.56.21-.35.28-.49.49-.56.56-.42.7-.28.7-.07.77.07.92.42.63.56.49.7.92,2.68.35.63.42.56.49.35.35.14.63.07.92-.28,1.48-.63.85-.21.99-.14h3.24l.63-.21.7-.28,2.82-1.62.63-.21.77.14.56.21,1.76,1.48h0Z"/>
  <text class="st3" transform="translate(481.14 408.02) scale(.98 1)"><tspan x="0" y="0"> </tspan></text>
  <text class="st2" transform="translate(499.45 417.81) scale(.98 1)"><tspan x="0" y="0">Province</tspan></text>
  <text class="st2" transform="translate(488.72 718.83) scale(.98 1)"><tspan x="0" y="0"> </tspan></text>
  <text class="st2" transform="translate(505.74 468.94) scale(.98 1)"><tspan x="0" y="0"> </tspan></text>
  <g class="st24">
    <path class="st23" d="M289.22,354.15c0-1.26.99-2.27,2.21-2.27s2.21,1.02,2.21,2.27-.99,2.27-2.21,2.27-2.21-1.02-2.21-2.27"/>
  </g>
  <text class="st3" transform="translate(742.25 585.5) scale(.98 1)"><tspan x="0" y="0"> </tspan></text>
  <g>
    <g>
      <polygon class="st6" points="723.66 608.2 723.64 608.2 723.64 643.4 821.91 643.4 821.93 643.4 821.93 608.22 821.93 608.2 723.66 608.2"/>
      <g class="st13">
        <rect class="st6" x="723.27" y="607.1" width="99.03" height="37.4" transform="translate(-13.28 16.77) rotate(-1.23)"/>
      </g>
    </g>
    <polygon class="st22" points="723.64 665.56 723.69 643.12 746.42 643.12 723.64 665.56"/>
  </g>
  <g>
    <g>
      <polygon class="st6" points="590.79 579.51 590.77 579.51 590.77 614.72 689.05 614.72 689.07 614.72 689.07 579.53 689.06 579.51 590.79 579.51"/>
      <g class="st16">
        <rect class="st6" x="590.4" y="578.42" width="99.03" height="37.4" transform="translate(-12.7 13.9) rotate(-1.23)"/>
      </g>
    </g>
    <polygon class="st22" points="590.77 636.88 590.82 614.44 613.55 614.44 590.77 636.88"/>
  </g>
  <g>
    <g>
      <polygon class="st6" points="536.2 496.8 536.19 496.8 536.19 532 634.46 532 634.48 532 634.48 496.82 634.48 496.8 536.2 496.8"/>
      <g class="st14">
        <rect class="st6" x="535.82" y="495.7" width="99.03" height="37.4" transform="translate(-10.93 12.71) rotate(-1.23)"/>
      </g>
    </g>
    <polygon class="st22" points="536.19 554.16 536.23 531.72 558.97 531.72 536.19 554.16"/>
  </g>
  <g>
    <g>
      <polygon class="st6" points="443.19 450.65 443.17 450.65 443.17 485.85 541.45 485.85 541.47 485.85 541.47 450.67 541.47 450.65 443.19 450.65"/>
      <g class="st15">
        <rect class="st6" x="442.81" y="449.55" width="99.03" height="37.4" transform="translate(-9.96 10.7) rotate(-1.23)"/>
      </g>
    </g>
    <polygon class="st22" points="443.17 508.01 443.22 485.58 465.95 485.58 443.17 508.01"/>
  </g>
  <g>
    <g>
      <polygon class="st6" points="300.2 428.73 300.18 428.73 300.18 463.94 398.45 463.94 398.47 463.94 398.47 428.75 398.47 428.73 300.2 428.73"/>
      <g class="st21">
        <rect class="st6" x="299.81" y="427.64" width="99.03" height="37.4" transform="translate(-9.52 7.62) rotate(-1.23)"/>
      </g>
    </g>
    <polygon class="st22" points="300.18 486.1 300.22 463.66 322.96 463.66 300.18 486.1"/>
  </g>
  <g>
    <g>
      <polygon class="st6" points="574.15 382.78 574.17 382.78 574.17 417.98 475.89 417.98 475.87 417.98 475.87 382.8 475.87 382.78 574.15 382.78"/>
      <g class="st18">
        <rect class="st6" x="506.32" y="350.86" width="37.4" height="99.03" transform="translate(113.44 916.66) rotate(-88.77)"/>
      </g>
    </g>
    <polygon class="st22" points="574.17 440.14 574.12 417.71 551.39 417.71 574.17 440.14"/>
  </g>
  <g>
    <g>
      <polygon class="st6" points="436.13 550.83 436.15 550.83 436.15 586.04 337.88 586.04 337.86 586.04 337.86 550.85 337.86 550.83 436.13 550.83"/>
      <g class="st17">
        <rect class="st6" x="368.3" y="518.92" width="37.4" height="99.03" transform="translate(-189.62 943.12) rotate(-88.77)"/>
      </g>
    </g>
    <polygon class="st22" points="436.15 608.2 436.1 585.76 413.37 585.76 436.15 608.2"/>
  </g>
  <g>
    <g>
      <polygon class="st6" points="455.34 636.28 455.36 636.28 455.36 671.49 357.09 671.49 357.07 671.49 357.07 636.3 357.07 636.28 455.34 636.28"/>
      <g class="st20">
        <rect class="st6" x="387.52" y="604.37" width="37.4" height="99.03" transform="translate(-256.26 1045.94) rotate(-88.77)"/>
      </g>
    </g>
    <polygon class="st22" points="455.36 693.65 455.31 671.21 432.58 671.21 455.36 693.65"/>
  </g>
  <g>
    <g>
      <polygon class="st6" points="531.6 742.09 531.62 742.09 531.65 777.29 433.38 777.38 433.36 777.38 433.33 742.19 433.33 742.17 531.6 742.09"/>
      <g class="st19">
        <rect class="st6" x="463.79" y="710.22" width="37.4" height="99.03" transform="translate(-287.04 1226.43) rotate(-88.82)"/>
      </g>
    </g>
    <polygon class="st22" points="531.67 799.45 531.6 777.01 508.87 777.03 531.67 799.45"/>
  </g>
  <g>
    <g>
      <polygon class="st6" points="507.52 788.23 507.54 788.23 507.54 823.44 409.27 823.44 409.25 823.44 409.25 788.25 409.25 788.23 507.52 788.23"/>
      <g class="st10">
        <rect class="st6" x="439.7" y="756.32" width="37.4" height="99.03" transform="translate(-357.12 1246.79) rotate(-88.77)"/>
      </g>
    </g>
    <polygon class="st22" points="507.54 845.6 507.49 823.16 484.76 823.16 507.54 845.6"/>
  </g>
  <g>
    <g>
      <polygon class="st6" points="470.69 677.18 470.68 677.18 470.68 712.39 568.95 712.39 568.97 712.39 568.97 677.2 568.97 677.18 470.69 677.18"/>
      <g class="st9">
        <rect class="st6" x="470.31" y="676.09" width="99.03" height="37.4" transform="translate(-14.83 11.34) rotate(-1.23)"/>
      </g>
    </g>
    <polygon class="st22" points="470.68 734.55 470.72 712.11 493.45 712.11 470.68 734.55"/>
  </g>
  <g>
    <g>
      <polygon class="st6" points="570.46 747.06 570.44 747.06 570.44 782.26 668.71 782.26 668.74 782.26 668.74 747.08 668.73 747.06 570.46 747.06"/>
      <g class="st12">
        <rect class="st6" x="570.07" y="745.96" width="99.03" height="37.4" transform="translate(-16.31 13.51) rotate(-1.23)"/>
      </g>
    </g>
    <polygon class="st22" points="570.44 804.42 570.49 781.98 593.22 781.98 570.44 804.42"/>
  </g>
  <g>
    <g>
      <polygon class="st6" points="458.94 350.65 458.96 350.65 458.96 385.86 360.69 385.86 360.67 385.86 360.67 350.68 360.67 350.65 458.94 350.65"/>
      <g class="st11">
        <rect class="st6" x="391.12" y="318.74" width="37.4" height="99.03" transform="translate(32.83 770.06) rotate(-88.77)"/>
      </g>
    </g>
    <polygon class="st22" points="458.96 408.02 458.92 385.58 436.18 385.58 458.96 408.02"/>
  </g>
  <text class="st1" transform="translate(604.55 601.97) scale(.98 1)"><tspan x="0" y="0">الريــــــــاض</tspan></text>
  <text class="st1" transform="translate(735.03 622.23) scale(.98 1)"><tspan x="0" y="0">المنــــطـــقة</tspan><tspan x="0" y="17.14">الشرقيـــــــــة</tspan></text>
  <text class="st1" transform="translate(596.24 766.94) scale(.98 1)"><tspan x="0" y="0">نجـــــران</tspan></text>
  <text class="st1" transform="translate(436.18 810.65) scale(.98 1)"><tspan x="0" y="0">جـــــــازان</tspan></text>
  <text class="st1" transform="translate(487.02 699.19) scale(.98 1)"><tspan x="0" y="0">البــــــاحــــة</tspan></text>
  <text class="st1" transform="translate(549.84 519.38) scale(.98 1)"><tspan x="0" y="0">القســــيــــم</tspan></text>
  <text class="st1" transform="translate(454.56 472.13) scale(.98 1)"><tspan x="0" y="0">حـــــــــائــــــل</tspan></text>
  <text class="st1" transform="translate(376.61 373.48) scale(.98 1)"><tspan x="0" y="0">سكـــــاكــــا</tspan></text>
  <text class="st1" transform="translate(485.5 395.8) scale(.98 1)"><tspan x="0" y="0">الحـــــــــــدود</tspan><tspan x="0" y="17.14">الشمـــاليـــة</tspan></text>
  <text class="st1" transform="translate(321.91 450.65) scale(.98 1)"><tspan x="0" y="0">تــبــــــــوك</tspan></text>
  <text class="st1" transform="translate(347.04 564.06) scale(.98 1)"><tspan x="0" y="0">المـــــديـــــنة</tspan><tspan x="0" y="17.14">المنــــــــــورة</tspan></text>
  <text class="st1" transform="translate(373.61 656.29) scale(.98 1)"><tspan x="0" y="0">مـــــكــــــــة</tspan></text>
  <text class="st4" transform="translate(455.36 763.54) scale(.98 1)"><tspan x="0" y="0">عـــســـــير</tspan></text>
</svg>