<svg width="265" height="80" viewBox="0 0 265 80" fill="none" xmlns="http://www.w3.org/2000/svg">
<path fill-rule="evenodd" clip-rule="evenodd" d="M197.105 61.5918H207.3L210.577 50.7209H233.06L236.337 61.5918H247.125L228.054 0.746552H216.175L197.105 61.5918ZM214.537 37.5819L221.819 13.4932L229.101 37.5819H214.537Z" fill="white"/>
<path fill-rule="evenodd" clip-rule="evenodd" d="M0 61.1402H13.191V14.5764H13.3225L29.0285 61.1402H48.1564V0.04953H35.0304V46.2968H34.8984L19.4563 0.04953H0V61.1402ZM75.6754 61.8497C92.428 61.8497 98.6938 58.3953 98.6938 47.9508V46.7732H86.0962V46.9304C86.0962 50.0713 85.3708 51.6418 75.7413 51.6418C64.9905 51.6418 64.1991 49.9919 64.1991 43.9463V42.9254H98.6938V37.9001C98.6938 21.8033 93.8128 16.4634 75.3459 16.4634C56.0865 16.4634 51.6675 21.8027 51.6675 39.1566C51.6675 56.5104 56.0865 61.8497 75.6754 61.8497ZM64.1986 33.9714C64.1986 28.3181 65.6499 26.6688 75.2134 26.6688C84.7108 26.6688 86.1617 28.3186 86.1617 33.9714H64.1986ZM175.553 61.1423H192.636V49.7542H179.775C176.807 49.7542 176.082 49.1263 176.082 45.7497V28.3181H192.439V17.1677H176.082V6.33184H163.55V17.1677H155.966V28.3181H163.55V47.7131C163.55 58.0777 166.98 61.1402 175.554 61.1402L175.553 61.1423Z" fill="white"/>
<path fill-rule="evenodd" clip-rule="evenodd" d="M151.96 15.5179V29.6163L136.52 45.0573L142.562 41.4766L152.072 50.6539L151.96 64.9761L127.232 40.247L151.96 15.5179Z" fill="white"/>
<path fill-rule="evenodd" clip-rule="evenodd" d="M101.595 0V22.8055L126.573 47.7826L116.799 41.9912L101.415 56.8326L101.595 80L141.595 40L101.595 0Z" fill="#23FFC6"/>
<path fill-rule="evenodd" clip-rule="evenodd" d="M252.143 61.2253H264.69V17.1951H252.143V61.2253ZM252.143 11.5361H264.69V0.0572815H252.143V11.5361Z" fill="white"/>
</svg>
