<svg width="70" height="71" viewBox="0 0 70 71" fill="none" xmlns="http://www.w3.org/2000/svg">
<g id="Setting Robust Business Models">
<g id="Group">
<g id="Group_2">
<path id="Vector" d="M34.9996 39.118C34.7808 39.118 34.5623 39.0536 34.3734 38.9246L23.9377 31.8089C23.6337 31.6017 23.4521 31.2577 23.4521 30.8903C23.4521 30.5228 23.6337 30.1788 23.9377 29.9718L34.3734 22.856C34.7513 22.5981 35.2481 22.5981 35.626 22.856L46.0613 29.9718C46.3654 30.179 46.547 30.523 46.547 30.8903C46.547 31.2578 46.3654 31.6018 46.0613 31.8089L42.3387 34.3476C41.8309 34.6933 41.1403 34.5625 40.7937 34.0553C40.4476 33.5479 40.5788 32.8565 41.086 32.5103L43.4612 30.8903L34.9996 25.1202L26.5376 30.8903L34.9996 36.66L37.951 34.6478C38.4565 34.3011 39.1489 34.4319 39.4959 34.94C39.8421 35.4473 39.7109 36.1388 39.2036 36.485L35.626 38.9246C35.437 39.0536 35.2186 39.118 34.9996 39.118Z" fill="white"/>
<path id="Vector_2" d="M34.9996 49.4897C34.7755 49.4897 34.5518 49.4223 34.36 49.2872L23.9242 41.947C23.6285 41.7384 23.4521 41.3994 23.4521 41.0375V30.8907C23.4521 30.2765 23.9498 29.7788 24.564 29.7788C25.1781 29.7788 25.6759 30.2765 25.6759 30.8907V40.4604L34.9996 47.0183L44.3229 40.4604V30.8907C44.3229 30.2765 44.8208 29.7788 45.4349 29.7788C46.049 29.7788 46.5468 30.2765 46.5468 30.8907V41.0375C46.5468 41.3992 46.3704 41.7384 46.0746 41.947L35.6394 49.2872C35.4475 49.4223 35.2238 49.4897 34.9996 49.4897Z" fill="white"/>
<path id="Vector_3" d="M35.0001 49.4893C34.386 49.4893 33.8882 48.9914 33.8882 48.3774V38.0059C33.8882 37.3919 34.386 36.894 35.0001 36.894C35.6142 36.894 36.1119 37.3919 36.1119 38.0059V48.3774C36.1119 48.9914 35.6144 49.4893 35.0001 49.4893Z" fill="white"/>
<path id="Vector_4" d="M62.7193 28.1149H54.0309C51.9466 28.1149 50.2505 26.419 50.2505 24.3345V10.7204C50.2505 8.63604 51.9466 6.93994 54.0309 6.93994H62.7193C64.8036 6.93994 66.4999 8.6359 66.4999 10.7204V24.3345C66.4999 26.419 64.8038 28.1149 62.7193 28.1149ZM54.0309 9.16384C53.1727 9.16384 52.4742 9.8623 52.4742 10.7205V24.3347C52.4742 25.1929 53.1727 25.8913 54.0309 25.8913H62.7193C63.5776 25.8913 64.276 25.1929 64.276 24.3347V10.7204C64.276 9.86216 63.5776 9.1637 62.7193 9.1637L54.0309 9.16384Z" fill="white"/>
<path id="Vector_5" d="M61.4227 12.92H55.3282C54.7142 12.92 54.2163 12.4223 54.2163 11.8082C54.2163 11.1941 54.7142 10.6963 55.3282 10.6963H61.4227C62.0368 10.6963 62.5346 11.1941 62.5346 11.8082C62.5346 12.4225 62.037 12.92 61.4227 12.92Z" fill="white"/>
<path id="Vector_6" d="M61.4227 16.733H55.3282C54.7142 16.733 54.2163 16.2352 54.2163 15.6212C54.2163 15.0071 54.7142 14.5093 55.3282 14.5093H61.4227C62.0368 14.5093 62.5346 15.0071 62.5346 15.6212C62.5346 16.2353 62.037 16.733 61.4227 16.733Z" fill="white"/>
<path id="Vector_7" d="M61.4227 20.5455H55.3282C54.7142 20.5455 54.2163 20.0477 54.2163 19.4337C54.2163 18.8195 54.7142 18.3218 55.3282 18.3218H61.4227C62.0368 18.3218 62.5346 18.8195 62.5346 19.4337C62.5346 20.0478 62.037 20.5455 61.4227 20.5455Z" fill="white"/>
<path id="Vector_8" d="M61.4227 24.358H55.3282C54.7142 24.358 54.2163 23.8603 54.2163 23.2462C54.2163 22.6321 54.7142 22.1343 55.3282 22.1343H61.4227C62.0368 22.1343 62.5346 22.6321 62.5346 23.2462C62.5346 23.8605 62.037 24.358 61.4227 24.358Z" fill="white"/>
<path id="Vector_9" d="M15.9684 27.933H7.28042C5.19596 27.933 3.5 26.2369 3.5 24.1527V10.5384C3.5 8.45391 5.19596 6.75781 7.28042 6.75781H15.9684C18.0527 6.75781 19.7487 8.45391 19.7487 10.5384V24.1525C19.7487 26.2369 18.0527 27.933 15.9684 27.933ZM7.28042 8.98185C6.42222 8.98185 5.72376 9.68017 5.72376 10.5385V24.1527C5.72376 25.0109 6.42222 25.7093 7.28042 25.7093H15.9684C16.8266 25.7093 17.5249 25.0109 17.5249 24.1527V10.5384C17.5249 9.68003 16.8265 8.98171 15.9684 8.98171L7.28042 8.98185Z" fill="white"/>
<path id="Vector_10" d="M14.6714 12.7384H8.57721C7.96317 12.7384 7.46533 12.2407 7.46533 11.6265C7.46533 11.0125 7.96317 10.5146 8.57721 10.5146H14.6713C15.2853 10.5146 15.7832 11.0125 15.7832 11.6265C15.7833 12.2407 15.2855 12.7384 14.6714 12.7384Z" fill="#28FFC7"/>
<path id="Vector_11" d="M14.6714 16.5509H8.57721C7.96317 16.5509 7.46533 16.0531 7.46533 15.439C7.46533 14.825 7.96317 14.3271 8.57721 14.3271H14.6713C15.2853 14.3271 15.7832 14.825 15.7832 15.439C15.7833 16.0531 15.2855 16.5509 14.6714 16.5509Z" fill="#28FFC7"/>
<path id="Vector_12" d="M14.6714 20.3635H8.57721C7.96317 20.3635 7.46533 19.8657 7.46533 19.2517C7.46533 18.6375 7.96317 18.1396 8.57721 18.1396H14.6713C15.2853 18.1396 15.7832 18.6375 15.7832 19.2517C15.7833 19.8657 15.2855 20.3635 14.6714 20.3635Z" fill="#28FFC7"/>
<path id="Vector_13" d="M14.6714 24.1759H8.57721C7.96317 24.1759 7.46533 23.6782 7.46533 23.064C7.46533 22.45 7.96317 21.9521 8.57721 21.9521H14.6713C15.2853 21.9521 15.7832 22.45 15.7832 23.064C15.7833 23.6782 15.2855 24.1759 14.6714 24.1759Z" fill="#28FFC7"/>
<path id="Vector_14" d="M62.7193 64.2997H54.0309C51.9466 64.2997 50.2505 62.6036 50.2505 60.5191V46.9051C50.2505 44.8208 51.9466 43.1245 54.0309 43.1245H62.7193C64.8036 43.1245 66.4999 44.8206 66.4999 46.9051V60.5191C66.4999 62.6034 64.8038 64.2997 62.7193 64.2997ZM54.0309 45.3484C53.1727 45.3484 52.4742 46.0467 52.4742 46.9051V60.5191C52.4742 61.3774 53.1727 62.0759 54.0309 62.0759H62.7193C63.5776 62.0759 64.276 61.3774 64.276 60.5191V46.9051C64.276 46.0467 63.5776 45.3484 62.7193 45.3484H54.0309Z" fill="white"/>
<path id="Vector_15" d="M61.4227 60.5431H55.3282C54.7142 60.5431 54.2163 60.0454 54.2163 59.4312C54.2163 58.8172 54.7142 58.3193 55.3282 58.3193H61.4227C62.0368 58.3193 62.5346 58.8172 62.5346 59.4312C62.5346 60.0454 62.037 60.5431 61.4227 60.5431Z" fill="#28FFC7"/>
<path id="Vector_16" d="M61.4227 56.7307H55.3282C54.7142 56.7307 54.2163 56.2329 54.2163 55.6189C54.2163 55.0047 54.7142 54.5068 55.3282 54.5068H61.4227C62.0368 54.5068 62.5346 55.0047 62.5346 55.6189C62.5346 56.2329 62.037 56.7307 61.4227 56.7307Z" fill="#28FFC7"/>
<path id="Vector_17" d="M61.4227 52.9181H55.3282C54.7142 52.9181 54.2163 52.4203 54.2163 51.8062C54.2163 51.1922 54.7142 50.6943 55.3282 50.6943H61.4227C62.0368 50.6943 62.5346 51.1922 62.5346 51.8062C62.5346 52.4203 62.037 52.9181 61.4227 52.9181Z" fill="#28FFC7"/>
<path id="Vector_18" d="M61.4227 49.1056H55.3282C54.7142 49.1056 54.2163 48.6079 54.2163 47.9937C54.2163 47.3797 54.7142 46.8818 55.3282 46.8818H61.4227C62.0368 46.8818 62.5346 47.3797 62.5346 47.9937C62.5346 48.6079 62.037 49.1056 61.4227 49.1056Z" fill="#28FFC7"/>
<path id="Vector_19" d="M15.9684 64.4816H7.28042C5.19596 64.4816 3.5 62.7855 3.5 60.7013V47.0875C3.5 45.0032 5.19596 43.3071 7.28042 43.3071H15.9684C18.0527 43.3071 19.7487 45.0031 19.7487 47.0875V60.7013C19.7487 62.7855 18.0527 64.4816 15.9684 64.4816ZM7.28042 45.5309C6.42222 45.5309 5.72376 46.2293 5.72376 47.0875V60.7013C5.72376 61.5595 6.42222 62.2579 7.28042 62.2579H15.9684C16.8266 62.2579 17.5249 61.5595 17.5249 60.7013V47.0875C17.5249 46.2293 16.8265 45.5309 15.9684 45.5309H7.28042Z" fill="white"/>
<path id="Vector_20" d="M14.6714 60.7252H8.57721C7.96317 60.7252 7.46533 60.2275 7.46533 59.6133C7.46533 58.9993 7.96317 58.5015 8.57721 58.5015H14.6713C15.2853 58.5015 15.7832 58.9993 15.7832 59.6133C15.7833 60.2277 15.2855 60.7252 14.6714 60.7252Z" fill="white"/>
<path id="Vector_21" d="M14.6714 56.9127H8.57721C7.96317 56.9127 7.46533 56.4149 7.46533 55.8008C7.46533 55.1867 7.96317 54.689 8.57721 54.689H14.6713C15.2853 54.689 15.7832 55.1867 15.7832 55.8008C15.7833 56.415 15.2855 56.9127 14.6714 56.9127Z" fill="white"/>
<path id="Vector_22" d="M14.6714 53.0997H8.57721C7.96317 53.0997 7.46533 52.6019 7.46533 51.9879C7.46533 51.3738 7.96317 50.876 8.57721 50.876H14.6713C15.2853 50.876 15.7832 51.3738 15.7832 51.9879C15.7833 52.602 15.2855 53.0997 14.6714 53.0997Z" fill="white"/>
<path id="Vector_23" d="M14.6714 49.2872H8.57721C7.96317 49.2872 7.46533 48.7895 7.46533 48.1754C7.46533 47.5613 7.96317 47.0635 8.57721 47.0635H14.6713C15.2853 47.0635 15.7832 47.5613 15.7832 48.1754C15.7833 48.7897 15.2855 49.2872 14.6714 49.2872Z" fill="white"/>
<path id="Vector_24" d="M26.699 30.5467C26.0848 30.5467 25.5869 30.0488 25.5869 29.4348V22.9536C25.5869 22.181 24.9586 21.5524 24.1858 21.5524H18.6368C18.0227 21.5524 17.5249 21.0545 17.5249 20.4405C17.5249 19.8265 18.0227 19.3286 18.6368 19.3286H24.1858C26.1846 19.3286 27.8108 20.9547 27.8108 22.9536V29.4348C27.8108 30.0488 27.3131 30.5467 26.699 30.5467Z" fill="white"/>
<path id="Vector_25" d="M43.3008 30.5467C42.6867 30.5467 42.189 30.0488 42.189 29.4348V22.9536C42.189 20.9547 43.8151 19.3286 45.8138 19.3286H51.3625C51.9765 19.3286 52.4743 19.8265 52.4743 20.4405C52.4743 21.0545 51.9765 21.5524 51.3625 21.5524H45.8138C45.0412 21.5524 44.4127 22.1808 44.4127 22.9536V29.4348C44.4127 30.0488 43.915 30.5467 43.3008 30.5467Z" fill="white"/>
<path id="Vector_26" d="M24.186 52.8001H18.6368C18.0227 52.8001 17.5249 52.3023 17.5249 51.6882C17.5249 51.0742 18.0227 50.5763 18.6368 50.5763H24.1858C24.9585 50.5763 25.5869 49.9477 25.5869 49.1752V42.6939C25.5869 42.0799 26.0848 41.582 26.699 41.582C27.313 41.582 27.8108 42.0799 27.8108 42.6939V49.1752C27.8108 51.174 26.1847 52.8001 24.186 52.8001Z" fill="white"/>
<path id="Vector_27" d="M51.3625 52.8001H45.8138C43.8151 52.8001 42.189 51.174 42.189 49.1752V42.6939C42.189 42.0799 42.6867 41.582 43.3008 41.582C43.9149 41.582 44.4127 42.0799 44.4127 42.6939V49.1752C44.4127 49.9477 45.041 50.5763 45.8138 50.5763H51.3625C51.9765 50.5763 52.4743 51.0742 52.4743 51.6882C52.4745 52.3023 51.9766 52.8001 51.3625 52.8001Z" fill="white"/>
<path id="Vector_28" d="M11.6246 45.5309C11.0105 45.5309 10.5127 45.033 10.5127 44.419V27.003C10.5127 26.389 11.0105 25.8911 11.6246 25.8911C12.2386 25.8911 12.7365 26.389 12.7365 27.003V44.419C12.7365 45.033 12.2386 45.5309 11.6246 45.5309Z" fill="white"/>
<path id="Vector_29" d="M58.3751 45.3485C57.761 45.3485 57.2632 44.8506 57.2632 44.2364V27.003C57.2632 26.389 57.761 25.8911 58.3751 25.8911C58.9892 25.8911 59.4869 26.389 59.4869 27.003V44.2364C59.4869 44.8506 58.9894 45.3485 58.3751 45.3485Z" fill="white"/>
</g>
</g>
</g>
</svg>
