<svg width="62" height="63" viewBox="0 0 62 63" fill="none" xmlns="http://www.w3.org/2000/svg">
<g id="Market Expansion And Strategic Alliances">
<g id="Group">
<path id="Vector" d="M27.5537 6.60904C27.2703 6.32568 27.2703 5.86553 27.5537 5.58096L30.4866 2.64807C30.7699 2.36471 31.2301 2.36471 31.5134 2.64807L34.4463 5.58096C34.7297 5.86432 34.7297 6.32447 34.4463 6.60904C34.3046 6.75072 34.1182 6.82217 33.9329 6.82217C33.7476 6.82217 33.5611 6.75072 33.4195 6.60904L31.7266 4.91736V10.8837C31.7266 11.2845 31.4008 11.6102 31 11.6102C30.5992 11.6102 30.2734 11.2845 30.2734 10.8837V4.91736L28.5805 6.61025C28.2972 6.89361 27.837 6.89361 27.5537 6.60904ZM45.6632 17.6831C45.8497 17.6831 46.035 17.6116 46.1767 17.4699L50.3956 13.251V15.6451C50.3956 16.0459 50.7213 16.3716 51.1222 16.3716C51.523 16.3716 51.8487 16.0459 51.8487 15.6451V11.4976C51.8487 11.0968 51.523 10.771 51.1222 10.771H46.9747C46.5739 10.771 46.2481 11.0968 46.2481 11.4976C46.2481 11.8984 46.5739 12.2242 46.9747 12.2242H49.3687L45.1498 16.4431C44.8664 16.7264 44.8664 17.1866 45.1498 17.4712C45.2903 17.6128 45.4768 17.6831 45.6632 17.6831ZM59.9705 31.1063L57.0376 28.1734C56.7542 27.8901 56.2941 27.8901 56.0107 28.1734C55.7273 28.4568 55.7273 28.9169 56.0107 29.2015L57.7024 30.8932H51.7361C51.3353 30.8932 51.0095 31.2189 51.0095 31.6197C51.0095 32.0206 51.3353 32.3463 51.7361 32.3463H57.7024L56.0095 34.0392C55.7261 34.3226 55.7261 34.7827 56.0095 35.0673C56.1512 35.209 56.3377 35.2804 56.5229 35.2804C56.7094 35.2804 56.8947 35.209 57.0364 35.0673L59.9693 32.1344C60.1061 31.9988 60.1824 31.8135 60.1824 31.621C60.1824 31.4284 60.1073 31.2419 59.9705 31.1063ZM51.1222 46.8679C50.7213 46.8679 50.3956 47.1936 50.3956 47.5944V49.9885L46.1767 45.7696C45.8933 45.4862 45.4332 45.4862 45.1498 45.7696C44.8664 46.0529 44.8664 46.5131 45.1498 46.7976L49.3687 51.0165H46.9747C46.5739 51.0165 46.2481 51.3423 46.2481 51.7431C46.2481 52.1439 46.5739 52.4697 46.9747 52.4697H51.1222C51.523 52.4697 51.8487 52.1439 51.8487 51.7431V47.5956C51.8487 47.1924 51.523 46.8679 51.1222 46.8679ZM33.4195 56.6305L31.7266 58.3221V52.3558C31.7266 51.955 31.4008 51.6293 31 51.6293C30.5992 51.6293 30.2734 51.955 30.2734 52.3558V58.3221L28.5805 56.6292C28.2972 56.3459 27.837 56.3459 27.5537 56.6292C27.2703 56.9126 27.2703 57.3728 27.5537 57.6573L30.4866 60.5902C30.6282 60.7319 30.8147 60.8033 31 60.8033C31.1853 60.8033 31.3718 60.7319 31.5134 60.5902L34.4463 57.6573C34.7297 57.374 34.7297 56.9138 34.4463 56.6292C34.163 56.3459 33.7028 56.3459 33.4195 56.6305ZM15.8233 45.7683L11.6044 49.9872V47.5932C11.6044 47.1924 11.2787 46.8667 10.8779 46.8667C10.477 46.8667 10.1513 47.1924 10.1513 47.5932V51.7407C10.1513 52.1415 10.477 52.4672 10.8779 52.4672H15.0253C15.4261 52.4672 15.7519 52.1415 15.7519 51.7407C15.7519 51.3399 15.4261 51.0141 15.0253 51.0141H12.6313L16.8502 46.7952C17.1336 46.5119 17.1336 46.0517 16.8502 45.7671C16.5668 45.485 16.1067 45.485 15.8233 45.7683ZM4.29762 32.3463H10.2639C10.6647 32.3463 10.9905 32.0206 10.9905 31.6197C10.9905 31.2189 10.6647 30.8932 10.2639 30.8932H4.29762L5.99051 29.2003C6.27387 28.9169 6.27387 28.4568 5.99051 28.1722C5.70715 27.8888 5.24699 27.8888 4.96363 28.1722L2.03074 31.1051C1.8927 31.2419 1.81641 31.4272 1.81641 31.6197C1.81641 31.8123 1.8927 31.9976 2.02953 32.1332L4.96242 35.0661C5.1041 35.2078 5.29059 35.2792 5.47586 35.2792C5.66113 35.2792 5.84762 35.2078 5.9893 35.0661C6.27266 34.7827 6.27266 34.3226 5.9893 34.038L4.29762 32.3463ZM10.8779 16.3716C11.2787 16.3716 11.6044 16.0459 11.6044 15.6451V13.251L15.8233 17.4699C15.965 17.6116 16.1515 17.6831 16.3368 17.6831C16.5232 17.6831 16.7085 17.6116 16.8502 17.4699C17.1336 17.1866 17.1336 16.7264 16.8502 16.4419L12.6313 12.2229H15.0253C15.4261 12.2229 15.7519 11.8972 15.7519 11.4964C15.7519 11.0956 15.4261 10.7698 15.0253 10.7698H10.8779C10.477 10.7698 10.1513 11.0956 10.1513 11.4964V15.6438C10.1513 16.0471 10.477 16.3716 10.8779 16.3716ZM47.7909 31.1099L44.4729 33.3938C44.347 33.481 44.2041 33.5221 44.0612 33.5221C43.8299 33.5221 43.6034 33.4119 43.4618 33.2073L43.2317 32.8731C42.7473 33.3005 42.1975 33.6372 41.6151 33.8636C41.6526 33.9605 41.6853 34.0598 41.7083 34.1627C41.8355 34.7222 41.7386 35.2974 41.4334 35.7805C41.1295 36.2637 40.6524 36.6003 40.0929 36.7275C40.0288 36.742 39.9658 36.7529 39.9016 36.7614C39.9137 37.1719 39.8084 37.5897 39.5734 37.9626C39.2695 38.4458 38.7924 38.7824 38.2329 38.9096C38.0731 38.9459 37.9108 38.9641 37.751 38.9641C37.6807 38.9641 37.6105 38.9592 37.5415 38.952C37.5052 39.2583 37.4047 39.5623 37.2291 39.8396C36.9227 40.3264 36.4432 40.6642 35.8789 40.7902C35.7215 40.8253 35.5616 40.8435 35.4042 40.8435C35.2371 40.8435 35.0724 40.8229 34.9113 40.7841C34.8641 41.053 34.7648 41.3121 34.6159 41.5482C34.3119 42.0314 33.8348 42.368 33.2754 42.4952C33.1155 42.5315 32.9532 42.5497 32.7934 42.5497C32.3938 42.5497 32.0027 42.4383 31.6575 42.2203L29.5663 40.904L29.4875 41.0166C29.1836 41.4538 28.7247 41.7468 28.1979 41.8413C28.078 41.8631 27.9581 41.874 27.8382 41.874C27.4338 41.874 27.0402 41.7517 26.7012 41.5167C26.4275 41.3266 26.2107 41.076 26.063 40.7865C25.9686 40.818 25.8729 40.8447 25.7736 40.8628C25.6537 40.8846 25.5338 40.8955 25.4139 40.8955C25.0095 40.8955 24.6159 40.7732 24.2769 40.5383C24.0795 40.4015 23.9172 40.2331 23.7864 40.0479C23.5576 40.2017 23.2984 40.3094 23.0187 40.3603C22.8988 40.3821 22.7789 40.393 22.6591 40.393C22.2546 40.393 21.8611 40.2707 21.522 40.0358C21.0848 39.7318 20.7918 39.2741 20.6973 38.7461C20.6283 38.3586 20.6731 37.9699 20.8221 37.6175C20.6332 37.557 20.4527 37.4686 20.2856 37.3523C19.8485 37.0484 19.5554 36.5906 19.461 36.0627C19.3665 35.5359 19.4816 35.0043 19.7867 34.5672L19.8715 34.4449C19.3738 33.969 18.9572 33.487 18.6157 32.9954L18.537 33.1092C18.3966 33.3138 18.1689 33.424 17.9376 33.424C17.7959 33.424 17.6518 33.3829 17.5259 33.2957L14.2079 31.0119C14.0493 30.9029 13.9403 30.7346 13.9052 30.5456C13.8701 30.3567 13.9125 30.1606 14.0214 30.0019L20.2154 21.0022C20.443 20.6717 20.8947 20.5881 21.2253 20.8158L24.5433 23.0996C24.7019 23.2086 24.8109 23.3769 24.846 23.5658C24.8811 23.7547 24.8388 23.9509 24.7298 24.1095L24.4634 24.4958C25.4745 25.0262 26.9494 25.1691 28.1398 25.1085C29.4718 24.6411 30.8232 24.2621 32.4325 23.9037C33.3468 23.699 34.1436 23.7777 34.8689 24.141C35.6536 24.5346 36.534 24.6896 37.5391 24.6084L37.263 24.2076C37.154 24.049 37.1116 23.8528 37.1467 23.6639C37.1818 23.475 37.2908 23.3067 37.4495 23.1977L40.7674 20.9138C41.098 20.6862 41.5497 20.7697 41.7773 21.1003L47.9713 30.1C48.0803 30.2587 48.1227 30.4548 48.0875 30.6437C48.0585 30.8338 47.9495 31.001 47.7909 31.1099ZM23.1241 23.8843L21.0025 22.4239L15.632 30.2272L17.7536 31.6876L23.1241 23.8843ZM23.1083 34.2572C23.1907 34.1385 23.2221 33.9932 23.1967 33.8479C23.1713 33.7026 23.0914 33.5778 22.9715 33.4943C22.7232 33.3211 22.3818 33.3829 22.2098 33.6311L20.9807 35.3967C20.8984 35.5153 20.8669 35.6606 20.8923 35.806C20.9177 35.9513 20.9977 36.076 21.1175 36.1595C21.2362 36.2419 21.3815 36.2734 21.5268 36.248C21.6722 36.2225 21.7969 36.1426 21.8804 36.0227L23.1083 34.2572ZM23.1168 38.7062L23.7792 37.7544L25.3922 35.4378C25.3922 35.4378 25.3922 35.4378 25.3922 35.4366L26.0545 34.4848C26.2265 34.2366 26.1659 33.8951 25.9177 33.7231C25.8257 33.659 25.7191 33.6263 25.6077 33.6263C25.575 33.6263 25.5411 33.6287 25.5084 33.6347C25.3631 33.6602 25.2384 33.7401 25.1548 33.86L23.072 36.8534L22.2183 38.0813C22.0463 38.3295 22.1069 38.671 22.3551 38.843C22.6021 39.0162 22.9448 38.9544 23.1168 38.7062ZM25.8705 39.2099L27.1516 37.3693L27.4822 36.8934C27.6542 36.6451 27.5936 36.3037 27.3454 36.1305C27.2267 36.0481 27.0814 36.0167 26.9361 36.0421C26.7908 36.0675 26.6661 36.1474 26.5837 36.2661L24.9707 38.5839C24.7988 38.8321 24.8605 39.1736 25.1076 39.3455C25.2262 39.4279 25.3716 39.4594 25.5169 39.4339C25.6622 39.4085 25.7881 39.3286 25.8705 39.2099ZM28.2936 40.1895L29.2429 38.8248C29.3253 38.7062 29.3568 38.5608 29.3313 38.4155C29.3059 38.2702 29.226 38.1455 29.1061 38.0619C28.8579 37.89 28.5164 37.9505 28.3444 38.1988L27.395 39.5635C27.3127 39.6822 27.2812 39.8275 27.3066 39.9728C27.3321 40.1181 27.412 40.2428 27.5319 40.3264C27.6505 40.4087 27.7959 40.4402 27.9412 40.4148C28.0853 40.3881 28.2112 40.3082 28.2936 40.1895ZM40.2903 34.4848C40.2491 34.3032 40.1414 34.1494 39.9852 34.0513L32.0959 29.084L30.3679 28.9678C27.9496 31.535 25.7857 31.0724 24.3907 30.226C24.1752 30.0952 24.0262 29.8869 23.9729 29.6399C23.9196 29.3916 23.9693 29.141 24.1134 28.9327L25.6222 26.7324C25.6949 26.6258 25.7736 26.5278 25.8559 26.4321C25.1124 26.3098 24.3229 26.0882 23.6387 25.6983L19.513 31.6936C19.8061 32.2155 20.2033 32.7253 20.7143 33.2363L21.017 32.8016C21.6467 31.8958 22.8964 31.6718 23.8022 32.3027C23.9693 32.419 24.1146 32.5582 24.2369 32.7144C24.5166 32.4517 24.8654 32.2749 25.2529 32.2058C25.7796 32.1114 26.3113 32.2264 26.7484 32.5316C27.1855 32.8355 27.4786 33.2945 27.573 33.8212C27.6227 34.101 27.613 34.3819 27.5476 34.6495C27.7704 34.7088 27.9836 34.8045 28.1773 34.9389C28.7186 35.3155 29.0141 35.9137 29.031 36.5265C29.3471 36.564 29.6583 36.6754 29.9368 36.8704C30.3739 37.1743 30.667 37.6333 30.7614 38.16C30.8559 38.6868 30.7409 39.2184 30.4357 39.6555L30.3957 39.7137L32.4301 40.9948C32.5851 41.0929 32.7704 41.1232 32.952 41.082C33.1337 41.0408 33.2875 40.9331 33.3843 40.7769C33.4824 40.6219 33.5139 40.4366 33.4715 40.2549C33.4304 40.0733 33.3226 39.9195 33.1664 39.8226L33.1712 39.8154L32.2993 39.2596C31.9615 39.044 31.8622 38.5947 32.0777 38.2557C32.2933 37.9178 32.7425 37.8185 33.0816 38.0341L35.0457 39.2874C35.1971 39.3843 35.3787 39.4158 35.5592 39.3746C35.742 39.3334 35.8982 39.2244 35.9975 39.067C36.201 38.7437 36.1041 38.3162 35.7808 38.1128C35.7796 38.1128 35.7796 38.1116 35.7784 38.1116L33.503 36.679C33.1639 36.4647 33.061 36.0167 33.2754 35.6776C33.4897 35.3385 33.9377 35.2356 34.2768 35.4499L37.3865 37.408C37.5415 37.5061 37.7268 37.5364 37.9084 37.4952C38.09 37.454 38.2438 37.3463 38.3419 37.1901C38.5454 36.8667 38.4485 36.4381 38.1252 36.2346L34.7079 34.0828C34.3688 33.8685 34.2659 33.4204 34.4802 33.0813C34.6946 32.7423 35.1426 32.6394 35.4817 32.8537L39.2465 35.2247C39.4015 35.3228 39.5868 35.3531 39.7684 35.3119C39.95 35.2707 40.1038 35.163 40.2019 35.0067C40.3012 34.8517 40.3315 34.6665 40.2903 34.4848ZM42.3998 31.6646L38.4679 25.9526C36.8743 26.2262 35.4478 26.0555 34.2211 25.4403C33.7948 25.2272 33.342 25.1909 32.751 25.3217C30.9637 25.7201 29.5105 26.1427 28.0405 26.6912C27.4483 26.9116 27.0838 27.1696 26.8211 27.5534L25.6598 29.2475C26.545 29.612 27.7813 29.6326 29.3786 27.8997C29.6329 27.6237 29.9804 27.4856 30.3546 27.511L32.378 27.6479C32.4979 27.6563 32.6142 27.6939 32.7159 27.7581L40.5265 32.6757C41.2082 32.5364 41.8633 32.1816 42.3998 31.6646ZM46.368 30.3253L40.9975 22.522L38.8759 23.9824L44.2464 31.7856L46.368 30.3253Z" fill="white"/>
<path id="Vector_2" fill-rule="evenodd" clip-rule="evenodd" d="M46.1767 17.4699C46.035 17.6116 45.8497 17.6831 45.6632 17.6831C45.4768 17.6831 45.2903 17.6128 45.1498 17.4712C44.8664 17.1866 44.8664 16.7264 45.1498 16.4431L49.3687 12.2242H46.9747C46.5739 12.2242 46.2481 11.8984 46.2481 11.4976C46.2481 11.0968 46.5739 10.771 46.9747 10.771H51.1222C51.523 10.771 51.8487 11.0968 51.8487 11.4976V15.6451C51.8487 16.0459 51.523 16.3716 51.1222 16.3716C50.7213 16.3716 50.3956 16.0459 50.3956 15.6451V13.251L46.1767 17.4699ZM50.3956 47.5944C50.3956 47.1936 50.7213 46.8679 51.1222 46.8679C51.523 46.8679 51.8487 47.1924 51.8487 47.5956V51.7431C51.8487 52.1439 51.523 52.4697 51.1222 52.4697H46.9747C46.5739 52.4697 46.2481 52.1439 46.2481 51.7431C46.2481 51.3423 46.5739 51.0165 46.9747 51.0165H49.3687L45.1498 46.7976C44.8664 46.5131 44.8664 46.0529 45.1498 45.7696C45.4332 45.4862 45.8933 45.4862 46.1767 45.7696L50.3956 49.9885V47.5944ZM11.6044 49.9872L15.8233 45.7683C16.1067 45.485 16.5668 45.485 16.8502 45.7671C17.1336 46.0517 17.1336 46.5119 16.8502 46.7952L12.6313 51.0141H15.0253C15.4261 51.0141 15.7519 51.3399 15.7519 51.7407C15.7519 52.1415 15.4261 52.4672 15.0253 52.4672H10.8779C10.477 52.4672 10.1513 52.1415 10.1513 51.7407V47.5932C10.1513 47.1924 10.477 46.8667 10.8779 46.8667C11.2787 46.8667 11.6044 47.1924 11.6044 47.5932V49.9872ZM11.6044 15.6451C11.6044 16.0459 11.2787 16.3716 10.8779 16.3716C10.477 16.3716 10.1513 16.0471 10.1513 15.6438V11.4964C10.1513 11.0956 10.477 10.7698 10.8779 10.7698H15.0253C15.4261 10.7698 15.7519 11.0956 15.7519 11.4964C15.7519 11.8972 15.4261 12.2229 15.0253 12.2229H12.6313L16.8502 16.4419C17.1336 16.7264 17.1336 17.1866 16.8502 17.4699C16.7085 17.6116 16.5232 17.6831 16.3368 17.6831C16.1515 17.6831 15.965 17.6116 15.8233 17.4699L11.6044 13.251V15.6451Z" fill="#28FFC7"/>
</g>
</g>
</svg>
