<svg width="70" height="71" viewBox="0 0 70 71" fill="none" xmlns="http://www.w3.org/2000/svg">
<g id="Client And Market Engagement And Loyalty Strategies 2">
<g id="Group">
<g id="Artboard301">
<path id="Vector" fill-rule="evenodd" clip-rule="evenodd" d="M36.5997 39.79C40.785 41.331 43.87 45.1446 44.3604 49.7339C44.3935 50.0437 44.2936 50.3529 44.0852 50.5846C43.877 50.8163 43.5801 50.9486 43.2687 50.9486H21.6632C21.3517 50.9486 21.0546 50.8161 20.8464 50.5843C20.6381 50.3526 20.5382 50.0431 20.5715 49.7333C21.0643 45.1441 24.1502 41.3306 28.3344 39.7897C26.8369 38.5796 25.8767 36.7285 25.8767 34.6607C25.8767 31.0307 28.8359 28.0686 32.4659 28.0686C36.0993 28.0686 39.058 31.031 39.058 34.6607C39.058 36.7285 38.0979 38.5797 36.5997 39.79ZM32.4659 41.2529C27.8533 41.2529 23.9872 44.4516 22.9639 48.7525H41.9687C40.9474 44.4516 37.0809 41.2529 32.4659 41.2529ZM32.4659 39.0568C34.8888 39.0568 36.8619 37.0813 36.8619 34.6607C36.8619 32.2402 34.8888 30.2647 32.4659 30.2647C30.0455 30.2647 28.0728 32.2403 28.0728 34.6607C28.0728 37.0812 30.0455 39.0568 32.4659 39.0568ZM62.7572 49.5966C61.4209 50.0855 60.0385 50.6156 57.9003 50.6156H50.7556C49.2566 50.6156 48.032 49.3887 48.032 47.8919C48.032 47.6527 48.0631 47.4204 48.1216 47.1992C47.0786 46.8164 46.3299 45.8111 46.3299 44.6392C46.3299 44.1856 46.4423 43.7568 46.6408 43.3795C46.1063 42.8815 45.7711 42.1724 45.7711 41.3879C45.7711 40.4936 46.2069 39.697 46.8767 39.1998C46.7367 38.8726 46.6591 38.5131 46.6591 38.1366C46.6591 36.6377 47.8852 35.413 49.3841 35.413H53.7628C53.3863 34.3461 53.1341 33.0319 53.2648 31.8544C53.4438 30.2404 54.2573 28.8859 56.0702 28.4407C56.3557 28.3706 56.6575 28.4179 56.9078 28.572C57.1582 28.7262 57.3362 28.9743 57.4021 29.2608C58.1043 32.3124 58.0013 32.8231 59.8451 34.0289C61.3509 35.0127 61.2513 34.9786 62.4016 36.643C62.5096 36.799 62.6455 36.9173 62.8186 36.9902C63.0405 36.2624 63.7194 35.7299 64.5177 35.7299H67.2634C68.2373 35.7299 69.0391 36.5282 69.0391 37.5056V49.3645C69.0391 50.3418 68.2373 51.1402 67.2634 51.1402H64.5177C63.6189 51.1402 62.8717 50.465 62.7572 49.5966ZM62.742 39.2354C61.7686 39.1046 61.0942 38.6129 60.5957 37.8927L60.5953 37.8921C59.7104 36.6117 59.802 36.624 58.644 35.8674L58.6436 35.8671C56.6055 34.5343 56.2507 33.9273 55.6327 31.351C55.4387 31.7687 55.4039 32.2927 55.4307 32.8062C55.4947 34.0314 55.9499 35.31 56.3675 35.7926C56.6486 36.1176 56.7143 36.5767 56.5356 36.9675C56.3569 37.3583 55.9667 37.609 55.5369 37.609H49.3841C49.0935 37.609 48.8552 37.8459 48.8552 38.1366C48.8552 38.4268 49.0935 38.6643 49.3841 38.6643H53.6258C54.2319 38.6643 54.7238 39.1562 54.7238 39.7623C54.7238 40.3683 54.2319 40.8603 53.6258 40.8603H48.4948C48.2044 40.8603 47.9672 41.0975 47.9672 41.3879C47.9672 41.6784 48.2044 41.9156 48.4948 41.9156H53.6258C54.2319 41.9156 54.7238 42.4075 54.7238 43.0136C54.7238 43.6196 54.2319 44.1116 53.6258 44.1116H49.0536C48.7631 44.1116 48.5259 44.3492 48.5259 44.6392C48.5259 44.9298 48.7628 45.1682 49.0536 45.1682H53.6258C54.2319 45.1682 54.7238 45.6601 54.7238 46.2663C54.7238 46.8722 54.2319 47.3643 53.6258 47.3643H50.7556C50.4652 47.3643 50.228 47.6015 50.228 47.8919C50.228 48.1818 50.4652 48.4195 50.7556 48.4195H57.9003C60.0801 48.4195 61.3832 47.7724 62.742 47.2807V39.2354ZM64.9381 37.926V48.9441H66.843V37.926H64.9381ZM7.02075 38.8033C7.47177 37.6166 8.67549 34.4498 8.67549 34.4498C9.15561 33.1775 10.9657 33.1775 11.4458 34.4498L13.1007 38.8033C14.3702 38.8656 17.7531 39.032 17.7494 39.0318C19.1209 39.0935 19.6708 40.8209 18.6112 41.6655L14.9782 44.5868C15.3118 45.8137 16.1991 49.0781 16.1988 49.0768C16.5635 50.3856 15.1055 51.4527 13.9656 50.7132C13.9643 50.7125 13.9631 50.7117 13.9619 50.7108L10.0609 48.1578L6.16386 50.7106C6.16249 50.7114 6.16112 50.7124 6.15975 50.7132C5.02382 51.4501 3.56782 50.3879 3.92084 49.0831L3.92112 49.0818C3.92112 49.0818 4.81163 45.8062 5.14324 44.5869C4.15404 43.7914 1.51078 41.666 1.5138 41.6684C0.450628 40.8209 1.00047 39.0935 2.36739 39.032L7.02075 38.8033ZM4.37571 41.1406C5.51231 42.0546 6.88679 43.1599 6.88651 43.1596C7.35949 43.5319 7.55151 44.1131 7.39765 44.6978C7.39696 44.7007 7.39614 44.7036 7.39545 44.7065L6.54804 47.8233C7.76837 47.0239 9.24455 46.0569 9.24304 46.0579C9.75157 45.7204 10.3669 45.7197 10.8757 46.0561L13.5727 47.8214L12.726 44.7065C12.7252 44.7036 12.7244 44.7007 12.7237 44.6978C12.5697 44.1129 12.7621 43.5312 13.2344 43.16L15.7456 41.1406L12.5189 40.9821L12.5166 40.9819C11.9158 40.9512 11.4229 40.5969 11.2078 40.0286L10.0607 37.0107L8.91418 40.0271C8.69855 40.5969 8.20553 40.9512 7.6049 40.9819L7.60257 40.9821L4.37571 41.1406ZM32.4659 25.402C27.2631 25.402 23.0174 21.1563 23.0174 15.9535C23.0174 10.7506 27.2631 6.50488 32.4659 6.50488C37.6688 6.50488 41.9145 10.7506 41.9145 15.9535C41.9145 21.1563 37.6688 25.402 32.4659 25.402ZM32.4659 23.2059C36.4594 23.2059 39.7184 19.9471 39.7184 15.9535C39.7184 11.9598 36.4594 8.70096 32.4659 8.70096C28.4723 8.70096 25.2135 11.9598 25.2135 15.9535C25.2135 19.9471 28.4723 23.2059 32.4659 23.2059ZM31.3678 10.909V10.6684C31.3678 10.0624 31.8599 9.57033 32.4659 9.57033C33.072 9.57033 33.5639 10.0624 33.5639 10.6684V10.8979C34.5575 11.1737 35.4571 11.8501 35.9364 12.9902C36.1712 13.5488 35.9084 14.1931 35.3496 14.4279C34.791 14.6628 34.1467 14.3999 33.9119 13.8412C33.5391 12.9544 32.5401 12.7887 31.8266 13.0695C31.4565 13.2153 31.1419 13.5005 31.1628 13.935C31.1787 14.2588 31.4041 14.4315 31.6539 14.5535C31.9611 14.7038 32.3171 14.7856 32.6512 14.8406C34.255 15.1031 35.9881 15.8679 36.2209 17.7747L36.2212 17.7763C36.4387 19.5788 35.077 20.6781 33.5639 21.0306V21.2385C33.5639 21.8445 33.072 22.3366 32.4659 22.3366C31.8599 22.3366 31.3678 21.8445 31.3678 21.2385V21.0144C30.1151 20.6922 29.0599 19.8216 28.7221 18.4649C28.5757 17.8767 28.9343 17.2805 29.5223 17.134C30.1105 16.9876 30.7067 17.3462 30.8531 17.9342C31.0398 18.6841 31.8163 18.9753 32.5488 18.958C32.8904 18.9501 33.2622 18.8788 33.5763 18.725C33.8452 18.5932 34.0826 18.3884 34.0409 18.0402C33.9931 17.6511 33.713 17.4496 33.4047 17.3097C33.0581 17.1526 32.6645 17.0682 32.2966 17.0079L32.2955 17.0078C30.7157 16.7477 29.0611 15.9202 28.9693 14.0421V14.0414C28.899 12.5876 29.7843 11.5135 31.0222 11.0262C31.1348 10.9817 31.2502 10.9426 31.3678 10.909ZM11.7895 29.6384C11.5293 30.1856 10.8736 30.4185 10.3264 30.1583C9.77902 29.8979 9.5461 29.2423 9.80647 28.695C11.7478 24.6135 14.7537 21.1343 18.4642 18.6178C18.9658 18.2776 19.6492 18.4086 19.9893 18.9103C20.3294 19.4118 20.1985 20.095 19.6969 20.4353C16.3081 22.7336 13.5626 25.9108 11.7895 29.6384ZM50.72 53.7152C51.0943 53.2387 51.7851 53.1556 52.2618 53.5299C52.7383 53.9042 52.8213 54.5952 52.447 55.0717C47.8273 60.9535 40.6512 64.7339 32.5993 64.7339C24.5339 64.7339 17.3474 60.9409 12.7286 55.0423C12.3549 54.5652 12.439 53.8744 12.9161 53.5008C13.3932 53.1272 14.084 53.2112 14.4576 53.6885C18.6746 59.0738 25.2356 62.5378 32.5993 62.5378C39.9508 62.5378 46.5021 59.0853 50.72 53.7152ZM45.2022 20.2356C44.6954 19.9033 44.5538 19.222 44.8861 18.7152C45.2184 18.2085 45.8996 18.0667 46.4065 18.3991C49.3266 20.3138 51.8261 22.818 53.7355 25.7421C54.0667 26.2495 53.9238 26.9305 53.4163 27.2618C52.9089 27.5931 52.228 27.4501 51.8967 26.9427C50.1527 24.2718 47.8695 21.9845 45.2022 20.2356Z" fill="white"/>
<path id="Vector_2" fill-rule="evenodd" clip-rule="evenodd" d="M44.3604 49.7339C43.87 45.1446 40.785 41.331 36.5997 39.79C38.0979 38.5797 39.058 36.7285 39.058 34.6607C39.058 31.031 36.0993 28.0686 32.4659 28.0686C28.8359 28.0686 25.8767 31.0307 25.8767 34.6607C25.8767 36.7285 26.8369 38.5796 28.3344 39.7897C24.1502 41.3306 21.0643 45.1441 20.5715 49.7333C20.5382 50.0431 20.6381 50.3526 20.8464 50.5843C21.0546 50.8161 21.3517 50.9486 21.6632 50.9486H43.2687C43.5801 50.9486 43.877 50.8163 44.0852 50.5846C44.2935 50.3529 44.3935 50.0437 44.3604 49.7339ZM22.9639 48.7525C23.9872 44.4516 27.8533 41.2529 32.4659 41.2529C37.0809 41.2529 40.9474 44.4516 41.9687 48.7525H22.9639ZM36.8619 34.6607C36.8619 37.0813 34.8888 39.0568 32.4659 39.0568C30.0455 39.0568 28.0728 37.0812 28.0728 34.6607C28.0728 32.2403 30.0455 30.2647 32.4659 30.2647C34.8888 30.2647 36.8619 32.2402 36.8619 34.6607Z" fill="#28FFC7"/>
</g>
</g>
</g>
</svg>
