<svg width="60" height="61" viewBox="0 0 60 61" fill="none" xmlns="http://www.w3.org/2000/svg">
<g id="Sustainability And Compliance Integration">
<g id="Group">
<path id="Vector" d="M29.7094 11.2227C29.5219 11.0446 29.2688 10.9508 29.0157 10.9602C26.7188 11.0633 24.4782 11.5696 22.3594 12.4696C17.6532 14.4477 13.8188 18.2821 11.8407 22.9977C11.4563 23.9164 11.1563 24.8539 10.9125 25.8102L9.17816 23.5039C8.82191 23.0352 8.03441 23.0352 7.67816 23.5039L2.05316 31.0039C1.83754 31.2852 1.80941 31.6696 1.96879 31.9883C2.12816 32.3071 2.45629 32.5039 2.80316 32.5039H4.74379C4.91254 34.8008 5.39066 37.0789 6.18754 39.2821C8.76566 46.3414 14.2875 51.8539 21.3375 54.4227L21.975 52.6602C15.4407 50.2883 10.3313 45.1789 7.95004 38.6446C7.12504 36.3383 6.65629 33.9477 6.57191 31.5289C6.55316 31.0227 6.14066 30.6289 5.63441 30.6289H4.67816L8.42816 25.6321L10.6125 28.5383C10.6125 28.5383 10.65 28.5946 10.6688 28.6227L12.1782 30.6289H11.2688C11.0157 30.6289 10.7719 30.7321 10.5938 30.9196C10.4157 31.1071 10.3219 31.3508 10.3313 31.6133C10.4344 33.9102 10.9407 36.1508 11.8407 38.2696C13.8188 42.9758 17.6532 46.8102 22.3688 48.7883C23.2875 49.1727 24.225 49.4727 25.1813 49.7164L22.875 51.4508C22.6407 51.6289 22.5 51.9102 22.5 52.2008C22.5 52.4914 22.6407 52.7727 22.875 52.9508L30.375 58.5758C30.5438 58.6977 30.7407 58.7633 30.9375 58.7633C31.0782 58.7633 31.2282 58.7352 31.3594 58.6602C31.6782 58.5008 31.875 58.1727 31.875 57.8258V55.8852C34.1719 55.7164 36.45 55.2383 38.6532 54.4414C45.7125 51.8633 51.225 46.3414 53.7938 39.2914L52.0313 38.6539C49.6594 45.1789 44.55 50.2977 38.0157 52.6789C35.7094 53.5039 33.3188 53.9727 30.9 54.0571C30.3938 54.0758 30 54.4883 30 54.9946V55.9508L25.0032 52.2008L27.9094 50.0164C27.9094 50.0164 27.9657 49.9789 27.9938 49.9602L30 48.4508V49.3602C30 49.6133 30.1032 49.8571 30.2907 50.0352C30.4782 50.2133 30.7219 50.2977 30.9844 50.2977C33.2813 50.1946 35.5219 49.6883 37.6407 48.7883C42.3469 46.8102 46.1813 42.9758 48.1594 38.2602C48.5438 37.3414 48.8438 36.4039 49.0875 35.4477L50.8219 37.7539C51 37.9883 51.2813 38.1289 51.5719 38.1289C51.8625 38.1289 52.1438 37.9883 52.3219 37.7539L57.9469 30.2539C58.1625 29.9727 58.1907 29.5883 58.0313 29.2696C57.8719 28.9508 57.5438 28.7539 57.1969 28.7539H55.2563C55.0875 26.4571 54.6094 24.1789 53.8125 21.9758C51.2344 14.9164 45.7125 9.40394 38.6625 6.8352L38.025 8.59769C44.5594 10.9696 49.6688 16.0789 52.05 22.6133C52.875 24.9196 53.3438 27.3102 53.4282 29.7289C53.4469 30.2352 53.8594 30.6289 54.3657 30.6289H55.3219L51.5719 35.6258L49.3875 32.7196C49.3875 32.7196 49.35 32.6633 49.3313 32.6352L47.8219 30.6289H48.7313C48.9844 30.6289 49.2282 30.5258 49.4063 30.3383C49.5844 30.1508 49.6782 29.9071 49.6688 29.6446C49.5657 27.3477 49.0594 25.1071 48.1594 22.9883C46.1813 18.2821 42.3469 14.4477 37.6313 12.4696C36.7125 12.0852 35.775 11.7852 34.8188 11.5414L37.125 9.80707C37.3594 9.62894 37.5 9.34769 37.5 9.05707C37.5 8.76644 37.3594 8.48519 37.125 8.30707L29.625 2.68207C29.3438 2.46645 28.9594 2.43832 28.6407 2.5977C28.3219 2.75707 28.125 3.0852 28.125 3.43207V5.3727C25.8282 5.54145 23.55 6.01957 21.3469 6.81644C14.2875 9.39457 8.77504 14.9164 6.20629 21.9664L7.96879 22.6039C10.3407 16.0789 15.45 10.9602 21.9844 8.57894C24.2907 7.75394 26.6813 7.28519 29.1 7.20082C29.6063 7.18207 30 6.76957 30 6.26332V5.30707L34.9969 9.05707L32.0907 11.2414C32.0907 11.2414 32.0344 11.2789 32.0063 11.2977L30 12.8071V11.8977C30 11.6446 29.8969 11.4008 29.7094 11.2227ZM32.8125 13.0414C34.2 13.2664 35.5782 13.6414 36.9 14.2039C41.1657 15.9852 44.6344 19.4539 46.425 23.7196C47.1094 25.3321 47.5407 27.0289 47.7188 28.7539H45.9469C45.5907 28.7539 45.2625 28.9508 45.1125 29.2696C44.9625 29.5883 44.9907 29.9633 45.1969 30.2539L47.5875 33.4414C47.3719 34.8289 46.9875 36.2071 46.4344 37.5383C44.6438 41.8039 41.1844 45.2727 36.9188 47.0539C35.3063 47.7383 33.6094 48.1696 31.8844 48.3477V46.5758C31.8844 46.2196 31.6875 45.8914 31.3688 45.7414C31.05 45.5821 30.6657 45.6196 30.3844 45.8352L27.1969 48.2258C25.8094 48.0008 24.4313 47.6258 23.1094 47.0633C18.8438 45.2821 15.375 41.8133 13.5844 37.5477C12.9 35.9352 12.4688 34.2383 12.2907 32.5133H14.0625C14.4188 32.5133 14.7469 32.3164 14.8969 31.9977C15.0469 31.6789 15.0188 31.3039 14.8125 31.0133L12.4219 27.8258C12.6375 26.4383 13.0219 25.0602 13.575 23.7289C15.3657 19.4633 18.825 15.9946 23.0907 14.2133C24.7032 13.5289 26.4 13.0977 28.125 12.9196V14.6914C28.125 15.0477 28.3219 15.3758 28.6407 15.5258C28.9594 15.6852 29.3344 15.6477 29.625 15.4321L32.8125 13.0414Z" fill="white"/>
<path id="Vector_2" d="M25.3687 16.3508C25.0874 16.4446 24.8624 16.6602 24.7687 16.9414L23.2687 21.3477L18.6187 21.4133C18.328 21.4133 18.0468 21.5633 17.878 21.7977C17.6999 22.0321 17.653 22.3414 17.7374 22.6227L19.1062 27.0758L15.3843 29.8696C15.1499 30.0477 15.0093 30.3196 15.0093 30.6196C15.0093 30.9196 15.1499 31.1914 15.3843 31.3696L19.1062 34.1633L17.7374 38.6164C17.653 38.8977 17.6999 39.2071 17.878 39.4414C18.0468 39.6758 18.328 39.8258 18.6187 39.8258L23.2687 39.8914L24.7687 44.2977C24.8624 44.5789 25.0874 44.7946 25.3687 44.8883C25.4624 44.9164 25.5655 44.9352 25.6593 44.9352C25.8468 44.9352 26.0437 44.8789 26.203 44.7664L30.0093 42.0852L33.8155 44.7664C34.0593 44.9352 34.3593 44.9821 34.6405 44.8883C34.9218 44.7946 35.1468 44.5789 35.2405 44.2977L36.7405 39.8914L41.3905 39.8258C41.6812 39.8258 41.9624 39.6758 42.1312 39.4414C42.3093 39.2071 42.3562 38.8977 42.2718 38.6164L40.903 34.1633L44.6249 31.3696C44.8593 31.1914 44.9999 30.9196 44.9999 30.6196C44.9999 30.3196 44.8593 30.0477 44.6249 29.8696L40.903 27.0758L42.2718 22.6227C42.3562 22.3414 42.3093 22.0321 42.1312 21.7977C41.9624 21.5633 41.6812 21.4133 41.3905 21.4133L36.7405 21.3477L35.2405 16.9414C35.1468 16.6602 34.9218 16.4446 34.6405 16.3508C34.3593 16.2571 34.0499 16.3039 33.8062 16.4727L29.9999 19.1539L26.1937 16.4727C25.9499 16.3039 25.6405 16.2571 25.3687 16.3508ZM30.5437 21.0758L33.8624 18.7321L35.1749 22.5758C35.3062 22.9508 35.653 23.2039 36.0468 23.2133L40.1155 23.2696L38.9155 27.1508C38.803 27.5258 38.9343 27.9383 39.253 28.1727L42.5062 30.6102L39.253 33.0477C38.9343 33.2821 38.803 33.6946 38.9155 34.0696L40.1155 37.9508L36.0468 38.0071C35.653 38.0071 35.2968 38.2696 35.1749 38.6446L33.8624 42.4883L30.5437 40.1446C30.3843 40.0321 30.1968 39.9758 29.9999 39.9758C29.803 39.9758 29.6249 40.0321 29.4562 40.1446L26.1374 42.4883L24.8249 38.6446C24.6937 38.2696 24.3468 38.0164 23.953 38.0071L19.8843 37.9508L21.0843 34.0696C21.1968 33.6946 21.0655 33.2821 20.7468 33.0477L17.4937 30.6102L20.7468 28.1727C21.0655 27.9383 21.1968 27.5258 21.0843 27.1508L19.8843 23.2696L23.953 23.2133C24.3468 23.2133 24.703 22.9508 24.8249 22.5758L26.1374 18.7321L29.4562 21.0758C29.7843 21.3008 30.2155 21.3008 30.5343 21.0758H30.5437Z" fill="#28FFC7"/>
<path id="Vector_3" d="M22.8843 32.401L27.928 36.0666C28.0968 36.1885 28.2843 36.2447 28.4812 36.2447C28.7437 36.2447 29.0062 36.1322 29.1937 35.9166L37.2749 26.5416L35.8499 25.3135L28.3405 34.0322L23.9905 30.8729L22.8843 32.3916V32.401Z" fill="#28FFC7"/>
</g>
</g>
</svg>
