<svg width="68" height="69" viewBox="0 0 68 69" fill="none" xmlns="http://www.w3.org/2000/svg">
<g id="Group">
<path id="Vector" d="M29.8921 9.8354V5.72751C29.8921 3.45887 31.7314 1.61963 34 1.61963C36.2686 1.61963 38.1079 3.45887 38.1079 5.72751V9.8354M21.6763 18.0512H46.3237M34 18.0512V24.213M27.8382 59.4039H40.1618M27.8382 50.9142H34V59.4039M46.3237 67.6196H21.6763M46.3237 67.6196V42.6985H21.6763V67.6196M46.3237 67.6196H67V50.9142H46.3237M21.6763 67.6196H1V50.9142H21.6763M52.4855 13.9433L60.7012 9.8354M52.4855 26.2669L60.7012 30.3748M15.5145 13.9433L7.29875 9.8354M15.5145 26.2669L7.29875 30.3748M46.3237 30.3748H21.6763V9.8354H46.3237V30.3748Z" stroke="white" stroke-width="2" stroke-miterlimit="10"/>
<path id="Vector_2" d="M29.8922 9.8354V5.72751C29.8922 3.45887 31.7314 1.61963 34.0001 1.61963C36.2687 1.61963 38.108 3.45887 38.108 5.72751V9.8354M21.6764 18.0512H46.3237M34.0001 18.0512V24.213M52.4855 13.9433L60.7013 9.8354M52.4856 26.2669L60.7013 30.3748M15.5146 13.9433L7.29883 9.8354M15.5146 26.2669L7.29883 30.3748M46.3237 30.3748H21.6764V9.8354H46.3237V30.3748Z" stroke="#28FFC7" stroke-width="2" stroke-miterlimit="10"/>
</g>
</svg>
