<svg width="58" height="59" viewBox="0 0 58 59" fill="none" xmlns="http://www.w3.org/2000/svg">
<g id="Comprehensive Financial Business Plan Development 2">
<g id="Group">
<path id="Vector" fill-rule="evenodd" clip-rule="evenodd" d="M48.4323 41.5708C48.4323 40.0912 47.9936 38.6447 47.1716 37.4144C46.3496 36.1841 45.1813 35.2252 43.8143 34.6589C42.4473 34.0926 40.9431 33.9445 39.4919 34.2331C38.0407 34.5217 36.7076 35.2342 35.6614 36.2804C34.6151 37.3266 33.9025 38.6596 33.6138 40.1108C33.3252 41.562 33.4733 43.0663 34.0395 44.4333C34.6057 45.8003 35.5646 46.9687 36.7949 47.7907C38.0251 48.6128 39.4715 49.0516 40.9512 49.0516C42.9345 49.0493 44.836 48.2604 46.2385 46.858C47.6409 45.4556 48.4299 43.5542 48.4323 41.5708ZM50.2448 41.5708C50.2448 43.4089 49.6998 45.2058 48.6787 46.7341C47.6575 48.2625 46.2061 49.4537 44.5079 50.1572C42.8097 50.8607 40.9411 51.0448 39.1383 50.6862C37.3355 50.3276 35.6795 49.4425 34.3797 48.1428C33.08 46.8431 32.1948 45.1871 31.8362 43.3844C31.4776 41.5816 31.6616 39.7129 32.365 38.0147C33.0684 36.3165 34.2596 34.865 35.7879 33.8438C37.3162 32.8226 39.1131 32.2775 40.9512 32.2775C43.415 32.2805 45.7772 33.2605 47.5194 35.0027C49.2617 36.7449 50.2418 39.1069 50.2448 41.5708ZM54.1484 40.1764V42.9642H52.8185C52.6078 42.964 52.4037 43.0373 52.2412 43.1715C52.0787 43.3056 51.968 43.4921 51.9281 43.699C51.6452 45.177 51.0635 46.5816 50.2187 47.8269C50.1006 48.0012 50.0469 48.2111 50.0668 48.4207C50.0866 48.6303 50.1788 48.8264 50.3276 48.9754L51.2688 49.9162L49.2977 51.8873L48.3563 50.9471C48.2074 50.7982 48.0113 50.7058 47.8017 50.6857C47.5921 50.6656 47.382 50.7192 47.2076 50.8372C45.9624 51.6824 44.5578 52.2645 43.0797 52.5478C42.8731 52.5877 42.6868 52.6984 42.5528 52.8608C42.4189 53.0232 42.3456 53.2272 42.3457 53.4377V54.7681H39.5567V53.4377C39.5567 53.2272 39.4835 53.0232 39.3495 52.8608C39.2156 52.6984 39.0293 52.5877 38.8226 52.5478C37.3446 52.2646 35.9399 51.6827 34.6946 50.8378C34.5203 50.7198 34.3103 50.6662 34.1007 50.6862C33.8911 50.7062 33.695 50.7986 33.5461 50.9474L32.6048 51.8877L30.6337 49.9166L31.574 48.9758C31.7229 48.8269 31.8153 48.6308 31.8353 48.4212C31.8554 48.2116 31.8018 48.0016 31.6839 47.8272C30.8391 46.5819 30.2575 45.1773 29.9744 43.6994C29.9346 43.4924 29.8239 43.3059 29.6614 43.1717C29.4989 43.0376 29.2948 42.9643 29.0841 42.9644H27.7539V40.1764H29.0838C29.2945 40.1764 29.4985 40.1031 29.661 39.969C29.8235 39.8349 29.9342 39.6485 29.9742 39.4417C30.2571 37.9637 30.8388 36.559 31.6836 35.3137C31.8016 35.1393 31.8552 34.9293 31.8351 34.7197C31.8151 34.5101 31.7227 34.314 31.5739 34.1652L30.6336 33.2241L32.6047 31.253L33.5459 32.1941C33.6948 32.343 33.8909 32.4354 34.1005 32.4554C34.3101 32.4754 34.5201 32.4218 34.6945 32.3038C35.9398 31.4587 37.3445 30.8766 38.8225 30.5933C39.0292 30.5533 39.2155 30.4426 39.3494 30.2802C39.4834 30.1178 39.5566 29.9139 39.5566 29.7033V28.3735H42.3456V29.704C42.3455 29.9145 42.4188 30.1184 42.5527 30.2808C42.6867 30.4432 42.873 30.5539 43.0796 30.5938C44.5577 30.8771 45.9624 31.4592 47.2076 32.3044C47.382 32.4224 47.5921 32.476 47.8018 32.4559C48.0115 32.4359 48.2076 32.3434 48.3565 32.1944L49.2977 31.2536L51.2688 33.2247L50.3275 34.1657C50.1787 34.3147 50.0866 34.5109 50.0667 34.7205C50.0469 34.93 50.1006 35.14 50.2187 35.3143C51.0632 36.5598 51.6448 37.9644 51.9281 39.4422C51.968 39.6491 52.0787 39.8356 52.2412 39.9697C52.4037 40.1037 52.6079 40.177 52.8185 40.1769L54.1484 40.1764ZM3.85156 46.9665V10.9944H9.47711C9.71746 10.9944 9.94797 10.8989 10.1179 10.7289C10.2879 10.559 10.3834 10.3285 10.3834 10.0881V4.47119H33.9641V30.0489L33.2458 29.3304C33.1616 29.2462 33.0617 29.1793 32.9517 29.1338C32.8417 29.0882 32.7237 29.0647 32.6047 29.0647C32.4856 29.0647 32.3677 29.0882 32.2577 29.1338C32.1477 29.1793 32.0477 29.2462 31.9636 29.3304L28.7111 32.5835C28.6268 32.6676 28.5599 32.7674 28.5143 32.8774C28.4687 32.9873 28.4452 33.1052 28.4452 33.2242C28.4452 33.3433 28.4687 33.4612 28.5143 33.5711C28.5599 33.681 28.6268 33.7809 28.7111 33.865L29.7791 34.9333C29.1411 36.0017 28.6622 37.1574 28.3576 38.3639H26.8477C26.6073 38.3639 26.3768 38.4594 26.2068 38.6294C26.0369 38.7993 25.9414 39.0298 25.9414 39.2702V43.8709C25.9414 44.1112 26.0369 44.3417 26.2068 44.5117C26.3768 44.6816 26.6073 44.7771 26.8477 44.7771H28.3576C28.5479 45.5286 28.8057 46.2613 29.1279 46.9664L3.85156 46.9665ZM5.13504 9.18188H8.57086V5.75127L5.13504 9.18188ZM55.9609 39.2703V43.8704C55.9609 44.1108 55.8655 44.3413 55.6955 44.5112C55.5255 44.6812 55.295 44.7767 55.0547 44.7767H53.5448C53.2401 45.9833 52.7612 47.1391 52.1231 48.2076L53.1913 49.2756C53.2756 49.3597 53.3424 49.4596 53.3881 49.5696C53.4337 49.6796 53.4572 49.7975 53.4572 49.9165C53.4572 50.0356 53.4337 50.1535 53.3881 50.2634C53.3424 50.3734 53.2756 50.4733 53.1913 50.5574L49.9379 53.8108C49.7679 53.9807 49.5375 54.0761 49.2972 54.0761C49.0569 54.0761 48.8265 53.9807 48.6566 53.8108L47.5883 52.7425C46.5199 53.38 45.3644 53.8588 44.1582 54.1639V55.6743C44.1582 55.9147 44.0627 56.1452 43.8927 56.3151C43.7228 56.4851 43.4923 56.5806 43.2519 56.5806H38.6504C38.4101 56.5806 38.1796 56.4851 38.0096 56.3151C37.8397 56.1452 37.7442 55.9147 37.7442 55.6743V54.1638C36.5379 53.8589 35.3823 53.3802 34.3138 52.7427L33.2458 53.8108C33.0756 53.9806 32.845 54.076 32.6046 54.076C32.3641 54.076 32.1335 53.9806 31.9633 53.8108L28.7111 50.5576C28.6268 50.4735 28.56 50.3737 28.5143 50.2637C28.4687 50.1537 28.4452 50.0359 28.4452 49.9168C28.4452 49.7977 28.4687 49.6799 28.5143 49.5699C28.56 49.4599 28.6268 49.36 28.7111 49.276L29.2074 48.7789H2.94531C2.70496 48.7789 2.47445 48.6834 2.3045 48.5135C2.13454 48.3435 2.03906 48.113 2.03906 47.8726V10.0882C2.03935 9.8477 2.13514 9.61712 2.30539 9.44718L8.83718 2.92377C8.9212 2.83971 9.02096 2.77303 9.13076 2.72754C9.24057 2.68206 9.35826 2.65866 9.47711 2.65869H34.8702C35.1106 2.65869 35.3411 2.75417 35.5111 2.92413C35.681 3.09408 35.7765 3.32459 35.7765 3.56494V29.6504C36.4131 29.3734 37.0711 29.1483 37.7441 28.9773V27.4673C37.7441 27.2269 37.8395 26.9964 38.0095 26.8265C38.1795 26.6565 38.41 26.561 38.6503 26.561H43.2519C43.4923 26.561 43.7228 26.6565 43.8927 26.8265C44.0627 26.9964 44.1582 27.2269 44.1582 27.4673V28.9776C45.3644 29.2826 46.5199 29.7614 47.5883 30.399L48.6566 29.3309C48.7407 29.2467 48.8405 29.1799 48.9504 29.1343C49.0604 29.0888 49.1782 29.0653 49.2972 29.0653C49.4162 29.0653 49.534 29.0888 49.6439 29.1343C49.7538 29.1799 49.8537 29.2467 49.9378 29.3309L53.1912 32.5839C53.2755 32.668 53.3423 32.7679 53.388 32.8778C53.4336 32.9878 53.457 33.1057 53.457 33.2247C53.457 33.3438 53.4336 33.4617 53.388 33.5717C53.3423 33.6816 53.2755 33.7815 53.1912 33.8656L52.123 34.9337C52.7607 36.0023 53.2396 37.158 53.5447 38.3645H55.0547C55.295 38.3645 55.5255 38.46 55.6955 38.6299C55.8655 38.7999 55.9609 39.0304 55.9609 39.2707V39.2703ZM40.9512 38.4804C39.8455 38.4804 39.0187 39.057 39.0186 39.5725C39.0186 40.1896 39.389 40.3857 41.103 40.6772C42.5337 40.9207 44.6965 41.2882 44.6963 43.5689C44.6963 44.9542 43.5057 46.0844 41.8575 46.3909V47.1996C41.8575 47.44 41.7621 47.6705 41.5921 47.8405C41.4221 48.0104 41.1916 48.1059 40.9513 48.1059C40.7109 48.1059 40.4804 48.0104 40.3105 47.8405C40.1405 47.6705 40.045 47.44 40.045 47.1996V46.3911C38.3968 46.0846 37.2063 44.9544 37.2062 43.5691C37.2062 43.3287 37.3017 43.0982 37.4716 42.9283C37.6416 42.7583 37.8721 42.6628 38.1125 42.6628C38.3528 42.6628 38.5833 42.7583 38.7533 42.9283C38.9232 43.0982 39.0187 43.3287 39.0187 43.5691C39.0187 44.0844 39.8457 44.6608 40.9513 44.6609C42.0569 44.661 42.8839 44.0842 42.8839 43.5691C42.8839 42.952 42.5134 42.7558 40.7995 42.4642C39.3687 42.221 37.2063 41.8532 37.2062 39.5727C37.2062 38.1873 38.3969 37.0571 40.0453 36.7505V35.9419C40.0453 35.7015 40.1407 35.471 40.3107 35.301C40.4807 35.1311 40.7112 35.0356 40.9515 35.0356C41.1919 35.0356 41.4224 35.1311 41.5923 35.301C41.7623 35.471 41.8578 35.7015 41.8578 35.9419V36.7508C43.506 37.0573 44.6968 38.1873 44.6966 39.5729C44.6966 39.8132 44.6011 40.0437 44.4312 40.2137C44.2612 40.3836 44.0307 40.4791 43.7903 40.4791C43.55 40.4791 43.3195 40.3836 43.1495 40.2137C42.9796 40.0437 42.8841 39.8132 42.8841 39.5729C42.8841 39.0575 42.0571 38.4807 40.9515 38.4807L40.9512 38.4804ZM12.9664 20.714L11.6555 22.0254C11.5686 22.1089 11.4992 22.2089 11.4515 22.3195C11.4037 22.4302 11.3785 22.5492 11.3772 22.6697C11.376 22.7902 11.3989 22.9098 11.4444 23.0214C11.49 23.1329 11.5573 23.2343 11.6426 23.3195C11.7278 23.4048 11.8291 23.4721 11.9407 23.5177C12.0522 23.5633 12.1718 23.5862 12.2923 23.585C12.4128 23.5838 12.5319 23.5586 12.6425 23.5109C12.7532 23.4631 12.8532 23.3938 12.9367 23.3069L14.2474 21.9958L15.5593 23.3067C15.7304 23.4711 15.9591 23.5618 16.1963 23.5594C16.4336 23.557 16.6604 23.4617 16.8281 23.2939C16.9959 23.1261 17.0911 22.8992 17.0934 22.662C17.0957 22.4247 17.0048 22.196 16.8404 22.025L15.5297 20.714L16.8406 19.4029C17.0105 19.2328 17.1059 19.0022 17.1058 18.7618C17.1057 18.5214 17.0101 18.2909 16.84 18.121C16.6699 17.951 16.4393 17.8557 16.1989 17.8558C15.9585 17.8559 15.728 17.9515 15.558 18.1216L14.2474 19.4327L12.9367 18.1216C12.7667 17.9515 12.5361 17.856 12.2956 17.8559C12.0551 17.8559 11.8245 17.9514 11.6544 18.1214C11.4844 18.2914 11.3888 18.522 11.3888 18.7625C11.3887 19.003 11.4842 19.2336 11.6543 19.4037L12.9663 20.7142L12.9664 20.714ZM26.1838 36.788C26.268 36.8721 26.3679 36.9389 26.4778 36.9845C26.5877 37.0301 26.7056 37.0536 26.8246 37.0536C26.9436 37.0537 27.0615 37.0303 27.1715 36.9848C27.2815 36.9393 27.3814 36.8725 27.4656 36.7884C27.5498 36.7043 27.6166 36.6044 27.6622 36.4944C27.7078 36.3845 27.7313 36.2666 27.7313 36.1476C27.7313 36.0286 27.7079 35.9107 27.6624 35.8007C27.6169 35.6908 27.5502 35.5908 27.4661 35.5066L26.1545 34.1951L27.4661 32.8839C27.5523 32.8003 27.621 32.7003 27.6682 32.5899C27.7154 32.4794 27.7402 32.3607 27.7411 32.2405C27.742 32.1204 27.719 32.0013 27.6735 31.8901C27.628 31.779 27.5608 31.678 27.4759 31.593C27.391 31.5081 27.29 31.4408 27.1789 31.3952C27.0677 31.3496 26.9487 31.3266 26.8285 31.3274C26.7084 31.3282 26.5897 31.353 26.4792 31.4001C26.3687 31.4473 26.2687 31.5159 26.185 31.6021L24.8732 32.9129L23.5625 31.6021C23.3917 31.4362 23.1625 31.3442 22.9245 31.346C22.6864 31.3477 22.4586 31.4431 22.2903 31.6114C22.122 31.7797 22.0267 32.0076 22.0249 32.2456C22.0232 32.4837 22.1152 32.7128 22.2811 32.8836L23.5917 34.1945L22.2802 35.505C22.196 35.5892 22.1292 35.6892 22.0836 35.7992C22.0381 35.9092 22.0146 36.0271 22.0146 36.1462C22.0146 36.2653 22.0381 36.3832 22.0836 36.4932C22.1292 36.6032 22.196 36.7031 22.2802 36.7873C22.3644 36.8715 22.4644 36.9383 22.5744 36.9839C22.6844 37.0294 22.8023 37.0529 22.9214 37.0529C23.0404 37.0529 23.1583 37.0294 23.2684 36.9838C23.3784 36.9383 23.4783 36.8715 23.5625 36.7873L24.8732 35.4766L26.1838 36.788ZM12.2832 36.4392C12.0155 36.439 11.7538 36.5182 11.5312 36.6668C11.3085 36.8154 11.1349 37.0267 11.0324 37.274C10.9298 37.5212 10.9029 37.7933 10.955 38.0559C11.0072 38.3185 11.136 38.5597 11.3252 38.749C11.5144 38.9383 11.7555 39.0673 12.018 39.1196C12.2806 39.1719 12.5527 39.1452 12.8 39.0428C13.0473 38.9404 13.2587 38.767 13.4075 38.5444C13.5562 38.3219 13.6356 38.0602 13.6357 37.7925C13.6352 37.4339 13.4925 37.0901 13.239 36.8364C12.9855 36.5828 12.6418 36.4399 12.2832 36.4392ZM13.1441 34.7467C13.1282 31.4414 15.8439 30.2896 18.9577 28.9694C22.2202 27.5857 25.9189 26.0174 25.9189 21.5106V20.9507C26.2561 21.2886 26.4853 21.612 26.9554 21.6122C27.1344 21.6117 27.3092 21.5582 27.4578 21.4586C27.6065 21.359 27.7224 21.2176 27.791 21.0523C27.8595 20.887 27.8776 20.705 27.8431 20.5294C27.8085 20.3538 27.7228 20.1924 27.5967 20.0654L25.6548 18.1223C25.4847 17.9524 25.2543 17.8569 25.014 17.8567C24.7736 17.8564 24.543 17.9514 24.3726 18.1209L22.4286 20.0644C22.2627 20.2351 22.1706 20.4643 22.1723 20.7023C22.174 20.9404 22.2693 21.1682 22.4376 21.3366C22.6059 21.5049 22.8337 21.6003 23.0717 21.6021C23.3098 21.6039 23.539 21.5119 23.7098 21.3461L24.1063 20.9496V21.5099C24.1063 24.8167 21.392 25.9676 18.2507 27.3001C14.9679 28.6922 11.274 30.2596 11.3304 34.7735C10.6053 35.0021 9.98674 35.4839 9.58767 36.131C9.1886 36.7781 9.03571 37.5471 9.15693 38.2976C9.27814 39.0482 9.66538 39.73 10.2479 40.2185C10.8304 40.7071 11.5692 40.9697 12.3294 40.9584C13.0895 40.9471 13.8202 40.6626 14.3879 40.157C14.9556 39.6513 15.3224 38.9583 15.4213 38.2045C15.5201 37.4507 15.3445 36.6866 14.9263 36.0516C14.5082 35.4167 13.8756 34.9534 13.144 34.7465L13.1441 34.7467ZM21.3106 13.9766L23.2453 15.9283C23.3294 16.0132 23.4293 16.0805 23.5395 16.1266C23.6497 16.1727 23.7678 16.1965 23.8872 16.1967C24.0067 16.197 24.1249 16.1736 24.2353 16.128C24.3456 16.0824 24.4459 16.0154 24.5303 15.9309L28.4336 12.0271C28.6036 11.857 28.699 11.6264 28.699 11.386C28.6989 11.1456 28.6033 10.9151 28.4333 10.7451C28.2633 10.5751 28.0327 10.4797 27.7923 10.4797C27.5519 10.4798 27.3213 10.5754 27.1514 10.7454L23.8921 14.0058L22.5973 12.7004C22.5142 12.6132 22.4145 12.5435 22.304 12.4953C22.1936 12.4471 22.0747 12.4214 21.9542 12.4198C21.8338 12.4181 21.7142 12.4404 21.6024 12.4855C21.4907 12.5306 21.3891 12.5975 21.3035 12.6824C21.218 12.7672 21.1502 12.8682 21.1041 12.9796C21.0581 13.0909 21.0347 13.2103 21.0354 13.3308C21.036 13.4513 21.0607 13.5704 21.1079 13.6812C21.1551 13.7921 21.224 13.8924 21.3105 13.9763L21.3106 13.9766Z" fill="white"/>
<path id="Vector_2" fill-rule="evenodd" clip-rule="evenodd" d="M39.0186 39.5725C39.0187 39.057 39.8455 38.4804 40.9512 38.4804C42.0568 38.4804 42.8841 39.0575 42.8841 39.5729C42.8841 39.8132 42.9796 40.0437 43.1495 40.2137C43.3195 40.3836 43.55 40.4791 43.7903 40.4791C44.0307 40.4791 44.2612 40.3836 44.4312 40.2137C44.6011 40.0437 44.6966 39.8132 44.6966 39.5729C44.6968 38.1873 43.506 37.0573 41.8578 36.7508V35.9419C41.8578 35.7015 41.7623 35.471 41.5923 35.301C41.4224 35.1311 41.1919 35.0356 40.9515 35.0356C40.7112 35.0356 40.4807 35.1311 40.3107 35.301C40.1407 35.471 40.0453 35.7015 40.0453 35.9419V36.7505C38.3969 37.0571 37.2062 38.1873 37.2062 39.5727C37.2063 41.8532 39.3687 42.221 40.7995 42.4642C42.5134 42.7558 42.8839 42.952 42.8839 43.5691C42.8839 44.0842 42.0569 44.661 40.9513 44.6609C39.8457 44.6608 39.0187 44.0844 39.0187 43.5691C39.0187 43.3287 38.9232 43.0982 38.7533 42.9283C38.5833 42.7583 38.3528 42.6628 38.1125 42.6628C37.8721 42.6628 37.6416 42.7583 37.4716 42.9283C37.3017 43.0982 37.2062 43.3287 37.2062 43.5691C37.2063 44.9544 38.3968 46.0846 40.045 46.3911V47.1996C40.045 47.44 40.1405 47.6705 40.3105 47.8405C40.4804 48.0104 40.7109 48.1059 40.9513 48.1059C41.1916 48.1059 41.4221 48.0104 41.5921 47.8405C41.7621 47.6705 41.8575 47.44 41.8575 47.1996V46.3909C43.5057 46.0844 44.6963 44.9542 44.6963 43.5689C44.6965 41.2882 42.5337 40.9207 41.103 40.6772C39.389 40.3857 39.0186 40.1896 39.0186 39.5725ZM11.6555 22.0254L12.9664 20.714L11.6543 19.4037C11.4842 19.2336 11.3887 19.003 11.3888 18.7625C11.3888 18.522 11.4844 18.2914 11.6544 18.1214C11.8245 17.9514 12.0551 17.8559 12.2956 17.8559C12.5361 17.856 12.7667 17.9515 12.9367 18.1216L14.2474 19.4327L15.558 18.1216C15.728 17.9515 15.9585 17.8559 16.1989 17.8558C16.4393 17.8557 16.6699 17.951 16.84 18.121C17.0101 18.2909 17.1057 18.5214 17.1058 18.7618C17.1059 19.0022 17.0105 19.2328 16.8406 19.4029L15.5297 20.714L16.8404 22.025C17.0048 22.196 17.0957 22.4247 17.0934 22.662C17.0911 22.8992 16.9959 23.1261 16.8281 23.2939C16.6604 23.4617 16.4336 23.557 16.1963 23.5594C15.9591 23.5618 15.7304 23.4711 15.5593 23.3067L14.2474 21.9958L12.9367 23.3069C12.8532 23.3938 12.7532 23.4631 12.6425 23.5109C12.5319 23.5586 12.4128 23.5838 12.2923 23.585C12.1718 23.5862 12.0522 23.5633 11.9407 23.5177C11.8291 23.4721 11.7278 23.4048 11.6426 23.3195C11.5573 23.2343 11.49 23.1329 11.4444 23.0214C11.3989 22.9098 11.376 22.7902 11.3772 22.6697C11.3785 22.5492 11.4037 22.4302 11.4515 22.3195C11.4992 22.2089 11.5686 22.1089 11.6555 22.0254ZM26.4778 36.9845C26.3679 36.9389 26.268 36.8721 26.1838 36.788L24.8732 35.4766L23.5625 36.7873C23.4783 36.8715 23.3784 36.9383 23.2684 36.9838C23.1583 37.0294 23.0404 37.0529 22.9214 37.0529C22.8023 37.0529 22.6844 37.0294 22.5744 36.9839C22.4644 36.9383 22.3644 36.8715 22.2802 36.7873C22.196 36.7031 22.1292 36.6032 22.0836 36.4932C22.0381 36.3832 22.0146 36.2653 22.0146 36.1462C22.0146 36.0271 22.0381 35.9092 22.0836 35.7992C22.1292 35.6892 22.196 35.5892 22.2802 35.505L23.5917 34.1945L22.2811 32.8836C22.1152 32.7128 22.0232 32.4837 22.0249 32.2456C22.0267 32.0076 22.122 31.7797 22.2903 31.6114C22.4586 31.4431 22.6864 31.3477 22.9245 31.346C23.1625 31.3442 23.3917 31.4362 23.5625 31.6021L24.8732 32.9129L26.185 31.6021C26.2687 31.5159 26.3687 31.4473 26.4792 31.4001C26.5897 31.353 26.7084 31.3282 26.8285 31.3274C26.9487 31.3266 27.0677 31.3496 27.1789 31.3952C27.29 31.4408 27.391 31.5081 27.4759 31.593C27.5608 31.678 27.628 31.779 27.6735 31.8901C27.719 32.0013 27.742 32.1204 27.7411 32.2405C27.7402 32.3607 27.7154 32.4794 27.6682 32.5899C27.621 32.7003 27.5523 32.8003 27.4661 32.8839L26.1545 34.1951L27.4661 35.5066C27.5502 35.5908 27.6169 35.6908 27.6624 35.8007C27.7079 35.9107 27.7313 36.0286 27.7313 36.1476C27.7313 36.2666 27.7078 36.3845 27.6622 36.4944C27.6166 36.6044 27.5498 36.7043 27.4656 36.7884C27.3814 36.8725 27.2815 36.9393 27.1715 36.9848C27.0615 37.0303 26.9436 37.0537 26.8246 37.0536C26.7056 37.0536 26.5877 37.0301 26.4778 36.9845ZM23.2453 15.9283L21.3106 13.9766C21.2241 13.8927 21.1551 13.7921 21.1079 13.6812C21.0607 13.5704 21.036 13.4513 21.0354 13.3308C21.0347 13.2103 21.0581 13.0909 21.1041 12.9796C21.1502 12.8682 21.218 12.7672 21.3035 12.6824C21.3891 12.5975 21.4907 12.5306 21.6024 12.4855C21.7142 12.4404 21.8338 12.4181 21.9542 12.4198C22.0747 12.4214 22.1936 12.4471 22.304 12.4953C22.4145 12.5435 22.5142 12.6132 22.5973 12.7004L23.8921 14.0058L27.1514 10.7454C27.3213 10.5754 27.5519 10.4798 27.7923 10.4797C28.0327 10.4797 28.2633 10.5751 28.4333 10.7451C28.6033 10.9151 28.6989 11.1456 28.699 11.386C28.699 11.6264 28.6036 11.857 28.4336 12.0271L24.5303 15.9309C24.4459 16.0154 24.3456 16.0824 24.2353 16.128C24.1249 16.1736 24.0067 16.197 23.8872 16.1967C23.7678 16.1965 23.6497 16.1727 23.5395 16.1266C23.4293 16.0805 23.3294 16.0132 23.2453 15.9283Z" fill="#28FFC7"/>
</g>
</g>
</svg>
