<svg width="70" height="71" viewBox="0 0 70 71" fill="none" xmlns="http://www.w3.org/2000/svg">
<g id="Setting Robust Business Models 2">
<g id="Group">
<g id="Group_2">
<g id="Group_3">
<path id="Vector" d="M40.091 22.1502H30.2273C28.4243 22.1502 26.9395 20.6653 26.9395 18.8623V5.18046C26.9395 3.37743 28.4243 1.89258 30.2273 1.89258H37.0152C37.8637 1.89258 38.7122 2.21076 39.3485 2.84712L42.4243 5.92288C43.0607 6.55924 43.3788 7.40773 43.3788 8.25621V18.7562C43.3788 20.6653 41.894 22.1502 40.091 22.1502ZM30.1213 3.90773C29.4849 3.90773 28.9546 4.43803 28.9546 5.0744V18.7562C28.9546 19.3926 29.4849 19.9229 30.1213 19.9229H39.9849C40.6213 19.9229 41.1516 19.3926 41.1516 18.7562V8.25621C41.1516 7.93803 41.0455 7.61985 40.8334 7.40773L37.7576 4.33197C37.5455 4.11985 37.2273 4.01379 36.9091 4.01379H30.1213V3.90773Z" fill="white"/>
</g>
<g id="Group_4">
<path id="Vector_2" d="M35.106 28.938C34.4697 28.938 34.0454 28.5138 34.0454 27.8774V20.9835C34.0454 20.3471 34.4697 19.9229 35.106 19.9229C35.7424 19.9229 36.1666 20.3471 36.1666 20.9835V27.8774C36.1666 28.5138 35.6363 28.938 35.106 28.938Z" fill="white"/>
</g>
<g id="Group_5">
<path id="Vector_3" d="M35.0001 57.8927C34.3637 57.8927 33.9395 57.4685 33.9395 56.8321V49.3018C33.9395 48.6655 34.3637 48.2412 35.0001 48.2412C35.6364 48.2412 36.0607 48.6655 36.0607 49.3018V56.8321C36.0607 57.3624 35.6364 57.8927 35.0001 57.8927Z" fill="white"/>
</g>
<g id="Group_6">
<path id="Vector_4" d="M34.9998 50.3623C34.1513 50.3623 33.1968 50.2562 32.3483 50.0441C31.818 49.938 31.4998 49.4077 31.4998 48.8774C31.6059 48.2411 31.3938 47.7108 31.0756 47.4986C30.7574 47.3926 30.2271 47.6047 29.8028 48.135C29.4847 48.5592 28.8483 48.6653 28.4241 48.3471C27.0453 47.3926 25.8786 46.2259 25.0301 44.8471C24.7119 44.4229 24.818 43.7865 25.2422 43.4683C25.7725 43.0441 25.9847 42.5138 25.8786 42.1956C25.7725 41.8774 25.2422 41.6653 24.6059 41.7714C24.0756 41.7714 23.5453 41.4532 23.4392 40.9229C23.121 39.332 23.121 37.635 23.5453 36.0441C23.6513 35.5138 24.1816 35.1956 24.7119 35.1956C25.3483 35.3017 25.8786 35.0896 26.0907 34.7714C26.1968 34.4532 25.9847 33.9229 25.4544 33.4986C25.0301 33.1805 24.9241 32.5441 25.2422 32.1199C26.1968 30.7411 27.3634 29.5744 28.7422 28.7259C29.1665 28.4077 29.8028 28.5138 30.121 28.938C30.5453 29.4683 31.0756 29.6805 31.3938 29.5744C31.7119 29.4683 31.9241 28.938 31.818 28.3017C31.818 27.7714 32.1362 27.2411 32.6665 27.135C34.2574 26.8168 35.9544 26.8168 37.5453 27.2411C38.0756 27.3471 38.3938 27.8774 38.3938 28.4077C38.2877 29.0441 38.4998 29.5744 38.818 29.7865C39.1362 29.8926 39.6665 29.6805 40.0907 29.1502C40.4089 28.7259 41.0453 28.6199 41.4695 28.938C42.8483 29.8926 44.015 31.0592 44.8634 32.438C45.1816 32.8623 45.0756 33.4986 44.6513 33.8168C44.121 34.2411 43.9089 34.7714 44.015 35.0896C44.121 35.4077 44.6513 35.6199 45.2877 35.5138C45.818 35.5138 46.3483 35.832 46.4544 36.3623C46.7725 37.9532 46.7725 39.6502 46.3483 41.2411C46.2422 41.7714 45.7119 42.0896 45.1816 42.0896C44.5453 41.9835 44.015 42.1956 43.8028 42.5138C43.6968 42.832 43.9089 43.3623 44.4392 43.7865C44.8635 44.1047 44.9695 44.7411 44.6513 45.1653C43.6968 46.5441 42.5301 47.7108 41.1513 48.5592C40.7271 48.8774 40.0907 48.7714 39.7725 48.3471C39.3483 47.8168 38.818 47.6047 38.4998 47.7108C38.1816 47.8168 37.9695 48.3471 38.0756 48.9835C38.0756 49.5138 37.7574 50.0441 37.2271 50.1502C36.4847 50.3623 35.7422 50.3623 34.9998 50.3623ZM33.621 48.135C34.3634 48.2411 35.2119 48.2411 36.0604 48.135C36.2725 46.9683 36.9089 46.0138 37.8634 45.6956C38.818 45.2714 39.8786 45.5896 40.8331 46.2259C41.4695 45.6956 41.9998 45.1653 42.5301 44.5289C41.7877 43.5744 41.6816 42.5138 41.9998 41.5592C42.4241 40.6047 43.3786 39.9683 44.5453 39.8623C44.6513 39.1199 44.6513 38.2714 44.5453 37.4229C43.3786 37.2108 42.4241 36.5744 42.1059 35.6199C41.6816 34.6653 41.9998 33.6047 42.6362 32.6502C42.1059 32.0138 41.5756 31.4835 40.9392 30.9532C39.9847 31.6956 38.9241 31.8017 37.9695 31.4835C37.015 31.0592 36.3786 30.1047 36.2725 28.938C35.5301 28.832 34.6816 28.832 33.8331 28.938C33.621 30.1047 32.9847 31.0592 32.0301 31.3774C31.0756 31.8017 30.015 31.4835 29.0604 30.8471C28.4241 31.3774 27.8938 31.9077 27.3634 32.5441C28.1059 33.4986 28.2119 34.5593 27.8938 35.5138C27.4695 36.4683 26.515 37.1047 25.3483 37.2108C25.2422 37.9532 25.2422 38.8017 25.3483 39.6502C26.515 39.8623 27.4695 40.4986 27.7877 41.4532C28.2119 42.4077 27.8938 43.4683 27.2574 44.4229C27.7877 45.0592 28.318 45.5896 28.9544 46.1199C29.9089 45.3774 30.9695 45.2714 31.9241 45.5896C32.8786 46.1199 33.515 46.9683 33.621 48.135Z" fill="#28FFC7"/>
</g>
<g id="Group_7">
<path id="Vector_5" d="M34.9999 43.9985C34.2575 43.9985 33.5151 43.8924 32.7727 43.4682C30.0151 42.1955 28.8484 39.0136 30.1211 36.2561C31.3939 33.4985 34.5757 32.3318 37.3333 33.6045C40.0908 34.8773 41.2575 38.0591 39.9848 40.8167C39.0302 42.8318 37.0151 43.9985 34.9999 43.9985ZM34.9999 35.3015C33.7272 35.3015 32.5605 36.0439 32.0302 37.2106C31.2878 38.9076 32.0302 40.8167 33.6212 41.5591C35.3181 42.3015 37.2272 41.5591 37.9696 39.9682C38.7121 38.2712 37.9696 36.3621 36.3787 35.6197C35.9545 35.4076 35.4242 35.3015 34.9999 35.3015Z" fill="#28FFC7"/>
</g>
<g id="Group_8">
<path id="Vector_6" d="M60.5604 21.9381C59.924 21.9381 59.4997 21.5139 59.4997 20.8775V16.9533C59.4997 14.726 57.6967 12.923 55.4694 12.923H42.3179C41.6816 12.923 41.2573 12.4987 41.2573 11.8624C41.2573 11.226 41.6816 10.8018 42.3179 10.8018H55.4694C58.8634 10.8018 61.621 13.5593 61.621 16.9533V20.8775C61.621 21.5139 61.0907 21.9381 60.5604 21.9381Z" fill="white"/>
</g>
<g id="Group_9">
<path id="Vector_7" d="M60.5608 22.8924C60.2426 22.8924 60.0305 22.7863 59.8184 22.5742L56.6365 19.3924C56.2123 18.9681 56.2123 18.3318 56.6365 17.9075C57.0608 17.4833 57.6971 17.4833 58.1214 17.9075L60.5608 20.3469L63.0002 17.9075C63.4244 17.4833 64.0608 17.4833 64.485 17.9075C64.9093 18.3318 64.9093 18.9681 64.485 19.3924L61.3032 22.5742C61.0911 22.7863 60.879 22.8924 60.5608 22.8924Z" fill="white"/>
</g>
<g id="Group_10">
<path id="Vector_8" d="M9.65143 21.9381C9.01506 21.9381 8.59082 21.5139 8.59082 20.8775V16.9533C8.59082 13.5593 11.3484 10.8018 14.7423 10.8018H27.8938C28.5302 10.8018 28.9545 11.226 28.9545 11.8624C28.9545 12.4987 28.5302 12.923 27.8938 12.923H14.7423C12.5151 12.923 10.712 14.726 10.712 16.9533V20.8775C10.712 21.5139 10.2878 21.9381 9.65143 21.9381Z" fill="white"/>
</g>
<g id="Group_11">
<path id="Vector_9" d="M9.6516 22.8924C9.33342 22.8924 9.1213 22.7863 8.90918 22.5742L5.72736 19.3924C5.30312 18.9681 5.30312 18.3318 5.72736 17.9075C6.1516 17.4833 6.78797 17.4833 7.21221 17.9075L9.6516 20.3469L12.091 17.9075C12.5152 17.4833 13.1516 17.4833 13.5758 17.9075C14.0001 18.3318 14.0001 18.9681 13.5758 19.3924L10.394 22.5742C10.1819 22.7863 9.96979 22.8924 9.6516 22.8924Z" fill="white"/>
</g>
<g id="Group_12">
<path id="Vector_10" d="M9.6516 50.1502C9.33342 50.1502 9.1213 50.0441 8.90918 49.832L5.72736 46.6502C5.30312 46.226 5.30312 45.5896 5.72736 45.1653C6.1516 44.7411 6.78797 44.7411 7.21221 45.1653L9.6516 47.6047L12.091 45.1653C12.5152 44.7411 13.1516 44.7411 13.5758 45.1653C14.0001 45.5896 14.0001 46.226 13.5758 46.6502L10.394 49.832C10.1819 50.0441 9.96979 50.1502 9.6516 50.1502Z" fill="white"/>
</g>
<g id="Group_13">
<path id="Vector_11" d="M16.9694 38.9077H2.33307C1.6967 38.9077 1.27246 38.4835 1.27246 37.8471V27.4532C1.27246 26.8168 1.6967 26.3926 2.33307 26.3926H16.9694C17.6058 26.3926 18.03 26.8168 18.03 27.4532V37.8471C18.03 38.3774 17.4997 38.9077 16.9694 38.9077ZM3.39367 36.7865H15.9088V28.5138H3.39367V36.7865Z" fill="white"/>
</g>
<g id="Group_14">
<path id="Vector_12" d="M67.8786 38.9077H53.2422C52.6059 38.9077 52.1816 38.4835 52.1816 37.8471V27.4532C52.1816 26.8168 52.6059 26.3926 53.2422 26.3926H67.8786C68.515 26.3926 68.9392 26.8168 68.9392 27.4532V37.8471C68.9392 38.3774 68.4089 38.9077 67.8786 38.9077ZM54.3029 36.7865H66.818V28.5138H54.3029V36.7865Z" fill="white"/>
</g>
<g id="Group_15">
<path id="Vector_13" d="M9.65143 49.8318C9.01506 49.8318 8.59082 49.4076 8.59082 48.7712V42.0894C8.59082 41.4531 9.01506 41.0288 9.65143 41.0288C10.2878 41.0288 10.712 41.4531 10.712 42.0894V48.7712C10.712 49.3015 10.2878 49.8318 9.65143 49.8318Z" fill="white"/>
</g>
<g id="Group_16">
<path id="Vector_14" d="M60.5608 50.1502C60.2426 50.1502 60.0305 50.0441 59.8184 49.832L56.6365 46.6502C56.2123 46.226 56.2123 45.5896 56.6365 45.1653C57.0608 44.7411 57.6971 44.7411 58.1214 45.1653L60.5608 47.6047L63.0002 45.1653C63.4244 44.7411 64.0608 44.7411 64.485 45.1653C64.9093 45.5896 64.9093 46.226 64.485 46.6502L61.3032 49.832C61.0911 50.0441 60.879 50.1502 60.5608 50.1502Z" fill="white"/>
</g>
<g id="Group_17">
<path id="Vector_15" d="M25.4546 62.1349H16.9698C16.3334 62.1349 15.9092 61.7106 15.9092 61.0743C15.9092 60.4379 16.3334 60.0137 16.9698 60.0137H25.4546C26.091 60.0137 26.5152 60.4379 26.5152 61.0743C26.5152 61.7106 25.9849 62.1349 25.4546 62.1349Z" fill="white"/>
</g>
<g id="Group_18">
<path id="Vector_16" d="M53.2422 62.1349H45.8179C45.1816 62.1349 44.7573 61.7106 44.7573 61.0743C44.7573 60.4379 45.1816 60.0137 45.8179 60.0137H53.2422C53.8785 60.0137 54.3028 60.4379 54.3028 61.0743C54.3028 61.7106 53.8785 62.1349 53.2422 62.1349Z" fill="white"/>
</g>
<g id="Group_19">
<path id="Vector_17" d="M45.8183 65.4227H25.4546C24.8183 65.4227 24.394 64.9984 24.394 64.3621V57.6802C24.394 57.0439 24.8183 56.6196 25.4546 56.6196H45.8183C46.4547 56.6196 46.8789 57.0439 46.8789 57.6802V64.3621C46.8789 64.9984 46.3486 65.4227 45.8183 65.4227ZM26.5153 63.3014H44.7577V58.7408H26.5153V63.3014Z" fill="white"/>
</g>
<g id="Group_20">
<path id="Vector_18" d="M60.5606 49.8318C59.9242 49.8318 59.5 49.4076 59.5 48.7712V42.0894C59.5 41.4531 59.9242 41.0288 60.5606 41.0288C61.197 41.0288 61.6212 41.4531 61.6212 42.0894V48.7712C61.6212 49.3015 61.0909 49.8318 60.5606 49.8318Z" fill="white"/>
</g>
<g id="Group_21">
<path id="Vector_19" d="M9.43933 69.4534C9.12115 69.4534 8.90903 69.3473 8.69691 69.1352L1.37873 61.817C1.16661 61.6049 1.06055 61.3928 1.06055 61.0746C1.06055 60.7564 1.16661 60.5443 1.37873 60.3322L8.69691 53.014C9.12115 52.5897 9.75752 52.5897 10.1818 53.014L17.4999 60.3322C17.9242 60.7564 17.9242 61.3928 17.4999 61.817L10.1818 69.1352C9.96964 69.3473 9.75752 69.4534 9.43933 69.4534ZM3.606 61.0746L9.43933 66.9079L15.2727 61.0746L9.43933 55.2413L3.606 61.0746Z" fill="white"/>
</g>
<g id="Group_22">
<path id="Vector_20" d="M60.5604 69.4534C60.2422 69.4534 60.0301 69.3473 59.818 69.1352L52.4998 61.817C52.2877 61.6049 52.1816 61.3928 52.1816 61.0746C52.1816 60.7564 52.2877 60.5443 52.4998 60.3322L59.818 53.014C60.2422 52.5897 60.8786 52.5897 61.3029 53.014L68.621 60.3322C69.0453 60.7564 69.0453 61.3928 68.621 61.817L61.3029 69.1352C61.0907 69.3473 60.7725 69.4534 60.5604 69.4534ZM54.7271 61.0746L60.5604 66.9079L66.3938 61.0746L60.5604 55.2413L54.7271 61.0746Z" fill="white"/>
</g>
<g id="Group_23">
<g id="Group_24">
<path id="Vector_21" d="M35.3179 8.57434H31.8179C31.1816 8.57434 30.7573 8.15009 30.7573 7.51373C30.7573 6.87737 31.1816 6.45312 31.8179 6.45312H35.424C36.0604 6.45312 36.4846 6.87737 36.4846 7.51373C36.4846 8.15009 35.9543 8.57434 35.3179 8.57434Z" fill="white"/>
</g>
<g id="Group_25">
<path id="Vector_22" d="M38.3937 13.0289H31.8179C31.1816 13.0289 30.7573 12.6047 30.7573 11.9683C30.7573 11.332 31.1816 10.9077 31.8179 10.9077H38.3937C39.0301 10.9077 39.4543 11.332 39.4543 11.9683C39.4543 12.6047 39.0301 13.0289 38.3937 13.0289Z" fill="white"/>
</g>
<g id="Group_26">
<path id="Vector_23" d="M38.3937 17.4835H31.8179C31.1816 17.4835 30.7573 17.0593 30.7573 16.4229C30.7573 15.7865 31.1816 15.3623 31.8179 15.3623H38.3937C39.0301 15.3623 39.4543 15.7865 39.4543 16.4229C39.4543 17.0593 39.0301 17.4835 38.3937 17.4835Z" fill="white"/>
</g>
</g>
</g>
</g>
</g>
</svg>
