<svg width="58" height="59" viewBox="0 0 58 59" fill="none" xmlns="http://www.w3.org/2000/svg">
<g id="International Vendor Briefing And Negotiations">
<g id="Group">
<path id="Vector" d="M4.53125 47.7437H6.34375V57.7124H4.53125V47.7437Z" fill="white"/>
<path id="Vector_2" d="M51.6562 41.4H50.7133C51.4176 40.6175 51.8796 39.6474 52.0433 38.6075C52.2069 37.5675 52.0652 36.5024 51.6352 35.5415C51.2053 34.5805 50.5056 33.765 49.6212 33.194C48.7367 32.623 47.7056 32.321 46.6528 32.3247C45.6001 32.3284 44.571 32.6376 43.6906 33.2148C42.8102 33.792 42.1163 34.6124 41.6931 35.5763C41.2699 36.5403 41.1356 37.6064 41.3066 38.6451C41.4775 39.6839 41.9463 40.6507 42.6561 41.4282C41.5993 41.4962 40.5764 41.8278 39.6808 42.3929C38.7853 42.958 38.0456 43.7384 37.5293 44.663L34.8105 49.5562H23.1895L20.4707 44.663C19.921 43.6744 19.1172 42.8506 18.1423 42.2769C17.1674 41.7032 16.0569 41.4004 14.9257 41.4H14.9164C15.6197 40.6187 16.0814 39.6504 16.2457 38.6122C16.41 37.574 16.2698 36.5104 15.8422 35.5502C15.4146 34.59 14.7179 33.7743 13.8363 33.2018C12.9547 32.6294 11.9261 32.3247 10.875 32.3247C9.82388 32.3247 8.79528 32.6294 7.91371 33.2018C7.03214 33.7743 6.33539 34.59 5.90778 35.5502C5.48017 36.5104 5.34004 37.574 5.50434 38.6122C5.66864 39.6504 6.13034 40.6187 6.83355 41.4H6.34375C4.90212 41.4015 3.51999 41.9749 2.5006 42.9943C1.48121 44.0137 0.907826 45.3958 0.90625 46.8375V57.7125H2.71875V46.8375C2.71977 45.8764 3.10202 44.9549 3.78162 44.2753C4.46122 43.5957 5.38265 43.2135 6.34375 43.2125H14.9257C15.7336 43.2127 16.5268 43.4289 17.2232 43.8386C17.9196 44.2483 18.4938 44.8366 18.8865 45.5427L21.8642 50.9023C21.9426 51.0436 22.0574 51.1614 22.1967 51.2434C22.336 51.3254 22.4946 51.3687 22.6562 51.3687H28.0938V54.0875H20.4977L18.0294 49.1509C17.9382 48.9682 17.7879 48.8217 17.603 48.7351C17.418 48.6485 17.2092 48.6269 17.0105 48.6738C16.8117 48.7208 16.6347 48.8334 16.508 48.9936C16.3813 49.1537 16.3124 49.352 16.3125 49.5562V57.7125H18.125V53.3954L18.8764 54.8981C19.026 55.1999 19.2573 55.4537 19.5438 55.6308C19.8304 55.8079 20.1609 55.9011 20.4977 55.9H37.5023C37.8391 55.9011 38.1696 55.8079 38.4562 55.6308C38.7427 55.4537 38.974 55.1999 39.1236 54.8981L39.875 53.3954V57.7125H41.6875V49.5562C41.6876 49.352 41.6187 49.1537 41.492 48.9936C41.3653 48.8334 41.1883 48.7208 40.9895 48.6738C40.7908 48.6269 40.582 48.6485 40.397 48.7351C40.2121 48.8217 40.0618 48.9682 39.9706 49.1509L37.5023 54.0875H29.9062V51.3687H35.3438C35.5054 51.3687 35.664 51.3254 35.8033 51.2434C35.9426 51.1614 36.0574 51.0436 36.1358 50.9023L39.1134 45.5427C39.5061 44.8366 40.0804 44.2483 40.7768 43.8386C41.4731 43.4289 42.2663 43.2127 43.0743 43.2125H51.6562C52.6173 43.2135 53.5388 43.5957 54.2184 44.2753C54.898 44.9549 55.2802 45.8764 55.2812 46.8375V57.7125H57.0938V46.8375C57.0922 45.3958 56.5188 44.0137 55.4994 42.9943C54.48 41.9749 53.0979 41.4015 51.6562 41.4ZM10.875 41.4C10.158 41.4 9.45719 41.1874 8.86106 40.789C8.26493 40.3907 7.8003 39.8246 7.52594 39.1622C7.25157 38.4998 7.17978 37.7709 7.31965 37.0678C7.45952 36.3646 7.80477 35.7187 8.31174 35.2117C8.8187 34.7047 9.46462 34.3595 10.1678 34.2196C10.871 34.0797 11.5998 34.1515 12.2622 34.4259C12.9246 34.7003 13.4908 35.1649 13.8891 35.761C14.2874 36.3571 14.5 37.058 14.5 37.775C14.499 38.7361 14.1167 39.6575 13.4371 40.3371C12.7575 41.0167 11.8361 41.3989 10.875 41.4ZM46.6719 41.4C45.9549 41.4 45.2541 41.1874 44.6579 40.789C44.0618 40.3907 43.5972 39.8246 43.3228 39.1622C43.0484 38.4998 42.9767 37.7709 43.1165 37.0678C43.2564 36.3646 43.6016 35.7187 44.1086 35.2117C44.6156 34.7047 45.2615 34.3595 45.9647 34.2196C46.6679 34.0797 47.3967 34.1515 48.0591 34.4259C48.7215 34.7003 49.2876 35.1649 49.686 35.761C50.0843 36.3571 50.2969 37.058 50.2969 37.775C50.2959 38.7361 49.9136 39.6575 49.234 40.3371C48.5544 41.0167 47.633 41.3989 46.6719 41.4Z" fill="white"/>
<path id="Vector_3" d="M51.6562 47.7437H53.4688V57.7124H51.6562V47.7437Z" fill="white"/>
<path id="Vector_4" d="M11.3087 17.6516C10.393 17.1264 9.34359 16.8806 8.28989 16.9445C7.52029 17.0178 6.77504 17.2536 6.10347 17.6366C5.66852 17.8865 5.1939 18.0598 4.70028 18.149C3.84318 18.2452 2.97715 18.0677 2.22709 17.6419C2.08899 17.5708 1.93492 17.5364 1.77969 17.542C1.62446 17.5476 1.47328 17.593 1.34066 17.6739C1.20803 17.7547 1.09842 17.8683 1.02235 18.0037C0.946278 18.1392 0.906298 18.2919 0.90625 18.4472V24.444C0.906195 24.6104 0.952011 24.7737 1.03866 24.9157C1.12532 25.0578 1.24945 25.1733 1.39744 25.2494C2.26707 25.7208 3.23734 25.9761 4.22637 25.9937C4.47415 25.9936 4.7216 25.9753 4.96669 25.9388C5.65092 25.8229 6.3104 25.5913 6.9168 25.2538C7.37764 24.9795 7.89211 24.8074 8.4253 24.7494C8.95363 24.7168 9.48225 24.8085 9.96875 25.0171V31.4312H11.7812V18.4472C11.7813 18.2844 11.7374 18.1245 11.6542 17.9845C11.571 17.8445 11.4517 17.7295 11.3087 17.6516ZM9.96875 23.105C9.42252 22.957 8.85527 22.9019 8.29077 22.9422C7.52058 23.0145 6.77471 23.2505 6.10303 23.6342C5.66785 23.8835 5.19328 24.0565 4.69981 24.1458C4.02616 24.2314 3.34189 24.1342 2.71875 23.8643V19.7809C3.44813 19.9935 4.21443 20.0485 4.96668 19.942C5.65121 19.8262 6.31091 19.5943 6.91723 19.2561C7.378 18.9823 7.89206 18.8102 8.42485 18.7516C8.95318 18.7196 9.48172 18.8108 9.96875 19.018V23.105Z" fill="#28FFC7"/>
<path id="Vector_5" d="M56.6592 17.6735C56.5267 17.5923 56.3755 17.5467 56.2202 17.5411C56.065 17.5355 55.9109 17.5701 55.7729 17.6416C55.023 18.0678 54.1573 18.2453 53.3002 18.1487C52.8066 18.0595 52.3315 17.8862 51.8966 17.6363C51.1079 17.1702 50.208 16.9256 49.2919 16.9282C48.3758 16.9309 47.4774 17.1807 46.6914 17.6513C46.5483 17.7292 46.429 17.8442 46.3458 17.9842C46.2626 18.1243 46.2187 18.2841 46.2188 18.447V31.4309H48.0312V25.0175C48.5185 24.8105 49.047 24.7187 49.5756 24.7491C50.1085 24.8073 50.6226 24.9793 51.0832 25.2536C51.6895 25.591 52.3488 25.8226 53.0329 25.9386C53.2781 25.975 53.5257 25.9934 53.7736 25.9934C54.7627 25.9758 55.7329 25.7205 56.6026 25.2491C56.7506 25.173 56.8747 25.0576 56.9613 24.9155C57.048 24.7734 57.0938 24.6102 57.0938 24.4438V18.447C57.0937 18.2916 57.0538 18.1388 56.9777 18.0034C56.9016 17.8679 56.7919 17.7543 56.6592 17.6735ZM55.2812 23.8641C54.658 24.134 53.9735 24.2312 53.2997 24.1455C52.8064 24.0561 52.332 23.8831 51.897 23.634C51.2256 23.2504 50.48 23.0144 49.7101 22.9419C49.5889 22.9331 49.4676 22.9278 49.3464 22.9278C48.9021 22.9287 48.4599 22.9882 48.0312 23.1048V19.0178C48.5186 18.8123 49.0466 18.7212 49.5747 18.7513C50.1076 18.8099 50.6219 18.9819 51.0828 19.2558C51.6891 19.594 52.3488 19.8259 53.0333 19.9417C53.7856 20.0496 54.5522 19.9944 55.2812 19.7798V23.8641Z" fill="#28FFC7"/>
<path id="Vector_6" d="M29 18.7437C30.4339 18.7437 31.8356 18.3184 33.0279 17.5218C34.2201 16.7252 35.1494 15.5929 35.6981 14.2681C36.2469 12.9433 36.3904 11.4856 36.1107 10.0793C35.8309 8.67289 35.1405 7.38106 34.1265 6.36713C33.1126 5.3532 31.8208 4.66271 30.4144 4.38296C29.008 4.10322 27.5503 4.24679 26.2255 4.79553C24.9008 5.34426 23.7685 6.27352 22.9718 7.46577C22.1752 8.65803 21.75 10.0597 21.75 11.4937C21.7522 13.4158 22.5167 15.2586 23.8759 16.6178C25.2351 17.9769 27.0779 18.7415 29 18.7437ZM24.9873 15.1502L28.0937 13.1533V16.8493C26.8974 16.6463 25.8036 16.0481 24.9873 15.1502ZM29.9062 16.8493V13.1533L33.0127 15.1503C32.1964 16.0481 31.1026 16.6463 29.9062 16.8493ZM34.4375 11.4937C34.438 12.2283 34.2887 12.9553 33.9989 13.6303L29.9062 10.9994V6.13804C31.1719 6.3528 32.3209 7.00813 33.1501 7.98818C33.9793 8.96823 34.4353 10.2099 34.4375 11.4937ZM28.0937 6.13804V10.9994L24.0011 13.6304C23.6774 12.8747 23.5295 12.0553 23.5686 11.2341C23.6078 10.4129 23.8329 9.61131 24.227 8.88981C24.6211 8.1683 25.1739 7.54572 25.8438 7.06904C26.5136 6.59236 27.2829 6.27402 28.0937 6.13804Z" fill="white"/>
<path id="Vector_7" d="M17.2188 2.43115V32.3374C17.2187 32.4564 17.2421 32.5743 17.2877 32.6842C17.3332 32.7942 17.4 32.8941 17.4841 32.9783C17.5683 33.0624 17.6682 33.1292 17.7782 33.1747C17.8881 33.2203 18.006 33.2437 18.125 33.2437H39.875C39.994 33.2437 40.1119 33.2203 40.2218 33.1747C40.3318 33.1292 40.4317 33.0624 40.5159 32.9783C40.6 32.8941 40.6668 32.7942 40.7123 32.6842C40.7579 32.5743 40.7813 32.4564 40.7812 32.3374V2.43115C40.7813 2.31213 40.7579 2.19427 40.7123 2.08431C40.6668 1.97434 40.6 1.87443 40.5159 1.79027C40.4317 1.70611 40.3318 1.63936 40.2218 1.59382C40.1119 1.54829 39.994 1.52487 39.875 1.5249H18.125C18.006 1.52487 17.8881 1.54829 17.7782 1.59382C17.6682 1.63936 17.5683 1.70611 17.4841 1.79027C17.4 1.87443 17.3332 1.97434 17.2877 2.08431C17.2421 2.19427 17.2187 2.31213 17.2188 2.43115ZM19.0312 3.3374H38.9688V31.4312H19.0312V3.3374Z" fill="white"/>
<path id="Vector_8" d="M20.8438 20.5562H33.5312V22.3687H20.8438V20.5562Z" fill="white"/>
<path id="Vector_9" d="M35.3438 20.5562H37.1562V22.3687H35.3438V20.5562Z" fill="white"/>
<path id="Vector_10" d="M20.8438 24.1812H37.1562V25.9937H20.8438V24.1812Z" fill="white"/>
<path id="Vector_11" d="M20.8438 27.8062H26.2812V29.6187H20.8438V27.8062Z" fill="white"/>
<path id="Vector_12" d="M28.0938 27.8062H37.1562V29.6187H28.0938V27.8062Z" fill="white"/>
</g>
</g>
</svg>
