<svg width="60" height="61" viewBox="0 0 60 61" fill="none" xmlns="http://www.w3.org/2000/svg">
<g id="Strategic Business Development">
<g id="Group">
<path id="Vector" d="M17.438 5.33195V2.49508C17.438 1.97676 17.8581 1.55664 18.3764 1.55664C18.8947 1.55664 19.3148 1.97676 19.3148 2.49508V5.33195C19.3148 5.85027 18.8947 6.27039 18.3764 6.27039C17.8581 6.27039 17.438 5.85027 17.438 5.33195ZM27.6643 10.1171C27.9044 10.1171 28.1447 10.0254 28.328 9.84215L30.3343 7.83578C30.7008 7.46934 30.7008 6.8752 30.3343 6.50875C29.9678 6.1423 29.3737 6.1423 29.0072 6.50875L27.0008 8.51512C26.6344 8.88156 26.6344 9.4757 27.0008 9.84215C27.1841 10.0253 27.4242 10.1171 27.6644 10.1171H27.6643ZM8.42507 9.84215C8.60823 10.0254 8.84847 10.1171 9.08858 10.1171C9.3287 10.1171 9.56894 10.0254 9.75222 9.84215C10.1187 9.4757 10.1187 8.88156 9.75222 8.51512L7.75909 6.52199C7.39265 6.15531 6.79839 6.15555 6.43194 6.52199C6.0655 6.88844 6.0655 7.48258 6.43194 7.84902L8.42507 9.84215ZM3.2387 19.405H5.95604C6.47437 19.405 6.89448 18.9849 6.89448 18.4666C6.89448 17.9482 6.47437 17.5281 5.95604 17.5281H3.2387C2.72038 17.5281 2.30026 17.9482 2.30026 18.4666C2.30026 18.9849 2.72038 19.405 3.2387 19.405ZM30.0078 18.4666C30.0078 18.9849 30.428 19.405 30.9463 19.405H33.6636C34.1819 19.405 34.6021 18.9849 34.6021 18.4666C34.6021 17.9482 34.1819 17.5281 33.6636 17.5281H30.9463C30.428 17.5281 30.0078 17.9482 30.0078 18.4666ZM50.1285 33.7588C49.7996 33.9268 49.4032 33.8864 49.115 33.6558L46.4426 31.5168L41.2833 37.4928C41.1092 37.6943 40.8578 37.8126 40.5914 37.8176L31.3677 37.9996C31.5324 38.4162 31.6792 38.8402 31.8023 39.2709L33.5085 39.4366C33.926 39.4772 34.2659 39.79 34.341 40.2026C34.6922 42.1327 34.6922 44.0897 34.341 46.0197C34.2659 46.4323 33.926 46.7451 33.5085 46.7857L31.8025 46.9514C31.5159 47.9529 31.116 48.9183 30.6082 49.8346L31.695 51.1595C31.9605 51.4833 31.9795 51.9436 31.7415 52.2882C30.6305 53.8966 29.2462 55.2808 27.6273 56.4026C27.2822 56.6416 26.8202 56.6225 26.4962 56.3557L25.1757 55.2681C24.2617 55.7764 23.296 56.1768 22.292 56.4644L22.1237 58.1685C22.0826 58.5855 21.7699 58.9245 21.3578 58.9996C20.3937 59.1749 19.4222 59.2627 18.4505 59.2627C17.4787 59.2627 16.5068 59.175 15.5409 58.9996C15.1282 58.9246 14.8153 58.5848 14.7746 58.1671L14.6088 56.463C13.6008 56.173 12.6354 55.7729 11.7257 55.2678L10.4017 56.3562C10.0773 56.6229 9.61534 56.6417 9.27046 56.4021C7.65304 55.2789 6.27022 53.8948 5.16034 52.2883C4.92245 51.9439 4.94144 51.4834 5.20687 51.1596L6.29366 49.8347C5.78647 48.9197 5.38581 47.9545 5.0973 46.9517L3.39315 46.7859C2.97573 46.7451 2.63589 46.4324 2.56077 46.0198C2.20956 44.0898 2.20956 42.1328 2.56077 40.2027C2.63589 39.7901 2.97573 39.4775 3.39315 39.4368L5.0973 39.2709C5.38581 38.2682 5.78647 37.3028 6.29366 36.3878L5.20687 35.063C4.94132 34.7393 4.92233 34.2789 5.16022 33.9345C6.26987 32.3281 7.65269 30.9439 9.27023 29.8204C9.61523 29.5809 10.0772 29.5995 10.4016 29.8663L11.7257 30.9549C12.016 30.7938 12.3131 30.6436 12.6155 30.5035C12.3483 30.0959 12.1923 29.6091 12.1923 29.0863C12.1923 28.4792 12.4026 27.9205 12.7535 27.4783C12.43 26.9447 11.9154 26.3589 11.0601 25.5324C8.97409 23.5302 7.82401 20.83 7.82401 17.9316C7.82401 12.1134 12.5576 7.3798 18.3758 7.3798C24.1941 7.3798 28.9276 12.1134 28.9276 17.9316C28.9276 20.8285 27.7789 23.5285 25.6932 25.5341C24.8373 26.359 24.3221 26.9441 23.9982 27.4783C24.3491 27.9207 24.5594 28.4793 24.5594 29.0863C24.5594 29.587 24.4164 30.0546 24.1697 30.4514C24.5106 30.6058 24.8457 30.7737 25.1741 30.9554L26.4959 29.8667C26.8199 29.6 27.2818 29.5806 27.6269 29.8198C28.4984 30.4236 29.3082 31.1099 30.0397 31.8634L38.1424 31.7041L41.6305 27.6629L38.9565 25.5242C38.6682 25.2936 38.5419 24.9154 38.6338 24.5579C38.7257 24.2002 39.0186 23.9298 39.3824 23.8667L49.0589 22.1891C49.3239 22.1438 49.5957 22.2133 49.8056 22.3812C50.0155 22.5494 50.1432 22.7992 50.1565 23.0678L50.6381 32.8772C50.6563 33.2459 50.4566 33.5909 50.1279 33.7588H50.1285ZM24.7724 32.8942C24.6523 32.8199 24.5308 32.7483 24.4085 32.6784C24.3021 33.6641 23.6409 34.4859 22.7443 34.8244C22.7409 34.9827 22.7282 35.1387 22.7045 35.2913C23.1813 35.5514 23.6323 35.8552 24.0558 36.1986L27.7958 32.3267C27.5783 32.1382 27.3571 31.9537 27.1281 31.778L25.8624 32.8204C25.5524 33.0757 25.1142 33.1056 24.7724 32.8942ZM17.764 42.7123L22.7457 37.5549C22.486 37.3541 22.2138 37.1725 21.9301 37.0101C21.278 37.7972 20.2934 38.2996 19.1937 38.2996H17.5594C16.4869 38.2996 15.5245 37.8213 14.8726 37.0674C12.756 38.3218 11.4255 40.6162 11.4255 43.1112C11.4255 46.9843 14.5765 50.1352 18.4495 50.1352C22.1509 50.1352 25.1906 47.2568 25.4531 43.6212C24.368 44.7449 23.2819 45.8686 22.1974 46.9919C21.8061 47.3977 21.2784 47.6266 20.7121 47.6358C20.7001 47.6361 20.6882 47.6362 20.6763 47.6362C20.1247 47.6362 19.6055 47.4263 19.2109 47.043C18.7467 46.592 18.2824 46.1444 17.8182 45.6968C16.9805 44.8889 16.9562 43.5502 17.7641 42.7122L17.764 42.7123ZM14.0696 29.0864C14.0696 29.4813 14.3907 29.8023 14.7854 29.8023H21.9673C22.3621 29.8023 22.6832 29.4813 22.6832 29.0864C22.6832 28.8384 22.5562 28.6196 22.3639 28.491C22.3514 28.4835 22.3386 28.4764 22.3266 28.4683C22.2208 28.4066 22.0983 28.3707 21.9673 28.3707H14.7854C14.6543 28.3707 14.5317 28.4066 14.426 28.4684C14.4144 28.4761 14.402 28.483 14.3899 28.4904C14.197 28.6188 14.0696 28.838 14.0696 29.0864ZM14.2058 32.3984C14.2058 32.7931 14.5269 33.1142 14.9217 33.1142H21.8311C22.2258 33.1142 22.547 32.7931 22.547 32.3984C22.547 32.0086 22.2192 31.6792 21.8311 31.6792H14.9217C14.5336 31.6792 14.2058 32.0086 14.2058 32.3984ZM17.5592 36.4229H19.1935C19.8748 36.4229 20.4612 36.0137 20.7231 35.4289C20.7245 35.4254 20.7255 35.4217 20.7271 35.4182C20.731 35.4088 20.7361 35.4003 20.7404 35.391C20.7932 35.2649 20.8291 35.1305 20.8496 34.9911H15.9032C15.9258 35.1446 15.9683 35.2913 16.0296 35.4284C16.0352 35.4396 16.0416 35.4504 16.0468 35.462C16.0483 35.4654 16.0494 35.4691 16.0509 35.4725C16.3221 36.0338 16.8954 36.4227 17.5592 36.4227V36.4229ZM12.3627 24.1807C13.232 25.021 13.9031 25.7471 14.372 26.5272C14.5067 26.5055 14.6448 26.4938 14.7855 26.4938H17.4381V21.5393L13.6669 17.7681C13.3004 17.4017 13.3004 16.8075 13.6669 16.4411C14.0334 16.0746 14.6275 16.0744 14.994 16.4411L18.3764 19.8234L21.7588 16.4411C22.1253 16.0746 22.7195 16.0745 23.0859 16.4411C23.4524 16.8075 23.4524 17.4017 23.0859 17.7681L19.3147 21.5393V26.4938H21.9673C22.108 26.4938 22.246 26.5055 22.3807 26.5272C22.8504 25.7458 23.5225 25.02 24.3921 24.1821C26.1073 22.5329 27.0513 20.3133 27.0513 17.9317C27.0513 13.1484 23.1598 9.2568 18.3763 9.2568C13.5928 9.2568 9.70124 13.1484 9.70124 17.9317C9.70124 20.3143 10.6464 22.5337 12.3625 24.1807H12.3627ZM30.9685 41.0757C30.568 41.0366 30.2368 40.7466 30.1454 40.3548C30.049 39.9415 29.9296 39.5332 29.7892 39.1322C28.9417 40.0093 28.0949 40.8863 27.2476 41.7636C27.3152 42.2089 27.3504 42.6603 27.3504 43.1113C27.3504 48.0193 23.3575 52.0122 18.4494 52.0122C13.5414 52.0122 9.54855 48.0193 9.54855 43.1113C9.54855 39.8927 11.2959 36.9385 14.0621 35.3692C14.0306 35.1918 14.0125 35.0099 14.0085 34.8246C13.1365 34.4953 12.4875 33.7091 12.3546 32.7595C12.2802 32.8035 12.2055 32.8472 12.1322 32.8929C11.7903 33.1055 11.3511 33.0766 11.0405 32.8211L9.7719 31.7782C8.76972 32.548 7.88073 33.4375 7.11808 34.4335L8.15976 35.7032C8.41429 36.0134 8.44335 36.4513 8.23206 36.7925C7.54757 37.8979 7.04999 39.0971 6.75315 40.3569C6.66105 40.7479 6.33046 41.037 5.93062 41.0759L4.29854 41.2347C4.13354 42.4827 4.13354 43.7404 4.29854 44.9883L5.93062 45.1472C6.33034 45.186 6.66105 45.4751 6.75315 45.8661C7.04999 47.1261 7.54757 48.3252 8.23206 49.4304C8.44347 49.7717 8.4144 50.2094 8.15987 50.5198L7.11819 51.7896C7.88097 52.7856 8.76995 53.6752 9.7719 54.4448L11.0405 53.4019C11.3512 53.1463 11.7905 53.1175 12.1322 53.3301C13.2261 54.0107 14.4251 54.508 15.6955 54.8079C16.0862 54.9003 16.375 55.2307 16.4139 55.6305L16.5726 57.2623C17.822 57.4271 19.0799 57.4273 20.3276 57.2623L20.4887 55.6291C20.5282 55.2293 20.8178 54.899 21.2089 54.8075C22.47 54.5126 23.6682 54.0155 24.7701 53.33C25.1122 53.1176 25.5517 53.1466 25.8624 53.4024L27.1282 54.4449C28.131 53.676 29.0207 52.7867 29.7841 51.7896L28.7425 50.5199C28.4879 50.2096 28.4589 49.7718 28.6701 49.4305C29.3559 48.3235 29.8522 47.1249 30.1452 45.8683C30.2366 45.4763 30.5678 45.1864 30.9683 45.1473L32.6035 44.9886C32.7685 43.7405 32.7685 42.4831 32.6035 41.2349L30.9683 41.0761L30.9685 41.0757ZM48.6621 30.8893L48.3346 24.2196L41.7567 25.36L43.5642 26.8056C43.7633 26.9649 43.8891 27.1984 43.9126 27.4523C43.936 27.7062 43.8552 27.9586 43.6885 28.1518L39.2904 33.2474C39.1164 33.4491 38.8648 33.5672 38.5984 33.5724L29.6501 33.7484C29.6482 33.7484 29.6463 33.7486 29.6443 33.7486C29.6436 33.7486 29.6429 33.7486 29.6422 33.7486L29.0201 33.7608L24.7701 38.1606C24.769 38.1618 24.768 38.1631 24.7669 38.1643C24.7663 38.1648 24.7657 38.1653 24.7651 38.1659L19.1144 44.0158C19.0269 44.1065 19.0296 44.258 19.1208 44.3459C19.5866 44.7951 20.0525 45.2444 20.5183 45.6968C20.5758 45.7527 20.643 45.7628 20.6811 45.7593C20.718 45.7587 20.7887 45.7487 20.8466 45.6886C22.4085 44.0711 23.9721 42.453 25.5351 40.8347C25.5547 40.8123 25.5755 40.7909 25.5973 40.7705C26.996 39.3223 28.3941 37.874 29.7932 36.4266C29.9655 36.2484 30.2014 36.1455 30.4494 36.1407L40.1361 35.9495L45.6128 29.6058C45.9425 29.2239 46.5155 29.1713 46.9094 29.4864L48.662 30.8891L48.6621 30.8893ZM48.7731 44.4965V58.0131C48.7731 58.9335 48.0243 59.6823 47.1039 59.6823H42.9615C42.0411 59.6823 41.2923 58.9335 41.2923 58.0131V44.4965C41.2923 43.5761 42.0411 42.8273 42.9615 42.8273H47.1039C48.0243 42.8273 48.7731 43.5761 48.7731 44.4965ZM46.8962 44.704H43.1691V57.8055H46.8962V44.704ZM57.7022 38.8626V58.013C57.7022 58.9334 56.9534 59.6822 56.033 59.6822H51.8906C50.9702 59.6822 50.2214 58.9334 50.2214 58.013V38.8626C50.2214 37.9422 50.9702 37.1934 51.8906 37.1934H56.033C56.9534 37.1934 57.7022 37.9422 57.7022 38.8626ZM55.8253 39.0701H52.0982V57.8054H55.8253V39.0701ZM40.206 49.5755V58.013C40.206 58.9334 39.4571 59.6822 38.5367 59.6822H34.3944C33.474 59.6822 32.7252 58.9334 32.7252 58.013V49.5755C32.7252 48.6551 33.474 47.9063 34.3944 47.9063H38.5367C39.4571 47.9063 40.206 48.6551 40.206 49.5755ZM38.3291 49.783H34.6019V57.8054H38.3291V49.783Z" fill="white"/>
<g id="Vector_2">
<path fill-rule="evenodd" clip-rule="evenodd" d="M17.438 2.49508V5.33195C17.438 5.85027 17.8581 6.27039 18.3764 6.27039C18.8947 6.27039 19.3148 5.85027 19.3148 5.33195V2.49508C19.3148 1.97676 18.8947 1.55664 18.3764 1.55664C17.8581 1.55664 17.438 1.97676 17.438 2.49508ZM28.328 9.84215C28.1447 10.0254 27.9044 10.1171 27.6643 10.1171C27.4241 10.1171 27.1841 10.0253 27.0008 9.84215C26.6344 9.4757 26.6344 8.88156 27.0008 8.51512L29.0072 6.50875C29.3737 6.1423 29.9678 6.1423 30.3343 6.50875C30.7008 6.8752 30.7008 7.46934 30.3343 7.83578L28.328 9.84215ZM9.08858 10.1171C8.84847 10.1171 8.60823 10.0254 8.42507 9.84215L6.43194 7.84902C6.0655 7.48258 6.0655 6.88844 6.43194 6.52199C6.79839 6.15555 7.39265 6.15531 7.75909 6.52199L9.75222 8.51512C10.1187 8.88156 10.1187 9.4757 9.75222 9.84215C9.56894 10.0254 9.3287 10.1171 9.08858 10.1171ZM5.95604 19.405H3.2387C2.72038 19.405 2.30026 18.9849 2.30026 18.4666C2.30026 17.9482 2.72038 17.5281 3.2387 17.5281H5.95604C6.47437 17.5281 6.89448 17.9482 6.89448 18.4666C6.89448 18.9849 6.47437 19.405 5.95604 19.405ZM30.9463 19.405C30.428 19.405 30.0078 18.9849 30.0078 18.4666C30.0078 17.9482 30.428 17.5281 30.9463 17.5281H33.6636C34.1819 17.5281 34.6021 17.9482 34.6021 18.4666C34.6021 18.9849 34.1819 19.405 33.6636 19.405H30.9463ZM14.4006 28.484L14.4023 28.483C14.4042 28.4819 14.406 28.4808 14.4078 28.4797C14.414 28.476 14.4201 28.4723 14.426 28.4684M14.7854 28.3707H21.9673C22.0983 28.3707 22.2208 28.4066 22.3266 28.4683C22.3298 28.4704 22.3331 28.4725 22.3364 28.4746C22.3454 28.4802 22.3547 28.4855 22.3639 28.491C22.5562 28.6196 22.6832 28.8384 22.6832 29.0864C22.6832 29.4813 22.3621 29.8023 21.9673 29.8023C21.9673 29.8023 15.1801 29.8023 14.7854 29.8023M14.7854 28.3707C14.6543 28.3707 14.5317 28.4066 14.426 28.4684L14.7854 28.3707ZM48.7731 58.0131V44.4965C48.7731 43.5761 48.0243 42.8273 47.1039 42.8273H42.9615C42.0411 42.8273 41.2923 43.5761 41.2923 44.4965V58.0131C41.2923 58.9335 42.0411 59.6823 42.9615 59.6823H47.1039C48.0243 59.6823 48.7731 58.9335 48.7731 58.0131ZM43.1691 44.704H46.8962V57.8055H43.1691V44.704ZM57.7022 58.013V38.8626C57.7022 37.9422 56.9534 37.1934 56.033 37.1934H51.8906C50.9702 37.1934 50.2214 37.9422 50.2214 38.8626V58.013C50.2214 58.9334 50.9702 59.6822 51.8906 59.6822H56.033C56.9534 59.6822 57.7022 58.9334 57.7022 58.013ZM52.0982 39.0701H55.8253V57.8054H52.0982V39.0701ZM40.206 58.013V49.5755C40.206 48.6551 39.4571 47.9063 38.5367 47.9063H34.3944C33.474 47.9063 32.7252 48.6551 32.7252 49.5755V58.013C32.7252 58.9334 33.474 59.6822 34.3944 59.6822H38.5367C39.4571 59.6822 40.206 58.9334 40.206 58.013ZM34.6019 49.783H38.3291V57.8054H34.6019V49.783Z" fill="#28FFC7"/>
<path d="M14.0696 29.0864C14.0696 29.4813 14.3907 29.8023 14.7854 29.8023H21.9673C22.3621 29.8023 22.6832 29.4813 22.6832 29.0864C22.6832 28.8384 22.5562 28.6196 22.3639 28.491C22.3547 28.4855 22.3454 28.4802 22.3364 28.4746L22.3266 28.4683C22.2208 28.4066 22.0983 28.3707 21.9673 28.3707H14.7854C14.6543 28.3707 14.5317 28.4066 14.426 28.4684C14.4201 28.4723 14.414 28.476 14.4078 28.4797L14.4023 28.483L14.4006 28.484L14.3899 28.4904C14.197 28.6188 14.0696 28.838 14.0696 29.0864Z" fill="#28FFC7"/>
</g>
</g>
</g>
</svg>
