<svg width="58" height="59" viewBox="0 0 58 59" fill="none" xmlns="http://www.w3.org/2000/svg">
<g id="Competitive Positioning">
<g id="Group">
<path id="Vector" d="M57.0938 13.0072V12.4009C57.0938 6.40422 52.2154 1.52588 46.2188 1.52588C40.2221 1.52588 35.3438 6.40422 35.3438 12.4009V13.0072C35.3438 15.1622 35.9754 17.2484 37.1707 19.0392L41.6014 25.6856C38.8283 26.4686 37.1562 27.9204 37.1562 29.6196V41.322C36.2437 40.723 35.0157 40.249 33.5312 39.9445V34.7463C33.5312 33.5355 33.0591 32.3973 32.2036 31.5418L26.2812 25.6194V20.4293C30.9838 19.5222 34.4375 15.4051 34.4375 10.5385V4.69775C34.4375 2.94869 33.0147 1.52588 31.2656 1.52588C29.5166 1.52588 28.0938 2.94869 28.0938 4.69775V9.29244C28.0938 11.3197 26.7715 13.0434 24.9037 13.618C25.7638 12.535 26.2812 11.1693 26.2812 9.68213C26.2812 6.184 23.4347 3.33838 19.9375 3.33838C16.4403 3.33838 13.5938 6.184 13.5938 9.68213C13.5938 11.5073 14.3731 13.1494 15.6102 14.3076C11.4541 14.7888 7.67141 17.1868 5.4955 20.8127L1.33944 27.7401C1.05578 28.2113 0.90625 28.7514 0.90625 29.3033C0.90625 30.9772 2.26834 32.3384 3.94219 32.3384H4.29925C5.31606 32.3384 6.26038 31.8327 6.82406 30.9872L12.4365 22.5681C12.7219 22.1385 13.1288 21.8168 13.5938 21.6347V31.3053L10.1047 43.517C10.102 43.526 10.1011 43.5351 10.0992 43.5433C6.64734 44.2211 4.53125 45.8007 4.53125 47.7446V53.1821C4.53125 55.7658 8.42722 57.7134 13.5938 57.7134C17.2804 57.7134 20.3109 56.7183 21.75 55.2121C23.1891 56.7192 26.2196 57.7134 29.9062 57.7134C33.5929 57.7134 36.6234 56.7183 38.0625 55.2121C39.5016 56.7192 42.5321 57.7134 46.2188 57.7134C51.3853 57.7134 55.2812 55.7658 55.2812 53.1821V29.6196C55.2812 27.9186 53.6092 26.4686 50.8361 25.6865L55.2668 19.0401C56.4621 17.2484 57.0938 15.1622 57.0938 13.0072ZM33.4914 41.7933C35.8775 42.347 37.1562 43.3538 37.1562 44.1196C37.1562 45.2289 34.3324 46.8384 29.9062 46.8384C25.4801 46.8384 22.6562 45.2289 22.6562 44.1196C22.6562 43.3538 23.935 42.347 26.3211 41.7933C26.5196 43.6058 28.0412 45.0259 29.9062 45.0259C31.7713 45.0259 33.2929 43.6058 33.4914 41.7933ZM20.8438 44.9525C20.02 44.4105 18.9379 43.971 17.6438 43.6656L21.4772 31.5273L26.2812 36.2298V39.9445C22.9073 40.636 20.8438 42.2011 20.8438 44.1196V44.9525ZM20.8184 23.8323L19.9375 24.7132L19.0566 23.8323L19.5777 16.0223H19.855C19.8831 16.0223 19.9094 16.0259 19.9375 16.0259C19.9674 16.0259 19.9955 16.0223 20.0245 16.0213H20.0281H20.0308C20.1206 16.0204 20.2076 16.0132 20.2964 16.0078L20.8184 23.8323ZM15.4062 9.68213C15.4062 7.1836 17.439 5.15088 19.9375 5.15088C22.436 5.15088 24.4688 7.1836 24.4688 9.68213C24.4688 12.1807 22.436 14.2134 19.9375 14.2134C17.439 14.2134 15.4062 12.1807 15.4062 9.68213ZM11.7812 44.4858C11.7812 44.3263 11.803 44.1686 11.8474 44.0154L15.3718 31.6804L15.4062 19.6509H14.5C13.0618 19.6509 11.726 20.3659 10.9285 21.5622L5.31606 29.9812C5.08769 30.322 4.70797 30.5259 4.29834 30.5259H3.94219C3.26703 30.5259 2.71875 29.9776 2.71875 29.3033C2.71875 29.0813 2.77856 28.8638 2.89275 28.6744L7.04972 21.7461C9.16672 18.2172 13.0382 16.0259 17.1526 16.0259L17.7607 16.025L17.1934 24.5319L19.9375 27.2761L22.6816 24.5319L22.0998 15.8138L24.1932 15.6045C27.4503 15.2791 29.9062 12.5649 29.9062 9.29244V4.69775C29.9062 3.94829 30.5162 3.33838 31.2656 3.33838C32.0151 3.33838 32.625 3.94829 32.625 4.69775V10.5385C32.625 14.7544 29.4658 18.2843 25.2753 18.751L24.4688 18.8398V26.3698L30.9222 32.8232C31.436 33.3371 31.7188 34.0195 31.7188 34.7463V41.4009C31.7188 42.4005 30.9058 43.2134 29.9062 43.2134C28.9067 43.2134 28.0938 42.4005 28.0938 41.4009V36.2298C28.0938 35.7459 27.8953 35.2737 27.5482 34.9339L22.1198 29.6196H20.1795L15.119 45.6448C14.8942 46.359 14.239 46.8384 13.4904 46.8384C12.5479 46.8384 11.7812 46.0717 11.7812 45.1292V44.4858ZM9.99775 45.4201C10.1491 47.2244 11.648 48.6509 13.4904 48.6509C15.0338 48.6509 16.3823 47.6622 16.8472 46.1895L17.0946 45.4047C19.5279 45.9575 20.8438 46.9798 20.8438 47.7446C20.8438 48.8539 18.0199 50.4634 13.5938 50.4634C9.16763 50.4634 6.34375 48.8539 6.34375 47.7446C6.34375 46.9798 7.61884 45.9747 9.99775 45.4201ZM13.5938 55.9009C9.16763 55.9009 6.34375 54.2914 6.34375 53.1821V50.5214C7.96956 51.6007 10.5587 52.2759 13.5938 52.2759C16.6288 52.2759 19.2179 51.6007 20.8438 50.5214V53.1821C20.8438 54.2914 18.0199 55.9009 13.5938 55.9009ZM29.9062 55.9009C25.4801 55.9009 22.6562 54.2914 22.6562 53.1821V47.7446V46.8964C24.2821 47.9757 26.8712 48.6509 29.9062 48.6509C32.9413 48.6509 35.5304 47.9757 37.1562 46.8964V53.1821C37.1562 54.2914 34.3324 55.9009 29.9062 55.9009ZM46.2188 55.9009C41.7926 55.9009 38.9688 54.2914 38.9688 53.1821V44.1196V32.3964C40.5946 33.4757 43.1837 34.1509 46.2188 34.1509C49.2538 34.1509 51.8429 33.4757 53.4688 32.3964V53.1821C53.4688 54.2914 50.6449 55.9009 46.2188 55.9009ZM53.4688 29.6196C53.4688 30.7289 50.6449 32.3384 46.2188 32.3384C41.7926 32.3384 38.9688 30.7289 38.9688 29.6196C38.9688 28.8738 40.2719 27.8497 42.6726 27.2924L44.0564 29.3677C44.5386 30.0927 45.3478 30.5259 46.2188 30.5259C47.0897 30.5259 47.8989 30.0927 48.382 29.3686L49.7658 27.2933C52.1665 27.8497 53.4688 28.872 53.4688 29.6196ZM46.874 28.3627C46.5822 28.8013 45.8563 28.8013 45.5644 28.3627L38.6787 18.0341C37.6828 16.5415 37.1562 14.8033 37.1562 13.0072V12.4009C37.1562 7.40382 41.2217 3.33838 46.2188 3.33838C51.2158 3.33838 55.2812 7.40382 55.2812 12.4009V13.0072C55.2812 14.8024 54.7547 16.5406 53.7588 18.0341L46.874 28.3627Z" fill="white"/>
<path id="Vector_2" d="M46.2188 5.15088C42.2213 5.15088 38.9688 8.40341 38.9688 12.4009C38.9688 16.3983 42.2213 19.6509 46.2188 19.6509C50.2162 19.6509 53.4688 16.3983 53.4688 12.4009C53.4688 8.40341 50.2162 5.15088 46.2188 5.15088ZM46.2188 17.8384C43.22 17.8384 40.7812 15.3997 40.7812 12.4009C40.7812 9.4021 43.22 6.96338 46.2188 6.96338C49.2175 6.96338 51.6562 9.4021 51.6562 12.4009C51.6562 15.3997 49.2175 17.8384 46.2188 17.8384Z" fill="#28FFC7"/>
<path id="Vector_3" d="M40.7812 35.9634H42.5938V37.7759H40.7812V35.9634Z" fill="#28FFC7"/>
<path id="Vector_4" d="M40.7812 39.5884H42.5938V52.2759H40.7812V39.5884Z" fill="#28FFC7"/>
</g>
</g>
</svg>
