<svg width="56" height="61" viewBox="0 0 56 61" fill="none" xmlns="http://www.w3.org/2000/svg">
<g id="Group">
<path id="Vector" d="M5.98613 42.2616H12.3253C12.8906 42.2616 13.3482 42.7192 13.3482 43.2845V43.9978C14.4383 43.6748 15.4612 43.0422 16.3899 42.2751C17.4532 41.3868 18.3684 40.7004 19.2028 40.1755C10.0777 32.9749 9.21628 19.4083 17.4801 11.1445C25.0709 3.55368 37.3859 3.55368 44.9767 11.1445C51.8542 18.0221 52.6079 28.9373 46.686 36.6762C44.2634 39.839 40.8986 42.2482 37.009 43.4595C36.5514 45.2764 34.6268 46.5416 32.2849 46.4877L27.6281 46.3801C30.8313 47.7394 36.834 48.4662 39.6066 47.4702L48.0992 44.4151C50.3603 43.4864 53.1463 43.7556 54.2634 45.411C54.5729 45.8821 54.721 46.4204 54.6537 46.9857C54.546 47.8336 53.9404 48.7219 52.6887 49.4756C47.3993 52.625 37.7089 58.9911 33.7654 59.8659C33.6712 59.8928 33.577 59.8928 33.4828 59.8928L13.3347 58.7354V59.5967C13.3347 60.162 12.8771 60.6196 12.3118 60.6196H1.01978C0.33337 60.6196 -0.164611 59.9601 0.0507317 59.2737L4.99017 42.9884C5.12476 42.5308 5.52852 42.2482 5.98613 42.2616ZM13.3347 46.1243V56.6627L33.4558 57.8202C36.3899 57.0799 43.4693 52.7192 48.3684 49.691C49.5797 48.9373 50.6698 48.2778 51.6254 47.699C52.2445 47.3222 52.756 46.8646 52.5406 46.5416C52.4599 46.4204 52.3253 46.3128 52.1234 46.2186C51.3966 45.8417 50.1719 45.7744 48.8529 46.3128L48.8125 46.3262L40.2795 49.4083C36.9417 50.6062 30.0776 49.8121 26.4572 48.1297C24.9094 47.4164 23.725 46.3397 24.2095 44.9803C24.3576 44.5631 24.7479 44.267 25.2055 44.2805L32.3118 44.442C33.6981 44.4689 34.896 43.7825 35.0036 42.8404C35.0844 42.1405 34.3711 41.7771 33.4289 41.6829C31.6658 41.5079 30.1584 41.306 28.8529 41.1445C23.5231 40.4581 21.9754 40.2562 17.6685 43.8498C16.4168 44.9265 14.9363 45.7744 13.3347 46.1243ZM11.289 44.3074H6.72637L2.40605 58.547H11.289V44.3074ZM21.262 39.1526C23.4424 38.372 25.5151 38.6412 29.149 39.1122C29.6604 39.1795 30.1988 39.2468 30.7775 39.3141C30.4276 39.1526 30.1853 38.7892 30.1853 38.3854V35.6533C30.1853 35.088 30.6429 34.6304 31.2082 34.6304C31.7735 34.6304 32.2311 35.088 32.2311 35.6533V38.3854C32.2311 38.8834 31.8811 39.3007 31.4101 39.3949C32.0965 39.4756 32.8367 39.5564 33.6443 39.6371C35.2324 39.7986 36.2418 40.485 36.7264 41.3868C43.7519 39.0315 48.5837 32.4366 48.5837 24.8996C48.5837 15.3033 40.8044 7.52407 31.1947 7.52407C21.5985 7.52407 13.8192 15.3033 13.8192 24.8996C13.8327 30.6465 16.6322 35.909 21.262 39.1526ZM32.1234 17.6317L34.2365 21.4541L38.5433 22.2885C39.3105 22.4366 39.7008 23.4056 39.0413 24.0651L36.1073 27.2011L36.6456 31.5618C36.7398 32.3289 35.9457 33.0153 35.1113 32.5846L31.2082 30.7677L27.2378 32.625C26.4976 32.9749 25.69 32.3558 25.7842 31.5752L26.3226 27.2145L23.3347 23.9978C22.7829 23.4056 23.1059 22.4366 23.8865 22.2885L28.1934 21.4541L30.3199 17.6183C30.7102 16.8915 31.7466 16.9184 32.1234 17.6317ZM32.6752 22.8673L31.2217 20.2428L29.7681 22.8673C29.62 23.123 29.3778 23.3249 29.0548 23.3922L26.0938 23.9575L28.0857 26.084C28.328 26.2993 28.4626 26.6358 28.4222 26.9857L28.0588 29.9736L30.7775 28.695C31.0467 28.5739 31.3562 28.5604 31.6523 28.695L34.3711 29.9736L34.0077 26.9857C33.9673 26.6896 34.0615 26.3935 34.2768 26.1647L36.3361 23.9709L33.3751 23.4056C33.0925 23.3249 32.8233 23.1499 32.6752 22.8673ZM44.7075 23.8632C45.2728 23.8632 45.7439 24.3208 45.7439 24.8861C45.7439 25.4514 45.2863 25.9225 44.7075 25.9225H41.8138C41.2486 25.9225 40.791 25.4649 40.791 24.8861C40.791 24.3208 41.2486 23.8632 41.8138 23.8632H44.7075ZM22.406 35.1688C22.0023 35.5725 21.3562 35.5725 20.9525 35.1688C20.5487 34.765 20.5487 34.119 20.9525 33.7152L22.9982 31.6694C23.402 31.2657 24.048 31.2657 24.4518 31.6694C24.8556 32.0732 24.8556 32.7192 24.4518 33.123L22.406 35.1688ZM41.4908 33.7152C41.8946 34.119 41.8946 34.765 41.4908 35.1688C41.0871 35.5725 40.441 35.5725 40.0373 35.1688L37.9915 33.123C37.5877 32.7192 37.5877 32.0732 37.9915 31.6694C38.3953 31.2657 39.0413 31.2657 39.4451 31.6694L41.4908 33.7152ZM17.7358 25.9225C17.1705 25.9225 16.7129 25.4649 16.7129 24.8996C16.7129 24.3343 17.1705 23.8767 17.7358 23.8767H20.6295C21.1947 23.8767 21.6523 24.3343 21.6523 24.8996C21.6523 25.4649 21.1947 25.9225 20.6295 25.9225H17.7358ZM20.9525 16.084C20.5487 15.6802 20.5487 15.0342 20.9525 14.6304C21.3562 14.2266 22.0023 14.2266 22.406 14.6304L24.4518 16.6762C24.8556 17.0799 24.8556 17.726 24.4518 18.1297C24.048 18.5335 23.402 18.5335 22.9982 18.1297L20.9525 16.084ZM30.1988 11.4137C30.1988 10.8484 30.6564 10.3908 31.2217 10.3908C31.7869 10.3908 32.2445 10.8484 32.2445 11.4137V14.3074C32.2445 14.8727 31.7869 15.3303 31.2217 15.3303C30.6564 15.3303 30.1988 14.8727 30.1988 14.3074V11.4137ZM40.0238 14.6304C40.4276 14.2266 41.0736 14.2266 41.4774 14.6304C41.8811 15.0342 41.8811 15.6802 41.4774 16.084L39.4316 18.1297C39.0279 18.5335 38.3818 18.5335 37.978 18.1297C37.5743 17.726 37.5743 17.0799 37.978 16.6762L40.0238 14.6304ZM13.6308 38.6277C13.9807 39.0718 13.9 39.7313 13.4558 40.0678C13.0117 40.4177 12.3657 40.337 12.0157 39.8928C5.97267 32.1405 5.19205 21.5079 10.0373 12.9615C12.1234 9.30065 15.1248 6.21855 18.7452 4.05166C19.2297 3.75556 19.8623 3.91707 20.1584 4.40159C20.4545 4.88612 20.293 5.51869 19.8085 5.81478C8.27415 12.7058 5.44777 28.1028 13.6308 38.6277ZM31.2217 2.67885C30.6564 2.67885 30.1988 2.22124 30.1988 1.65597C30.1988 1.09069 30.6564 0.619629 31.2217 0.619629C44.6671 0.619629 55.5554 11.5214 55.5554 24.9669C55.5554 31.0369 53.3213 36.7973 49.3239 41.2253C48.9471 41.6425 48.3011 41.6829 47.8704 41.306C47.4531 40.9292 47.4128 40.2832 47.8031 39.8525C55.7035 31.0772 55.3805 17.6048 46.9821 9.20644C42.9444 5.16875 37.3724 2.67885 31.2217 2.67885Z" fill="white"/>
<path id="Vector_2" fill-rule="evenodd" clip-rule="evenodd" d="M34.2365 21.4541L32.1234 17.6317C31.7466 16.9184 30.7102 16.8915 30.3199 17.6183L28.1934 21.4541L23.8865 22.2885C23.1059 22.4366 22.7829 23.4056 23.3347 23.9978L26.3226 27.2145L25.7842 31.5752C25.69 32.3558 26.4976 32.9749 27.2378 32.625L31.2082 30.7677L35.1113 32.5846C35.9457 33.0153 36.7398 32.3289 36.6456 31.5618L36.1073 27.2011L39.0413 24.0651C39.7008 23.4056 39.3105 22.4366 38.5433 22.2885L34.2365 21.4541ZM31.2217 20.2428L32.6752 22.8673C32.8233 23.1499 33.0925 23.3249 33.3751 23.4056L36.3361 23.9709L34.2768 26.1647C34.0615 26.3935 33.9673 26.6896 34.0077 26.9857L34.3711 29.9736L31.6523 28.695C31.3562 28.5604 31.0467 28.5739 30.7775 28.695L28.0588 29.9736L28.4222 26.9857C28.4626 26.6358 28.328 26.2993 28.0857 26.084L26.0938 23.9575L29.0548 23.3922C29.3778 23.3249 29.62 23.123 29.7681 22.8673L31.2217 20.2428ZM45.7439 24.8861C45.7439 24.3208 45.2728 23.8632 44.7075 23.8632H41.8138C41.2486 23.8632 40.791 24.3208 40.791 24.8861C40.791 25.4649 41.2486 25.9225 41.8138 25.9225H44.7075C45.2863 25.9225 45.7439 25.4514 45.7439 24.8861ZM20.9525 35.1688C21.3562 35.5725 22.0023 35.5725 22.406 35.1688L24.4518 33.123C24.8556 32.7192 24.8556 32.0732 24.4518 31.6694C24.048 31.2657 23.402 31.2657 22.9982 31.6694L20.9525 33.7152C20.5487 34.119 20.5487 34.765 20.9525 35.1688ZM41.4908 35.1688C41.8946 34.765 41.8946 34.119 41.4908 33.7152L39.4451 31.6694C39.0413 31.2657 38.3953 31.2657 37.9915 31.6694C37.5877 32.0732 37.5877 32.7192 37.9915 33.123L40.0373 35.1688C40.441 35.5725 41.0871 35.5725 41.4908 35.1688ZM16.7129 24.8996C16.7129 25.4649 17.1705 25.9225 17.7358 25.9225H20.6295C21.1947 25.9225 21.6523 25.4649 21.6523 24.8996C21.6523 24.3343 21.1947 23.8767 20.6295 23.8767H17.7358C17.1705 23.8767 16.7129 24.3343 16.7129 24.8996ZM20.9525 14.6304C20.5487 15.0342 20.5487 15.6802 20.9525 16.084L22.9982 18.1297C23.402 18.5335 24.048 18.5335 24.4518 18.1297C24.8556 17.726 24.8556 17.0799 24.4518 16.6762L22.406 14.6304C22.0023 14.2266 21.3562 14.2266 20.9525 14.6304ZM31.2217 10.3908C30.6564 10.3908 30.1988 10.8484 30.1988 11.4137V14.3074C30.1988 14.8727 30.6564 15.3303 31.2217 15.3303C31.7869 15.3303 32.2445 14.8727 32.2445 14.3074V11.4137C32.2445 10.8484 31.7869 10.3908 31.2217 10.3908ZM41.4774 14.6304C41.0736 14.2266 40.4276 14.2266 40.0238 14.6304L37.978 16.6762C37.5743 17.0799 37.5743 17.726 37.978 18.1297C38.3818 18.5335 39.0279 18.5335 39.4316 18.1297L41.4774 16.084C41.8811 15.6802 41.8811 15.0342 41.4774 14.6304Z" fill="#28FFC7"/>
</g>
</svg>
