<svg width="60" height="61" viewBox="0 0 60 61" fill="none" xmlns="http://www.w3.org/2000/svg">
<g id="Pricing Strategy" clip-path="url(#clip0_78_747)">
<g id="Group">
<g id="Group_2">
<path id="Vector" d="M41.8815 32.3656C41.9736 31.9101 41.9051 31.4368 41.6877 31.0261C41.4703 30.6154 41.1174 30.2927 40.689 30.1128V34.177C41.0018 33.9734 41.2691 33.7075 41.4743 33.3958C41.6795 33.0841 41.8181 32.7334 41.8815 32.3656Z" fill="#28FFC7"/>
<path id="Vector_2" d="M37.618 25.5982C37.6969 25.66 37.7868 25.7202 37.8762 25.7805V23.2729C37.5796 23.5529 37.3774 23.9182 37.2976 24.3183C37.2346 24.541 37.231 24.7764 37.2872 25.0009C37.3435 25.2255 37.4575 25.4314 37.618 25.5982Z" fill="#28FFC7"/>
<path id="Vector_3" d="M53.9063 28.7446C53.9063 25.8706 53.054 23.0612 51.4573 20.6715C49.8606 18.2819 47.5911 16.4193 44.9359 15.3195C42.2806 14.2197 39.3589 13.9319 36.5401 14.4926C33.7213 15.0533 31.1321 16.4373 29.0999 18.4695C27.0676 20.5017 25.6837 23.0909 25.123 25.9097C24.5623 28.7285 24.85 31.6503 25.9499 34.3055C27.0497 36.9607 28.9122 39.2302 31.3019 40.8269C33.6915 42.4236 36.501 43.2759 39.375 43.2759C43.2276 43.2716 46.9212 41.7392 49.6454 39.015C52.3696 36.2908 53.9019 32.5972 53.9063 28.7446ZM37.8763 38.1196V37.3457C36.7145 37.2319 35.6038 36.8114 34.6578 36.1274C34.3457 35.9231 34.1277 35.6032 34.0515 35.2381C33.9754 34.873 34.0474 34.4926 34.2517 34.1806C34.456 33.8686 34.7759 33.6505 35.1411 33.5743C35.5062 33.4982 35.8866 33.5702 36.1986 33.7745C36.695 34.1446 37.2685 34.398 37.8763 34.5158V28.978C37.1687 28.6676 36.4997 28.2759 35.8827 27.8108C35.3117 27.3296 34.8839 26.7008 34.646 25.9929C34.4081 25.2851 34.3692 24.5256 34.5337 23.7972C34.6809 22.9337 35.0748 22.1312 35.6679 21.4866C36.261 20.842 37.028 20.3828 37.8763 20.1644V19.3696C37.8763 18.9967 38.0244 18.639 38.2881 18.3753C38.5519 18.1115 38.9095 17.9634 39.2825 17.9634C39.6555 17.9634 40.0131 18.1115 40.2769 18.3753C40.5406 18.639 40.6888 18.9967 40.6888 19.3696V20.069C41.6259 20.2462 42.5013 20.6628 43.2298 21.2785C43.503 21.5302 43.6656 21.8798 43.6819 22.251C43.6982 22.6222 43.567 22.9847 43.3169 23.2595C43.0669 23.5342 42.7182 23.6989 42.3471 23.7174C41.9761 23.736 41.6127 23.607 41.3365 23.3586C41.1387 23.206 40.9207 23.0815 40.6888 22.9886V27.0943C40.9115 27.1766 41.1339 27.2574 41.3525 27.3347C42.4766 27.6936 43.4317 28.4494 44.0393 29.4609C44.647 30.4724 44.8658 31.6705 44.6548 32.8315C44.4764 33.8617 44.0089 34.82 43.3067 35.5947C42.6045 36.3693 41.6966 36.9285 40.6887 37.2068V38.1196C40.6887 38.4926 40.5406 38.8503 40.2769 39.114C40.0131 39.3777 39.6555 39.5259 39.2825 39.5259C38.9095 39.5259 38.5518 39.3777 38.2881 39.114C38.0244 38.8503 37.8763 38.4926 37.8763 38.1196Z" fill="#28FFC7"/>
</g>
<path id="Vector_4" d="M55.3125 4.83838H31.4062V2.49463C31.4062 2.12167 31.2581 1.76398 30.9944 1.50026C30.7306 1.23654 30.373 1.08838 30 1.08838C29.627 1.08838 29.2694 1.23654 29.0056 1.50026C28.7419 1.76398 28.5938 2.12167 28.5938 2.49463V4.83838H4.6875C3.56899 4.8396 2.49664 5.28446 1.70574 6.07537C0.914834 6.86627 0.469968 7.93862 0.46875 9.05713V48.4321C0.469968 49.5506 0.914834 50.623 1.70574 51.4139C2.49664 52.2048 3.56899 52.6497 4.6875 52.6509H16.4745L13.7421 58.1157C13.6591 58.2809 13.6095 58.4609 13.5962 58.6453C13.5829 58.8297 13.606 59.0149 13.6644 59.1903C13.7227 59.3658 13.815 59.528 13.9361 59.6677C14.0572 59.8075 14.2046 59.9219 14.37 60.0046C14.5354 60.0873 14.7154 60.1366 14.8998 60.1496C15.0843 60.1626 15.2695 60.1392 15.4448 60.0806C15.6202 60.022 15.7822 59.9293 15.9218 59.808C16.0613 59.6867 16.1755 59.5391 16.2579 59.3736L19.6193 52.6509H28.5938V58.7446C28.5938 59.1176 28.7419 59.4753 29.0056 59.739C29.2694 60.0027 29.627 60.1509 30 60.1509C30.373 60.1509 30.7306 60.0027 30.9944 59.739C31.2581 59.4753 31.4062 59.1176 31.4062 58.7446V52.6509H40.3807L43.7421 59.3736C43.9092 59.7066 44.2017 59.9596 44.5553 60.0772C44.9089 60.1947 45.2947 60.1672 45.6279 60.0005C45.9612 59.8339 46.2147 59.5418 46.3329 59.1884C46.451 58.835 46.424 58.4492 46.2579 58.1157L43.5255 52.6509H55.3125C56.431 52.6497 57.5034 52.2048 58.2943 51.4139C59.0852 50.623 59.53 49.5506 59.5312 48.4321V9.05713C59.53 7.93862 59.0852 6.86627 58.2943 6.07537C57.5034 5.28446 56.431 4.8396 55.3125 4.83838ZM56.7188 48.4321C56.7183 48.805 56.5701 49.1624 56.3064 49.426C56.0428 49.6897 55.6853 49.838 55.3125 49.8384H4.6875C4.31466 49.838 3.95722 49.6897 3.69358 49.426C3.42995 49.1624 3.28166 48.805 3.28125 48.4321V9.05713C3.28166 8.68429 3.42995 8.32684 3.69358 8.06321C3.95722 7.79957 4.31466 7.65129 4.6875 7.65088H55.3125C55.6853 7.65129 56.0428 7.79957 56.3064 8.06321C56.5701 8.32684 56.7183 8.68429 56.7188 9.05713V48.4321Z" fill="white"/>
<path id="Vector_5" d="M7.44323 19.4262C7.57378 19.5569 7.72878 19.6605 7.89938 19.7312C8.06998 19.8018 8.25283 19.8382 8.4375 19.8382C8.62216 19.8382 8.80502 19.8018 8.97562 19.7312C9.14622 19.6605 9.30122 19.5569 9.43176 19.4262L11.25 17.608L13.0682 19.4262C13.3319 19.6899 13.6896 19.8381 14.0625 19.8381C14.4354 19.8381 14.7931 19.6899 15.0568 19.4262C15.3205 19.1626 15.4686 18.8049 15.4686 18.432C15.4686 18.0591 15.3205 17.7014 15.0568 17.4377L13.2385 15.6195L15.0568 13.8012C15.1873 13.6707 15.2909 13.5157 15.3616 13.3451C15.4322 13.1745 15.4686 12.9916 15.4686 12.807C15.4686 12.6223 15.4322 12.4395 15.3616 12.2689C15.2909 12.0983 15.1873 11.9433 15.0568 11.8127C14.9262 11.6821 14.7712 11.5786 14.6006 11.5079C14.43 11.4372 14.2472 11.4009 14.0625 11.4009C13.8778 11.4009 13.695 11.4372 13.5244 11.5079C13.3538 11.5786 13.1988 11.6821 13.0682 11.8127L11.25 13.631L9.43176 11.8127C9.16807 11.549 8.81042 11.4009 8.4375 11.4009C8.06458 11.4009 7.70693 11.549 7.44323 11.8127C7.17954 12.0764 7.0314 12.4341 7.0314 12.807C7.0314 13.1799 7.17954 13.5376 7.44323 13.8012L9.26148 15.6195L7.44323 17.4377C7.31262 17.5683 7.20901 17.7233 7.13832 17.8939C7.06763 18.0645 7.03125 18.2473 7.03125 18.432C7.03125 18.6166 7.06763 18.7995 7.13832 18.9701C7.20901 19.1407 7.31262 19.2957 7.44323 19.4262Z" fill="#28FFC7"/>
<path id="Vector_6" d="M11.25 36.7134C10.2302 36.7134 9.23328 37.0158 8.38534 37.5824C7.5374 38.1489 6.87651 38.9542 6.48625 39.8964C6.09598 40.8386 5.99387 41.8753 6.19283 42.8756C6.39178 43.8758 6.88287 44.7945 7.60398 45.5156C8.3251 46.2368 9.24385 46.7278 10.2441 46.9268C11.2443 47.1258 12.281 47.0236 13.2232 46.6334C14.1654 46.2431 14.9707 45.5822 15.5373 44.7343C16.1038 43.8863 16.4063 42.8894 16.4063 41.8696C16.4046 40.5026 15.8609 39.192 14.8942 38.2254C13.9276 37.2588 12.617 36.715 11.25 36.7134ZM11.25 44.2134C10.7865 44.2134 10.3333 44.0759 9.94788 43.8184C9.56246 43.5609 9.26205 43.1948 9.08466 42.7665C8.90727 42.3383 8.86085 41.867 8.95129 41.4124C9.04172 40.9577 9.26494 40.5401 9.59272 40.2123C9.9205 39.8846 10.3381 39.6613 10.7928 39.5709C11.2474 39.4805 11.7187 39.5269 12.1469 39.7043C12.5752 39.8817 12.9412 40.1821 13.1988 40.5675C13.4563 40.9529 13.5938 41.4061 13.5938 41.8696C13.5931 42.491 13.346 43.0868 12.9066 43.5262C12.4672 43.9656 11.8714 44.2127 11.25 44.2134Z" fill="white"/>
<path id="Vector_7" d="M21.5625 21.7134C18.4556 21.7169 15.4769 22.9526 13.28 25.1496C11.083 27.3465 9.84724 30.3252 9.84375 33.4321C9.84375 33.8051 9.99191 34.1628 10.2556 34.4265C10.5194 34.6902 10.877 34.8384 11.25 34.8384C11.623 34.8384 11.9806 34.6902 12.2444 34.4265C12.5081 34.1628 12.6562 33.8051 12.6562 33.4321C12.6589 31.0709 13.5981 28.8071 15.2678 27.1374C16.9375 25.4678 19.2012 24.5286 21.5625 24.5259C21.9355 24.5259 22.2931 24.3777 22.5569 24.114C22.8206 23.8503 22.9688 23.4926 22.9688 23.1196C22.9688 22.7467 22.8206 22.389 22.5569 22.1253C22.2931 21.8615 21.9355 21.7134 21.5625 21.7134Z" fill="white"/>
</g>
</g>
<defs>
<clipPath id="clip0_78_747">
<rect width="60" height="60" fill="white" transform="translate(0 0.619629)"/>
</clipPath>
</defs>
</svg>
