<svg width="90" height="30" viewBox="0 0 90 30" fill="none" xmlns="http://www.w3.org/2000/svg">
<path d="M84.5929 30.0002C87.5542 30.0002 89.9548 27.5996 89.9548 24.6383C89.9548 21.677 87.5542 19.2764 84.5929 19.2764C81.6316 19.2764 79.231 21.677 79.231 24.6383C79.231 27.5996 81.6316 30.0002 84.5929 30.0002Z" fill="#FF2626"/>
<path d="M0.163574 29.9994H7.10991L15.0104 9.15958L22.9117 29.9994H29.858L18.484 0.000976562H11.54L0.163574 29.9994Z" fill="#FF2626"/>
<path d="M73.2989 30H79.7942V0.00240135H73.2989V30Z" fill="#FF2626"/>
<path d="M71.8911 0.00341797V6.49706H64.3393V29.9994H57.8433V6.49706H50.2915V0.00341797H71.8911Z" fill="#FF2626"/>
<path d="M36.2676 11.7524V18.2476H42.3886C42.3886 21.1509 40.0347 23.5048 37.1314 23.5048H37.1114C34.2081 23.5048 31.8543 21.1509 31.8543 18.2476V11.7524C31.8543 8.84908 34.2081 6.49524 37.1114 6.49524H48.8838V0H37.0139C30.577 0 25.3599 5.21795 25.3599 11.6548V18.3436C25.3599 24.7805 30.5778 29.9984 37.0147 29.9984H37.2298C39.083 29.9984 40.8338 29.5641 42.3894 28.7947V29.9984H48.8846V11.7516H36.2684L36.2676 11.7524Z" fill="#FF2626"/>
</svg>
