<svg width="88" height="30" viewBox="0 0 88 30" fill="none" xmlns="http://www.w3.org/2000/svg">
<path d="M43.1629 15L51.8518 30H44.3474L39.4103 21.4772L34.4707 30H26.9663L35.6553 15L26.9663 0H34.4707L39.4103 8.52362L44.3474 0H51.8518L43.1629 15Z" fill="#A16DFF"/>
<path d="M82.533 30.0001C85.4944 30.0001 87.8951 27.5994 87.8951 24.638C87.8951 21.6766 85.4944 19.2759 82.533 19.2759C79.5716 19.2759 77.1709 21.6766 77.1709 24.638C77.1709 27.5994 79.5716 30.0001 82.533 30.0001Z" fill="#A16DFF"/>
<path d="M29.8592 30H22.9124L15.011 9.15943L7.11043 30H0.163574L11.538 0H18.4816L29.8592 30Z" fill="#A16DFF"/>
<path d="M50.7781 30H57.2737L57.2737 0.00160027H50.7781V30Z" fill="#A16DFF"/>
<path d="M63.77 8.62448C63.77 9.50312 64.3108 10.2915 65.1303 10.607L71.2401 12.9618L72.217 13.3388C75.5414 14.6216 77.734 17.8175 77.734 21.3808C77.734 26.1414 73.8752 30.0002 69.1146 30.0002H57.2737V23.5039H69.1154C70.2888 23.5039 71.2401 22.5525 71.2401 21.3792C71.2401 20.5005 70.6993 19.7121 69.8798 19.3966L63.77 17.0419L62.7884 16.6625C59.4655 15.3796 57.2737 12.1846 57.2737 8.62209C57.2737 3.86225 61.1325 0.00341797 65.8924 0.00341797H77.734V6.49977H65.8947C64.7214 6.49977 63.77 7.4511 63.77 8.62448Z" fill="#A16DFF"/>
</svg>
