<svg width="92" height="30" viewBox="0 0 92 30" fill="none" xmlns="http://www.w3.org/2000/svg">
<path d="M20.8998 0.00195312V6.49893H6.65736V15.0024H17.914V21.4953H6.65736V29.9988H0.163574V0.00195312H20.8998Z" fill="#ACA100"/>
<path d="M86.0924 30.0003C89.0538 30.0003 91.4544 27.5997 91.4544 24.6383C91.4544 21.677 89.0538 19.2764 86.0924 19.2764C83.1311 19.2764 80.7305 21.677 80.7305 24.6383C80.7305 27.5997 83.1311 30.0003 86.0924 30.0003Z" fill="#ACA100"/>
<path d="M22.3071 30H28.8025L28.8025 0.00159836H22.3071L22.3071 30Z" fill="#ACA100"/>
<path d="M53.0669 29.9992H60.0136L67.9147 9.15919L75.8159 29.9992H82.7626L71.3885 0H64.4442L53.0669 29.9992Z" fill="#ACA100"/>
<path d="M49.3966 0.000798914V22.5757L40.8372 0L30.21 0.000798914V29.9992H36.7053V7.42352L45.2647 29.9992H55.892V0.000798914H49.3966Z" fill="#ACA100"/>
</svg>
