<svg width="150" height="30" viewBox="0 0 150 30" fill="none" xmlns="http://www.w3.org/2000/svg">
<path d="M128.669 0.000976562V30.0002H135.166V18.8198L143.34 23.3717V30.0002H149.837V0.000976562H143.34V15.7292L142.169 15.0006L135.166 11.1781V0.000976562H128.669Z" fill="#0066FF"/>
<path d="M105.209 30.0002H112.156L117.842 15.0006L120.058 9.15969L122.272 15.0006L127.958 30.0002H134.905L129.216 15.0006L123.531 0.000976562H116.587L110.898 15.0006L105.209 30.0002Z" fill="#0066FF"/>
<path d="M6.65973 0H0.163574V29.9992H6.65973V0Z" fill="#0066FF"/>
<path d="M21.3301 0H14.834V29.9992H21.3301V0Z" fill="#0066FF"/>
<path d="M29.9436 9.15872L27.7283 14.9996L26.4727 18.315L22.0428 29.9992H15.0955L20.7841 14.9996L22.9994 9.15872V9.15633L26.4703 0L29.9436 9.15872Z" fill="#0066FF"/>
<path d="M99.724 30.0002H92.7775L87.092 15.0006L84.8767 9.15969L82.6614 15.0006L76.9759 30.0002H70.0286L75.7172 15.0006L81.4034 0.000976562H88.3468L94.0354 15.0006L99.724 30.0002Z" fill="#0066FF"/>
<path d="M58.4813 0L52.7958 14.9996L51.6192 18.0982L48.1459 27.2601L47.1072 29.9992H40.1606L41.1994 27.2601L44.6726 18.1014V18.0982L48.1459 8.9395L51.5347 0H58.4813Z" fill="#0066FF"/>
<path d="M101.846 23.504V0.000976562H95.3501V23.504V30.0002H110.725L110.926 23.504H101.846Z" fill="#0066FF"/>
<g style="mix-blend-mode:multiply" opacity="0.3">
<path d="M6.65973 8.08691V15.7286L0.163574 19.3454V11.6335L6.65973 8.08691Z" fill="#1D1D1B"/>
</g>
<g style="mix-blend-mode:multiply" opacity="0.3">
<path d="M143.34 8.08691V15.7286L149.837 19.3454V11.6335L143.34 8.08691Z" fill="#1D1D1B"/>
</g>
<g style="mix-blend-mode:multiply" opacity="0.3">
<path d="M29.9437 9.15872L27.7283 14.9996L26.4728 18.315L25.2149 14.9996L22.9995 9.15872V9.15633L26.4704 0L29.9437 9.15872Z" fill="#1D1D1B"/>
</g>
<g style="mix-blend-mode:multiply" opacity="0.3">
<path d="M84.8768 9.15969L82.6614 15.0006L81.4059 18.316L80.148 15.0006L77.9326 9.15969V9.1573L81.4035 0.000976562L84.8768 9.15969Z" fill="#1D1D1B"/>
</g>
<g style="mix-blend-mode:multiply" opacity="0.3">
<path d="M120.059 9.15969L117.845 15.0006L116.589 18.316L115.33 15.0006L113.116 9.15969V9.1573L116.586 0.000976562L120.059 9.15969Z" fill="#1D1D1B"/>
</g>
<g style="mix-blend-mode:multiply" opacity="0.3">
<path d="M55.0086 9.15969L52.7933 15.0006L51.5377 18.316L50.2798 15.0006L48.0645 9.15969V9.1573L51.5345 0.000976562L55.0086 9.15969Z" fill="#1D1D1B"/>
</g>
<path d="M14.8339 11.1777V18.8194L6.65967 23.3705V15.7288L7.83071 15.0002L14.8339 11.1777Z" fill="#0066FF"/>
<path d="M44.7908 29.9992H37.8443L32.158 14.9996L29.9435 9.15872L26.4702 0H33.4136L39.1022 14.9996L44.7908 29.9992Z" fill="#0066FF"/>
<path d="M48.1462 8.93949L44.6729 18.0982L43.4987 14.9996L37.8101 0H44.7542L48.1462 8.93949Z" fill="#0066FF"/>
<path d="M76.9758 0.0599666L69.1619 9.39406L71.2896 15.0006L76.9758 29.997V30.0002H70.0285L64.3829 15.105L64.4698 15.0006H64.343L64.3829 15.105L60.2137 20.0865V30.0002H53.7207V0.000976562H60.2137V9.96484L61.7427 8.14091L66.5217 2.42996L68.5537 0.000976562H76.9758V0.0599666Z" fill="#0066FF"/>
</svg>
