<svg width="251" height="253" viewBox="0 0 251 253" fill="none" xmlns="http://www.w3.org/2000/svg">
<line x1="125.5" y1="40" x2="125.5" y2="63" stroke="white"/>
<line x1="147.715" y1="48.2863" x2="137.41" y2="63.0444" stroke="white"/>
<line x1="158.813" y1="63.4323" x2="143.251" y2="72.4785" stroke="white"/>
<line x1="106.814" y1="73.1608" x2="92.1664" y2="62.6989" stroke="white"/>
<line x1="103.433" y1="48.75" x2="112.433" y2="64.3385" stroke="white"/>
<path d="M162.495 175.109H159.724V134.549L160.289 134.132C175.347 122.989 184.336 105.1 184.336 86.2825C184.336 53.5728 157.935 26.9586 125.481 26.9586C93.028 26.9586 66.6265 53.5728 66.6265 86.2825C66.6265 105.103 75.616 122.989 90.6737 134.132L91.2384 134.549V175.109H88.4681V135.959C73.0433 124.265 63.8562 105.749 63.8562 86.2825C63.8562 52.0314 91.5011 24.1663 125.481 24.1663C159.462 24.1663 187.106 52.0314 187.106 86.2825C187.106 105.752 177.919 124.265 162.495 135.959V175.109Z" fill="#FBFCFE" fill-opacity="0.32"/>
<path d="M125.481 115.591C109.448 115.591 96.4026 102.442 96.4026 86.2803H99.1729C99.1729 100.903 110.975 112.798 125.481 112.798C139.988 112.798 151.788 100.903 151.788 86.2803H154.558C154.558 102.442 141.513 115.591 125.479 115.591" fill="#F9A644"/>
<path d="M125.481 58C109.448 58 96.4026 71.149 96.4026 87.3105H99.1729C99.1729 72.6881 110.975 60.7924 125.481 60.7924C139.988 60.7924 151.788 72.6881 151.788 87.3105H154.558C154.558 71.149 141.513 58 125.479 58" fill="#F9A644"/>
<path d="M159.125 201.878H91.8357V204.67H159.125V201.878Z" fill="#FBFCFE" fill-opacity="0.32"/>
<path d="M125.481 228.78C109.736 228.78 95.6868 218.714 90.5297 203.733C89.1632 199.807 88.4683 195.679 88.4683 191.472V175.109H91.2386V191.472C91.2386 195.363 91.88 199.179 93.1443 202.812C97.9203 216.676 110.914 225.988 125.481 225.988C140.049 225.988 153.043 216.676 157.819 202.817C159.083 199.177 159.724 195.363 159.724 191.472V175.109H162.495V191.472C162.495 195.677 161.8 199.805 160.433 203.735C155.274 218.714 141.227 228.78 125.481 228.78Z" fill="#FBFCFE" fill-opacity="0.32"/>
<path d="M161.109 173.713H89.8533V176.505H161.109V173.713Z" fill="#FBFCFE" fill-opacity="0.32"/>
<path d="M161.109 187.796H89.8533V190.589H161.109V187.796Z" fill="#FBFCFE" fill-opacity="0.32"/>
<path d="M126.866 114.194H124.096V175.109H126.866V114.194Z" fill="#F9A644"/>
<circle cx="125.5" cy="86.5" r="26.5" fill="#F9A644"/>
<circle cx="125" cy="87" r="12" fill="#FBFCFE"/>
</svg>
