<svg width="251" height="253" viewBox="0 0 251 253" fill="none" xmlns="http://www.w3.org/2000/svg">
<path d="M162.495 175.109H159.724V134.549L160.289 134.132C175.347 122.988 184.336 105.1 184.336 86.2822C184.336 53.5726 157.935 26.9584 125.481 26.9584C93.028 26.9584 66.6265 53.5726 66.6265 86.2822C66.6265 105.103 75.616 122.988 90.6737 134.132L91.2384 134.549V175.109H88.4681V135.959C73.0433 124.265 63.8562 105.749 63.8562 86.2822C63.8562 52.0312 91.5011 24.166 125.481 24.166C159.462 24.166 187.106 52.0312 187.106 86.2822C187.106 105.751 177.919 124.265 162.495 135.959V175.109Z" fill="#FBFCFE" fill-opacity="0.32"/>
<path d="M125.481 115.591C109.448 115.591 96.4026 102.442 96.4026 86.2803H99.1729C99.1729 100.903 110.975 112.798 125.481 112.798C139.988 112.798 151.788 100.903 151.788 86.2803H154.558C154.558 102.442 141.513 115.591 125.479 115.591" fill="#CDCFFD"/>
<path d="M159.125 201.877H91.8357V204.67H159.125V201.877Z" fill="#FBFCFE" fill-opacity="0.32"/>
<path d="M125.481 228.78C109.736 228.78 95.6868 218.714 90.5297 203.733C89.1632 199.807 88.4683 195.679 88.4683 191.472V175.109H91.2386V191.472C91.2386 195.363 91.88 199.179 93.1443 202.812C97.9203 216.676 110.914 225.988 125.481 225.988C140.049 225.988 153.043 216.676 157.819 202.817C159.083 199.177 159.724 195.363 159.724 191.472V175.109H162.495V191.472C162.495 195.677 161.8 199.805 160.433 203.735C155.274 218.714 141.227 228.78 125.481 228.78Z" fill="#FBFCFE" fill-opacity="0.32"/>
<path d="M161.109 173.712H89.8533V176.505H161.109V173.712Z" fill="#FBFCFE" fill-opacity="0.32"/>
<path d="M161.109 187.796H89.8533V190.589H161.109V187.796Z" fill="#FBFCFE" fill-opacity="0.32"/>
<path d="M126.866 114.194H124.096V175.109H126.866V114.194Z" fill="#CDCFFD"/>
</svg>
