<svg width="881" height="921" viewBox="0 0 881 921" fill="none" xmlns="http://www.w3.org/2000/svg">
<path fill-rule="evenodd" clip-rule="evenodd" d="M328.062 920.063L328.349 660.868L438.487 584.215L543.227 523.925L552.171 661.115L552.019 793.662L328.05 920.075L328.062 920.063ZM340.691 655.133L340.425 898.549L539.728 786.069L540.006 540.41L340.703 655.145L340.691 655.133ZM106.123 389.589L106.038 393.373L216.668 459.77L335.754 520.322L337.76 396.137L328.816 258.96L112.419 129.082L106.123 389.589ZM323.614 509.185L118.547 386.105L124.239 150.934L327.433 272.886L323.614 509.185ZM0 589.114L217.588 726.991L328.349 660.868L438.487 584.215L335.754 520.322L216.668 459.77L0 589.114ZM217.77 712.131L24.159 589.439L227.619 467.976L423.103 589.552L217.77 712.131ZM552.937 0L328.968 126.413L328.816 258.96L337.76 396.137L442.497 335.85L552.638 259.215L552.937 0ZM341.005 379.665L341.283 134.006L540.586 21.5136L540.308 264.93L341.005 379.665ZM881 330.962L663.412 193.084L552.638 259.215L442.497 335.85L545.234 399.745L664.336 460.303L881 330.962ZM457.885 330.511L457.895 330.517L663.218 207.944L856.829 330.636L653.369 452.1L457.895 330.517L457.885 330.523V330.511ZM552.171 661.115L768.556 790.993L768.568 790.981L774.865 530.474L774.949 526.69L664.336 460.303L545.234 399.745L543.227 523.925L552.171 661.115ZM756.76 769.141L553.566 647.189V647.176L557.385 410.877L762.453 533.957L756.76 769.141Z" fill="#1D1C1C" fill-opacity="0.5"/>
</svg>
