<svg width="251" height="253" viewBox="0 0 251 253" fill="none" xmlns="http://www.w3.org/2000/svg">
<g id="5">
<path id="Vector" d="M162.495 175.109H159.724V134.549L160.289 134.132C175.347 122.988 184.336 105.1 184.336 86.2824C184.336 53.5728 157.935 26.9586 125.481 26.9586C93.028 26.9586 66.6265 53.5728 66.6265 86.2824C66.6265 105.103 75.616 122.988 90.6737 134.132L91.2384 134.549V175.109H88.4681V135.959C73.0433 124.265 63.8562 105.749 63.8562 86.2824C63.8562 52.0313 91.5011 24.1662 125.481 24.1662C159.462 24.1662 187.106 52.0313 187.106 86.2824C187.106 105.752 177.919 124.265 162.495 135.959V175.109Z" fill="#FBFCFE" fill-opacity="0.32"/>
<path id="Vector_2" d="M125.481 115.591C109.448 115.591 96.4026 102.442 96.4026 86.28H99.1729C99.1729 100.902 110.975 112.798 125.481 112.798C139.988 112.798 151.788 100.902 151.788 86.28H154.558C154.558 102.442 141.513 115.591 125.479 115.591" fill="#CDCFFD"/>
<path id="Vector_3" d="M159.125 201.878H91.8357V204.67H159.125V201.878Z" fill="#FBFCFE" fill-opacity="0.32"/>
<path id="Vector_4" d="M125.481 228.78C109.736 228.78 95.6868 218.714 90.5297 203.733C89.1632 199.807 88.4683 195.679 88.4683 191.472V175.109H91.2386V191.472C91.2386 195.363 91.88 199.179 93.1443 202.812C97.9203 216.676 110.914 225.988 125.481 225.988C140.049 225.988 153.043 216.676 157.819 202.817C159.083 199.177 159.724 195.363 159.724 191.472V175.109H162.495V191.472C162.495 195.677 161.8 199.804 160.433 203.735C155.274 218.714 141.227 228.78 125.481 228.78Z" fill="#FBFCFE" fill-opacity="0.32"/>
<path id="Vector_5" d="M161.109 173.713H89.8533V176.505H161.109V173.713Z" fill="#FBFCFE" fill-opacity="0.32"/>
<path id="Vector_6" d="M161.109 187.796H89.8533V190.589H161.109V187.796Z" fill="#FBFCFE" fill-opacity="0.32"/>
<path id="Vector_7" d="M126.866 114.194H124.096V175.109H126.866V114.194Z" fill="#CDCFFD"/>
</g>
</svg>
