<svg width="507" height="888" viewBox="0 0 507 888" fill="none" xmlns="http://www.w3.org/2000/svg">
<path d="M-45.9382 887.442L-45.636 624.642L178.333 500.294L178.019 765.523L-45.9503 887.454L-45.9382 887.442ZM-33.3088 631.905L-33.5747 866.691L165.728 758.199L166.006 521.25L-33.2967 631.917L-33.3088 631.905Z" fill="#1D1C1C"/>
<path d="M-156.412 701.216L-374 568.227L-146.248 437.087L73.4312 568.867L-156.412 701.216ZM-349.841 568.541L-156.23 686.883L49.103 568.65L-146.381 451.384L-349.841 568.541Z" fill="#1D1C1C"/>
<path d="M-38.421 512.306L-267.962 379.426L-267.877 375.776L-261.581 124.505L-34.1306 256.177L-38.421 512.318V512.306ZM-255.453 372.416L-50.3857 491.132L-46.5667 263.211L-249.761 145.582L-255.453 372.428V372.416Z" fill="#1D1C1C"/>
<path d="M-45.3466 387.161L-45.0323 121.931L178.937 0L178.623 262.8L-45.3466 387.149V387.161ZM-32.7172 129.255L-32.9951 366.204L166.308 255.537L166.586 20.7509L-32.7172 129.255Z" fill="#1D1C1C"/>
<path d="M279.248 450.368L59.5688 318.587L289.412 186.238L507 319.228L279.248 450.368ZM83.8849 318.793L279.369 436.071L482.829 318.913L289.218 200.572L83.8849 318.805V318.793Z" fill="#1D1C1C"/>
<path d="M394.556 762.949L167.118 631.277L171.408 375.136L400.949 508.016L400.865 511.666L394.568 762.937L394.556 762.949ZM179.566 624.243L382.76 741.872L388.453 515.026L183.385 396.31L179.566 624.231V624.243Z" fill="#1D1C1C"/>
</svg>
