<svg width="818" height="561" viewBox="0 0 818 561" fill="none" xmlns="http://www.w3.org/2000/svg">
<path fill-rule="evenodd" clip-rule="evenodd" d="M43.8682 103.992C20.4652 103.992 1.49342 122.929 1.49342 146.29C1.49342 169.651 20.4652 188.589 43.8682 188.589H124.295C124.881 161.44 147.113 139.611 174.452 139.611H187.581C188.221 139.611 188.221 140.602 187.581 140.602H174.452C147.661 140.602 125.875 161.987 125.289 188.589H154.772C170.101 188.589 182.527 200.993 182.527 216.294C182.527 231.596 170.101 244 154.772 244H153.405C137.322 244 124.283 230.985 124.283 214.931V189.688C124.283 189.653 124.284 189.616 124.284 189.581H43.8682C19.9169 189.581 0.5 170.199 0.5 146.29C0.5 122.381 19.9169 103 43.8682 103H287.003C287.278 103 287.5 103.222 287.5 103.496C287.5 103.77 287.278 103.992 287.003 103.992H43.8682ZM125.277 189.581C125.277 189.616 125.277 189.653 125.277 189.688V214.931C125.277 230.438 137.87 243.008 153.405 243.008H154.772C169.552 243.008 181.534 231.048 181.534 216.294C181.534 201.541 169.552 189.581 154.772 189.581H125.277Z" fill="url(#paint0_linear_133_10294)"/>
<path fill-rule="evenodd" clip-rule="evenodd" d="M262 506C262 475.767 286.239 451.232 316.226 451.002C316.368 451.001 316.51 451 316.653 451H316.908C317.183 451 317.406 451.225 317.406 451.501C317.406 451.76 317.211 451.974 316.96 452C316.943 452.002 316.926 452.003 316.908 452.003H316.653C287.019 452.003 262.996 476.178 262.996 506C262.996 535.821 287.019 559.997 316.653 559.997H430.502C430.776 559.997 431 560.223 431 560.499C431 560.774 430.776 561 430.502 561H316.653C286.469 561 262 536.375 262 506Z" fill="url(#paint1_linear_133_10294)"/>
<path fill-rule="evenodd" clip-rule="evenodd" d="M627.288 475.153C627.288 457.481 641.55 443 659.141 443C676.738 443 691 457.329 691 475.005V510.502C691 538.391 668.497 561 640.739 561H430.498C430.222 561 430 560.775 430 560.5C430 560.225 430.222 560 430.498 560H640.739C667.945 560 690.005 537.838 690.005 510.502V475.005C690.005 457.881 676.185 444 659.141 444C642.102 444 628.283 458.027 628.283 475.153C628.283 492.99 613.892 507.606 596.131 507.606H459.57C459.297 507.606 459.073 507.382 459.073 507.106C459.073 506.83 459.297 506.606 459.57 506.606H596.131C613.339 506.606 627.288 492.445 627.288 475.153Z" fill="url(#paint2_linear_133_10294)"/>
<path fill-rule="evenodd" clip-rule="evenodd" d="M433.498 0C405.697 0 383.161 25.1072 383.161 56.0786V130.363C383.161 142.983 373.978 153.213 362.651 153.213C351.323 153.213 342.141 142.983 342.141 130.363V107.472C342.141 93.345 331.861 81.8921 319.18 81.8921C306.499 81.8921 296.219 93.345 296.219 107.472V111.334C296.219 126.981 284.833 139.665 270.789 139.665L187.581 139.611C188.22 139.611 188.221 140.602 187.581 140.602L270.789 140.775C285.384 140.775 297.216 127.594 297.216 111.334V107.472C297.216 93.958 307.049 83.0026 319.18 83.0026C331.31 83.0026 341.144 93.958 341.144 107.472V130.363C341.144 143.596 350.773 154.324 362.651 154.324C374.529 154.324 384.157 143.596 384.157 130.363V56.0786C384.157 25.7205 406.248 1.11047 433.498 1.11047H458.921C483.346 1.11047 503.277 22.5437 504.388 49.4488H480.237C466.805 49.4488 455.921 61.5789 455.921 76.5424C455.921 91.5127 467.029 103.637 480.456 103.637C494.121 103.637 505.435 91.2945 505.435 76.055V51.8185C505.435 51.3975 505.43 50.9778 505.42 50.5592H644.792C655.003 50.5592 663.281 59.7805 663.281 71.1556C663.281 82.5307 655.003 91.752 644.792 91.752H588.355C575.801 91.752 564.976 100.003 560.012 111.903H536.638C524.378 111.903 514.45 123.177 514.45 136.823C514.45 150.252 524.219 161.345 536.284 161.345C548.34 161.345 558.118 150.454 558.118 137.02V126.548C558.118 121.734 559.025 117.156 560.655 113.014H613.942C641.193 113.014 663.281 137.624 663.281 167.982V234.938H768.24C794.894 234.938 816.503 259.011 816.503 288.708C816.503 318.404 794.894 342.478 768.24 342.478H681.288C654.141 342.478 632.133 366.996 632.133 397.239C632.133 426.87 610.573 450.89 583.974 450.89H316.526C316.414 450.89 316.31 450.931 316.226 451.002C316.368 451.001 316.51 451 316.653 451H316.908C317.183 451 317.406 451.225 317.406 451.501C317.406 451.76 317.211 451.974 316.96 452H583.974C611.121 452 633.129 427.483 633.129 397.239C633.129 367.609 654.689 343.589 681.288 343.589H768.24C795.447 343.589 817.5 319.018 817.5 288.708C817.5 258.399 795.447 233.827 768.24 233.827H664.278V167.982C664.278 137.01 641.741 111.903 613.942 111.903H561.114C566.008 100.635 576.364 92.8625 588.355 92.8625H644.792C655.557 92.8625 664.278 83.1436 664.278 71.1556C664.278 59.1675 655.557 49.4488 644.792 49.4488H505.385C504.273 21.9302 483.895 0 458.921 0H433.498ZM480.237 50.5592H504.423C504.433 50.9777 504.438 51.3975 504.438 51.8185V76.055C504.438 90.6682 493.583 102.526 480.456 102.526C467.568 102.526 456.917 90.8864 456.917 76.5424C456.917 62.1924 467.358 50.5592 480.237 50.5592ZM536.638 113.014H559.569C557.994 117.174 557.122 121.747 557.122 126.548V137.02C557.122 149.841 547.792 160.234 536.284 160.234C524.782 160.234 515.447 149.65 515.447 136.823C515.447 123.778 524.941 113.014 536.638 113.014Z" fill="url(#paint3_linear_133_10294)"/>
<defs>
<linearGradient id="paint0_linear_133_10294" x1="548.382" y1="-71.8241" x2="458.393" y2="398.982" gradientUnits="userSpaceOnUse">
<stop offset="0.0020097" stop-color="#3BFFC2"/>
<stop offset="0.973958" stop-color="#176363"/>
</linearGradient>
<linearGradient id="paint1_linear_133_10294" x1="548.382" y1="-71.8241" x2="458.393" y2="398.982" gradientUnits="userSpaceOnUse">
<stop offset="0.0020097" stop-color="#3BFFC2"/>
<stop offset="0.973958" stop-color="#176363"/>
</linearGradient>
<linearGradient id="paint2_linear_133_10294" x1="548.382" y1="-71.8241" x2="458.393" y2="398.982" gradientUnits="userSpaceOnUse">
<stop offset="0.0020097" stop-color="#3BFFC2"/>
<stop offset="0.973958" stop-color="#176363"/>
</linearGradient>
<linearGradient id="paint3_linear_133_10294" x1="548.382" y1="-71.8241" x2="458.393" y2="398.982" gradientUnits="userSpaceOnUse">
<stop offset="0.0020097" stop-color="#3BFFC2"/>
<stop offset="0.973958" stop-color="#176363"/>
</linearGradient>
</defs>
</svg>
