<svg width="183" height="56" viewBox="0 0 183 56" fill="none" xmlns="http://www.w3.org/2000/svg">
<g id="Group">
<path id="Vector" d="M172.365 56C177.892 56 182.373 51.5194 182.373 45.9923C182.373 40.4653 177.892 35.9847 172.365 35.9847C166.838 35.9847 162.358 40.4653 162.358 45.9923C162.358 51.5194 166.838 56 172.365 56Z" fill="#00FFC2"/>
<path id="Vector_2" d="M165.942 0.112102L151.356 17.5338L165.942 55.9949V56H152.974L142.434 28.1962L142.597 28H142.363L142.434 28.1962L134.653 37.4955V56H122.531V7.62939e-06H134.653V18.6013L150.222 7.62939e-06H165.942V0.112102Z" fill="#00FFC2"/>
<path id="Vector_3" d="M39.5347 0.00763702L26.085 18.5962L12.6277 0.00763702H0.50029V56H12.6226V20.586H12.6302L26.0824 39.177H26.085L39.5398 20.6853V56H51.662V0.00763702H39.5347Z" fill="#00FFC2"/>
<path id="Vector_4" d="M111.614 39.2866C115.654 38.0841 119.165 35.6407 121.698 32.3974C122.747 31.0573 123.626 29.5822 124.309 28C125.359 25.5618 125.942 22.8764 125.942 20.056C125.942 17.2357 125.364 14.5605 124.314 12.1274C123.631 10.5401 122.747 9.05987 121.698 7.71975C118.031 3.02166 112.309 7.62939e-06 105.889 7.62939e-06H84.3779V56H96.5002V40.1274H96.5053L109.794 56H125.603L111.616 39.2866H111.614ZM105.876 28H96.4977V12.1274H105.876C110.263 12.1274 113.815 15.679 113.815 20.0662C113.815 24.4535 110.263 28 105.876 28Z" fill="#00FFC2"/>
<path id="Vector_5" d="M41.071 56H54.0366L68.7857 17.0981L83.5347 56H96.5028L75.2697 7.62939e-06H62.3067L41.071 56Z" fill="#00FFC2"/>
</g>
</svg>
